<svg width="173" height="35" viewBox="0 0 173 35" fill="none" xmlns="http://www.w3.org/2000/svg">
    <path
        d="M12.7861 0H32.8125V6.61683L29.7315 9.65904H16.3292L3.00396 22.9688H0V12.7013L2.90941 9.81115L0 7.10938V0H7.24032L10.0132 2.75449L12.7861 0Z"
        fill="#D0F500" />
    <path
        d="M20.2366 35H0.00587082L0 28.2742L3.08044 25.2522H16.4803L29.8032 12.0312H32.8066V22.2303L29.7548 25.3075L32.8125 27.8906V35H25.1576L22.7241 32.3969L20.2366 35Z"
        fill="#D0F500" />
    <path
        d="M56.5625 31.25V27.5H52.8125V23.75H60.3125V27.5H71.5625V20H56.5625V16.25H52.8125V8.75H56.5625V5H75.3125V8.75H79.0625V12.5H71.5625V8.75H60.3125V16.25H75.3125V20H79.0625V27.5H75.3125V31.25H56.5625ZM86.5625 31.25V27.5H82.8125V8.75H86.5625V5H105.313V8.75H109.063V27.5H105.313V31.25H86.5625ZM90.3125 27.5H101.562V8.75H90.3125V27.5ZM116.562 31.25V5H124.063V27.5H139.063V31.25H116.562ZM142.812 31.25V23.75H146.562V20H150.312V16.25H146.562V12.5H142.812V5H150.312V12.5H154.063V16.25H157.812V12.5H161.562V5H169.063V12.5H165.313V16.25H161.562V20H165.313V23.75H169.063V31.25H161.562V23.75H157.812V20H154.063V23.75H150.312V31.25H142.812Z"
        fill="black" />
</svg>
    