<svg width="51" height="50" viewBox="0 0 51 50" fill="none" xmlns="http://www.w3.org/2000/svg">
<path d="M17.25 9.16669C25.151 9.16669 31.7978 14.5308 33.7507 21.8156C34.3471 21.7179 34.9593 21.6667 35.5834 21.6667C41.7966 21.6667 46.8334 26.7035 46.8334 32.9167C46.8334 39.1299 41.7966 44.1667 35.5834 44.1667C32.1692 44.1667 29.1106 42.6454 27.0474 40.2442C24.2734 42.1898 20.8956 43.3334 17.25 43.3334C7.81516 43.3334 0.166687 35.6849 0.166687 26.25C0.166687 16.8152 7.81516 9.16669 17.25 9.16669Z" fill="#C4E703"/>
<path d="M17.6666 35.4166L26 43.75M26 43.75L34.3333 35.4166M26 43.75V25M44.5 37.6875C46.3112 36.4138 47.6695 34.5961 48.3777 32.4982C49.0858 30.4003 49.1071 28.1313 48.4383 26.0205C47.7695 23.9096 46.4455 22.0668 44.6585 20.7595C42.8714 19.4521 40.7142 18.7483 38.5 18.75H35.875C35.2484 16.3081 34.076 14.0401 32.4461 12.1168C30.8161 10.1936 28.7711 8.66511 26.465 7.64655C24.1589 6.628 21.6517 6.14587 19.1323 6.23648C16.6129 6.32708 14.1469 6.98805 11.9199 8.16962C9.69289 9.35119 7.76295 11.0226 6.27537 13.058C4.7878 15.0933 3.78134 17.4397 3.33178 19.9203C2.88221 22.4009 3.00125 24.9512 3.67994 27.3792C4.35863 29.8072 5.57927 32.0495 7.24998 33.9375" stroke="black" stroke-width="2" stroke-linecap="round" stroke-linejoin="round"/>
</svg>
