<svg width="1100" height="360" viewBox="0 0 1100 360" fill="none" xmlns="http://www.w3.org/2000/svg">
    <g clip-path="url(#clip0_18_1195)">
        <rect width="1100" height="360" rx="40" fill="#BA8FFF" />
        <path
            d="M782.143 150.375L813.185 122.986C798.728 104.315 764.119 63.5763 741.344 49.9922C736.266 46.9634 731.333 44.0992 726.635 41.5351C725.272 49.2524 722.524 71.2613 722.434 97.5584C722.32 130.43 718.609 176.938 709.275 203.072C699.941 229.207 675.256 248.087 650.893 254.332C634.944 258.42 612.091 260.01 589.821 255.643C578.074 253.34 566.488 249.379 556.165 243.253C543.177 235.547 538.454 225.728 537.657 216.938C532.132 193.873 530.452 174.684 543.626 139.615C552.532 115.91 562.934 91.7473 572.445 68.9638C577.003 58.0428 581.356 47.4388 585.241 37.3538C589.47 26.3775 590.708 13.5609 590.382 1.66949C583.969 -0.52374 567.572 -3.70045 553.288 1.13855C537.878 6.359 482.576 35.3221 459.486 56.4172C455.823 59.7642 452.97 62.9131 451.216 65.7377C440.971 82.2395 430.914 97.0122 434.658 124.355C461.204 157.523 493.91 204.347 486.983 221.987C477.475 246.2 468.32 259.806 463.841 265.472C458.242 272.555 415.173 289.884 404.964 293.599C403.469 294.142 402.198 295.001 401.096 296.114C397.739 299.503 395.943 305.245 394.113 311.608C392.441 317.424 390.742 323.759 387.8 329.288C385.177 334.217 381.509 337.821 377.387 340.665C366.606 348.102 352.715 350.34 346.261 357.494C339.501 364.986 334.17 379.066 333.966 387.472C335.853 390.94 337.929 394.48 340.17 398.161C350.712 415.48 371.453 446.522 380.507 459.877L354.13 445.84C347.089 433.86 339.619 419.822 334.571 405.244C332.622 399.616 328.02 380.413 327.148 372.936C322.675 361.189 320.929 349.181 323.012 334.144C323.573 330.091 324.786 326.455 326.48 323.183C334.468 307.745 353.128 300.416 364.302 295.743C365.698 295.16 366.976 294.618 368.103 294.107C377.641 289.778 377.247 276.158 386.271 265.356C388.658 262.499 391.702 259.839 395.764 257.6C410.551 249.448 451.236 244.468 473.212 233.868C473.732 228.962 472.907 215.777 465.447 202.293C457.986 188.809 435.906 137.479 425.798 113.5C400.869 70.9605 407.594 48.011 423.436 21.6806C432.809 6.10112 461.096 -12.4723 488.318 -27.0339C509.473 -38.35 529.985 -47.2433 540.479 -50.4258C559.678 -56.2481 577.834 -41.5485 584.513 -33.4709L624.988 22.8302C626.59 26.1222 630.167 35.1 631.657 44.675C635.539 69.61 613.818 121.169 590.801 145.511C584.272 152.416 577.823 159.087 571.819 165.299L571.045 166.099C557.084 180.544 545.643 192.416 541.399 198.805C549.143 206.274 557.435 210.631 565.956 212.822C585.374 217.816 605.976 211.56 623.963 205.239C653.219 194.956 695.902 174.916 700.292 144.32C704.682 113.725 681.592 55.6984 685.282 38.4519C686.272 33.822 688.719 31.2859 692.321 30.3816C710.344 22.8722 747.615 7.95672 752.518 8.37035C758.646 8.88737 782.79 19.8102 807.984 43.3771C839.742 73.085 872.604 116.187 872.996 129.203C873.309 139.615 843.552 155.308 829.181 161.686C822.577 171.344 795.071 158.169 782.143 150.375Z"
            fill="#A66CFF" />
        <path
            d="M813.185 122.986L782.143 150.375C795.071 158.169 822.577 171.344 829.181 161.686M813.185 122.986C821.269 131.862 835.784 152.027 829.181 161.686M813.185 122.986C798.728 104.315 764.119 63.5764 741.344 49.9922C736.266 46.9634 731.333 44.0992 726.635 41.5351M829.181 161.686C843.552 155.308 873.309 139.615 872.996 129.203C872.604 116.187 839.742 73.085 807.984 43.3771C782.79 19.8102 758.646 8.88738 752.518 8.37034C747.615 7.95672 710.344 22.8722 692.321 30.3816M541.399 198.805C539.095 202.873 536.986 209.541 537.657 216.938M541.399 198.805C545.643 192.416 557.084 180.544 571.045 166.099M541.399 198.805C549.143 206.274 557.435 210.631 565.956 212.822M692.321 30.3816C688.719 31.2859 686.272 33.822 685.282 38.4519C681.592 55.6984 704.682 113.725 700.292 144.32C695.902 174.915 653.219 194.956 623.963 205.239C605.976 211.56 585.374 217.816 565.956 212.822M692.321 30.3816C699.742 28.5181 712.063 33.5834 726.635 41.5351M726.635 41.5351C725.272 49.2524 722.524 71.2613 722.434 97.5584C722.32 130.43 718.609 176.938 709.275 203.072C699.941 229.207 675.256 248.087 650.893 254.332C634.944 258.42 612.091 260.01 589.821 255.643M584.513 -33.4709L624.988 22.8302C626.59 26.1222 630.167 35.1 631.657 44.675C635.539 69.61 613.818 121.169 590.801 145.511C583.991 152.713 577.268 159.662 571.045 166.099M584.513 -33.4709C577.834 -41.5485 559.678 -56.2481 540.479 -50.4258C529.985 -47.2433 509.473 -38.35 488.318 -27.0339M584.513 -33.4709C587.042 -27.0097 589.97 -13.4146 590.382 1.66949M537.657 216.938C538.454 225.728 543.177 235.547 556.165 243.253C566.488 249.379 578.074 253.34 589.821 255.643M537.657 216.938C532.132 193.873 530.452 174.684 543.626 139.615C552.532 115.91 562.934 91.7473 572.445 68.9638M425.798 113.5C400.869 70.9605 407.594 48.011 423.436 21.6806C432.809 6.10111 461.096 -12.4723 488.318 -27.0339M425.798 113.5C435.906 137.479 457.986 188.809 465.447 202.293C472.907 215.777 473.732 228.962 473.212 233.868M425.798 113.5C428.031 117.309 431.599 120.533 434.658 124.355M486.983 221.987C477.475 246.2 468.32 259.806 463.841 265.472C458.242 272.555 415.173 289.884 404.964 293.599C403.469 294.142 402.198 295.001 401.096 296.114M486.983 221.987C485.141 226.679 480.094 230.549 473.212 233.868M486.983 221.987C493.91 204.347 461.204 157.523 434.658 124.355M395.764 257.6C410.551 249.448 451.236 244.468 473.212 233.868M395.764 257.6L401.096 296.114M395.764 257.6C391.702 259.839 388.658 262.499 386.271 265.356M327.148 372.936C322.675 361.189 320.929 349.181 323.012 334.144C323.573 330.091 324.786 326.455 326.48 323.183M327.148 372.936C328.02 380.413 332.622 399.616 334.571 405.244C339.619 419.822 347.089 433.86 354.13 445.84L380.507 459.877C371.453 446.522 350.712 415.48 340.17 398.161C337.929 394.48 335.853 390.94 333.966 387.472M327.148 372.936C328.986 377.761 331.284 382.543 333.966 387.472M333.966 387.472C334.17 379.066 339.501 364.986 346.261 357.494M346.261 357.494C352.715 350.34 366.606 348.103 377.387 340.665M346.261 357.494L326.48 323.183M590.382 1.66949C590.708 13.5609 589.47 26.3775 585.241 37.3538C581.356 47.4388 577.003 58.0428 572.445 68.9638M590.382 1.66949C583.969 -0.523738 567.572 -3.70045 553.288 1.13854C537.878 6.35901 482.576 35.322 459.486 56.4172M434.658 124.355C430.914 97.0122 440.971 82.2395 451.216 65.7377C452.97 62.9131 455.823 59.7642 459.486 56.4172M488.318 -27.0339C473.902 0.0551093 458.596 31.2446 459.486 56.4172M572.445 68.9638C580.405 99.7284 579.05 124.621 571.045 166.099M565.956 212.822C567.317 230.893 574.308 240.102 589.821 255.643M401.096 296.114C397.739 299.503 395.943 305.246 394.113 311.608M386.271 265.356C377.247 276.158 377.641 289.778 368.103 294.107C366.976 294.618 365.698 295.16 364.302 295.743M386.271 265.356L394.113 311.608M394.113 311.608C392.441 317.424 390.742 323.759 387.8 329.288C385.177 334.217 381.509 337.821 377.387 340.665M364.302 295.743L377.387 340.665M364.302 295.743C353.128 300.416 334.468 307.745 326.48 323.183"
            stroke="black" />
        <path
            d="M631.657 44.675C635.539 69.61 613.818 121.169 590.801 145.511C584.272 152.416 577.823 159.087 571.819 165.299L571.045 166.099C557.084 180.544 545.643 192.416 541.399 198.805C549.142 206.274 557.435 210.631 565.956 212.822C567.317 230.893 574.308 240.102 589.821 255.643C578.073 253.34 566.488 249.379 556.165 243.253C543.177 235.547 538.454 225.728 537.657 216.938C536.986 209.541 539.095 202.873 541.399 198.805C545.643 192.416 557.084 180.544 571.045 166.099C579.049 124.621 580.405 99.7283 572.444 68.9638C577.003 58.0428 581.356 47.4387 585.241 37.3538C589.47 26.3775 590.708 13.5608 590.382 1.66947C589.97 -13.4146 587.042 -27.0097 584.513 -33.4709L624.987 22.8302C626.59 26.1222 630.167 35.1 631.657 44.675Z"
            fill="#BA8FFF" />
        <path
            d="M425.798 113.5C400.869 70.9605 407.594 48.011 423.436 21.6806C432.809 6.10108 461.096 -12.4724 488.318 -27.034C473.902 0.0550778 458.596 31.2446 459.486 56.4171C455.823 59.7641 452.97 62.913 451.216 65.7376C440.971 82.2395 430.914 97.0121 434.658 124.355C461.203 157.523 493.91 204.347 486.983 221.987C477.475 246.2 468.32 259.806 463.841 265.472C458.242 272.555 415.173 289.884 404.964 293.599C403.469 294.142 402.198 295.001 401.096 296.114L395.763 257.6C410.551 249.448 451.236 244.468 473.212 233.868C480.093 230.549 485.141 226.679 486.983 221.987C493.91 204.347 461.203 157.523 434.658 124.355C431.599 120.533 428.03 117.309 425.798 113.5Z"
            fill="#BA8FFF" />
        <path
            d="M327.148 372.936C322.675 361.189 320.929 349.181 323.011 334.144C323.573 330.091 324.786 326.455 326.48 323.183C334.468 307.745 353.128 300.416 364.302 295.743C365.698 295.16 366.976 294.618 368.102 294.107C377.641 289.778 377.247 276.158 386.271 265.355L394.113 311.608C392.441 317.424 390.742 323.759 387.8 329.288C385.177 334.217 381.509 337.821 377.387 340.665L364.302 295.743C353.128 300.416 334.468 307.745 326.48 323.183L346.261 357.494C339.501 364.986 334.17 379.066 333.966 387.472C331.284 382.543 328.986 377.761 327.148 372.936Z"
            fill="#BA8FFF" />
        <path
            d="M541.399 198.805C539.095 202.873 536.986 209.541 537.657 216.938C538.454 225.728 543.177 235.547 556.165 243.253C566.488 249.379 578.073 253.34 589.821 255.643C574.308 240.102 567.317 230.893 565.956 212.822C557.435 210.631 549.143 206.274 541.399 198.805ZM541.399 198.805C545.643 192.416 557.084 180.544 571.045 166.099M486.983 221.987C477.475 246.2 468.32 259.806 463.841 265.472C458.242 272.555 415.173 289.884 404.964 293.599C403.469 294.142 402.198 295.001 401.096 296.114L395.763 257.6C410.551 249.448 451.236 244.468 473.212 233.868C480.093 230.549 485.141 226.679 486.983 221.987ZM486.983 221.987C493.91 204.347 461.203 157.523 434.658 124.355M340.17 398.161C337.929 394.48 335.853 390.94 333.966 387.472M334.571 405.244C332.622 399.616 328.02 380.413 327.148 372.936M327.148 372.936C322.675 361.189 320.929 349.181 323.011 334.144C323.573 330.091 324.786 326.455 326.48 323.183M327.148 372.936C328.986 377.761 331.284 382.543 333.966 387.472M333.966 387.472C334.17 379.066 339.501 364.986 346.261 357.494L326.48 323.183M434.658 124.355C431.599 120.533 428.03 117.309 425.798 113.5C400.869 70.9604 407.594 48.011 423.436 21.6806C432.809 6.10108 461.096 -12.4724 488.318 -27.034C473.902 0.0550803 458.596 31.2446 459.486 56.4171C455.823 59.7641 452.97 62.913 451.216 65.7376C440.971 82.2395 430.914 97.0121 434.658 124.355ZM571.045 166.099C577.268 159.662 583.991 152.713 590.801 145.511C613.818 121.169 635.539 69.61 631.657 44.675C630.167 35.1 626.59 26.1222 624.987 22.8302L584.513 -33.4709C587.042 -27.0097 589.97 -13.4146 590.382 1.66947C590.708 13.5608 589.47 26.3775 585.241 37.3538C581.356 47.4388 577.003 58.0428 572.444 68.9638C580.405 99.7284 579.049 124.621 571.045 166.099ZM364.302 295.743C365.698 295.16 366.976 294.618 368.102 294.107C377.641 289.778 377.247 276.158 386.271 265.355L394.113 311.608C392.441 317.424 390.742 323.759 387.8 329.288C385.176 334.217 381.509 337.821 377.387 340.665L364.302 295.743ZM364.302 295.743C353.128 300.416 334.468 307.745 326.48 323.183"
            stroke="black" />
        <path d="M1090 58C1077 36 1066.5 23 1042 10H1052C1072.99 10 1090 27.0132 1090 48V58Z"
            fill="white" />
        <path
            d="M707.062 110.838L865.49 20.0001L1022.2 110.838L1042 202.537L1022.57 191.344L1023.06 294.236L865.49 385.505L705.34 294.236V137.633L630 94.0482L707.062 110.838Z"
            fill="white" />
        <path
            d="M707.062 110.838L865.49 20.0001M707.062 110.838L865.49 202.107M707.062 110.838L630 94.0482L705.34 137.633M865.49 20.0001L1022.2 110.838M865.49 20.0001V202.107M1022.2 110.838L865.49 202.107M1022.2 110.838L1022.57 191.344M1022.2 110.838L1042 202.537L1022.57 191.344M865.49 202.107V385.505M865.49 202.107L786.276 184.456L705.34 137.633M865.49 385.505L1023.06 294.236L1022.57 191.344M865.49 385.505L705.34 294.236V137.633"
            stroke="black" />
        <path d="M865.15 385.872V202.474L785.936 184.823L705 138V294.603L865.15 385.872Z"
            fill="black" stroke="black" />
        <path d="M865 202.269L1021.71 111L1022.08 191.506L1022.57 294.398L865 385.667V202.269Z"
            fill="#BA8FFF" stroke="black" />
        <path
            d="M896.732 248V246L900.196 244V236L898.464 237V235L900.196 234V232L903.66 230V242L907.124 240V242L896.732 248ZM908.856 241V237L910.588 236V234L912.32 233V231L915.784 229V227L917.517 226V224L912.32 227V229L908.856 231V229L910.588 228V226L919.249 221V223L920.981 222V226L919.249 227V229L917.517 230V232L914.052 234V236L920.981 232V234L908.856 241ZM926.177 231V229L924.445 230V228L922.713 229V223L924.445 222V220L926.177 219V217L931.373 214V216L933.105 215V217L934.837 216V222L933.105 223V225L931.373 226V228L926.177 231ZM927.909 228L931.373 226V218L929.641 219V217L926.177 219V227L927.909 226V228ZM895 271V261L905.392 255V257L907.124 256V264L903.66 266V258L901.928 259V267L898.464 269V261L896.732 262V270L895 271ZM914.052 248V246L917.517 244V246L914.052 248ZM910.588 262V260L914.052 258V252L912.32 253V251L917.517 248V256L920.981 254V256L910.588 262ZM924.445 254V252L927.909 250V240L926.177 241V239L931.373 236V248L934.837 246V248L924.445 254ZM938.301 246V244L941.765 242V232L940.033 233V231L945.229 228V240L948.693 238V240L938.301 246ZM955.622 224V222L959.086 220V222L955.622 224ZM952.158 238V236L955.622 234V228L953.89 229V227L959.086 224V232L962.55 230V232L952.158 238ZM966.014 230V228L964.282 229V223L966.014 222V220L974.674 215V217L976.406 216V222L974.674 223V225L966.014 230ZM967.746 227L972.942 224V218L967.746 221V227ZM978.138 223V213L988.531 207V209L990.263 208V216L986.799 218V210L981.602 213V221L978.138 223Z"
            fill="black" />
        <path
            d="M896.382 299.202V289.402L899.559 287.568C900.278 287.153 900.896 286.931 901.414 286.903C901.931 286.866 902.327 287.02 902.602 287.365C902.885 287.696 903.026 288.217 903.026 288.926C903.026 289.617 902.885 290.296 902.602 290.963C902.327 291.616 901.931 292.228 901.414 292.797C900.896 293.357 900.278 293.845 899.559 294.26L896.879 295.807L897.279 295.1V298.684L896.382 299.202ZM902.177 295.856L899.995 293.56L900.965 293L903.16 295.289L902.177 295.856ZM897.279 295.184L896.879 294.925L899.534 293.392C900.383 292.902 901.026 292.316 901.462 291.635C901.907 290.949 902.129 290.219 902.129 289.444C902.129 288.66 901.907 288.182 901.462 288.009C901.026 287.832 900.383 287.988 899.534 288.478L896.879 290.011L897.279 289.29V295.184ZM907.666 292.757C907.003 293.14 906.421 293.317 905.92 293.289C905.419 293.252 905.027 293.035 904.744 292.638C904.461 292.232 904.319 291.665 904.319 290.937C904.319 290.209 904.453 289.488 904.719 288.774C904.994 288.056 905.366 287.402 905.835 286.814C906.312 286.212 906.845 285.741 907.435 285.4C908.033 285.055 908.563 284.908 909.024 284.959C909.492 284.997 909.86 285.223 910.127 285.638C910.394 286.044 910.527 286.616 910.527 287.353C910.527 287.4 910.523 287.454 910.515 287.514C910.515 287.561 910.515 287.612 910.515 287.668L904.974 290.867V290.125L910.054 287.192L909.715 287.682C909.715 287.15 909.614 286.737 909.412 286.443C909.218 286.135 908.951 285.963 908.611 285.925C908.272 285.888 907.88 285.998 907.435 286.254C906.999 286.506 906.607 286.849 906.259 287.283C905.912 287.717 905.641 288.2 905.447 288.732C905.253 289.264 905.156 289.801 905.156 290.342V290.496C905.156 291.056 905.261 291.49 905.471 291.798C905.689 292.092 905.988 292.251 906.368 292.274C906.756 292.284 907.197 292.146 907.69 291.861C908.078 291.637 908.438 291.35 908.769 291C909.108 290.646 909.399 290.235 909.642 289.768L910.127 290.132C909.844 290.688 909.488 291.192 909.06 291.644C908.64 292.092 908.175 292.463 907.666 292.757ZM914.995 291.242C914.413 291.578 913.855 291.802 913.322 291.914C912.788 292.026 912.356 291.996 912.025 291.823L912.461 290.815C912.76 290.95 913.128 290.981 913.564 290.906C914.009 290.836 914.478 290.659 914.971 290.374C915.779 289.907 916.373 289.345 916.753 288.687C917.133 288.038 917.323 287.257 917.323 286.342V284.508L917.444 283.178L917.359 281.967V279.741L918.184 279.265V285.719C918.184 286.988 917.913 288.073 917.371 288.974C916.838 289.879 916.046 290.635 914.995 291.242ZM914.837 288.267C914.231 288.617 913.686 288.783 913.201 288.764C912.716 288.736 912.332 288.533 912.049 288.155C911.774 287.772 911.637 287.231 911.637 286.531C911.637 285.831 911.774 285.136 912.049 284.445C912.332 283.74 912.716 283.099 913.201 282.52C913.686 281.941 914.231 281.477 914.837 281.127C915.403 280.8 915.912 280.642 916.365 280.651C916.818 280.66 917.177 280.854 917.444 281.232C917.711 281.61 917.844 282.182 917.844 282.947C917.844 283.712 917.711 284.438 917.444 285.124C917.177 285.81 916.818 286.424 916.365 286.965C915.912 287.506 915.403 287.94 914.837 288.267ZM914.922 287.336C915.391 287.065 915.807 286.713 916.171 286.279C916.535 285.836 916.822 285.353 917.032 284.83C917.242 284.298 917.347 283.766 917.347 283.234C917.347 282.702 917.242 282.296 917.032 282.016C916.822 281.736 916.535 281.589 916.171 281.575C915.807 281.552 915.391 281.675 914.922 281.946C914.462 282.212 914.045 282.569 913.673 283.017C913.31 283.451 913.023 283.929 912.813 284.452C912.611 284.97 912.51 285.495 912.51 286.027C912.51 286.559 912.611 286.972 912.813 287.266C913.023 287.546 913.31 287.698 913.673 287.721C914.045 287.73 914.462 287.602 914.922 287.336ZM920.579 285.232V277.882L921.44 277.385V284.735L920.579 285.232ZM921.016 276.006C920.838 276.109 920.688 276.125 920.567 276.055C920.446 275.985 920.385 275.852 920.385 275.656C920.385 275.46 920.446 275.262 920.567 275.061C920.688 274.851 920.838 274.695 921.016 274.592C921.193 274.489 921.343 274.468 921.464 274.529C921.585 274.59 921.646 274.718 921.646 274.914C921.646 275.119 921.585 275.327 921.464 275.537C921.351 275.742 921.202 275.899 921.016 276.006ZM925.545 282.435C925.019 282.738 924.522 282.941 924.053 283.044C923.585 283.137 923.217 283.13 922.95 283.023L923.338 282.015C923.597 282.09 923.928 282.094 924.332 282.029C924.736 281.954 925.161 281.789 925.605 281.532C926.212 281.182 926.648 280.823 926.915 280.454C927.182 280.076 927.315 279.705 927.315 279.341C927.315 279.07 927.238 278.905 927.085 278.844C926.939 278.769 926.745 278.765 926.503 278.83C926.26 278.886 925.989 278.972 925.69 279.089C925.391 279.206 925.092 279.313 924.793 279.411C924.502 279.504 924.235 279.551 923.993 279.551C923.75 279.542 923.552 279.455 923.399 279.292C923.253 279.124 923.18 278.83 923.18 278.41C923.18 278.009 923.277 277.593 923.471 277.164C923.665 276.735 923.948 276.324 924.32 275.932C924.7 275.526 925.161 275.167 925.702 274.854C926.115 274.616 926.527 274.443 926.939 274.336C927.351 274.219 927.691 274.187 927.957 274.238L927.582 275.253C927.299 275.192 926.996 275.209 926.672 275.302C926.349 275.386 926.026 275.521 925.702 275.708C925.128 276.039 924.704 276.401 924.429 276.793C924.163 277.171 924.029 277.537 924.029 277.892C924.029 278.172 924.102 278.349 924.247 278.424C924.401 278.494 924.599 278.506 924.842 278.459C925.092 278.398 925.363 278.312 925.654 278.2C925.953 278.083 926.248 277.983 926.539 277.899C926.838 277.801 927.109 277.752 927.351 277.752C927.602 277.738 927.8 277.815 927.945 277.983C928.099 278.137 928.176 278.415 928.176 278.816C928.176 279.245 928.071 279.679 927.86 280.118C927.658 280.543 927.359 280.958 926.963 281.364C926.575 281.756 926.102 282.113 925.545 282.435ZM931.768 278.842C931.17 279.187 930.709 279.267 930.386 279.08C930.062 278.893 929.901 278.459 929.901 277.778V270.876L930.762 270.379V277.225C930.762 277.654 930.855 277.932 931.04 278.058C931.234 278.179 931.509 278.137 931.865 277.932C932.245 277.713 932.56 277.405 932.811 277.008L933.114 277.547C932.944 277.822 932.738 278.072 932.495 278.296C932.261 278.515 932.019 278.697 931.768 278.842ZM928.761 273.984V273.158L932.702 270.883V271.709L928.761 273.984ZM937.16 275.729C936.497 276.112 935.915 276.289 935.414 276.261C934.913 276.224 934.521 276.007 934.238 275.61C933.955 275.204 933.813 274.637 933.813 273.909C933.813 273.181 933.947 272.46 934.213 271.746C934.488 271.027 934.86 270.374 935.329 269.786C935.806 269.184 936.339 268.713 936.929 268.372C937.527 268.027 938.057 267.88 938.518 267.931C938.986 267.968 939.354 268.195 939.621 268.61C939.888 269.016 940.021 269.588 940.021 270.325C940.021 270.372 940.017 270.425 940.009 270.486C940.009 270.533 940.009 270.584 940.009 270.64L934.468 273.839V273.097L939.548 270.164L939.209 270.654C939.209 270.122 939.108 269.709 938.905 269.415C938.711 269.107 938.445 268.934 938.105 268.897C937.766 268.86 937.374 268.969 936.929 269.226C936.493 269.478 936.101 269.821 935.753 270.255C935.406 270.689 935.135 271.172 934.941 271.704C934.747 272.236 934.65 272.773 934.65 273.314V273.468C934.65 274.028 934.755 274.462 934.965 274.77C935.183 275.064 935.482 275.223 935.862 275.246C936.25 275.255 936.691 275.118 937.184 274.833C937.572 274.609 937.931 274.322 938.263 273.972C938.602 273.617 938.893 273.207 939.136 272.74L939.621 273.104C939.338 273.659 938.982 274.163 938.554 274.616C938.134 275.064 937.669 275.435 937.16 275.729ZM941.773 272.996V265.646L942.598 265.17V267.172L942.513 266.871C942.69 266.208 942.99 265.611 943.41 265.079C943.83 264.537 944.352 264.087 944.974 263.728V264.694C944.942 264.712 944.909 264.731 944.877 264.75C944.845 264.759 944.812 264.773 944.78 264.792C944.109 265.179 943.584 265.72 943.204 266.416C942.824 267.102 942.634 267.879 942.634 268.747V272.499L941.773 272.996ZM949.189 268.784C948.526 269.167 947.944 269.344 947.443 269.316C946.942 269.279 946.55 269.062 946.267 268.665C945.984 268.259 945.843 267.692 945.843 266.964C945.843 266.236 945.976 265.515 946.243 264.801C946.518 264.082 946.89 263.429 947.358 262.841C947.835 262.239 948.369 261.768 948.959 261.427C949.557 261.082 950.086 260.935 950.547 260.986C951.016 261.023 951.384 261.25 951.65 261.665C951.917 262.071 952.051 262.643 952.051 263.38C952.051 263.427 952.047 263.48 952.038 263.541C952.038 263.588 952.038 263.639 952.038 263.695L946.498 266.894V266.152L951.578 263.219L951.238 263.709C951.238 263.177 951.137 262.764 950.935 262.47C950.741 262.162 950.474 261.989 950.135 261.952C949.795 261.915 949.403 262.024 948.959 262.281C948.522 262.533 948.13 262.876 947.783 263.31C947.435 263.744 947.164 264.227 946.97 264.759C946.776 265.291 946.679 265.828 946.679 266.369V266.523C946.679 267.083 946.785 267.517 946.995 267.825C947.213 268.119 947.512 268.278 947.892 268.301C948.28 268.31 948.72 268.173 949.213 267.888C949.601 267.664 949.961 267.377 950.293 267.027C950.632 266.672 950.923 266.262 951.165 265.795L951.65 266.159C951.368 266.714 951.012 267.218 950.584 267.671C950.163 268.119 949.698 268.49 949.189 268.784ZM956.337 264.657C955.73 265.007 955.185 265.164 954.7 265.126C954.223 265.084 953.847 264.863 953.572 264.461C953.298 264.051 953.16 263.477 953.16 262.739C953.16 261.993 953.298 261.26 953.572 260.541C953.847 259.823 954.223 259.172 954.7 258.588C955.185 257.991 955.73 257.517 956.337 257.167C956.894 256.845 957.392 256.703 957.828 256.74C958.273 256.773 958.624 256.995 958.883 257.405C959.15 257.802 959.283 258.402 959.283 259.204C959.283 259.998 959.154 260.749 958.895 261.458C958.636 262.168 958.285 262.8 957.84 263.355C957.404 263.897 956.903 264.331 956.337 264.657ZM956.397 263.74C956.85 263.479 957.254 263.129 957.61 262.69C957.973 262.238 958.256 261.738 958.458 261.192C958.669 260.632 958.774 260.068 958.774 259.498C958.774 258.92 958.669 258.476 958.458 258.168C958.256 257.856 957.973 257.688 957.61 257.664C957.254 257.627 956.85 257.739 956.397 258C955.953 258.257 955.553 258.609 955.197 259.057C954.841 259.496 954.558 259.991 954.348 260.541C954.138 261.092 954.033 261.657 954.033 262.235C954.033 262.805 954.138 263.248 954.348 263.565C954.558 263.873 954.841 264.046 955.197 264.083C955.553 264.111 955.953 263.997 956.397 263.74ZM958.798 263.166V260.954L958.883 259.421L958.762 258.007V252.799L959.622 252.302V262.69L958.798 263.166ZM898.831 314.858C898.29 315.171 897.817 315.327 897.413 315.327C897.008 315.327 896.693 315.159 896.467 314.823C896.249 314.482 896.14 313.962 896.14 313.262V308.992L897 308.495V312.653C897 313.437 897.166 313.934 897.497 314.144C897.837 314.34 898.31 314.263 898.916 313.913C899.361 313.656 899.745 313.332 900.068 312.94C900.399 312.534 900.65 312.081 900.82 311.582C900.997 311.078 901.086 310.546 901.086 309.986V306.136L901.947 305.639V312.989L901.123 313.465V311.449L901.256 311.736C901.054 312.394 900.739 313.001 900.31 313.556C899.89 314.097 899.397 314.531 898.831 314.858ZM906.056 310.687C905.53 310.99 905.033 311.193 904.564 311.296C904.096 311.389 903.728 311.382 903.461 311.275L903.849 310.267C904.108 310.342 904.439 310.346 904.843 310.281C905.247 310.206 905.672 310.041 906.116 309.784C906.723 309.434 907.159 309.075 907.426 308.706C907.693 308.328 907.826 307.957 907.826 307.593C907.826 307.322 907.749 307.157 907.596 307.096C907.45 307.021 907.256 307.017 907.014 307.082C906.771 307.138 906.5 307.224 906.201 307.341C905.902 307.458 905.603 307.565 905.304 307.663C905.013 307.756 904.746 307.803 904.504 307.803C904.261 307.794 904.063 307.707 903.91 307.544C903.764 307.376 903.692 307.082 903.692 306.662C903.692 306.261 903.789 305.845 903.983 305.416C904.176 304.987 904.459 304.576 904.831 304.184C905.211 303.778 905.672 303.419 906.213 303.106C906.626 302.868 907.038 302.695 907.45 302.588C907.862 302.471 908.202 302.439 908.469 302.49L908.093 303.505C907.81 303.444 907.507 303.461 907.183 303.554C906.86 303.638 906.537 303.773 906.213 303.96C905.64 304.291 905.215 304.653 904.94 305.045C904.674 305.423 904.54 305.789 904.54 306.144C904.54 306.424 904.613 306.601 904.758 306.676C904.912 306.746 905.11 306.758 905.353 306.711C905.603 306.65 905.874 306.564 906.165 306.452C906.464 306.335 906.759 306.235 907.05 306.151C907.349 306.053 907.62 306.004 907.862 306.004C908.113 305.99 908.311 306.067 908.456 306.235C908.61 306.389 908.687 306.667 908.687 307.068C908.687 307.497 908.582 307.931 908.372 308.37C908.169 308.795 907.87 309.21 907.474 309.616C907.086 310.008 906.613 310.365 906.056 310.687ZM912.97 306.695C912.307 307.078 911.725 307.255 911.224 307.227C910.723 307.19 910.331 306.973 910.048 306.576C909.765 306.17 909.624 305.603 909.624 304.875C909.624 304.147 909.757 303.426 910.024 302.712C910.299 301.993 910.67 301.34 911.139 300.752C911.616 300.15 912.15 299.679 912.74 299.338C913.338 298.993 913.867 298.846 914.328 298.897C914.797 298.934 915.165 299.161 915.431 299.576C915.698 299.982 915.831 300.554 915.831 301.291C915.831 301.338 915.827 301.391 915.819 301.452C915.819 301.499 915.819 301.55 915.819 301.606L910.278 304.805V304.063L915.359 301.13L915.019 301.62C915.019 301.088 914.918 300.675 914.716 300.381C914.522 300.073 914.255 299.9 913.916 299.863C913.576 299.826 913.184 299.935 912.74 300.192C912.303 300.444 911.911 300.787 911.564 301.221C911.216 301.655 910.945 302.138 910.751 302.67C910.557 303.202 910.46 303.739 910.46 304.28V304.434C910.46 304.994 910.565 305.428 910.776 305.736C910.994 306.03 911.293 306.189 911.673 306.212C912.061 306.221 912.501 306.084 912.994 305.799C913.382 305.575 913.742 305.288 914.073 304.938C914.413 304.583 914.704 304.173 914.946 303.706L915.431 304.07C915.148 304.625 914.793 305.129 914.364 305.582C913.944 306.03 913.479 306.401 912.97 306.695ZM917.584 303.961V296.611L918.408 296.135V298.137L918.323 297.836C918.501 297.174 918.8 296.576 919.22 296.044C919.641 295.503 920.162 295.053 920.784 294.693V295.659C920.752 295.678 920.72 295.697 920.687 295.715C920.655 295.725 920.623 295.739 920.59 295.757C919.92 296.145 919.394 296.686 919.014 297.381C918.634 298.067 918.444 298.844 918.444 299.712V303.464L917.584 303.961ZM924.136 300.248C923.61 300.552 923.113 300.755 922.644 300.857C922.176 300.951 921.808 300.944 921.541 300.836L921.929 299.828C922.188 299.903 922.519 299.908 922.923 299.842C923.327 299.768 923.752 299.602 924.196 299.345C924.803 298.995 925.239 298.636 925.506 298.267C925.773 297.889 925.906 297.518 925.906 297.154C925.906 296.884 925.829 296.718 925.676 296.657C925.53 296.583 925.336 296.578 925.094 296.643C924.851 296.699 924.58 296.786 924.281 296.902C923.982 297.019 923.683 297.126 923.384 297.224C923.093 297.318 922.826 297.364 922.584 297.364C922.341 297.355 922.143 297.269 921.99 297.105C921.844 296.937 921.771 296.643 921.771 296.223C921.771 295.822 921.868 295.407 922.062 294.977C922.256 294.548 922.539 294.137 922.911 293.745C923.291 293.339 923.752 292.98 924.293 292.667C924.706 292.429 925.118 292.257 925.53 292.149C925.942 292.033 926.282 292 926.548 292.051L926.173 293.066C925.89 293.006 925.587 293.022 925.263 293.115C924.94 293.199 924.617 293.335 924.293 293.521C923.719 293.853 923.295 294.214 923.02 294.606C922.754 294.984 922.62 295.351 922.62 295.705C922.62 295.985 922.693 296.163 922.838 296.237C922.992 296.307 923.19 296.319 923.433 296.272C923.683 296.212 923.954 296.125 924.245 296.013C924.544 295.897 924.839 295.796 925.13 295.712C925.429 295.614 925.7 295.565 925.942 295.565C926.193 295.551 926.391 295.628 926.536 295.796C926.69 295.95 926.767 296.228 926.767 296.629C926.767 297.059 926.662 297.493 926.451 297.931C926.249 298.356 925.95 298.771 925.554 299.177C925.166 299.569 924.693 299.926 924.136 300.248Z"
            fill="black" />
        <path
            d="M728.196 202V200L723 197V195L728.196 198V196L724.732 194V192L723 191V189L724.732 190V188L728.196 190V188L729.928 189V191L733.392 193V195L729.928 193V195L733.392 197V199L735.124 200V202L733.392 201V203L729.928 201V203L728.196 202ZM726.464 193L728.196 194V192L726.464 191V193ZM729.928 199L731.66 200V198L729.928 197V199ZM738.588 208V206L736.856 205V203L740.321 205V207L745.517 210V206L740.321 203V201L742.053 202V200L743.785 201V199L738.588 196V194L748.981 200V202L747.249 201V203L745.517 202V204L747.249 205V207L748.981 208V212L747.249 211V213L738.588 208ZM752.445 216V214L750.713 213V209L752.445 210V208L750.713 207V203L752.445 204V202L759.373 206V208L761.105 209V213L759.373 212V214L762.837 216V220L761.105 219V221L752.445 216ZM755.909 210L759.373 212V208L754.177 205V207L755.909 208V210ZM752.445 214L759.373 218V216L755.909 214V212L752.445 210V214ZM724.732 222V220L723 219V207L726.464 209V213L733.392 217V219L735.124 220V226L733.392 225V227L724.732 222ZM726.464 221L731.66 224V218L726.464 215V221ZM742.053 220V218L745.517 220V222L742.053 220ZM738.588 230V228L742.053 230V224L740.321 223V221L745.517 224V232L748.981 234V236L738.588 230ZM752.445 238V236L755.909 238V228L754.177 227V225L759.373 228V240L762.837 242V244L752.445 238ZM766.301 246V244L769.765 246V236L768.033 235V233L773.229 236V248L776.694 250V252L766.301 246ZM783.622 244V242L787.086 244V246L783.622 244ZM780.158 254V252L783.622 254V248L781.89 247V245L787.086 248V256L790.55 258V260L780.158 254ZM794.014 262V260L792.282 259V253L794.014 254V252L802.674 257V259L804.406 260V266L802.674 265V267L794.014 262ZM795.746 261L800.942 264V258L795.746 255V261ZM806.138 269V259L816.531 265V267L818.263 268V276L814.799 274V266L809.603 263V271L806.138 269Z"
            fill="white" />
        <path
            d="M723.473 250.273V249.559L727.001 247.606C727.324 247.429 727.567 247.251 727.728 247.074C727.89 246.887 727.999 246.689 728.056 246.479C728.112 246.269 728.141 246.057 728.141 245.842C728.141 245.273 727.971 244.727 727.632 244.204C727.3 243.686 726.807 243.238 726.152 242.86C725.651 242.571 725.207 242.403 724.819 242.356C724.439 242.314 724.111 242.4 723.837 242.615L723.218 241.642C723.55 241.385 723.974 241.285 724.491 241.341C725.009 241.397 725.587 241.609 726.225 241.978C726.799 242.309 727.296 242.704 727.716 243.161C728.137 243.609 728.46 244.099 728.686 244.631C728.921 245.168 729.038 245.707 729.038 246.248C729.038 246.565 728.998 246.855 728.917 247.116C728.844 247.382 728.707 247.629 728.504 247.858C728.31 248.082 728.024 248.299 727.644 248.509L724.406 250.308L724.164 249.776L729.426 252.814V253.71L723.473 250.273ZM730.104 251.525V250.797L734.602 246.898L735.572 247.458L731.11 251.378L730.637 250.937L737.463 254.878V255.774L730.104 251.525ZM734.893 256.866V254.29L734.917 253.408V251.14L735.766 251.63V257.37L734.893 256.866ZM742.084 253.598C742.601 253.897 743.054 254.275 743.442 254.732C743.838 255.185 744.145 255.708 744.363 256.3C744.59 256.898 744.703 257.551 744.703 258.26V262.53L743.842 262.033V257.861C743.842 257.087 743.672 256.405 743.333 255.817C743.002 255.225 742.533 254.753 741.926 254.403C741.474 254.142 741.078 254.021 740.738 254.039C740.407 254.053 740.148 254.207 739.962 254.501C739.785 254.791 739.696 255.215 739.696 255.775V259.639L738.835 259.142V248.754L739.696 249.251V254.305L739.526 253.829C739.728 253.414 740.051 253.185 740.496 253.143C740.94 253.092 741.47 253.244 742.084 253.598ZM752.214 266.937C751.616 266.591 751.155 266.139 750.832 265.579C750.509 265.019 750.347 264.398 750.347 263.717V256.815L751.208 257.312V264.158C751.208 264.587 751.301 264.972 751.487 265.313C751.681 265.658 751.955 265.933 752.311 266.139C752.691 266.358 753.006 266.414 753.257 266.307L753.56 267.196C753.39 267.275 753.184 267.287 752.941 267.231C752.707 267.179 752.465 267.081 752.214 266.937ZM749.207 258.607V257.781L753.148 260.056V260.882L749.207 258.607ZM755.127 268.548V261.198L755.951 261.674V263.676L755.866 263.277C756.044 262.82 756.343 262.568 756.764 262.521C757.184 262.465 757.705 262.617 758.328 262.976V263.942C758.295 263.924 758.263 263.905 758.231 263.886C758.198 263.858 758.166 263.835 758.134 263.816C757.463 263.429 756.937 263.364 756.558 263.62C756.178 263.868 755.988 264.425 755.988 265.293V269.045L755.127 268.548ZM763.414 273.333V271.709L763.377 271.422V268.706C763.377 268.081 763.224 267.511 762.917 266.998C762.618 266.489 762.169 266.062 761.571 265.717C761.159 265.479 760.767 265.332 760.395 265.276C760.023 265.22 759.708 265.248 759.449 265.36L759.061 264.394C759.384 264.263 759.772 264.245 760.225 264.338C760.678 264.422 761.155 264.609 761.656 264.898C762.48 265.374 763.115 265.978 763.559 266.711C764.012 267.439 764.238 268.284 764.238 269.245V273.809L763.414 273.333ZM761.219 272.136C760.742 271.861 760.326 271.532 759.97 271.149C759.623 270.762 759.356 270.356 759.17 269.931C758.984 269.497 758.891 269.07 758.891 268.65C758.891 268.267 758.968 267.966 759.122 267.747C759.283 267.523 759.542 267.42 759.898 267.439C760.261 267.453 760.746 267.635 761.353 267.985L763.547 269.252V269.994L761.377 268.741C760.763 268.386 760.334 268.265 760.092 268.377C759.857 268.494 759.74 268.739 759.74 269.112C759.74 269.532 759.882 269.95 760.164 270.365C760.447 270.78 760.843 271.135 761.353 271.429C761.838 271.709 762.254 271.823 762.601 271.772C762.957 271.716 763.216 271.492 763.377 271.1L763.571 271.898C763.41 272.29 763.127 272.514 762.723 272.57C762.327 272.631 761.826 272.486 761.219 272.136ZM769.11 276.692C768.504 276.342 767.959 275.868 767.474 275.271C766.997 274.678 766.621 274.022 766.346 273.304C766.071 272.576 765.934 271.843 765.934 271.106C765.934 270.359 766.071 269.785 766.346 269.384C766.621 268.982 766.997 268.765 767.474 268.733C767.959 268.695 768.504 268.852 769.11 269.202C769.668 269.524 770.165 269.955 770.602 270.497C771.046 271.043 771.398 271.67 771.656 272.38C771.923 273.084 772.057 273.838 772.057 274.641C772.057 275.434 771.927 276.036 771.669 276.447C771.41 276.857 771.058 277.084 770.614 277.126C770.177 277.163 769.676 277.018 769.11 276.692ZM769.171 275.845C769.624 276.106 770.028 276.223 770.383 276.195C770.747 276.162 771.03 275.989 771.232 275.677C771.442 275.359 771.547 274.916 771.547 274.347C771.547 273.768 771.442 273.203 771.232 272.653C771.03 272.107 770.747 271.612 770.383 271.169C770.028 270.721 769.624 270.366 769.171 270.105C768.726 269.848 768.326 269.738 767.971 269.776C767.615 269.804 767.332 269.972 767.122 270.28C766.912 270.588 766.807 271.031 766.807 271.61C766.807 272.179 766.912 272.744 767.122 273.304C767.332 273.854 767.615 274.354 767.971 274.802C768.326 275.24 768.726 275.588 769.171 275.845ZM771.572 278.043V275.831L771.656 274.396L771.535 272.842V267.634L772.396 268.131V278.519L771.572 278.043ZM774.793 279.903V272.553L775.654 273.05V280.4L774.793 279.903ZM775.23 271.181C775.052 271.078 774.903 270.922 774.781 270.712C774.66 270.502 774.599 270.299 774.599 270.103C774.599 269.907 774.66 269.779 774.781 269.718C774.903 269.648 775.052 269.664 775.23 269.767C775.408 269.87 775.557 270.021 775.679 270.222C775.8 270.423 775.86 270.621 775.86 270.817C775.86 271.022 775.8 271.16 775.679 271.23C775.565 271.305 775.416 271.288 775.23 271.181ZM781.299 276.239C781.816 276.538 782.269 276.916 782.657 277.373C783.053 277.826 783.36 278.348 783.578 278.941C783.805 279.538 783.918 280.192 783.918 280.901V285.171L783.057 284.674V280.502C783.057 279.727 782.887 279.046 782.548 278.458C782.216 277.865 781.747 277.394 781.141 277.044C780.689 276.783 780.293 276.661 779.953 276.68C779.622 276.694 779.363 276.848 779.177 277.142C778.999 277.431 778.91 277.856 778.91 278.416V282.28L778.049 281.783V274.433L778.874 274.909V276.925L778.741 276.47C778.943 276.055 779.266 275.826 779.711 275.784C780.155 275.733 780.685 275.884 781.299 276.239ZM788.959 290.867C788.377 290.531 787.819 290.111 787.286 289.607C786.752 289.103 786.32 288.574 785.988 288.018L786.425 287.514C786.724 287.995 787.092 288.45 787.528 288.879C787.973 289.323 788.441 289.687 788.935 289.971C789.743 290.438 790.337 290.562 790.717 290.342C791.097 290.132 791.287 289.57 791.287 288.655V286.821L791.408 285.631L791.323 284.322V282.096L792.147 282.572V289.026C792.147 290.296 791.877 291.068 791.335 291.343C790.802 291.633 790.01 291.474 788.959 290.867ZM788.801 287.71C788.195 287.36 787.649 286.896 787.164 286.317C786.679 285.729 786.295 285.083 786.013 284.378C785.738 283.678 785.6 282.978 785.6 282.278C785.6 281.578 785.738 281.042 786.013 280.668C786.295 280.29 786.679 280.092 787.164 280.073C787.649 280.055 788.195 280.22 788.801 280.57C789.367 280.897 789.876 281.326 790.329 281.858C790.781 282.39 791.141 282.999 791.408 283.685C791.675 284.371 791.808 285.097 791.808 285.862C791.808 286.628 791.675 287.199 791.408 287.577C791.141 287.955 790.781 288.154 790.329 288.172C789.876 288.191 789.367 288.037 788.801 287.71ZM788.886 286.877C789.355 287.148 789.771 287.276 790.135 287.262C790.499 287.239 790.786 287.087 790.996 286.807C791.206 286.518 791.311 286.107 791.311 285.575C791.311 285.043 791.206 284.516 790.996 283.993C790.786 283.471 790.499 282.992 790.135 282.558C789.771 282.115 789.355 281.758 788.886 281.487C788.425 281.221 788.009 281.098 787.637 281.116C787.273 281.13 786.987 281.277 786.776 281.557C786.574 281.842 786.473 282.25 786.473 282.782C786.473 283.314 786.574 283.844 786.776 284.371C786.987 284.894 787.273 285.377 787.637 285.82C788.009 286.259 788.425 286.611 788.886 286.877ZM799.353 294.082L796.528 285.101L797.425 285.619L800.02 293.935L799.595 293.69L802.226 288.391L803.075 288.881L800.238 294.593L799.353 294.082ZM806.704 298.397C806.09 298.042 805.536 297.564 805.043 296.962C804.558 296.355 804.174 295.69 803.892 294.967C803.609 294.234 803.467 293.504 803.467 292.776C803.467 292.038 803.609 291.471 803.892 291.075C804.174 290.678 804.558 290.461 805.043 290.424C805.528 290.386 806.082 290.547 806.704 290.907C807.335 291.271 807.893 291.751 808.378 292.349C808.871 292.951 809.255 293.611 809.529 294.33C809.812 295.053 809.954 295.783 809.954 296.521C809.954 297.249 809.812 297.816 809.529 298.222C809.255 298.623 808.871 298.845 808.378 298.887C807.884 298.919 807.327 298.756 806.704 298.397ZM806.704 297.515C807.165 297.781 807.573 297.9 807.929 297.872C808.285 297.834 808.563 297.659 808.766 297.347C808.976 297.029 809.081 296.586 809.081 296.017C809.081 295.438 808.976 294.873 808.766 294.323C808.563 293.777 808.285 293.284 807.929 292.846C807.573 292.398 807.169 292.043 806.716 291.782C806.264 291.52 805.86 291.408 805.504 291.446C805.148 291.474 804.866 291.642 804.655 291.95C804.445 292.258 804.34 292.701 804.34 293.28C804.34 293.849 804.445 294.414 804.655 294.974C804.866 295.524 805.148 296.024 805.504 296.472C805.86 296.91 806.26 297.258 806.704 297.515ZM811.711 301.217V290.829L812.572 291.326V301.714L811.711 301.217ZM817.598 304.686C817.057 304.374 816.584 303.984 816.18 303.517C815.776 303.051 815.46 302.519 815.234 301.921C815.016 301.329 814.907 300.682 814.907 299.982V295.712L815.767 296.209V300.367C815.767 301.151 815.933 301.84 816.265 302.432C816.604 303.02 817.077 303.489 817.683 303.839C818.128 304.096 818.512 304.215 818.835 304.196C819.166 304.173 819.417 304.01 819.587 303.706C819.764 303.408 819.853 302.978 819.853 302.418V298.568L820.714 299.065V306.415L819.89 305.939V303.923L820.023 304.364C819.821 304.789 819.506 305.032 819.077 305.092C818.657 305.148 818.164 305.013 817.598 304.686ZM831.067 304.972C831.584 305.271 832.033 305.647 832.413 306.099C832.801 306.547 833.1 307.065 833.31 307.653C833.528 308.246 833.637 308.897 833.637 309.606V313.876L832.776 313.379V309.207C832.776 308.433 832.615 307.756 832.291 307.177C831.976 306.594 831.528 306.134 830.946 305.798C830.509 305.546 830.129 305.434 829.806 305.462C829.491 305.486 829.244 305.647 829.066 305.945C828.897 306.239 828.812 306.666 828.812 307.226V311.09L827.951 310.593V306.421C827.951 305.647 827.789 304.97 827.466 304.391C827.143 303.803 826.69 303.341 826.108 303.005C825.68 302.758 825.304 302.648 824.98 302.676C824.657 302.695 824.407 302.854 824.229 303.152C824.059 303.446 823.974 303.873 823.974 304.433V308.297L823.113 307.8V300.45L823.938 300.926V302.914L823.804 302.487C823.998 302.067 824.31 301.832 824.738 301.78C825.174 301.724 825.688 301.867 826.278 302.207C826.9 302.567 827.43 303.054 827.866 303.67C828.302 304.277 828.585 304.977 828.715 305.77L828.375 305.42C828.561 304.93 828.889 304.639 829.357 304.545C829.834 304.447 830.404 304.59 831.067 304.972ZM838.675 316.855C838.013 316.473 837.431 315.978 836.93 315.371C836.428 314.755 836.036 314.086 835.753 313.362C835.471 312.63 835.329 311.899 835.329 311.171C835.329 310.443 835.462 309.876 835.729 309.47C836.004 309.069 836.376 308.845 836.845 308.798C837.322 308.747 837.855 308.892 838.445 309.232C839.043 309.578 839.573 310.042 840.033 310.625C840.502 311.204 840.87 311.855 841.137 312.578C841.403 313.292 841.537 314.018 841.537 314.755C841.537 314.802 841.533 314.851 841.525 314.902C841.525 314.949 841.525 315 841.525 315.056L835.984 311.857V311.115L841.064 314.048L840.724 314.146C840.724 313.614 840.623 313.085 840.421 312.557C840.227 312.025 839.961 311.545 839.621 311.115C839.282 310.686 838.89 310.343 838.445 310.086C838.009 309.834 837.617 309.725 837.269 309.757C836.921 309.79 836.651 309.96 836.457 310.268C836.263 310.576 836.166 311.001 836.166 311.542V311.696C836.166 312.256 836.271 312.812 836.481 313.362C836.699 313.908 836.998 314.412 837.378 314.874C837.766 315.332 838.207 315.703 838.7 315.987C839.088 316.211 839.447 316.34 839.779 316.372C840.118 316.41 840.409 316.335 840.652 316.148L841.137 317.072C840.854 317.301 840.498 317.394 840.07 317.352C839.649 317.315 839.185 317.149 838.675 316.855ZM726.795 269.261C726.181 268.906 725.627 268.428 725.134 267.826C724.649 267.219 724.265 266.554 723.982 265.831C723.699 265.098 723.558 264.368 723.558 263.64C723.558 262.903 723.699 262.336 723.982 261.939C724.265 261.542 724.649 261.325 725.134 261.288C725.619 261.251 726.173 261.412 726.795 261.771C727.425 262.135 727.983 262.616 728.468 263.213C728.961 263.815 729.345 264.475 729.62 265.194C729.903 265.917 730.044 266.648 730.044 267.385C730.044 268.113 729.903 268.68 729.62 269.086C729.345 269.487 728.961 269.709 728.468 269.751C727.975 269.784 727.417 269.62 726.795 269.261ZM726.795 268.379C727.256 268.645 727.664 268.764 728.019 268.736C728.375 268.699 728.654 268.524 728.856 268.211C729.066 267.894 729.171 267.45 729.171 266.881C729.171 266.302 729.066 265.738 728.856 265.187C728.654 264.641 728.375 264.149 728.019 263.71C727.664 263.262 727.26 262.907 726.807 262.646C726.354 262.385 725.95 262.273 725.595 262.31C725.239 262.338 724.956 262.506 724.746 262.814C724.536 263.122 724.431 263.565 724.431 264.144C724.431 264.713 724.536 265.278 724.746 265.838C724.956 266.389 725.239 266.888 725.595 267.336C725.95 267.775 726.35 268.122 726.795 268.379ZM735.051 266.538C735.568 266.836 736.021 267.214 736.409 267.672C736.805 268.124 737.112 268.647 737.33 269.24C737.557 269.837 737.67 270.49 737.67 271.2V275.47L736.809 274.973V270.801C736.809 270.026 736.639 269.345 736.3 268.757C735.968 268.164 735.5 267.693 734.893 267.343C734.441 267.081 734.045 266.96 733.705 266.979C733.374 266.993 733.115 267.147 732.929 267.441C732.751 267.73 732.663 268.155 732.663 268.715V272.579L731.802 272.082V264.732L732.626 265.208V267.224L732.493 266.769C732.695 266.353 733.018 266.125 733.463 266.083C733.907 266.031 734.437 266.183 735.051 266.538ZM745.763 280.212C745.149 279.858 744.595 279.379 744.102 278.777C743.617 278.171 743.233 277.506 742.95 276.782C742.667 276.05 742.526 275.319 742.526 274.591C742.526 273.854 742.667 273.287 742.95 272.89C743.233 272.494 743.617 272.277 744.102 272.239C744.587 272.202 745.141 272.363 745.763 272.722C746.393 273.086 746.951 273.567 747.436 274.164C747.929 274.766 748.313 275.427 748.588 276.145C748.871 276.869 749.012 277.599 749.012 278.336C749.012 279.064 748.871 279.631 748.588 280.037C748.313 280.439 747.929 280.66 747.436 280.702C746.943 280.735 746.385 280.572 745.763 280.212ZM745.763 279.33C746.224 279.596 746.632 279.715 746.987 279.687C747.343 279.65 747.622 279.475 747.824 279.162C748.034 278.845 748.139 278.402 748.139 277.832C748.139 277.254 748.034 276.689 747.824 276.138C747.622 275.592 747.343 275.1 746.987 274.661C746.632 274.213 746.228 273.859 745.775 273.597C745.322 273.336 744.918 273.224 744.563 273.261C744.207 273.289 743.924 273.457 743.714 273.765C743.504 274.073 743.399 274.517 743.399 275.095C743.399 275.665 743.504 276.229 743.714 276.789C743.924 277.34 744.207 277.839 744.563 278.287C744.918 278.726 745.318 279.074 745.763 279.33ZM753.401 284.622C752.859 284.309 752.386 283.92 751.982 283.453C751.578 282.986 751.263 282.454 751.036 281.857C750.818 281.264 750.709 280.618 750.709 279.918V275.648L751.57 276.145V280.303C751.57 281.087 751.736 281.775 752.067 282.368C752.406 282.956 752.879 283.425 753.486 283.775C753.93 284.032 754.314 284.151 754.637 284.132C754.969 284.109 755.219 283.945 755.389 283.642C755.567 283.343 755.656 282.914 755.656 282.354V278.504L756.517 279.001V286.351L755.692 285.875V283.859L755.826 284.3C755.623 284.725 755.308 284.967 754.88 285.028C754.46 285.084 753.966 284.949 753.401 284.622ZM758.916 287.736V280.386L759.74 280.862V282.864L759.655 282.465C759.833 282.008 760.132 281.756 760.553 281.709C760.973 281.653 761.494 281.805 762.117 282.164V283.13C762.084 283.111 762.052 283.093 762.02 283.074C761.987 283.046 761.955 283.023 761.923 283.004C761.252 282.617 760.726 282.551 760.346 282.808C759.967 283.055 759.777 283.613 759.777 284.481V288.233L758.916 287.736ZM769.659 294.009C768.996 293.626 768.414 293.131 767.913 292.525C767.412 291.909 767.02 291.239 766.737 290.516C766.454 289.783 766.313 289.053 766.313 288.325C766.313 287.597 766.446 287.03 766.713 286.624C766.988 286.222 767.359 285.998 767.828 285.952C768.305 285.9 768.839 286.045 769.429 286.386C770.027 286.731 770.556 287.195 771.017 287.779C771.486 288.357 771.853 289.008 772.12 289.732C772.387 290.446 772.52 291.171 772.52 291.909C772.52 291.955 772.516 292.004 772.508 292.056C772.508 292.102 772.508 292.154 772.508 292.21L766.967 289.011V288.269L772.047 291.202L771.708 291.3C771.708 290.768 771.607 290.238 771.405 289.711C771.211 289.179 770.944 288.698 770.605 288.269C770.265 287.839 769.873 287.496 769.429 287.24C768.992 286.988 768.6 286.878 768.253 286.911C767.905 286.943 767.634 287.114 767.44 287.422C767.246 287.73 767.149 288.154 767.149 288.696V288.85C767.149 289.41 767.254 289.965 767.464 290.516C767.683 291.062 767.982 291.566 768.362 292.028C768.75 292.485 769.19 292.856 769.683 293.141C770.071 293.365 770.431 293.493 770.762 293.526C771.102 293.563 771.393 293.488 771.635 293.302L772.12 294.226C771.837 294.454 771.482 294.548 771.053 294.506C770.633 294.468 770.168 294.303 769.659 294.009ZM773.125 295.94L775.817 293.462L775.804 293.945L773.246 288.66L774.216 289.22L776.314 293.581L775.95 293.357L778.047 291.432L778.993 291.978L776.411 294.337L776.423 293.812L779.139 299.412L778.157 298.845L775.938 294.204L776.277 294.456L774.095 296.5L773.125 295.94ZM782.99 301.705C782.359 301.341 781.793 300.856 781.292 300.249C780.799 299.638 780.411 298.97 780.128 298.247C779.845 297.514 779.704 296.784 779.704 296.056C779.704 295.319 779.845 294.752 780.128 294.355C780.411 293.958 780.799 293.744 781.292 293.711C781.793 293.683 782.359 293.851 782.99 294.215C783.531 294.528 784.02 294.931 784.457 295.426C784.893 295.921 785.237 296.483 785.487 297.113L784.845 297.246C784.626 296.747 784.356 296.315 784.032 295.951C783.709 295.587 783.357 295.295 782.977 295.076C782.525 294.815 782.117 294.7 781.753 294.733C781.389 294.756 781.102 294.922 780.892 295.23C780.682 295.538 780.577 295.981 780.577 296.56C780.577 297.139 780.682 297.703 780.892 298.254C781.102 298.805 781.389 299.306 781.753 299.759C782.117 300.202 782.525 300.555 782.977 300.816C783.357 301.035 783.709 301.15 784.032 301.159C784.356 301.168 784.626 301.054 784.845 300.816L785.487 301.691C785.237 302.022 784.893 302.188 784.457 302.188C784.02 302.179 783.531 302.018 782.99 301.705ZM790.333 298.455C790.85 298.753 791.303 299.131 791.691 299.589C792.087 300.041 792.394 300.564 792.612 301.157C792.839 301.754 792.952 302.407 792.952 303.117V307.387L792.091 306.89V302.718C792.091 301.943 791.921 301.262 791.582 300.674C791.25 300.081 790.781 299.61 790.175 299.26C789.723 298.998 789.327 298.877 788.987 298.896C788.656 298.91 788.397 299.064 788.211 299.358C788.033 299.647 787.944 300.072 787.944 300.632V304.496L787.084 303.999V293.611L787.944 294.108V299.162L787.775 298.686C787.977 298.27 788.3 298.042 788.745 298C789.189 297.948 789.719 298.1 790.333 298.455ZM799.266 311.032V309.408L799.23 309.121V306.405C799.23 305.78 799.076 305.21 798.769 304.697C798.47 304.188 798.021 303.761 797.423 303.416C797.011 303.178 796.619 303.031 796.247 302.975C795.875 302.919 795.56 302.947 795.301 303.059L794.913 302.093C795.237 301.962 795.625 301.944 796.077 302.037C796.53 302.121 797.007 302.308 797.508 302.597C798.332 303.073 798.967 303.677 799.411 304.41C799.864 305.138 800.09 305.983 800.09 306.944V311.508L799.266 311.032ZM797.071 309.835C796.594 309.56 796.178 309.231 795.823 308.848C795.475 308.461 795.208 308.055 795.022 307.63C794.836 307.196 794.744 306.769 794.744 306.349C794.744 305.966 794.82 305.665 794.974 305.446C795.136 305.222 795.394 305.119 795.75 305.138C796.114 305.152 796.599 305.334 797.205 305.684L799.399 306.951V307.693L797.229 306.44C796.615 306.085 796.186 305.964 795.944 306.076C795.709 306.193 795.592 306.438 795.592 306.811C795.592 307.231 795.734 307.649 796.017 308.064C796.299 308.479 796.696 308.834 797.205 309.128C797.69 309.408 798.106 309.522 798.454 309.471C798.809 309.415 799.068 309.191 799.23 308.799L799.424 309.597C799.262 309.989 798.979 310.213 798.575 310.269C798.179 310.33 797.678 310.185 797.071 309.835ZM805.678 307.314C806.195 307.613 806.648 307.991 807.036 308.448C807.432 308.901 807.739 309.423 807.957 310.016C808.183 310.613 808.297 311.267 808.297 311.976V316.246L807.436 315.749V311.577C807.436 310.802 807.266 310.121 806.927 309.533C806.595 308.94 806.126 308.469 805.52 308.119C805.068 307.858 804.671 307.736 804.332 307.755C804.001 307.769 803.742 307.923 803.556 308.217C803.378 308.506 803.289 308.931 803.289 309.491V313.355L802.428 312.858V305.508L803.253 305.984V308L803.12 307.545C803.322 307.13 803.645 306.901 804.089 306.859C804.534 306.808 805.063 306.959 805.678 307.314ZM813.338 321.943C812.756 321.607 812.198 321.187 811.665 320.683C811.131 320.179 810.699 319.649 810.367 319.094L810.804 318.59C811.103 319.07 811.471 319.525 811.907 319.955C812.352 320.398 812.82 320.762 813.313 321.047C814.122 321.513 814.716 321.637 815.096 321.418C815.476 321.208 815.666 320.645 815.666 319.731V317.897L815.787 316.707L815.702 315.398V313.172L816.526 313.648V320.102C816.526 321.371 816.256 322.143 815.714 322.419C815.181 322.708 814.388 322.549 813.338 321.943ZM813.18 318.786C812.574 318.436 812.028 317.971 811.543 317.393C811.058 316.805 810.674 316.158 810.392 315.454C810.117 314.754 809.979 314.054 809.979 313.354C809.979 312.654 810.117 312.117 810.392 311.744C810.674 311.366 811.058 311.167 811.543 311.149C812.028 311.13 812.574 311.296 813.18 311.646C813.746 311.972 814.255 312.402 814.708 312.934C815.16 313.466 815.52 314.075 815.787 314.761C816.054 315.447 816.187 316.172 816.187 316.938C816.187 317.703 816.054 318.275 815.787 318.653C815.52 319.031 815.16 319.229 814.708 319.248C814.255 319.266 813.746 319.112 813.18 318.786ZM813.265 317.953C813.734 318.223 814.15 318.352 814.514 318.338C814.878 318.314 815.164 318.163 815.375 317.883C815.585 317.593 815.69 317.183 815.69 316.651C815.69 316.119 815.585 315.591 815.375 315.069C815.164 314.546 814.878 314.068 814.514 313.634C814.15 313.19 813.734 312.833 813.265 312.563C812.804 312.297 812.388 312.173 812.016 312.192C811.652 312.206 811.365 312.353 811.155 312.633C810.953 312.917 810.852 313.326 810.852 313.858C810.852 314.39 810.953 314.919 811.155 315.447C811.365 315.969 811.652 316.452 812.016 316.896C812.388 317.334 812.804 317.687 813.265 317.953ZM821.626 324.012C820.963 323.629 820.381 323.134 819.88 322.528C819.379 321.911 818.987 321.242 818.704 320.518C818.421 319.786 818.279 319.055 818.279 318.327C818.279 317.599 818.413 317.032 818.679 316.626C818.954 316.225 819.326 316.001 819.795 315.954C820.272 315.903 820.805 316.048 821.395 316.388C821.993 316.734 822.523 317.198 822.983 317.781C823.452 318.36 823.82 319.011 824.087 319.735C824.354 320.449 824.487 321.174 824.487 321.912C824.487 321.958 824.483 322.007 824.475 322.059C824.475 322.105 824.475 322.157 824.475 322.213L818.934 319.013V318.272L824.014 321.205L823.675 321.303C823.675 320.771 823.574 320.241 823.371 319.713C823.177 319.181 822.911 318.701 822.571 318.271C822.232 317.842 821.84 317.499 821.395 317.242C820.959 316.99 820.567 316.881 820.219 316.913C819.872 316.946 819.601 317.116 819.407 317.424C819.213 317.732 819.116 318.157 819.116 318.698V318.852C819.116 319.412 819.221 319.968 819.431 320.518C819.649 321.064 819.948 321.569 820.328 322.03C820.716 322.488 821.157 322.859 821.65 323.143C822.038 323.368 822.397 323.496 822.729 323.529C823.068 323.566 823.359 323.491 823.602 323.305L824.087 324.229C823.804 324.457 823.448 324.551 823.02 324.509C822.6 324.471 822.135 324.306 821.626 324.012Z"
            fill="white" />
        <mask id="mask0_18_1195" style="mask-type:alpha" maskUnits="userSpaceOnUse" x="706" y="19"
            width="318" height="184">
            <path d="M865.49 20.0002L707.061 110.838L865.49 202.107L1022.2 110.838L865.49 20.0002Z"
                fill="#8E2C2C" stroke="black" />
        </mask>
        <g mask="url(#mask0_18_1195)">
            <path
                d="M865.92 82.4247C873.239 77.1017 882.71 77.6891 885.293 80.7026L884.001 119.449L877.974 151.307L835.354 187.039C825.165 184.313 776.115 164.394 773.36 161.639C765.61 153.889 761.736 140.544 768.194 128.92C771.349 123.239 779.817 120.31 786.275 122.032L799.621 116.435C802.634 112.991 810.703 105.256 818.133 103.089C828.465 100.076 842.815 102.659 851.713 106.103C854.87 99.3581 856.449 89.3126 865.92 82.4247Z"
                fill="black" fill-opacity="0.5" />
            <path fill-rule="evenodd" clip-rule="evenodd"
                d="M888.201 133.76C878.928 133.022 872.012 122.229 872.012 107.098C872.012 89.5045 881.363 72.7083 892.897 69.5829C894.512 69.1454 896.084 68.999 897.594 69.1191L906.752 69.9462C905.242 69.8261 903.67 69.9725 902.055 70.4101C890.521 73.5354 881.17 90.3317 881.17 107.926C881.17 123.056 888.086 133.849 897.359 134.587L888.201 133.76Z"
                fill="black" />
            <path fill-rule="evenodd" clip-rule="evenodd"
                d="M897.592 69.119C906.866 69.8566 913.781 80.6497 913.781 95.7804C913.781 113.374 904.431 130.171 892.896 133.296C891.281 133.733 889.709 133.88 888.199 133.76L897.358 134.587C898.867 134.707 900.439 134.561 902.054 134.123C913.589 130.998 922.94 114.201 922.94 96.6076C922.94 81.4768 916.024 70.6838 906.751 69.9462L897.592 69.119Z"
                fill="black" />
            <path
                d="M893.028 70.0651C898.572 68.5632 903.598 70.612 907.275 75.2233C910.965 79.8522 913.283 87.0632 913.283 95.7809C913.283 104.494 910.966 113.007 907.229 119.72C903.602 126.235 898.674 130.994 893.289 132.662L892.767 132.813C887.223 134.315 882.196 132.267 878.52 127.655C874.829 123.026 872.512 115.816 872.512 107.098C872.512 98.3854 874.828 89.8715 878.566 83.1579C882.192 76.643 887.121 71.8849 892.506 70.2174L893.028 70.0651Z"
                fill="#BA8FFF" stroke="black" />
            <path
                d="M882.097 104.419C882.277 104.319 882.496 104.326 882.706 104.447L901.777 115.458C902.125 115.659 902.195 116.296 901.888 116.468L897.186 119.098C897.006 119.199 896.787 119.192 896.577 119.07L877.507 108.06C877.158 107.859 877.088 107.222 877.396 107.05L882.097 104.419Z"
                fill="black" />
            <path
                d="M885.794 85.3894C885.98 85.2922 886.199 85.2994 886.404 85.4173L905.474 96.4276C905.822 96.6288 905.892 97.2658 905.585 97.4378L900.884 100.068C900.704 100.169 900.485 100.161 900.274 100.04L881.204 89.0298C880.856 88.8286 880.786 88.1916 881.093 88.0196L885.794 85.3894Z"
                fill="black" />
            <path
                d="M900.078 104.218C899.97 103.951 899.793 103.729 899.582 103.608L880.512 92.5976C880.163 92.3964 879.885 92.8322 880.07 93.2887L882.903 100.269C883.012 100.536 883.189 100.758 883.4 100.879L902.47 111.889C902.818 112.091 903.097 111.655 902.912 111.198L900.078 104.218Z"
                fill="black" />
            <path fill-rule="evenodd" clip-rule="evenodd"
                d="M891.047 171.017C886.023 166.795 884.056 159.088 886.44 149.37C890.699 132.017 907.224 114.82 923.349 110.961C930.444 109.262 936.279 110.429 940.227 113.747L949.551 121.863C945.603 118.545 939.768 117.379 932.673 119.077C916.548 122.937 900.023 140.133 895.765 157.487C893.38 167.205 895.347 174.911 900.372 179.134L891.047 171.017Z"
                fill="black" stroke="black" stroke-width="0.3" stroke-linejoin="round" />
            <path fill-rule="evenodd" clip-rule="evenodd"
                d="M940.228 113.746C945.253 117.969 947.22 125.675 944.835 135.393C940.576 152.747 924.052 169.943 907.927 173.803C900.832 175.501 894.996 174.335 891.048 171.017L900.372 179.133C904.32 182.451 910.156 183.618 917.251 181.919C933.376 178.06 949.9 160.863 954.159 143.51C956.544 133.792 954.577 126.085 949.552 121.863L940.228 113.746Z"
                fill="black" stroke="black" stroke-width="0.3" stroke-linejoin="round" />
            <path
                d="M923.466 111.447C931.403 109.547 937.628 111.308 941.36 115.552C945.104 119.81 946.454 126.694 944.348 135.274C942.244 143.849 937.101 152.412 930.47 159.312C924.045 165.999 916.259 171.088 908.555 173.129L907.81 173.317C899.873 175.217 893.648 173.456 889.915 169.212C886.171 164.954 884.821 158.069 886.926 149.49C889.031 140.914 894.175 132.352 900.806 125.452C907.438 118.549 915.52 113.349 923.466 111.447Z"
                fill="#BA8FFF" stroke="black" />
            <path
                d="M926.939 120.589C927.191 120.121 927.72 119.816 928.112 119.958C933.835 120.855 937.435 124.773 937.559 130.787C937.766 140.809 928.317 153.169 916.342 158.457C916.193 158.589 915.963 158.63 915.847 158.65C915.42 158.62 915.293 158.325 915.43 157.877L915.908 156.311C916.079 155.751 916.413 155.374 916.942 155.069C922.18 152.557 927.078 148.306 930.244 143.3C936.221 134.093 934.588 125.17 926.557 123.621C926.279 123.458 926.071 123.071 926.208 122.623L926.686 121.057C926.755 120.833 926.789 120.721 926.939 120.589ZM915.93 122C916.357 122.031 916.484 122.326 916.347 122.774L915.868 124.341C915.697 124.901 915.364 125.277 914.835 125.582C909.597 128.094 904.699 132.345 901.533 137.35C895.556 146.557 897.189 155.481 905.22 157.03C905.498 157.193 905.706 157.58 905.604 157.916L905.125 159.483C905.056 159.706 905.022 159.818 904.872 159.95C904.621 160.418 904.091 160.724 903.699 160.581C897.86 159.705 894.376 155.765 894.218 149.864C894.011 139.842 903.46 127.482 915.435 122.194C915.584 122.062 915.814 122.021 915.93 122ZM920.836 126.642C921.378 126.652 921.621 126.927 921.484 127.375L920.663 130.061C923.245 129.817 924.738 131.353 924.447 133.734L924.412 133.846C924.275 134.294 923.827 134.691 923.366 134.772L921.522 135.097C921.177 135.158 920.899 134.995 920.886 134.68C920.823 133.103 919.876 132.634 917.801 133C915.497 133.407 914.036 134.617 913.557 136.184C913.078 137.751 913.496 138.524 916.816 138.362C921.486 138.068 923.496 138.985 922.298 142.902C921.374 145.923 918.35 148.68 914.722 149.849L913.901 152.535C913.614 153.115 913.166 153.512 912.705 153.593L910.977 153.898C910.435 153.887 910.191 153.612 910.328 153.165L911.149 150.479C907.517 150.59 906.289 148.901 906.684 146.184L906.718 146.072C906.855 145.625 907.303 145.228 907.763 145.147L909.723 144.801C910.069 144.74 910.347 144.903 910.325 145.33C910.157 146.948 910.818 147.996 913.815 147.468C916.004 147.082 917.994 145.566 918.542 143.775C919.089 141.985 918.257 141.497 915.201 141.506C910.532 141.8 908.671 140.751 909.8 137.058C910.656 134.26 913.53 131.636 917.124 130.579L917.911 128.005C918.198 127.425 918.646 127.028 919.107 126.946L920.836 126.642Z"
                fill="black" />
            <path fill-rule="evenodd" clip-rule="evenodd"
                d="M895.451 152.173C890.846 157.459 879.005 156.195 865.192 148.069C847.482 137.65 833.236 119.897 833.371 108.416C833.401 105.89 834.125 103.878 835.424 102.387L828.114 110.13C826.815 111.621 826.092 113.632 826.062 116.158C825.926 127.639 840.173 145.393 857.882 155.811C871.696 163.938 883.536 165.201 888.141 159.916L895.451 152.173Z"
                fill="black" />
            <path fill-rule="evenodd" clip-rule="evenodd"
                d="M835.425 102.387C840.03 97.1017 851.871 98.3655 865.684 106.492C883.393 116.911 897.64 134.664 897.504 146.145C897.475 148.671 896.751 150.683 895.452 152.173L888.143 159.916C889.442 158.425 890.165 156.413 890.195 153.887C890.33 142.406 876.084 124.653 858.374 114.235C844.561 106.108 832.721 104.844 828.115 110.13L835.425 102.387Z"
                fill="black" />
            <path
                d="M842.967 99.7407C848.495 99.4115 856.121 101.594 864.606 106.445L865.429 106.923C874.232 112.102 882.174 119.104 887.894 126.233C893.631 133.382 897.068 140.575 897.003 146.139C896.97 148.898 896.082 150.965 894.548 152.387C893.006 153.818 890.756 154.65 887.909 154.82C882.38 155.149 874.754 152.967 866.269 148.116L865.446 147.638C856.643 142.46 848.7 135.456 842.98 128.328C837.243 121.179 833.806 113.985 833.871 108.422C833.904 105.662 834.794 103.596 836.327 102.173C837.869 100.743 840.12 99.9102 842.967 99.7407Z"
                fill="#BA8FFF" stroke="black" />
            <path
                d="M846.423 113.113C845.96 112.804 845.69 112.34 845.872 112.097C847.313 108.224 851.703 106.704 857.961 108.259C868.391 110.85 880.391 121.029 884.82 131.093C884.943 131.236 884.965 131.413 884.976 131.501C884.906 131.8 884.588 131.812 884.135 131.591L882.551 130.818C881.985 130.542 881.623 130.199 881.353 129.735C879.21 125.278 875.228 120.59 870.31 116.944C861.277 110.125 851.861 108.861 849.539 114.218C849.345 114.373 848.925 114.418 848.472 114.197L846.887 113.424C846.66 113.313 846.547 113.257 846.423 113.113ZM846.911 121.421C846.98 121.123 847.299 121.112 847.752 121.333L849.337 122.106C849.903 122.382 850.264 122.724 850.534 123.189C852.678 127.645 856.659 132.333 861.578 135.979C870.611 142.798 880.026 144.062 882.348 138.705C882.542 138.551 882.963 138.507 883.302 138.672L884.887 139.445C885.113 139.556 885.226 139.611 885.35 139.754C885.814 140.063 886.084 140.528 885.901 140.772C884.471 144.733 880.071 146.164 873.926 144.665C863.497 142.074 851.496 131.895 847.068 121.831C846.944 121.688 846.922 121.51 846.911 121.421ZM852.168 119.161C852.227 118.774 852.534 118.674 852.987 118.895L855.705 120.22C855.681 118.295 857.41 117.641 859.857 118.501L859.971 118.556C860.423 118.777 860.795 119.208 860.839 119.562L861.013 120.979C861.046 121.244 860.852 121.399 860.523 121.322C858.879 120.936 858.308 121.49 858.504 123.083C858.721 124.852 859.849 126.234 861.434 127.008C863.019 127.781 863.86 127.691 863.987 125.257C864.096 121.817 865.227 120.621 869.189 122.553C872.246 124.044 874.841 126.974 875.733 129.905L878.451 131.23C879.027 131.595 879.399 132.026 879.443 132.38L879.606 133.707C879.547 134.094 879.24 134.195 878.788 133.974L876.07 132.649C875.862 135.293 873.998 135.714 871.211 134.688L871.098 134.632C870.645 134.411 870.273 133.98 870.229 133.626L870.045 132.122C870.012 131.857 870.206 131.702 870.648 131.834C872.313 132.397 873.461 132.208 873.179 129.907C872.973 128.226 871.575 126.38 869.763 125.496C867.952 124.613 867.371 125.078 867.109 127.28C866.999 130.72 865.744 131.772 862.008 129.949C859.178 128.569 856.707 125.784 855.928 122.908L853.324 121.638C852.747 121.273 852.375 120.842 852.331 120.488L852.168 119.161Z"
                fill="black" />
            <path fill-rule="evenodd" clip-rule="evenodd"
                d="M844.659 171.64C838.921 176.858 829.659 177.826 819.21 173.257C801.795 165.643 787.678 145.533 787.678 128.342C787.678 121.465 789.937 116.097 793.762 112.618L785.034 119.848C781.209 123.326 778.95 128.695 778.95 135.571C778.95 152.763 793.068 172.872 810.483 180.486C820.932 185.055 830.194 184.088 835.931 178.869L844.659 171.64Z"
                fill="black" />
            <path fill-rule="evenodd" clip-rule="evenodd"
                d="M793.763 112.618C799.5 107.4 808.762 106.433 819.211 111.001C836.626 118.616 850.744 138.725 850.744 155.917C850.744 162.793 848.485 168.161 844.66 171.64L835.932 178.869C839.757 175.39 842.016 170.022 842.016 163.146C842.016 145.954 827.899 125.845 810.484 118.23C800.035 113.662 790.773 114.629 785.035 119.847L793.763 112.618Z"
                fill="black" />
            <path
                d="M797.155 110.807C802.513 107.861 809.918 107.701 818.206 111.118L819.01 111.46C827.62 115.224 835.435 122.089 841.098 130.155C846.762 138.223 850.244 147.45 850.244 155.917C850.244 164.369 846.781 170.418 841.266 173.451C835.908 176.397 828.503 176.557 820.215 173.14L819.411 172.799C810.801 169.034 802.985 162.169 797.323 154.103C791.658 146.035 788.178 136.808 788.178 128.342C788.178 119.889 791.64 113.84 797.155 110.807Z"
                fill="#BA8FFF" stroke="black" />
            <path
                d="M828.147 139.112C829.883 137.898 830.622 136.005 829.427 133.106C827.801 129.143 823.791 128.178 819.131 128.274L817.431 122.718L813.911 123.088L815.564 128.498C814.637 128.595 813.699 128.712 812.764 128.829L811.099 123.385L807.582 123.754L809.279 129.308C808.521 129.403 807.777 129.496 807.046 129.573L807.041 129.556L802.184 130.065L803.289 133.676C803.289 133.676 805.875 133.356 805.846 133.406C807.271 133.257 807.98 134.003 808.324 134.675L810.26 141.004L812.977 149.894C813.046 150.331 812.993 151.047 811.996 151.153C812.053 151.187 809.435 151.422 809.435 151.422L809.972 155.533L814.552 155.052C815.406 154.963 816.249 154.887 817.073 154.807L818.794 160.425L822.311 160.056L820.61 154.497C821.583 154.415 822.52 154.325 823.431 154.228L825.122 159.761L828.642 159.391L826.93 153.782C832.747 152.833 836.452 150.966 835.335 145.573C834.436 141.231 831.744 139.533 828.147 139.112ZM814.064 132.795C816.049 132.586 822.108 131.322 823.327 135.307C824.494 139.127 818.115 139.337 816.128 139.546L814.064 132.795ZM819.444 150.399L817.17 142.954C819.555 142.703 826.836 141.258 828.176 145.637C829.461 149.838 821.831 150.146 819.444 150.399Z"
                fill="black" />
            <path fill-rule="evenodd" clip-rule="evenodd"
                d="M832.296 183.209C831.606 181.376 831.242 179.419 831.242 177.357C831.242 162.631 849.839 148.152 872.78 145.017C892.509 142.322 909.026 148.895 913.264 160.155L916.159 168.909C911.921 157.649 895.404 151.076 875.675 153.771C852.734 156.906 834.137 171.385 834.137 186.111C834.137 188.173 834.501 190.13 835.191 191.964L832.296 183.209Z"
                fill="black" />
            <path fill-rule="evenodd" clip-rule="evenodd"
                d="M913.263 160.155C913.953 161.988 914.317 163.945 914.317 166.007C914.317 180.733 895.72 195.212 872.779 198.347C853.05 201.042 836.533 194.469 832.296 183.209L835.19 191.963C839.428 203.224 855.945 209.796 875.674 207.101C898.615 203.966 917.212 189.487 917.212 174.761C917.212 172.699 916.848 170.742 916.158 168.909L913.263 160.155Z"
                fill="black" />
            <path
                d="M872.847 145.513C884.24 143.956 894.519 145.517 901.926 149.26C909.331 153.002 913.818 158.888 913.818 166.007C913.818 173.156 909.296 180.327 901.844 186.129C894.635 191.742 884.744 196.021 873.777 197.698L872.712 197.851C861.319 199.408 851.041 197.847 843.633 194.104C836.229 190.362 831.742 184.477 831.742 177.358C831.742 170.209 836.263 163.037 843.715 157.235C850.924 151.622 860.816 147.343 871.783 145.666L872.847 145.513Z"
                fill="#BA8FFF" stroke="black" />
            <path d="M846.243 162.979L882.66 175.686L886.213 161.143L846.243 162.979Z" fill="black"
                stroke="#BA8FFF" stroke-linejoin="round" />
            <path
                d="M846.243 162.979L860.137 183.62L882.659 175.686L865.796 169.806L846.243 162.979Z"
                fill="black" stroke="#BA8FFF" stroke-linejoin="round" />
            <path d="M885.844 176.802L899.13 181.438L889.3 162.21L885.844 176.802Z" fill="black"
                stroke="#BA8FFF" stroke-linejoin="round" />
            <path d="M899.13 181.438L885.845 176.802L863.216 184.694L899.13 181.438Z" fill="black"
                stroke="#BA8FFF" stroke-linejoin="round" />
            <path d="M882.659 175.686L886.213 161.143L865.796 169.806L882.659 175.686Z" fill="black"
                stroke="#BA8FFF" stroke-linejoin="round" />
            <path d="M860.137 183.62L882.656 175.689L865.796 169.807L860.137 183.62Z" fill="black"
                stroke="#BA8FFF" stroke-linejoin="round" />
        </g>
        <path fill-rule="evenodd" clip-rule="evenodd"
            d="M519.789 56.787L538.813 53.7738L549.833 57.5246L530.808 60.5378L519.789 56.787Z"
            fill="black" />
        <path fill-rule="evenodd" clip-rule="evenodd"
            d="M538.813 53.7738L538.528 60.5608L549.548 64.3116L549.833 57.5246L538.813 53.7738Z"
            fill="black" />
        <path fill-rule="evenodd" clip-rule="evenodd"
            d="M538.528 60.5608L543.964 59.6999L554.983 63.4507L549.548 64.3116L538.528 60.5608Z"
            fill="black" />
        <path fill-rule="evenodd" clip-rule="evenodd"
            d="M543.964 59.6999L543.109 80.0608L554.129 83.8116L554.983 63.4507L543.964 59.6999Z"
            fill="black" />
        <path fill-rule="evenodd" clip-rule="evenodd"
            d="M543.109 80.0608L553.981 78.339L565 82.0898L554.129 83.8116L543.109 80.0608Z"
            fill="black" />
        <path fill-rule="evenodd" clip-rule="evenodd"
            d="M553.981 78.339L552.841 105.487L541.97 107.209L541.115 127.57L535.68 128.431L535.395 135.218L516.37 138.231L516.085 145.018L488.907 149.322L499.927 153.073L527.105 148.768L527.39 141.981L546.414 138.968L546.699 132.181L552.135 131.32L552.989 110.959L563.861 109.238L565 82.0898L553.981 78.339Z"
            fill="black" />
        <path fill-rule="evenodd" clip-rule="evenodd"
            d="M488.907 149.322L489.192 142.535L500.211 146.286L499.927 153.073L488.907 149.322Z"
            fill="black" />
        <path fill-rule="evenodd" clip-rule="evenodd"
            d="M489.192 142.535L470.167 145.548L481.187 149.299L500.211 146.286L489.192 142.535Z"
            fill="black" />
        <path fill-rule="evenodd" clip-rule="evenodd"
            d="M470.167 145.548L470.452 138.761L481.472 142.512L481.187 149.299L470.167 145.548Z"
            fill="black" />
        <path fill-rule="evenodd" clip-rule="evenodd"
            d="M470.452 138.761L465.017 139.622L476.036 143.373L481.472 142.512L470.452 138.761Z"
            fill="black" />
        <path fill-rule="evenodd" clip-rule="evenodd"
            d="M465.017 139.622L465.871 119.261L476.891 123.012L476.036 143.373L465.017 139.622Z"
            fill="black" />
        <path fill-rule="evenodd" clip-rule="evenodd"
            d="M465.871 119.261L455 120.983L466.019 124.734L476.891 123.012L465.871 119.261Z"
            fill="black" />
        <path fill-rule="evenodd" clip-rule="evenodd"
            d="M455 120.983L456.139 93.8353L467.011 92.1135L467.865 71.7526L473.301 70.8917L473.586 64.1047L492.611 61.0915L492.895 54.3045L520.073 50L531.093 53.7508L503.915 58.0553L503.63 64.8423L484.605 67.8555L484.32 74.6425L478.885 75.5034L478.03 95.8643L467.159 97.5861L466.019 124.734L455 120.983Z"
            fill="black" />
        <path fill-rule="evenodd" clip-rule="evenodd"
            d="M520.074 50L519.789 56.787L530.808 60.5378L531.093 53.7508L520.074 50Z" fill="black" />
        <path fill-rule="evenodd" clip-rule="evenodd"
            d="M491.544 104.89L501.794 103.266L512.813 107.017L502.563 108.64L491.544 104.89Z"
            fill="black" />
        <path fill-rule="evenodd" clip-rule="evenodd"
            d="M507.993 76.8583L502.868 77.6699L502.6 84.0691L492.349 85.6926L492.081 92.0918L486.956 92.9036L486.687 99.3028L484.5 124.5H521L524 97L519.012 80.6091L507.993 76.8583Z"
            fill="black" />
        <path
            d="M519.789 56.787L538.813 53.7738L538.528 60.5608L543.964 59.6999L543.109 80.0608L553.981 78.339L552.841 105.487L541.97 107.209L541.115 127.57L535.68 128.431L535.395 135.218L516.37 138.231L516.085 145.018L488.907 149.322L489.192 142.535L470.167 145.548L470.452 138.761L465.017 139.622L465.871 119.261L455 120.983L456.139 93.8353L467.011 92.1135L467.865 71.7526L473.301 70.8917L473.586 64.1047L492.611 61.0915L492.895 54.3045L520.073 50L519.789 56.787ZM502.868 77.6699L502.6 84.0691L492.349 85.6926L492.081 92.0918L486.956 92.9036L486.687 99.3028L491.812 98.4911L491.544 104.89L501.794 103.266L501.525 109.665L486.15 112.101L485.881 118.5L501.257 116.065L500.988 122.464L506.113 121.652L506.381 115.253L516.631 113.63L516.9 107.23L522.025 106.419L522.294 100.019L517.168 100.831L517.437 94.4325L507.187 96.056L507.456 89.6567L517.706 88.0333L517.974 81.6341L507.724 83.2575L507.993 76.8583L502.868 77.6699ZM512.044 101.643L511.775 108.042L506.65 108.854L506.918 102.455L512.044 101.643ZM502.331 90.4684L502.062 96.8676L496.937 97.6793L497.206 91.2801L502.331 90.4684Z"
            fill="white" />
        <circle cx="617.986" cy="341.986" r="43.6091" transform="rotate(-46.995 617.986 341.986)"
            fill="white" stroke="black" />
        <path
            d="M653.586 320.865C661.617 334.4 661.047 350.653 653.497 363.273C651.913 365.921 645.922 364.55 645.943 360.512C645.973 354.577 648.406 349.977 644.354 340.545C640.301 331.114 633.966 323.037 626.957 316.543C622.631 312.536 622.537 298.921 634.263 303.924C642.068 307.254 648.924 313.007 653.586 320.865Z"
            fill="#BA8FFF" />
        <circle cx="1066.44" cy="250.436" r="57.2767" transform="rotate(-85.1709 1066.44 250.436)"
            fill="black" stroke="black" />
        <path
            d="M1062.78 208.44C1079.94 229.596 1085.95 239.199 1098.8 253.169C1108.01 263.197 1111.86 272.842 1109.5 280.222C1104.2 296.828 1080.31 305.8 1060.01 304.085C1030.29 301.574 1008.23 275.448 1010.75 245.73C1012.52 224.669 1026.16 207.457 1044.54 200.109C1049.3 198.205 1056.57 200.781 1062.78 208.44Z"
            fill="#A66CFF" />
        <path fill-rule="evenodd" clip-rule="evenodd"
            d="M338.244 245.238L333.61 243.653L340.098 241.434L344.732 243.019L338.244 245.238Z"
            fill="white" stroke="black" stroke-width="0.3" stroke-linejoin="round" />
        <path fill-rule="evenodd" clip-rule="evenodd"
            d="M333.61 243.653V262.128L340.098 259.909V241.434L333.61 243.653Z" fill="white"
            stroke="black" stroke-width="0.3" stroke-linejoin="round" />
        <path
            d="M330.829 244.423L324.341 246.642V252.8L328.976 254.385V260.543L333.61 262.128L340.098 259.909"
            stroke="black" stroke-width="0.3" stroke-linejoin="round" />
        <path d="M324.341 246.642L328.976 248.227L330.829 244.423L324.341 246.642Z" fill="white"
            stroke="black" stroke-width="0.3" stroke-linejoin="round" />
        <path d="M328.976 248.227V235.91L335.463 233.691" stroke="black" stroke-width="0.3"
            stroke-linejoin="round" />
        <path fill-rule="evenodd" clip-rule="evenodd"
            d="M328.976 235.91L338.244 239.08V245.238L344.732 243.019V236.861L335.463 233.691L328.976 235.91Z"
            fill="white" stroke="black" stroke-width="0.3" stroke-linejoin="round" />
        <path fill-rule="evenodd" clip-rule="evenodd"
            d="M324.341 246.642L319.707 245.057V238.898L326.195 236.679V242.838L330.829 244.423L324.341 246.642Z"
            fill="white" stroke="black" stroke-width="0.3" stroke-linejoin="round" />
        <path fill-rule="evenodd" clip-rule="evenodd"
            d="M319.707 238.898L324.341 240.483V246.642L330.829 244.423V238.264L326.195 236.679L319.707 238.898Z"
            fill="white" stroke="black" stroke-width="0.3" stroke-linejoin="round" />
        <path fill-rule="evenodd" clip-rule="evenodd"
            d="M319.707 238.898L287.268 227.803V221.645L293.756 219.426V225.584L326.195 236.679L319.707 238.898Z"
            fill="white" stroke="black" stroke-width="0.3" stroke-linejoin="round" />
        <path fill-rule="evenodd" clip-rule="evenodd"
            d="M287.268 221.645L319.707 232.74V238.898L326.195 236.679V230.521L293.756 219.426L287.268 221.645Z"
            fill="white" stroke="black" stroke-width="0.3" stroke-linejoin="round" />
        <path fill-rule="evenodd" clip-rule="evenodd"
            d="M287.268 221.645L282.634 220.06V213.901L289.122 211.683V217.841L293.756 219.426L287.268 221.645Z"
            fill="white" stroke="black" stroke-width="0.3" stroke-linejoin="round" />
        <path fill-rule="evenodd" clip-rule="evenodd"
            d="M282.634 213.901L287.268 215.486V221.645L293.756 219.426V213.267L289.122 211.683L282.634 213.901Z"
            fill="white" stroke="black" stroke-width="0.3" stroke-linejoin="round" />
        <path fill-rule="evenodd" clip-rule="evenodd"
            d="M342.878 240.665L338.244 239.08V232.921L344.732 230.702V236.861L349.366 238.446L342.878 240.665Z"
            fill="white" stroke="black" stroke-width="0.3" stroke-linejoin="round" />
        <path fill-rule="evenodd" clip-rule="evenodd"
            d="M338.244 232.921L342.878 234.506V240.665L349.366 238.446V232.287L344.732 230.702L338.244 232.921Z"
            fill="white" stroke="black" stroke-width="0.3" stroke-linejoin="round" />
        <path fill-rule="evenodd" clip-rule="evenodd"
            d="M282.634 213.902L278 212.317V175.366L284.488 173.147V210.098L289.122 211.683L282.634 213.902Z"
            fill="white" stroke="black" stroke-width="0.3" stroke-linejoin="round" />
        <path fill-rule="evenodd" clip-rule="evenodd"
            d="M278 175.366L282.634 176.951V213.902L289.122 211.683V174.732L284.488 173.147L278 175.366Z"
            fill="white" stroke="black" stroke-width="0.3" stroke-linejoin="round" />
        <path fill-rule="evenodd" clip-rule="evenodd"
            d="M347.512 236.091L342.878 234.506V197.555L349.366 195.337V232.287L354 233.872L347.512 236.091Z"
            fill="white" stroke="black" stroke-width="0.3" stroke-linejoin="round" />
        <path fill-rule="evenodd" clip-rule="evenodd"
            d="M342.878 197.555L347.512 199.14V236.091L354 233.872V196.921L349.366 195.337L342.878 197.555Z"
            fill="white" stroke="black" stroke-width="0.3" stroke-linejoin="round" />
        <path fill-rule="evenodd" clip-rule="evenodd"
            d="M305.805 206.43L301.171 204.845V198.687L307.659 196.468V202.626L312.293 204.211L305.805 206.43Z"
            fill="white" stroke="black" stroke-width="0.3" stroke-linejoin="round" />
        <path fill-rule="evenodd" clip-rule="evenodd"
            d="M301.171 198.687L305.805 200.272V206.43L312.293 204.211V198.053L307.659 196.468L301.171 198.687Z"
            fill="white" stroke="black" stroke-width="0.3" stroke-linejoin="round" />
        <path fill-rule="evenodd" clip-rule="evenodd"
            d="M315.073 209.6L310.439 208.015V201.857L316.927 199.638V205.796L321.561 207.381L315.073 209.6Z"
            fill="white" stroke="black" stroke-width="0.3" stroke-linejoin="round" />
        <path fill-rule="evenodd" clip-rule="evenodd"
            d="M310.439 201.857L315.073 203.442V209.6L321.561 207.381V201.223L316.927 199.638L310.439 201.857Z"
            fill="white" stroke="black" stroke-width="0.3" stroke-linejoin="round" />
        <path fill-rule="evenodd" clip-rule="evenodd"
            d="M324.341 212.77L319.707 211.185V205.027L326.195 202.808V208.966L330.829 210.551L324.341 212.77Z"
            fill="white" stroke="black" stroke-width="0.3" stroke-linejoin="round" />
        <path fill-rule="evenodd" clip-rule="evenodd"
            d="M319.707 205.027L324.341 206.612V212.77L330.829 210.551V204.393L326.195 202.808L319.707 205.027Z"
            fill="white" stroke="black" stroke-width="0.3" stroke-linejoin="round" />
        <path fill-rule="evenodd" clip-rule="evenodd"
            d="M287.268 178.536L282.634 176.951V170.792L289.122 168.573V174.732L293.756 176.317L287.268 178.536Z"
            fill="white" stroke="black" stroke-width="0.3" stroke-linejoin="round" />
        <path fill-rule="evenodd" clip-rule="evenodd"
            d="M282.634 170.792L287.268 172.377V178.536L293.756 176.317V170.158L289.122 168.573L282.634 170.792Z"
            fill="white" stroke="black" stroke-width="0.3" stroke-linejoin="round" />
        <path fill-rule="evenodd" clip-rule="evenodd"
            d="M342.878 197.555L338.244 195.971V189.812L344.732 187.593V193.752L349.366 195.337L342.878 197.555Z"
            fill="white" stroke="black" stroke-width="0.3" stroke-linejoin="round" />
        <path fill-rule="evenodd" clip-rule="evenodd"
            d="M338.244 189.812L342.878 191.397V197.555L349.366 195.337V189.178L344.732 187.593L338.244 189.812Z"
            fill="white" stroke="black" stroke-width="0.3" stroke-linejoin="round" />
        <path fill-rule="evenodd" clip-rule="evenodd"
            d="M338.244 189.812L287.268 172.377V166.219L293.756 164V170.158L344.732 187.593L338.244 189.812Z"
            fill="white" stroke="black" stroke-width="0.3" stroke-linejoin="round" />
        <path fill-rule="evenodd" clip-rule="evenodd"
            d="M287.268 166.219L338.244 183.654V189.812L344.732 187.593V181.435L293.756 164L287.268 166.219Z"
            fill="white" stroke="black" stroke-width="0.3" stroke-linejoin="round" />
        <path
            d="M338.244 245.238L333.61 243.653V262.128L328.976 260.543V254.385L324.341 252.8V246.642L328.976 248.227V235.91L338.244 239.08V245.238ZM324.341 246.642L319.707 245.057V238.898L324.341 240.483V246.642ZM319.707 238.898L287.268 227.803V221.645L319.707 232.74V238.898ZM287.268 221.645L282.634 220.06V213.902L287.268 215.486V221.645ZM342.878 240.665L338.244 239.08V232.921L342.878 234.506V240.665ZM282.634 213.902L278 212.317V175.366L282.634 176.951V213.902ZM347.512 236.091L342.878 234.506V197.556L347.512 199.14V236.091ZM305.805 206.43L301.171 204.845V198.687L305.805 200.272V206.43ZM315.073 209.6L310.439 208.015V201.857L315.073 203.442V209.6ZM324.341 212.77L319.707 211.185V205.027L324.341 206.612V212.77ZM287.268 178.536L282.634 176.951V170.792L287.268 172.377V178.536ZM342.878 197.556L338.244 195.971V189.812L342.878 191.397V197.556ZM338.244 189.812L287.268 172.377V166.219L338.244 183.654V189.812Z"
            fill="black" />
    </g>
    <defs>
        <clipPath id="clip0_18_1195">
            <rect width="1100" height="360" rx="40" fill="white" />
        </clipPath>
    </defs>
</svg>
    