<svg width="868" height="360" viewBox="0 0 868 360" fill="none" xmlns="http://www.w3.org/2000/svg">
<path d="M550.143 150.375L581.185 122.986C566.728 104.315 532.119 63.5763 509.344 49.9922C504.266 46.9634 499.333 44.0992 494.635 41.5351C493.272 49.2524 490.524 71.2613 490.434 97.5584C490.32 130.43 486.609 176.938 477.275 203.072C467.941 229.207 443.256 248.087 418.893 254.332C402.944 258.42 380.091 260.01 357.821 255.643C346.074 253.34 334.488 249.379 324.165 243.253C311.177 235.547 306.454 225.728 305.657 216.938C300.132 193.873 298.452 174.684 311.626 139.615C320.532 115.91 330.934 91.7473 340.445 68.9638C345.003 58.0428 349.356 47.4388 353.241 37.3538C357.47 26.3775 358.708 13.5609 358.382 1.66949C351.969 -0.52374 335.572 -3.70045 321.288 1.13855C305.878 6.359 250.576 35.3221 227.486 56.4172C223.823 59.7642 220.97 62.9131 219.216 65.7377C208.971 82.2395 198.914 97.0122 202.658 124.355C229.204 157.523 261.91 204.347 254.983 221.987C245.475 246.2 236.32 259.806 231.841 265.472C226.242 272.555 183.173 289.884 172.964 293.599C171.469 294.142 170.198 295.001 169.096 296.114C165.739 299.503 163.943 305.245 162.113 311.608C160.441 317.424 158.742 323.759 155.8 329.288C153.177 334.217 149.509 337.821 145.387 340.665C134.606 348.102 120.715 350.34 114.261 357.494C107.501 364.986 102.17 379.066 101.966 387.472C103.853 390.94 105.929 394.48 108.17 398.161C118.712 415.48 139.453 446.522 148.507 459.877L122.13 445.84C115.089 433.86 107.619 419.822 102.571 405.244C100.622 399.616 96.0201 380.413 95.148 372.936C90.6746 361.189 88.9291 349.181 91.0115 334.144C91.5728 330.091 92.7865 326.455 94.4796 323.183C102.468 307.745 121.128 300.416 132.302 295.743C133.698 295.16 134.976 294.618 136.103 294.107C145.641 289.778 145.247 276.158 154.271 265.356C156.658 262.499 159.702 259.839 163.764 257.6C178.551 249.448 219.236 244.468 241.212 233.868C241.732 228.962 240.907 215.777 233.447 202.293C225.986 188.809 203.906 137.479 193.798 113.5C168.869 70.9605 175.594 48.011 191.436 21.6806C200.809 6.10112 229.096 -12.4723 256.318 -27.0339C277.473 -38.35 297.985 -47.2433 308.479 -50.4258C327.678 -56.2481 345.834 -41.5485 352.513 -33.4709L392.988 22.8302C394.59 26.1222 398.167 35.1 399.657 44.675C403.539 69.61 381.818 121.169 358.801 145.511C352.272 152.416 345.823 159.087 339.819 165.299L339.045 166.099C325.084 180.544 313.643 192.416 309.399 198.805C317.143 206.274 325.435 210.631 333.956 212.822C353.374 217.816 373.976 211.56 391.963 205.239C421.219 194.956 463.902 174.916 468.292 144.32C472.682 113.725 449.592 55.6984 453.282 38.4519C454.272 33.822 456.719 31.2859 460.321 30.3816C478.344 22.8722 515.615 7.95672 520.518 8.37035C526.646 8.88737 550.79 19.8102 575.984 43.3771C607.742 73.085 640.604 116.187 640.996 129.203C641.309 139.615 611.552 155.308 597.181 161.686C590.577 171.344 563.071 158.169 550.143 150.375Z" fill="#A66CFF"/>
<path d="M581.185 122.986L550.143 150.375C563.071 158.169 590.577 171.344 597.181 161.686M581.185 122.986C589.269 131.862 603.784 152.027 597.181 161.686M581.185 122.986C566.728 104.315 532.119 63.5764 509.344 49.9922C504.266 46.9634 499.333 44.0992 494.635 41.5351M597.181 161.686C611.552 155.308 641.309 139.615 640.996 129.203C640.604 116.187 607.742 73.085 575.984 43.3771C550.79 19.8102 526.646 8.88738 520.518 8.37034C515.615 7.95672 478.344 22.8722 460.321 30.3816M309.399 198.805C307.095 202.873 304.986 209.541 305.657 216.938M309.399 198.805C313.643 192.416 325.084 180.544 339.045 166.099M309.399 198.805C317.143 206.274 325.435 210.631 333.956 212.822M460.321 30.3816C456.719 31.2859 454.272 33.822 453.282 38.4519C449.592 55.6984 472.682 113.725 468.292 144.32C463.902 174.915 421.219 194.956 391.963 205.239C373.976 211.56 353.374 217.816 333.956 212.822M460.321 30.3816C467.742 28.5181 480.063 33.5834 494.635 41.5351M494.635 41.5351C493.272 49.2524 490.524 71.2613 490.434 97.5584C490.32 130.43 486.609 176.938 477.275 203.072C467.941 229.207 443.256 248.087 418.893 254.332C402.944 258.42 380.091 260.01 357.821 255.643M352.513 -33.4709L392.988 22.8302C394.59 26.1222 398.167 35.1 399.657 44.675C403.539 69.61 381.818 121.169 358.801 145.511C351.991 152.713 345.268 159.662 339.045 166.099M352.513 -33.4709C345.834 -41.5485 327.678 -56.2481 308.479 -50.4258C297.985 -47.2433 277.473 -38.35 256.318 -27.0339M352.513 -33.4709C355.042 -27.0097 357.97 -13.4146 358.382 1.66949M305.657 216.938C306.454 225.728 311.177 235.547 324.165 243.253C334.488 249.379 346.074 253.34 357.821 255.643M305.657 216.938C300.132 193.873 298.452 174.684 311.626 139.615C320.532 115.91 330.934 91.7473 340.445 68.9638M193.798 113.5C168.869 70.9605 175.594 48.011 191.436 21.6806C200.809 6.10111 229.096 -12.4723 256.318 -27.0339M193.798 113.5C203.906 137.479 225.986 188.809 233.447 202.293C240.907 215.777 241.732 228.962 241.212 233.868M193.798 113.5C196.031 117.309 199.599 120.533 202.658 124.355M254.983 221.987C245.475 246.2 236.32 259.806 231.841 265.472C226.242 272.555 183.173 289.884 172.964 293.599C171.469 294.142 170.198 295.001 169.096 296.114M254.983 221.987C253.141 226.679 248.094 230.549 241.212 233.868M254.983 221.987C261.91 204.347 229.204 157.523 202.658 124.355M163.764 257.6C178.551 249.448 219.236 244.468 241.212 233.868M163.764 257.6L169.096 296.114M163.764 257.6C159.702 259.839 156.658 262.499 154.271 265.356M95.148 372.936C90.6746 361.189 88.9291 349.181 91.0115 334.144C91.5728 330.091 92.7865 326.455 94.4796 323.183M95.148 372.936C96.0201 380.413 100.622 399.616 102.571 405.244C107.619 419.822 115.089 433.86 122.13 445.84L148.507 459.877C139.453 446.522 118.712 415.48 108.17 398.161C105.929 394.48 103.853 390.94 101.966 387.472M95.148 372.936C96.9857 377.761 99.2838 382.543 101.966 387.472M101.966 387.472C102.17 379.066 107.501 364.986 114.261 357.494M114.261 357.494C120.715 350.34 134.606 348.103 145.387 340.665M114.261 357.494L94.4796 323.183M358.382 1.66949C358.708 13.5609 357.47 26.3775 353.241 37.3538C349.356 47.4388 345.003 58.0428 340.445 68.9638M358.382 1.66949C351.969 -0.523738 335.572 -3.70045 321.288 1.13854C305.878 6.35901 250.576 35.322 227.486 56.4172M202.658 124.355C198.914 97.0122 208.971 82.2395 219.216 65.7377C220.97 62.9131 223.823 59.7642 227.486 56.4172M256.318 -27.0339C241.902 0.0551093 226.596 31.2446 227.486 56.4172M340.445 68.9638C348.405 99.7284 347.05 124.621 339.045 166.099M333.956 212.822C335.317 230.893 342.308 240.102 357.821 255.643M169.096 296.114C165.739 299.503 163.943 305.246 162.113 311.608M154.271 265.356C145.247 276.158 145.641 289.778 136.103 294.107C134.976 294.618 133.698 295.16 132.302 295.743M154.271 265.356L162.113 311.608M162.113 311.608C160.441 317.424 158.742 323.759 155.8 329.288C153.177 334.217 149.509 337.821 145.387 340.665M132.302 295.743L145.387 340.665M132.302 295.743C121.128 300.416 102.468 307.745 94.4796 323.183" stroke="black"/>
<path d="M399.657 44.675C403.539 69.61 381.818 121.169 358.801 145.511C352.272 152.416 345.823 159.087 339.819 165.299L339.045 166.099C325.084 180.544 313.643 192.416 309.399 198.805C317.142 206.274 325.435 210.631 333.956 212.822C335.317 230.893 342.308 240.102 357.821 255.643C346.073 253.34 334.488 249.379 324.165 243.253C311.177 235.547 306.454 225.728 305.657 216.938C304.986 209.541 307.095 202.873 309.399 198.805C313.643 192.416 325.084 180.544 339.045 166.099C347.049 124.621 348.405 99.7283 340.444 68.9638C345.003 58.0428 349.356 47.4387 353.241 37.3538C357.47 26.3775 358.708 13.5608 358.382 1.66947C357.97 -13.4146 355.042 -27.0097 352.513 -33.4709L392.987 22.8302C394.59 26.1222 398.167 35.1 399.657 44.675Z" fill="#BA8FFF"/>
<path d="M193.798 113.5C168.869 70.9605 175.594 48.011 191.436 21.6806C200.809 6.10108 229.096 -12.4724 256.318 -27.034C241.902 0.0550778 226.596 31.2446 227.486 56.4171C223.823 59.7641 220.97 62.913 219.216 65.7376C208.971 82.2395 198.914 97.0121 202.658 124.355C229.203 157.523 261.91 204.347 254.983 221.987C245.475 246.2 236.32 259.806 231.841 265.472C226.242 272.555 183.173 289.884 172.964 293.599C171.469 294.142 170.198 295.001 169.096 296.114L163.763 257.6C178.551 249.448 219.236 244.468 241.212 233.868C248.093 230.549 253.141 226.679 254.983 221.987C261.91 204.347 229.203 157.523 202.658 124.355C199.599 120.533 196.03 117.309 193.798 113.5Z" fill="#BA8FFF"/>
<path d="M95.148 372.936C90.6745 361.189 88.929 349.181 91.0115 334.144C91.5727 330.091 92.7864 326.455 94.4795 323.183C102.468 307.745 121.128 300.416 132.302 295.743C133.698 295.16 134.976 294.618 136.102 294.107C145.641 289.778 145.247 276.158 154.271 265.355L162.113 311.608C160.441 317.424 158.742 323.759 155.8 329.288C153.177 334.217 149.509 337.821 145.387 340.665L132.302 295.743C121.128 300.416 102.468 307.745 94.4795 323.183L114.261 357.494C107.501 364.986 102.17 379.066 101.966 387.472C99.2837 382.543 96.9857 377.761 95.148 372.936Z" fill="#BA8FFF"/>
<path d="M309.399 198.805C307.095 202.873 304.986 209.541 305.657 216.938C306.454 225.728 311.177 235.547 324.165 243.253C334.488 249.379 346.073 253.34 357.821 255.643C342.308 240.102 335.317 230.893 333.956 212.822C325.435 210.631 317.143 206.274 309.399 198.805ZM309.399 198.805C313.643 192.416 325.084 180.544 339.045 166.099M254.983 221.987C245.475 246.2 236.32 259.806 231.841 265.472C226.242 272.555 183.173 289.884 172.964 293.599C171.469 294.142 170.198 295.001 169.096 296.114L163.763 257.6C178.551 249.448 219.236 244.468 241.212 233.868C248.093 230.549 253.141 226.679 254.983 221.987ZM254.983 221.987C261.91 204.347 229.203 157.523 202.658 124.355M108.17 398.161C105.929 394.48 103.853 390.94 101.966 387.472M102.571 405.244C100.622 399.616 96.02 380.413 95.148 372.936M95.148 372.936C90.6745 361.189 88.929 349.181 91.0115 334.144C91.5727 330.091 92.7864 326.455 94.4795 323.183M95.148 372.936C96.9857 377.761 99.2837 382.543 101.966 387.472M101.966 387.472C102.17 379.066 107.501 364.986 114.261 357.494L94.4795 323.183M202.658 124.355C199.599 120.533 196.03 117.309 193.798 113.5C168.869 70.9604 175.594 48.011 191.436 21.6806C200.809 6.10108 229.096 -12.4724 256.318 -27.034C241.902 0.0550803 226.596 31.2446 227.486 56.4171C223.823 59.7641 220.97 62.913 219.216 65.7376C208.971 82.2395 198.914 97.0121 202.658 124.355ZM339.045 166.099C345.268 159.662 351.991 152.713 358.801 145.511C381.818 121.169 403.539 69.61 399.657 44.675C398.167 35.1 394.59 26.1222 392.987 22.8302L352.513 -33.4709C355.042 -27.0097 357.97 -13.4146 358.382 1.66947C358.708 13.5608 357.47 26.3775 353.241 37.3538C349.356 47.4388 345.003 58.0428 340.444 68.9638C348.405 99.7284 347.049 124.621 339.045 166.099ZM132.302 295.743C133.698 295.16 134.976 294.618 136.102 294.107C145.641 289.778 145.247 276.158 154.271 265.355L162.113 311.608C160.441 317.424 158.742 323.759 155.8 329.288C153.176 334.217 149.509 337.821 145.387 340.665L132.302 295.743ZM132.302 295.743C121.128 300.416 102.468 307.745 94.4795 323.183" stroke="black"/>
<path d="M858 58C845 36 834.5 23 810 10H820C840.987 10 858 27.0132 858 48V58Z" fill="white"/>
<path d="M475.062 110.838L633.49 20.0001L790.196 110.838L810 202.537L790.574 191.344L791.057 294.236L633.49 385.505L473.34 294.236V137.633L398 94.0482L475.062 110.838Z" fill="white"/>
<path d="M475.062 110.838L633.49 20.0001M475.062 110.838L633.49 202.107M475.062 110.838L398 94.0482L473.34 137.633M633.49 20.0001L790.196 110.838M633.49 20.0001V202.107M790.196 110.838L633.49 202.107M790.196 110.838L790.574 191.344M790.196 110.838L810 202.537L790.574 191.344M633.49 202.107V385.505M633.49 202.107L554.276 184.456L473.34 137.633M633.49 385.505L791.057 294.236L790.574 191.344M633.49 385.505L473.34 294.236V137.633" stroke="black"/>
<path d="M633.15 385.872V202.474L553.936 184.823L473 138V294.603L633.15 385.872Z" fill="black" stroke="black"/>
<path d="M633 202.269L789.707 111L790.085 191.506L790.568 294.398L633 385.667V202.269Z" fill="#BA8FFF" stroke="black"/>
<path d="M664.732 248V246L668.196 244V236L666.464 237V235L668.196 234V232L671.66 230V242L675.124 240V242L664.732 248ZM676.856 241V237L678.588 236V234L680.32 233V231L683.784 229V227L685.517 226V224L680.32 227V229L676.856 231V229L678.588 228V226L687.249 221V223L688.981 222V226L687.249 227V229L685.517 230V232L682.052 234V236L688.981 232V234L676.856 241ZM694.177 231V229L692.445 230V228L690.713 229V223L692.445 222V220L694.177 219V217L699.373 214V216L701.105 215V217L702.837 216V222L701.105 223V225L699.373 226V228L694.177 231ZM695.909 228L699.373 226V218L697.641 219V217L694.177 219V227L695.909 226V228ZM663 271V261L673.392 255V257L675.124 256V264L671.66 266V258L669.928 259V267L666.464 269V261L664.732 262V270L663 271ZM682.052 248V246L685.517 244V246L682.052 248ZM678.588 262V260L682.052 258V252L680.32 253V251L685.517 248V256L688.981 254V256L678.588 262ZM692.445 254V252L695.909 250V240L694.177 241V239L699.373 236V248L702.837 246V248L692.445 254ZM706.301 246V244L709.765 242V232L708.033 233V231L713.229 228V240L716.693 238V240L706.301 246ZM723.622 224V222L727.086 220V222L723.622 224ZM720.158 238V236L723.622 234V228L721.89 229V227L727.086 224V232L730.55 230V232L720.158 238ZM734.014 230V228L732.282 229V223L734.014 222V220L742.674 215V217L744.406 216V222L742.674 223V225L734.014 230ZM735.746 227L740.942 224V218L735.746 221V227ZM746.138 223V213L756.531 207V209L758.263 208V216L754.799 218V210L749.602 213V221L746.138 223Z" fill="black"/>
<path d="M664.382 299.202V289.402L667.559 287.568C668.278 287.153 668.896 286.931 669.414 286.903C669.931 286.866 670.327 287.02 670.602 287.365C670.885 287.696 671.026 288.217 671.026 288.926C671.026 289.617 670.885 290.296 670.602 290.963C670.327 291.616 669.931 292.228 669.414 292.797C668.896 293.357 668.278 293.845 667.559 294.26L664.879 295.807L665.279 295.1V298.684L664.382 299.202ZM670.177 295.856L667.995 293.56L668.965 293L671.16 295.289L670.177 295.856ZM665.279 295.184L664.879 294.925L667.534 293.392C668.383 292.902 669.026 292.316 669.462 291.635C669.907 290.949 670.129 290.219 670.129 289.444C670.129 288.66 669.907 288.182 669.462 288.009C669.026 287.832 668.383 287.988 667.534 288.478L664.879 290.011L665.279 289.29V295.184ZM675.666 292.757C675.003 293.14 674.421 293.317 673.92 293.289C673.419 293.252 673.027 293.035 672.744 292.638C672.461 292.232 672.319 291.665 672.319 290.937C672.319 290.209 672.453 289.488 672.719 288.774C672.994 288.056 673.366 287.402 673.835 286.814C674.312 286.212 674.845 285.741 675.435 285.4C676.033 285.055 676.563 284.908 677.024 284.959C677.492 284.997 677.86 285.223 678.127 285.638C678.394 286.044 678.527 286.616 678.527 287.353C678.527 287.4 678.523 287.454 678.515 287.514C678.515 287.561 678.515 287.612 678.515 287.668L672.974 290.867V290.125L678.054 287.192L677.715 287.682C677.715 287.15 677.614 286.737 677.412 286.443C677.218 286.135 676.951 285.963 676.611 285.925C676.272 285.888 675.88 285.998 675.435 286.254C674.999 286.506 674.607 286.849 674.259 287.283C673.912 287.717 673.641 288.2 673.447 288.732C673.253 289.264 673.156 289.801 673.156 290.342V290.496C673.156 291.056 673.261 291.49 673.471 291.798C673.689 292.092 673.988 292.251 674.368 292.274C674.756 292.284 675.197 292.146 675.69 291.861C676.078 291.637 676.438 291.35 676.769 291C677.108 290.646 677.399 290.235 677.642 289.768L678.127 290.132C677.844 290.688 677.488 291.192 677.06 291.644C676.64 292.092 676.175 292.463 675.666 292.757ZM682.995 291.242C682.413 291.578 681.855 291.802 681.322 291.914C680.788 292.026 680.356 291.996 680.025 291.823L680.461 290.815C680.76 290.95 681.128 290.981 681.564 290.906C682.009 290.836 682.478 290.659 682.971 290.374C683.779 289.907 684.373 289.345 684.753 288.687C685.133 288.038 685.323 287.257 685.323 286.342V284.508L685.444 283.178L685.359 281.967V279.741L686.184 279.265V285.719C686.184 286.988 685.913 288.073 685.371 288.974C684.838 289.879 684.046 290.635 682.995 291.242ZM682.837 288.267C682.231 288.617 681.686 288.783 681.201 288.764C680.716 288.736 680.332 288.533 680.049 288.155C679.774 287.772 679.637 287.231 679.637 286.531C679.637 285.831 679.774 285.136 680.049 284.445C680.332 283.74 680.716 283.099 681.201 282.52C681.686 281.941 682.231 281.477 682.837 281.127C683.403 280.8 683.912 280.642 684.365 280.651C684.818 280.66 685.177 280.854 685.444 281.232C685.711 281.61 685.844 282.182 685.844 282.947C685.844 283.712 685.711 284.438 685.444 285.124C685.177 285.81 684.818 286.424 684.365 286.965C683.912 287.506 683.403 287.94 682.837 288.267ZM682.922 287.336C683.391 287.065 683.807 286.713 684.171 286.279C684.535 285.836 684.822 285.353 685.032 284.83C685.242 284.298 685.347 283.766 685.347 283.234C685.347 282.702 685.242 282.296 685.032 282.016C684.822 281.736 684.535 281.589 684.171 281.575C683.807 281.552 683.391 281.675 682.922 281.946C682.462 282.212 682.045 282.569 681.673 283.017C681.31 283.451 681.023 283.929 680.813 284.452C680.611 284.97 680.51 285.495 680.51 286.027C680.51 286.559 680.611 286.972 680.813 287.266C681.023 287.546 681.31 287.698 681.673 287.721C682.045 287.73 682.462 287.602 682.922 287.336ZM688.579 285.232V277.882L689.44 277.385V284.735L688.579 285.232ZM689.016 276.006C688.838 276.109 688.688 276.125 688.567 276.055C688.446 275.985 688.385 275.852 688.385 275.656C688.385 275.46 688.446 275.262 688.567 275.061C688.688 274.851 688.838 274.695 689.016 274.592C689.193 274.489 689.343 274.468 689.464 274.529C689.585 274.59 689.646 274.718 689.646 274.914C689.646 275.119 689.585 275.327 689.464 275.537C689.351 275.742 689.202 275.899 689.016 276.006ZM693.545 282.435C693.019 282.738 692.522 282.941 692.053 283.044C691.585 283.137 691.217 283.13 690.95 283.023L691.338 282.015C691.597 282.09 691.928 282.094 692.332 282.029C692.736 281.954 693.161 281.789 693.605 281.532C694.212 281.182 694.648 280.823 694.915 280.454C695.182 280.076 695.315 279.705 695.315 279.341C695.315 279.07 695.238 278.905 695.085 278.844C694.939 278.769 694.745 278.765 694.503 278.83C694.26 278.886 693.989 278.972 693.69 279.089C693.391 279.206 693.092 279.313 692.793 279.411C692.502 279.504 692.235 279.551 691.993 279.551C691.75 279.542 691.552 279.455 691.399 279.292C691.253 279.124 691.18 278.83 691.18 278.41C691.18 278.009 691.277 277.593 691.471 277.164C691.665 276.735 691.948 276.324 692.32 275.932C692.7 275.526 693.161 275.167 693.702 274.854C694.115 274.616 694.527 274.443 694.939 274.336C695.351 274.219 695.691 274.187 695.957 274.238L695.582 275.253C695.299 275.192 694.996 275.209 694.672 275.302C694.349 275.386 694.026 275.521 693.702 275.708C693.128 276.039 692.704 276.401 692.429 276.793C692.163 277.171 692.029 277.537 692.029 277.892C692.029 278.172 692.102 278.349 692.247 278.424C692.401 278.494 692.599 278.506 692.842 278.459C693.092 278.398 693.363 278.312 693.654 278.2C693.953 278.083 694.248 277.983 694.539 277.899C694.838 277.801 695.109 277.752 695.351 277.752C695.602 277.738 695.8 277.815 695.945 277.983C696.099 278.137 696.176 278.415 696.176 278.816C696.176 279.245 696.071 279.679 695.86 280.118C695.658 280.543 695.359 280.958 694.963 281.364C694.575 281.756 694.102 282.113 693.545 282.435ZM699.768 278.842C699.17 279.187 698.709 279.267 698.386 279.08C698.062 278.893 697.901 278.459 697.901 277.778V270.876L698.762 270.379V277.225C698.762 277.654 698.855 277.932 699.04 278.058C699.234 278.179 699.509 278.137 699.865 277.932C700.245 277.713 700.56 277.405 700.811 277.008L701.114 277.547C700.944 277.822 700.738 278.072 700.495 278.296C700.261 278.515 700.019 278.697 699.768 278.842ZM696.761 273.984V273.158L700.702 270.883V271.709L696.761 273.984ZM705.16 275.729C704.497 276.112 703.915 276.289 703.414 276.261C702.913 276.224 702.521 276.007 702.238 275.61C701.955 275.204 701.813 274.637 701.813 273.909C701.813 273.181 701.947 272.46 702.213 271.746C702.488 271.027 702.86 270.374 703.329 269.786C703.806 269.184 704.339 268.713 704.929 268.372C705.527 268.027 706.057 267.88 706.518 267.931C706.986 267.968 707.354 268.195 707.621 268.61C707.888 269.016 708.021 269.588 708.021 270.325C708.021 270.372 708.017 270.425 708.009 270.486C708.009 270.533 708.009 270.584 708.009 270.64L702.468 273.839V273.097L707.548 270.164L707.209 270.654C707.209 270.122 707.108 269.709 706.905 269.415C706.711 269.107 706.445 268.934 706.105 268.897C705.766 268.86 705.374 268.969 704.929 269.226C704.493 269.478 704.101 269.821 703.753 270.255C703.406 270.689 703.135 271.172 702.941 271.704C702.747 272.236 702.65 272.773 702.65 273.314V273.468C702.65 274.028 702.755 274.462 702.965 274.77C703.183 275.064 703.482 275.223 703.862 275.246C704.25 275.255 704.691 275.118 705.184 274.833C705.572 274.609 705.931 274.322 706.263 273.972C706.602 273.617 706.893 273.207 707.136 272.74L707.621 273.104C707.338 273.659 706.982 274.163 706.554 274.616C706.134 275.064 705.669 275.435 705.16 275.729ZM709.773 272.996V265.646L710.598 265.17V267.172L710.513 266.871C710.69 266.208 710.99 265.611 711.41 265.079C711.83 264.537 712.352 264.087 712.974 263.728V264.694C712.942 264.712 712.909 264.731 712.877 264.75C712.845 264.759 712.812 264.773 712.78 264.792C712.109 265.179 711.584 265.72 711.204 266.416C710.824 267.102 710.634 267.879 710.634 268.747V272.499L709.773 272.996ZM717.189 268.784C716.526 269.167 715.944 269.344 715.443 269.316C714.942 269.279 714.55 269.062 714.267 268.665C713.984 268.259 713.843 267.692 713.843 266.964C713.843 266.236 713.976 265.515 714.243 264.801C714.518 264.082 714.89 263.429 715.358 262.841C715.835 262.239 716.369 261.768 716.959 261.427C717.557 261.082 718.086 260.935 718.547 260.986C719.016 261.023 719.384 261.25 719.65 261.665C719.917 262.071 720.051 262.643 720.051 263.38C720.051 263.427 720.047 263.48 720.038 263.541C720.038 263.588 720.038 263.639 720.038 263.695L714.498 266.894V266.152L719.578 263.219L719.238 263.709C719.238 263.177 719.137 262.764 718.935 262.47C718.741 262.162 718.474 261.989 718.135 261.952C717.795 261.915 717.403 262.024 716.959 262.281C716.522 262.533 716.13 262.876 715.783 263.31C715.435 263.744 715.164 264.227 714.97 264.759C714.776 265.291 714.679 265.828 714.679 266.369V266.523C714.679 267.083 714.785 267.517 714.995 267.825C715.213 268.119 715.512 268.278 715.892 268.301C716.28 268.31 716.72 268.173 717.213 267.888C717.601 267.664 717.961 267.377 718.293 267.027C718.632 266.672 718.923 266.262 719.165 265.795L719.65 266.159C719.368 266.714 719.012 267.218 718.584 267.671C718.163 268.119 717.698 268.49 717.189 268.784ZM724.337 264.657C723.73 265.007 723.185 265.164 722.7 265.126C722.223 265.084 721.847 264.863 721.572 264.461C721.298 264.051 721.16 263.477 721.16 262.739C721.16 261.993 721.298 261.26 721.572 260.541C721.847 259.823 722.223 259.172 722.7 258.588C723.185 257.991 723.73 257.517 724.337 257.167C724.894 256.845 725.392 256.703 725.828 256.74C726.273 256.773 726.624 256.995 726.883 257.405C727.15 257.802 727.283 258.402 727.283 259.204C727.283 259.998 727.154 260.749 726.895 261.458C726.636 262.168 726.285 262.8 725.84 263.355C725.404 263.897 724.903 264.331 724.337 264.657ZM724.397 263.74C724.85 263.479 725.254 263.129 725.61 262.69C725.973 262.238 726.256 261.738 726.458 261.192C726.669 260.632 726.774 260.068 726.774 259.498C726.774 258.92 726.669 258.476 726.458 258.168C726.256 257.856 725.973 257.688 725.61 257.664C725.254 257.627 724.85 257.739 724.397 258C723.953 258.257 723.553 258.609 723.197 259.057C722.841 259.496 722.558 259.991 722.348 260.541C722.138 261.092 722.033 261.657 722.033 262.235C722.033 262.805 722.138 263.248 722.348 263.565C722.558 263.873 722.841 264.046 723.197 264.083C723.553 264.111 723.953 263.997 724.397 263.74ZM726.798 263.166V260.954L726.883 259.421L726.762 258.007V252.799L727.622 252.302V262.69L726.798 263.166ZM666.831 314.858C666.29 315.171 665.817 315.327 665.413 315.327C665.008 315.327 664.693 315.159 664.467 314.823C664.249 314.482 664.14 313.962 664.14 313.262V308.992L665 308.495V312.653C665 313.437 665.166 313.934 665.497 314.144C665.837 314.34 666.31 314.263 666.916 313.913C667.361 313.656 667.745 313.332 668.068 312.94C668.399 312.534 668.65 312.081 668.82 311.582C668.997 311.078 669.086 310.546 669.086 309.986V306.136L669.947 305.639V312.989L669.123 313.465V311.449L669.256 311.736C669.054 312.394 668.739 313.001 668.31 313.556C667.89 314.097 667.397 314.531 666.831 314.858ZM674.056 310.687C673.53 310.99 673.033 311.193 672.564 311.296C672.096 311.389 671.728 311.382 671.461 311.275L671.849 310.267C672.108 310.342 672.439 310.346 672.843 310.281C673.247 310.206 673.672 310.041 674.116 309.784C674.723 309.434 675.159 309.075 675.426 308.706C675.693 308.328 675.826 307.957 675.826 307.593C675.826 307.322 675.749 307.157 675.596 307.096C675.45 307.021 675.256 307.017 675.014 307.082C674.771 307.138 674.5 307.224 674.201 307.341C673.902 307.458 673.603 307.565 673.304 307.663C673.013 307.756 672.746 307.803 672.504 307.803C672.261 307.794 672.063 307.707 671.91 307.544C671.764 307.376 671.692 307.082 671.692 306.662C671.692 306.261 671.789 305.845 671.983 305.416C672.176 304.987 672.459 304.576 672.831 304.184C673.211 303.778 673.672 303.419 674.213 303.106C674.626 302.868 675.038 302.695 675.45 302.588C675.862 302.471 676.202 302.439 676.469 302.49L676.093 303.505C675.81 303.444 675.507 303.461 675.183 303.554C674.86 303.638 674.537 303.773 674.213 303.96C673.64 304.291 673.215 304.653 672.94 305.045C672.674 305.423 672.54 305.789 672.54 306.144C672.54 306.424 672.613 306.601 672.758 306.676C672.912 306.746 673.11 306.758 673.353 306.711C673.603 306.65 673.874 306.564 674.165 306.452C674.464 306.335 674.759 306.235 675.05 306.151C675.349 306.053 675.62 306.004 675.862 306.004C676.113 305.99 676.311 306.067 676.456 306.235C676.61 306.389 676.687 306.667 676.687 307.068C676.687 307.497 676.582 307.931 676.372 308.37C676.169 308.795 675.87 309.21 675.474 309.616C675.086 310.008 674.613 310.365 674.056 310.687ZM680.97 306.695C680.307 307.078 679.725 307.255 679.224 307.227C678.723 307.19 678.331 306.973 678.048 306.576C677.765 306.17 677.624 305.603 677.624 304.875C677.624 304.147 677.757 303.426 678.024 302.712C678.299 301.993 678.67 301.34 679.139 300.752C679.616 300.15 680.15 299.679 680.74 299.338C681.338 298.993 681.867 298.846 682.328 298.897C682.797 298.934 683.165 299.161 683.431 299.576C683.698 299.982 683.831 300.554 683.831 301.291C683.831 301.338 683.827 301.391 683.819 301.452C683.819 301.499 683.819 301.55 683.819 301.606L678.278 304.805V304.063L683.359 301.13L683.019 301.62C683.019 301.088 682.918 300.675 682.716 300.381C682.522 300.073 682.255 299.9 681.916 299.863C681.576 299.826 681.184 299.935 680.74 300.192C680.303 300.444 679.911 300.787 679.564 301.221C679.216 301.655 678.945 302.138 678.751 302.67C678.557 303.202 678.46 303.739 678.46 304.28V304.434C678.46 304.994 678.565 305.428 678.776 305.736C678.994 306.03 679.293 306.189 679.673 306.212C680.061 306.221 680.501 306.084 680.994 305.799C681.382 305.575 681.742 305.288 682.073 304.938C682.413 304.583 682.704 304.173 682.946 303.706L683.431 304.07C683.148 304.625 682.793 305.129 682.364 305.582C681.944 306.03 681.479 306.401 680.97 306.695ZM685.584 303.961V296.611L686.408 296.135V298.137L686.323 297.836C686.501 297.174 686.8 296.576 687.22 296.044C687.641 295.503 688.162 295.053 688.784 294.693V295.659C688.752 295.678 688.72 295.697 688.687 295.715C688.655 295.725 688.623 295.739 688.59 295.757C687.92 296.145 687.394 296.686 687.014 297.381C686.634 298.067 686.444 298.844 686.444 299.712V303.464L685.584 303.961ZM692.136 300.248C691.61 300.552 691.113 300.755 690.644 300.857C690.176 300.951 689.808 300.944 689.541 300.836L689.929 299.828C690.188 299.903 690.519 299.908 690.923 299.842C691.327 299.768 691.752 299.602 692.196 299.345C692.803 298.995 693.239 298.636 693.506 298.267C693.773 297.889 693.906 297.518 693.906 297.154C693.906 296.884 693.829 296.718 693.676 296.657C693.53 296.583 693.336 296.578 693.094 296.643C692.851 296.699 692.58 296.786 692.281 296.902C691.982 297.019 691.683 297.126 691.384 297.224C691.093 297.318 690.826 297.364 690.584 297.364C690.341 297.355 690.143 297.269 689.99 297.105C689.844 296.937 689.771 296.643 689.771 296.223C689.771 295.822 689.868 295.407 690.062 294.977C690.256 294.548 690.539 294.137 690.911 293.745C691.291 293.339 691.752 292.98 692.293 292.667C692.706 292.429 693.118 292.257 693.53 292.149C693.942 292.033 694.282 292 694.548 292.051L694.173 293.066C693.89 293.006 693.587 293.022 693.263 293.115C692.94 293.199 692.617 293.335 692.293 293.521C691.719 293.853 691.295 294.214 691.02 294.606C690.754 294.984 690.62 295.351 690.62 295.705C690.62 295.985 690.693 296.163 690.838 296.237C690.992 296.307 691.19 296.319 691.433 296.272C691.683 296.212 691.954 296.125 692.245 296.013C692.544 295.897 692.839 295.796 693.13 295.712C693.429 295.614 693.7 295.565 693.942 295.565C694.193 295.551 694.391 295.628 694.536 295.796C694.69 295.95 694.767 296.228 694.767 296.629C694.767 297.059 694.662 297.493 694.451 297.931C694.249 298.356 693.95 298.771 693.554 299.177C693.166 299.569 692.693 299.926 692.136 300.248Z" fill="black"/>
<path d="M496.196 202V200L491 197V195L496.196 198V196L492.732 194V192L491 191V189L492.732 190V188L496.196 190V188L497.928 189V191L501.392 193V195L497.928 193V195L501.392 197V199L503.124 200V202L501.392 201V203L497.928 201V203L496.196 202ZM494.464 193L496.196 194V192L494.464 191V193ZM497.928 199L499.66 200V198L497.928 197V199ZM506.588 208V206L504.856 205V203L508.321 205V207L513.517 210V206L508.321 203V201L510.053 202V200L511.785 201V199L506.588 196V194L516.981 200V202L515.249 201V203L513.517 202V204L515.249 205V207L516.981 208V212L515.249 211V213L506.588 208ZM520.445 216V214L518.713 213V209L520.445 210V208L518.713 207V203L520.445 204V202L527.373 206V208L529.105 209V213L527.373 212V214L530.837 216V220L529.105 219V221L520.445 216ZM523.909 210L527.373 212V208L522.177 205V207L523.909 208V210ZM520.445 214L527.373 218V216L523.909 214V212L520.445 210V214ZM492.732 222V220L491 219V207L494.464 209V213L501.392 217V219L503.124 220V226L501.392 225V227L492.732 222ZM494.464 221L499.66 224V218L494.464 215V221ZM510.053 220V218L513.517 220V222L510.053 220ZM506.588 230V228L510.053 230V224L508.321 223V221L513.517 224V232L516.981 234V236L506.588 230ZM520.445 238V236L523.909 238V228L522.177 227V225L527.373 228V240L530.837 242V244L520.445 238ZM534.301 246V244L537.765 246V236L536.033 235V233L541.229 236V248L544.694 250V252L534.301 246ZM551.622 244V242L555.086 244V246L551.622 244ZM548.158 254V252L551.622 254V248L549.89 247V245L555.086 248V256L558.55 258V260L548.158 254ZM562.014 262V260L560.282 259V253L562.014 254V252L570.674 257V259L572.406 260V266L570.674 265V267L562.014 262ZM563.746 261L568.942 264V258L563.746 255V261ZM574.138 269V259L584.531 265V267L586.263 268V276L582.799 274V266L577.603 263V271L574.138 269Z" fill="white"/>
<path d="M491.473 250.273V249.559L495.001 247.606C495.324 247.429 495.567 247.251 495.728 247.074C495.89 246.887 495.999 246.689 496.056 246.479C496.112 246.269 496.141 246.057 496.141 245.842C496.141 245.273 495.971 244.727 495.632 244.204C495.3 243.686 494.807 243.238 494.152 242.86C493.651 242.571 493.207 242.403 492.819 242.356C492.439 242.314 492.111 242.4 491.837 242.615L491.218 241.642C491.55 241.385 491.974 241.285 492.491 241.341C493.009 241.397 493.587 241.609 494.225 241.978C494.799 242.309 495.296 242.704 495.716 243.161C496.137 243.609 496.46 244.099 496.686 244.631C496.921 245.168 497.038 245.707 497.038 246.248C497.038 246.565 496.998 246.855 496.917 247.116C496.844 247.382 496.707 247.629 496.504 247.858C496.31 248.082 496.024 248.299 495.644 248.509L492.406 250.308L492.164 249.776L497.426 252.814V253.71L491.473 250.273ZM498.104 251.525V250.797L502.602 246.898L503.572 247.458L499.11 251.378L498.637 250.937L505.463 254.878V255.774L498.104 251.525ZM502.893 256.866V254.29L502.917 253.408V251.14L503.766 251.63V257.37L502.893 256.866ZM510.084 253.598C510.601 253.897 511.054 254.275 511.442 254.732C511.838 255.185 512.145 255.708 512.363 256.3C512.59 256.898 512.703 257.551 512.703 258.26V262.53L511.842 262.033V257.861C511.842 257.087 511.672 256.405 511.333 255.817C511.002 255.225 510.533 254.753 509.926 254.403C509.474 254.142 509.078 254.021 508.738 254.039C508.407 254.053 508.148 254.207 507.962 254.501C507.785 254.791 507.696 255.215 507.696 255.775V259.639L506.835 259.142V248.754L507.696 249.251V254.305L507.526 253.829C507.728 253.414 508.051 253.185 508.496 253.143C508.94 253.092 509.47 253.244 510.084 253.598ZM520.214 266.937C519.616 266.591 519.155 266.139 518.832 265.579C518.509 265.019 518.347 264.398 518.347 263.717V256.815L519.208 257.312V264.158C519.208 264.587 519.301 264.972 519.487 265.313C519.681 265.658 519.955 265.933 520.311 266.139C520.691 266.358 521.006 266.414 521.257 266.307L521.56 267.196C521.39 267.275 521.184 267.287 520.941 267.231C520.707 267.179 520.465 267.081 520.214 266.937ZM517.207 258.607V257.781L521.148 260.056V260.882L517.207 258.607ZM523.127 268.548V261.198L523.951 261.674V263.676L523.866 263.277C524.044 262.82 524.343 262.568 524.764 262.521C525.184 262.465 525.705 262.617 526.328 262.976V263.942C526.295 263.924 526.263 263.905 526.231 263.886C526.198 263.858 526.166 263.835 526.134 263.816C525.463 263.429 524.937 263.364 524.558 263.62C524.178 263.868 523.988 264.425 523.988 265.293V269.045L523.127 268.548ZM531.414 273.333V271.709L531.377 271.422V268.706C531.377 268.081 531.224 267.511 530.917 266.998C530.618 266.489 530.169 266.062 529.571 265.717C529.159 265.479 528.767 265.332 528.395 265.276C528.023 265.22 527.708 265.248 527.449 265.36L527.061 264.394C527.384 264.263 527.772 264.245 528.225 264.338C528.678 264.422 529.155 264.609 529.656 264.898C530.48 265.374 531.115 265.978 531.559 266.711C532.012 267.439 532.238 268.284 532.238 269.245V273.809L531.414 273.333ZM529.219 272.136C528.742 271.861 528.326 271.532 527.97 271.149C527.623 270.762 527.356 270.356 527.17 269.931C526.984 269.497 526.891 269.07 526.891 268.65C526.891 268.267 526.968 267.966 527.122 267.747C527.283 267.523 527.542 267.42 527.898 267.439C528.261 267.453 528.746 267.635 529.353 267.985L531.547 269.252V269.994L529.377 268.741C528.763 268.386 528.334 268.265 528.092 268.377C527.857 268.494 527.74 268.739 527.74 269.112C527.74 269.532 527.882 269.95 528.164 270.365C528.447 270.78 528.843 271.135 529.353 271.429C529.838 271.709 530.254 271.823 530.601 271.772C530.957 271.716 531.216 271.492 531.377 271.1L531.571 271.898C531.41 272.29 531.127 272.514 530.723 272.57C530.327 272.631 529.826 272.486 529.219 272.136ZM537.11 276.692C536.504 276.342 535.959 275.868 535.474 275.271C534.997 274.678 534.621 274.022 534.346 273.304C534.071 272.576 533.934 271.843 533.934 271.106C533.934 270.359 534.071 269.785 534.346 269.384C534.621 268.982 534.997 268.765 535.474 268.733C535.959 268.695 536.504 268.852 537.11 269.202C537.668 269.524 538.165 269.955 538.602 270.497C539.046 271.043 539.398 271.67 539.656 272.38C539.923 273.084 540.057 273.838 540.057 274.641C540.057 275.434 539.927 276.036 539.669 276.447C539.41 276.857 539.058 277.084 538.614 277.126C538.177 277.163 537.676 277.018 537.11 276.692ZM537.171 275.845C537.624 276.106 538.028 276.223 538.383 276.195C538.747 276.162 539.03 275.989 539.232 275.677C539.442 275.359 539.547 274.916 539.547 274.347C539.547 273.768 539.442 273.203 539.232 272.653C539.03 272.107 538.747 271.612 538.383 271.169C538.028 270.721 537.624 270.366 537.171 270.105C536.726 269.848 536.326 269.738 535.971 269.776C535.615 269.804 535.332 269.972 535.122 270.28C534.912 270.588 534.807 271.031 534.807 271.61C534.807 272.179 534.912 272.744 535.122 273.304C535.332 273.854 535.615 274.354 535.971 274.802C536.326 275.24 536.726 275.588 537.171 275.845ZM539.572 278.043V275.831L539.656 274.396L539.535 272.842V267.634L540.396 268.131V278.519L539.572 278.043ZM542.793 279.903V272.553L543.654 273.05V280.4L542.793 279.903ZM543.23 271.181C543.052 271.078 542.903 270.922 542.781 270.712C542.66 270.502 542.599 270.299 542.599 270.103C542.599 269.907 542.66 269.779 542.781 269.718C542.903 269.648 543.052 269.664 543.23 269.767C543.408 269.87 543.557 270.021 543.679 270.222C543.8 270.423 543.86 270.621 543.86 270.817C543.86 271.022 543.8 271.16 543.679 271.23C543.565 271.305 543.416 271.288 543.23 271.181ZM549.299 276.239C549.816 276.538 550.269 276.916 550.657 277.373C551.053 277.826 551.36 278.348 551.578 278.941C551.805 279.538 551.918 280.192 551.918 280.901V285.171L551.057 284.674V280.502C551.057 279.727 550.887 279.046 550.548 278.458C550.216 277.865 549.747 277.394 549.141 277.044C548.689 276.783 548.293 276.661 547.953 276.68C547.622 276.694 547.363 276.848 547.177 277.142C546.999 277.431 546.91 277.856 546.91 278.416V282.28L546.049 281.783V274.433L546.874 274.909V276.925L546.741 276.47C546.943 276.055 547.266 275.826 547.711 275.784C548.155 275.733 548.685 275.884 549.299 276.239ZM556.959 290.867C556.377 290.531 555.819 290.111 555.286 289.607C554.752 289.103 554.32 288.574 553.988 288.018L554.425 287.514C554.724 287.995 555.092 288.45 555.528 288.879C555.973 289.323 556.441 289.687 556.935 289.971C557.743 290.438 558.337 290.562 558.717 290.342C559.097 290.132 559.287 289.57 559.287 288.655V286.821L559.408 285.631L559.323 284.322V282.096L560.147 282.572V289.026C560.147 290.296 559.877 291.068 559.335 291.343C558.802 291.633 558.01 291.474 556.959 290.867ZM556.801 287.71C556.195 287.36 555.649 286.896 555.164 286.317C554.679 285.729 554.295 285.083 554.013 284.378C553.738 283.678 553.6 282.978 553.6 282.278C553.6 281.578 553.738 281.042 554.013 280.668C554.295 280.29 554.679 280.092 555.164 280.073C555.649 280.055 556.195 280.22 556.801 280.57C557.367 280.897 557.876 281.326 558.329 281.858C558.781 282.39 559.141 282.999 559.408 283.685C559.675 284.371 559.808 285.097 559.808 285.862C559.808 286.628 559.675 287.199 559.408 287.577C559.141 287.955 558.781 288.154 558.329 288.172C557.876 288.191 557.367 288.037 556.801 287.71ZM556.886 286.877C557.355 287.148 557.771 287.276 558.135 287.262C558.499 287.239 558.786 287.087 558.996 286.807C559.206 286.518 559.311 286.107 559.311 285.575C559.311 285.043 559.206 284.516 558.996 283.993C558.786 283.471 558.499 282.992 558.135 282.558C557.771 282.115 557.355 281.758 556.886 281.487C556.425 281.221 556.009 281.098 555.637 281.116C555.273 281.13 554.987 281.277 554.776 281.557C554.574 281.842 554.473 282.25 554.473 282.782C554.473 283.314 554.574 283.844 554.776 284.371C554.987 284.894 555.273 285.377 555.637 285.82C556.009 286.259 556.425 286.611 556.886 286.877ZM567.353 294.082L564.528 285.101L565.425 285.619L568.02 293.935L567.595 293.69L570.226 288.391L571.075 288.881L568.238 294.593L567.353 294.082ZM574.704 298.397C574.09 298.042 573.536 297.564 573.043 296.962C572.558 296.355 572.174 295.69 571.892 294.967C571.609 294.234 571.467 293.504 571.467 292.776C571.467 292.038 571.609 291.471 571.892 291.075C572.174 290.678 572.558 290.461 573.043 290.424C573.528 290.386 574.082 290.547 574.704 290.907C575.335 291.271 575.893 291.751 576.378 292.349C576.871 292.951 577.255 293.611 577.529 294.33C577.812 295.053 577.954 295.783 577.954 296.521C577.954 297.249 577.812 297.816 577.529 298.222C577.255 298.623 576.871 298.845 576.378 298.887C575.884 298.919 575.327 298.756 574.704 298.397ZM574.704 297.515C575.165 297.781 575.573 297.9 575.929 297.872C576.285 297.834 576.563 297.659 576.766 297.347C576.976 297.029 577.081 296.586 577.081 296.017C577.081 295.438 576.976 294.873 576.766 294.323C576.563 293.777 576.285 293.284 575.929 292.846C575.573 292.398 575.169 292.043 574.716 291.782C574.264 291.52 573.86 291.408 573.504 291.446C573.148 291.474 572.866 291.642 572.655 291.95C572.445 292.258 572.34 292.701 572.34 293.28C572.34 293.849 572.445 294.414 572.655 294.974C572.866 295.524 573.148 296.024 573.504 296.472C573.86 296.91 574.26 297.258 574.704 297.515ZM579.711 301.217V290.829L580.572 291.326V301.714L579.711 301.217ZM585.598 304.686C585.057 304.374 584.584 303.984 584.18 303.517C583.776 303.051 583.46 302.519 583.234 301.921C583.016 301.329 582.907 300.682 582.907 299.982V295.712L583.767 296.209V300.367C583.767 301.151 583.933 301.84 584.265 302.432C584.604 303.02 585.077 303.489 585.683 303.839C586.128 304.096 586.512 304.215 586.835 304.196C587.166 304.173 587.417 304.01 587.587 303.706C587.764 303.408 587.853 302.978 587.853 302.418V298.568L588.714 299.065V306.415L587.89 305.939V303.923L588.023 304.364C587.821 304.789 587.506 305.032 587.077 305.092C586.657 305.148 586.164 305.013 585.598 304.686ZM599.067 304.972C599.584 305.271 600.033 305.647 600.413 306.099C600.801 306.547 601.1 307.065 601.31 307.653C601.528 308.246 601.637 308.897 601.637 309.606V313.876L600.776 313.379V309.207C600.776 308.433 600.615 307.756 600.291 307.177C599.976 306.594 599.528 306.134 598.946 305.798C598.509 305.546 598.129 305.434 597.806 305.462C597.491 305.486 597.244 305.647 597.066 305.945C596.897 306.239 596.812 306.666 596.812 307.226V311.09L595.951 310.593V306.421C595.951 305.647 595.789 304.97 595.466 304.391C595.143 303.803 594.69 303.341 594.108 303.005C593.68 302.758 593.304 302.648 592.98 302.676C592.657 302.695 592.407 302.854 592.229 303.152C592.059 303.446 591.974 303.873 591.974 304.433V308.297L591.113 307.8V300.45L591.938 300.926V302.914L591.804 302.487C591.998 302.067 592.31 301.832 592.738 301.78C593.174 301.724 593.688 301.867 594.278 302.207C594.9 302.567 595.43 303.054 595.866 303.67C596.302 304.277 596.585 304.977 596.715 305.77L596.375 305.42C596.561 304.93 596.889 304.639 597.357 304.545C597.834 304.447 598.404 304.59 599.067 304.972ZM606.675 316.855C606.013 316.473 605.431 315.978 604.93 315.371C604.428 314.755 604.036 314.086 603.753 313.362C603.471 312.63 603.329 311.899 603.329 311.171C603.329 310.443 603.462 309.876 603.729 309.47C604.004 309.069 604.376 308.845 604.845 308.798C605.322 308.747 605.855 308.892 606.445 309.232C607.043 309.578 607.573 310.042 608.033 310.625C608.502 311.204 608.87 311.855 609.137 312.578C609.403 313.292 609.537 314.018 609.537 314.755C609.537 314.802 609.533 314.851 609.525 314.902C609.525 314.949 609.525 315 609.525 315.056L603.984 311.857V311.115L609.064 314.048L608.724 314.146C608.724 313.614 608.623 313.085 608.421 312.557C608.227 312.025 607.961 311.545 607.621 311.115C607.282 310.686 606.89 310.343 606.445 310.086C606.009 309.834 605.617 309.725 605.269 309.757C604.921 309.79 604.651 309.96 604.457 310.268C604.263 310.576 604.166 311.001 604.166 311.542V311.696C604.166 312.256 604.271 312.812 604.481 313.362C604.699 313.908 604.998 314.412 605.378 314.874C605.766 315.332 606.207 315.703 606.7 315.987C607.088 316.211 607.447 316.34 607.779 316.372C608.118 316.41 608.409 316.335 608.652 316.148L609.137 317.072C608.854 317.301 608.498 317.394 608.07 317.352C607.649 317.315 607.185 317.149 606.675 316.855ZM494.795 269.261C494.181 268.906 493.627 268.428 493.134 267.826C492.649 267.219 492.265 266.554 491.982 265.831C491.699 265.098 491.558 264.368 491.558 263.64C491.558 262.903 491.699 262.336 491.982 261.939C492.265 261.542 492.649 261.325 493.134 261.288C493.619 261.251 494.173 261.412 494.795 261.771C495.425 262.135 495.983 262.616 496.468 263.213C496.961 263.815 497.345 264.475 497.62 265.194C497.903 265.917 498.044 266.648 498.044 267.385C498.044 268.113 497.903 268.68 497.62 269.086C497.345 269.487 496.961 269.709 496.468 269.751C495.975 269.784 495.417 269.62 494.795 269.261ZM494.795 268.379C495.256 268.645 495.664 268.764 496.019 268.736C496.375 268.699 496.654 268.524 496.856 268.211C497.066 267.894 497.171 267.45 497.171 266.881C497.171 266.302 497.066 265.738 496.856 265.187C496.654 264.641 496.375 264.149 496.019 263.71C495.664 263.262 495.26 262.907 494.807 262.646C494.354 262.385 493.95 262.273 493.595 262.31C493.239 262.338 492.956 262.506 492.746 262.814C492.536 263.122 492.431 263.565 492.431 264.144C492.431 264.713 492.536 265.278 492.746 265.838C492.956 266.389 493.239 266.888 493.595 267.336C493.95 267.775 494.35 268.122 494.795 268.379ZM503.051 266.538C503.568 266.836 504.021 267.214 504.409 267.672C504.805 268.124 505.112 268.647 505.33 269.24C505.557 269.837 505.67 270.49 505.67 271.2V275.47L504.809 274.973V270.801C504.809 270.026 504.639 269.345 504.3 268.757C503.968 268.164 503.5 267.693 502.893 267.343C502.441 267.081 502.045 266.96 501.705 266.979C501.374 266.993 501.115 267.147 500.929 267.441C500.751 267.73 500.663 268.155 500.663 268.715V272.579L499.802 272.082V264.732L500.626 265.208V267.224L500.493 266.769C500.695 266.353 501.018 266.125 501.463 266.083C501.907 266.031 502.437 266.183 503.051 266.538ZM513.763 280.212C513.149 279.858 512.595 279.379 512.102 278.777C511.617 278.171 511.233 277.506 510.95 276.782C510.667 276.05 510.526 275.319 510.526 274.591C510.526 273.854 510.667 273.287 510.95 272.89C511.233 272.494 511.617 272.277 512.102 272.239C512.587 272.202 513.141 272.363 513.763 272.722C514.393 273.086 514.951 273.567 515.436 274.164C515.929 274.766 516.313 275.427 516.588 276.145C516.871 276.869 517.012 277.599 517.012 278.336C517.012 279.064 516.871 279.631 516.588 280.037C516.313 280.439 515.929 280.66 515.436 280.702C514.943 280.735 514.385 280.572 513.763 280.212ZM513.763 279.33C514.224 279.596 514.632 279.715 514.987 279.687C515.343 279.65 515.622 279.475 515.824 279.162C516.034 278.845 516.139 278.402 516.139 277.832C516.139 277.254 516.034 276.689 515.824 276.138C515.622 275.592 515.343 275.1 514.987 274.661C514.632 274.213 514.228 273.859 513.775 273.597C513.322 273.336 512.918 273.224 512.563 273.261C512.207 273.289 511.924 273.457 511.714 273.765C511.504 274.073 511.399 274.517 511.399 275.095C511.399 275.665 511.504 276.229 511.714 276.789C511.924 277.34 512.207 277.839 512.563 278.287C512.918 278.726 513.318 279.074 513.763 279.33ZM521.401 284.622C520.859 284.309 520.386 283.92 519.982 283.453C519.578 282.986 519.263 282.454 519.036 281.857C518.818 281.264 518.709 280.618 518.709 279.918V275.648L519.57 276.145V280.303C519.57 281.087 519.736 281.775 520.067 282.368C520.406 282.956 520.879 283.425 521.486 283.775C521.93 284.032 522.314 284.151 522.637 284.132C522.969 284.109 523.219 283.945 523.389 283.642C523.567 283.343 523.656 282.914 523.656 282.354V278.504L524.517 279.001V286.351L523.692 285.875V283.859L523.826 284.3C523.623 284.725 523.308 284.967 522.88 285.028C522.46 285.084 521.966 284.949 521.401 284.622ZM526.916 287.736V280.386L527.74 280.862V282.864L527.655 282.465C527.833 282.008 528.132 281.756 528.553 281.709C528.973 281.653 529.494 281.805 530.117 282.164V283.13C530.084 283.111 530.052 283.093 530.02 283.074C529.987 283.046 529.955 283.023 529.923 283.004C529.252 282.617 528.726 282.551 528.346 282.808C527.967 283.055 527.777 283.613 527.777 284.481V288.233L526.916 287.736ZM537.659 294.009C536.996 293.626 536.414 293.131 535.913 292.525C535.412 291.909 535.02 291.239 534.737 290.516C534.454 289.783 534.313 289.053 534.313 288.325C534.313 287.597 534.446 287.03 534.713 286.624C534.988 286.222 535.359 285.998 535.828 285.952C536.305 285.9 536.839 286.045 537.429 286.386C538.027 286.731 538.556 287.195 539.017 287.779C539.486 288.357 539.853 289.008 540.12 289.732C540.387 290.446 540.52 291.171 540.52 291.909C540.52 291.955 540.516 292.004 540.508 292.056C540.508 292.102 540.508 292.154 540.508 292.21L534.967 289.011V288.269L540.047 291.202L539.708 291.3C539.708 290.768 539.607 290.238 539.405 289.711C539.211 289.179 538.944 288.698 538.605 288.269C538.265 287.839 537.873 287.496 537.429 287.24C536.992 286.988 536.6 286.878 536.253 286.911C535.905 286.943 535.634 287.114 535.44 287.422C535.246 287.73 535.149 288.154 535.149 288.696V288.85C535.149 289.41 535.254 289.965 535.464 290.516C535.683 291.062 535.982 291.566 536.362 292.028C536.75 292.485 537.19 292.856 537.683 293.141C538.071 293.365 538.431 293.493 538.762 293.526C539.102 293.563 539.393 293.488 539.635 293.302L540.12 294.226C539.837 294.454 539.482 294.548 539.053 294.506C538.633 294.468 538.168 294.303 537.659 294.009ZM541.125 295.94L543.817 293.462L543.804 293.945L541.246 288.66L542.216 289.22L544.314 293.581L543.95 293.357L546.047 291.432L546.993 291.978L544.411 294.337L544.423 293.812L547.139 299.412L546.157 298.845L543.938 294.204L544.277 294.456L542.095 296.5L541.125 295.94ZM550.99 301.705C550.359 301.341 549.793 300.856 549.292 300.249C548.799 299.638 548.411 298.97 548.128 298.247C547.845 297.514 547.704 296.784 547.704 296.056C547.704 295.319 547.845 294.752 548.128 294.355C548.411 293.958 548.799 293.744 549.292 293.711C549.793 293.683 550.359 293.851 550.99 294.215C551.531 294.528 552.02 294.931 552.457 295.426C552.893 295.921 553.237 296.483 553.487 297.113L552.845 297.246C552.626 296.747 552.356 296.315 552.032 295.951C551.709 295.587 551.357 295.295 550.977 295.076C550.525 294.815 550.117 294.7 549.753 294.733C549.389 294.756 549.102 294.922 548.892 295.23C548.682 295.538 548.577 295.981 548.577 296.56C548.577 297.139 548.682 297.703 548.892 298.254C549.102 298.805 549.389 299.306 549.753 299.759C550.117 300.202 550.525 300.555 550.977 300.816C551.357 301.035 551.709 301.15 552.032 301.159C552.356 301.168 552.626 301.054 552.845 300.816L553.487 301.691C553.237 302.022 552.893 302.188 552.457 302.188C552.02 302.179 551.531 302.018 550.99 301.705ZM558.333 298.455C558.85 298.753 559.303 299.131 559.691 299.589C560.087 300.041 560.394 300.564 560.612 301.157C560.839 301.754 560.952 302.407 560.952 303.117V307.387L560.091 306.89V302.718C560.091 301.943 559.921 301.262 559.582 300.674C559.25 300.081 558.781 299.61 558.175 299.26C557.723 298.998 557.327 298.877 556.987 298.896C556.656 298.91 556.397 299.064 556.211 299.358C556.033 299.647 555.944 300.072 555.944 300.632V304.496L555.084 303.999V293.611L555.944 294.108V299.162L555.775 298.686C555.977 298.27 556.3 298.042 556.745 298C557.189 297.948 557.719 298.1 558.333 298.455ZM567.266 311.032V309.408L567.23 309.121V306.405C567.23 305.78 567.076 305.21 566.769 304.697C566.47 304.188 566.021 303.761 565.423 303.416C565.011 303.178 564.619 303.031 564.247 302.975C563.875 302.919 563.56 302.947 563.301 303.059L562.913 302.093C563.237 301.962 563.625 301.944 564.077 302.037C564.53 302.121 565.007 302.308 565.508 302.597C566.332 303.073 566.967 303.677 567.411 304.41C567.864 305.138 568.09 305.983 568.09 306.944V311.508L567.266 311.032ZM565.071 309.835C564.594 309.56 564.178 309.231 563.823 308.848C563.475 308.461 563.208 308.055 563.022 307.63C562.836 307.196 562.744 306.769 562.744 306.349C562.744 305.966 562.82 305.665 562.974 305.446C563.136 305.222 563.394 305.119 563.75 305.138C564.114 305.152 564.599 305.334 565.205 305.684L567.399 306.951V307.693L565.229 306.44C564.615 306.085 564.186 305.964 563.944 306.076C563.709 306.193 563.592 306.438 563.592 306.811C563.592 307.231 563.734 307.649 564.017 308.064C564.299 308.479 564.696 308.834 565.205 309.128C565.69 309.408 566.106 309.522 566.454 309.471C566.809 309.415 567.068 309.191 567.23 308.799L567.424 309.597C567.262 309.989 566.979 310.213 566.575 310.269C566.179 310.33 565.678 310.185 565.071 309.835ZM573.678 307.314C574.195 307.613 574.648 307.991 575.036 308.448C575.432 308.901 575.739 309.423 575.957 310.016C576.183 310.613 576.297 311.267 576.297 311.976V316.246L575.436 315.749V311.577C575.436 310.802 575.266 310.121 574.927 309.533C574.595 308.94 574.126 308.469 573.52 308.119C573.068 307.858 572.671 307.736 572.332 307.755C572.001 307.769 571.742 307.923 571.556 308.217C571.378 308.506 571.289 308.931 571.289 309.491V313.355L570.428 312.858V305.508L571.253 305.984V308L571.12 307.545C571.322 307.13 571.645 306.901 572.089 306.859C572.534 306.808 573.063 306.959 573.678 307.314ZM581.338 321.943C580.756 321.607 580.198 321.187 579.665 320.683C579.131 320.179 578.699 319.649 578.367 319.094L578.804 318.59C579.103 319.07 579.471 319.525 579.907 319.955C580.352 320.398 580.82 320.762 581.313 321.047C582.122 321.513 582.716 321.637 583.096 321.418C583.476 321.208 583.666 320.645 583.666 319.731V317.897L583.787 316.707L583.702 315.398V313.172L584.526 313.648V320.102C584.526 321.371 584.256 322.143 583.714 322.419C583.181 322.708 582.388 322.549 581.338 321.943ZM581.18 318.786C580.574 318.436 580.028 317.971 579.543 317.393C579.058 316.805 578.674 316.158 578.392 315.454C578.117 314.754 577.979 314.054 577.979 313.354C577.979 312.654 578.117 312.117 578.392 311.744C578.674 311.366 579.058 311.167 579.543 311.149C580.028 311.13 580.574 311.296 581.18 311.646C581.746 311.972 582.255 312.402 582.708 312.934C583.16 313.466 583.52 314.075 583.787 314.761C584.054 315.447 584.187 316.172 584.187 316.938C584.187 317.703 584.054 318.275 583.787 318.653C583.52 319.031 583.16 319.229 582.708 319.248C582.255 319.266 581.746 319.112 581.18 318.786ZM581.265 317.953C581.734 318.223 582.15 318.352 582.514 318.338C582.878 318.314 583.164 318.163 583.375 317.883C583.585 317.593 583.69 317.183 583.69 316.651C583.69 316.119 583.585 315.591 583.375 315.069C583.164 314.546 582.878 314.068 582.514 313.634C582.15 313.19 581.734 312.833 581.265 312.563C580.804 312.297 580.388 312.173 580.016 312.192C579.652 312.206 579.365 312.353 579.155 312.633C578.953 312.917 578.852 313.326 578.852 313.858C578.852 314.39 578.953 314.919 579.155 315.447C579.365 315.969 579.652 316.452 580.016 316.896C580.388 317.334 580.804 317.687 581.265 317.953ZM589.626 324.012C588.963 323.629 588.381 323.134 587.88 322.528C587.379 321.911 586.987 321.242 586.704 320.518C586.421 319.786 586.279 319.055 586.279 318.327C586.279 317.599 586.413 317.032 586.679 316.626C586.954 316.225 587.326 316.001 587.795 315.954C588.272 315.903 588.805 316.048 589.395 316.388C589.993 316.734 590.523 317.198 590.983 317.781C591.452 318.36 591.82 319.011 592.087 319.735C592.354 320.449 592.487 321.174 592.487 321.912C592.487 321.958 592.483 322.007 592.475 322.059C592.475 322.105 592.475 322.157 592.475 322.213L586.934 319.013V318.272L592.014 321.205L591.675 321.303C591.675 320.771 591.574 320.241 591.371 319.713C591.177 319.181 590.911 318.701 590.571 318.271C590.232 317.842 589.84 317.499 589.395 317.242C588.959 316.99 588.567 316.881 588.219 316.913C587.872 316.946 587.601 317.116 587.407 317.424C587.213 317.732 587.116 318.157 587.116 318.698V318.852C587.116 319.412 587.221 319.968 587.431 320.518C587.649 321.064 587.948 321.569 588.328 322.03C588.716 322.488 589.157 322.859 589.65 323.143C590.038 323.368 590.397 323.496 590.729 323.529C591.068 323.566 591.359 323.491 591.602 323.305L592.087 324.229C591.804 324.457 591.448 324.551 591.02 324.509C590.6 324.471 590.135 324.306 589.626 324.012Z" fill="white"/>
<mask id="mask0_2001_1140" style="mask-type:alpha" maskUnits="userSpaceOnUse" x="474" y="19" width="318" height="184">
<path d="M633.49 20.0002L475.061 110.838L633.49 202.107L790.196 110.838L633.49 20.0002Z" fill="#8E2C2C" stroke="black"/>
</mask>
<g mask="url(#mask0_2001_1140)">
<path d="M633.92 82.4247C641.239 77.1017 650.71 77.6891 653.293 80.7026L652.001 119.449L645.974 151.307L603.354 187.039C593.165 184.313 544.115 164.394 541.36 161.639C533.61 153.889 529.736 140.544 536.194 128.92C539.349 123.239 547.817 120.31 554.275 122.032L567.621 116.435C570.634 112.991 578.703 105.256 586.133 103.089C596.465 100.076 610.815 102.659 619.713 106.103C622.87 99.3581 624.449 89.3126 633.92 82.4247Z" fill="black" fill-opacity="0.5"/>
<path fill-rule="evenodd" clip-rule="evenodd" d="M656.201 133.76C646.928 133.022 640.012 122.229 640.012 107.098C640.012 89.5045 649.363 72.7083 660.897 69.5829C662.512 69.1454 664.084 68.999 665.594 69.1191L674.752 69.9462C673.242 69.8261 671.67 69.9725 670.055 70.4101C658.521 73.5354 649.17 90.3317 649.17 107.926C649.17 123.056 656.086 133.849 665.359 134.587L656.201 133.76Z" fill="black"/>
<path fill-rule="evenodd" clip-rule="evenodd" d="M665.592 69.119C674.866 69.8566 681.781 80.6497 681.781 95.7804C681.781 113.374 672.431 130.171 660.896 133.296C659.281 133.733 657.709 133.88 656.199 133.76L665.358 134.587C666.867 134.707 668.439 134.561 670.054 134.123C681.589 130.998 690.94 114.201 690.94 96.6076C690.94 81.4768 684.024 70.6838 674.751 69.9462L665.592 69.119Z" fill="black"/>
<path d="M661.028 70.0651C666.572 68.5632 671.598 70.612 675.275 75.2233C678.965 79.8522 681.283 87.0632 681.283 95.7809C681.283 104.494 678.966 113.007 675.229 119.72C671.602 126.235 666.674 130.994 661.289 132.662L660.767 132.813C655.223 134.315 650.196 132.267 646.52 127.655C642.829 123.026 640.512 115.816 640.512 107.098C640.512 98.3854 642.828 89.8715 646.566 83.1579C650.192 76.643 655.121 71.8849 660.506 70.2174L661.028 70.0651Z" fill="#BA8FFF" stroke="black"/>
<path d="M650.097 104.419C650.277 104.319 650.496 104.326 650.706 104.447L669.777 115.458C670.125 115.659 670.195 116.296 669.888 116.468L665.186 119.098C665.006 119.199 664.787 119.192 664.577 119.07L645.507 108.06C645.158 107.859 645.088 107.222 645.396 107.05L650.097 104.419Z" fill="black"/>
<path d="M653.794 85.3894C653.98 85.2922 654.199 85.2994 654.404 85.4173L673.474 96.4276C673.822 96.6288 673.892 97.2658 673.585 97.4378L668.884 100.068C668.704 100.169 668.485 100.161 668.274 100.04L649.204 89.0298C648.856 88.8286 648.786 88.1916 649.093 88.0196L653.794 85.3894Z" fill="black"/>
<path d="M668.078 104.218C667.97 103.951 667.793 103.729 667.582 103.608L648.512 92.5976C648.163 92.3964 647.885 92.8322 648.07 93.2887L650.903 100.269C651.012 100.536 651.189 100.758 651.4 100.879L670.47 111.889C670.818 112.091 671.097 111.655 670.912 111.198L668.078 104.218Z" fill="black"/>
<path fill-rule="evenodd" clip-rule="evenodd" d="M659.047 171.017C654.023 166.795 652.056 159.088 654.44 149.37C658.699 132.017 675.224 114.82 691.349 110.961C698.444 109.262 704.279 110.429 708.227 113.747L717.551 121.863C713.603 118.545 707.768 117.379 700.673 119.077C684.548 122.937 668.023 140.133 663.765 157.487C661.38 167.205 663.347 174.911 668.372 179.134L659.047 171.017Z" fill="black" stroke="black" stroke-width="0.3" stroke-linejoin="round"/>
<path fill-rule="evenodd" clip-rule="evenodd" d="M708.228 113.746C713.253 117.969 715.22 125.675 712.835 135.393C708.576 152.747 692.052 169.943 675.927 173.803C668.832 175.501 662.996 174.335 659.048 171.017L668.372 179.133C672.32 182.451 678.156 183.618 685.251 181.919C701.376 178.06 717.9 160.863 722.159 143.51C724.544 133.792 722.577 126.085 717.552 121.863L708.228 113.746Z" fill="black" stroke="black" stroke-width="0.3" stroke-linejoin="round"/>
<path d="M691.466 111.447C699.403 109.547 705.628 111.308 709.36 115.552C713.104 119.81 714.454 126.694 712.348 135.274C710.244 143.849 705.101 152.412 698.47 159.312C692.045 165.999 684.259 171.088 676.555 173.129L675.81 173.317C667.873 175.217 661.648 173.456 657.915 169.212C654.171 164.954 652.821 158.069 654.926 149.49C657.031 140.914 662.175 132.352 668.806 125.452C675.438 118.549 683.52 113.349 691.466 111.447Z" fill="#BA8FFF" stroke="black"/>
<path d="M694.939 120.589C695.191 120.121 695.72 119.816 696.112 119.958C701.835 120.855 705.435 124.773 705.559 130.787C705.766 140.809 696.317 153.169 684.342 158.457C684.193 158.589 683.963 158.63 683.847 158.65C683.42 158.62 683.293 158.325 683.43 157.877L683.908 156.311C684.079 155.751 684.413 155.374 684.942 155.069C690.18 152.557 695.078 148.306 698.244 143.3C704.221 134.093 702.588 125.17 694.557 123.621C694.279 123.458 694.071 123.071 694.208 122.623L694.686 121.057C694.755 120.833 694.789 120.721 694.939 120.589ZM683.93 122C684.357 122.031 684.484 122.326 684.347 122.774L683.868 124.341C683.697 124.901 683.364 125.277 682.835 125.582C677.597 128.094 672.699 132.345 669.533 137.35C663.556 146.557 665.189 155.481 673.22 157.03C673.498 157.193 673.706 157.58 673.604 157.916L673.125 159.483C673.056 159.706 673.022 159.818 672.872 159.95C672.621 160.418 672.091 160.724 671.699 160.581C665.86 159.705 662.376 155.765 662.218 149.864C662.011 139.842 671.46 127.482 683.435 122.194C683.584 122.062 683.814 122.021 683.93 122ZM688.836 126.642C689.378 126.652 689.621 126.927 689.484 127.375L688.663 130.061C691.245 129.817 692.738 131.353 692.447 133.734L692.412 133.846C692.275 134.294 691.827 134.691 691.366 134.772L689.522 135.097C689.177 135.158 688.899 134.995 688.886 134.68C688.823 133.103 687.876 132.634 685.801 133C683.497 133.407 682.036 134.617 681.557 136.184C681.078 137.751 681.496 138.524 684.816 138.362C689.486 138.068 691.496 138.985 690.298 142.902C689.374 145.923 686.35 148.68 682.722 149.849L681.901 152.535C681.614 153.115 681.166 153.512 680.705 153.593L678.977 153.898C678.435 153.887 678.191 153.612 678.328 153.165L679.149 150.479C675.517 150.59 674.289 148.901 674.684 146.184L674.718 146.072C674.855 145.625 675.303 145.228 675.763 145.147L677.723 144.801C678.069 144.74 678.347 144.903 678.325 145.33C678.157 146.948 678.818 147.996 681.815 147.468C684.004 147.082 685.994 145.566 686.542 143.775C687.089 141.985 686.257 141.497 683.201 141.506C678.532 141.8 676.671 140.751 677.8 137.058C678.656 134.26 681.53 131.636 685.124 130.579L685.911 128.005C686.198 127.425 686.646 127.028 687.107 126.946L688.836 126.642Z" fill="black"/>
<path fill-rule="evenodd" clip-rule="evenodd" d="M663.451 152.173C658.846 157.459 647.005 156.195 633.192 148.069C615.482 137.65 601.236 119.897 601.371 108.416C601.401 105.89 602.125 103.878 603.424 102.387L596.114 110.13C594.815 111.621 594.092 113.632 594.062 116.158C593.926 127.639 608.173 145.393 625.882 155.811C639.696 163.938 651.536 165.201 656.141 159.916L663.451 152.173Z" fill="black"/>
<path fill-rule="evenodd" clip-rule="evenodd" d="M603.425 102.387C608.03 97.1017 619.871 98.3655 633.684 106.492C651.393 116.911 665.64 134.664 665.504 146.145C665.475 148.671 664.751 150.683 663.452 152.173L656.143 159.916C657.442 158.425 658.165 156.413 658.195 153.887C658.33 142.406 644.084 124.653 626.374 114.235C612.561 106.108 600.721 104.844 596.115 110.13L603.425 102.387Z" fill="black"/>
<path d="M610.967 99.7407C616.495 99.4115 624.121 101.594 632.606 106.445L633.429 106.923C642.232 112.102 650.174 119.104 655.894 126.233C661.631 133.382 665.068 140.575 665.003 146.139C664.97 148.898 664.082 150.965 662.548 152.387C661.006 153.818 658.756 154.65 655.909 154.82C650.38 155.149 642.754 152.967 634.269 148.116L633.446 147.638C624.643 142.46 616.7 135.456 610.98 128.328C605.243 121.179 601.806 113.985 601.871 108.422C601.904 105.662 602.794 103.596 604.327 102.173C605.869 100.743 608.12 99.9102 610.967 99.7407Z" fill="#BA8FFF" stroke="black"/>
<path d="M614.423 113.113C613.96 112.804 613.69 112.34 613.872 112.097C615.313 108.224 619.703 106.704 625.961 108.259C636.391 110.85 648.391 121.029 652.82 131.093C652.943 131.236 652.965 131.413 652.976 131.501C652.906 131.8 652.588 131.812 652.135 131.591L650.551 130.818C649.985 130.542 649.623 130.199 649.353 129.735C647.21 125.278 643.228 120.59 638.31 116.944C629.277 110.125 619.861 108.861 617.539 114.218C617.345 114.373 616.925 114.418 616.472 114.197L614.887 113.424C614.66 113.313 614.547 113.257 614.423 113.113ZM614.911 121.421C614.98 121.123 615.299 121.112 615.752 121.333L617.337 122.106C617.903 122.382 618.264 122.724 618.534 123.189C620.678 127.645 624.659 132.333 629.578 135.979C638.611 142.798 648.026 144.062 650.348 138.705C650.542 138.551 650.963 138.507 651.302 138.672L652.887 139.445C653.113 139.556 653.226 139.611 653.35 139.754C653.814 140.063 654.084 140.528 653.901 140.772C652.471 144.733 648.071 146.164 641.926 144.665C631.497 142.074 619.496 131.895 615.068 121.831C614.944 121.688 614.922 121.51 614.911 121.421ZM620.168 119.161C620.227 118.774 620.534 118.674 620.987 118.895L623.705 120.22C623.681 118.295 625.41 117.641 627.857 118.501L627.971 118.556C628.423 118.777 628.795 119.208 628.839 119.562L629.013 120.979C629.046 121.244 628.852 121.399 628.523 121.322C626.879 120.936 626.308 121.49 626.504 123.083C626.721 124.852 627.849 126.234 629.434 127.008C631.019 127.781 631.86 127.691 631.987 125.257C632.096 121.817 633.227 120.621 637.189 122.553C640.246 124.044 642.841 126.974 643.733 129.905L646.451 131.23C647.027 131.595 647.399 132.026 647.443 132.38L647.606 133.707C647.547 134.094 647.24 134.195 646.788 133.974L644.07 132.649C643.862 135.293 641.998 135.714 639.211 134.688L639.098 134.632C638.645 134.411 638.273 133.98 638.229 133.626L638.045 132.122C638.012 131.857 638.206 131.702 638.648 131.834C640.313 132.397 641.461 132.208 641.179 129.907C640.973 128.226 639.575 126.38 637.763 125.496C635.952 124.613 635.371 125.078 635.109 127.28C634.999 130.72 633.744 131.772 630.008 129.949C627.178 128.569 624.707 125.784 623.928 122.908L621.324 121.638C620.747 121.273 620.375 120.842 620.331 120.488L620.168 119.161Z" fill="black"/>
<path fill-rule="evenodd" clip-rule="evenodd" d="M612.659 171.64C606.921 176.858 597.659 177.826 587.21 173.257C569.795 165.643 555.678 145.533 555.678 128.342C555.678 121.465 557.937 116.097 561.762 112.618L553.034 119.848C549.209 123.326 546.95 128.695 546.95 135.571C546.95 152.763 561.068 172.872 578.483 180.486C588.932 185.055 598.194 184.088 603.931 178.869L612.659 171.64Z" fill="black"/>
<path fill-rule="evenodd" clip-rule="evenodd" d="M561.763 112.618C567.5 107.4 576.762 106.433 587.211 111.001C604.626 118.616 618.744 138.725 618.744 155.917C618.744 162.793 616.485 168.161 612.66 171.64L603.932 178.869C607.757 175.39 610.016 170.022 610.016 163.146C610.016 145.954 595.899 125.845 578.484 118.23C568.035 113.662 558.773 114.629 553.035 119.847L561.763 112.618Z" fill="black"/>
<path d="M565.155 110.807C570.513 107.861 577.918 107.701 586.206 111.118L587.01 111.46C595.62 115.224 603.435 122.089 609.098 130.155C614.762 138.223 618.244 147.45 618.244 155.917C618.244 164.369 614.781 170.418 609.266 173.451C603.908 176.397 596.503 176.557 588.215 173.14L587.411 172.799C578.801 169.034 570.985 162.169 565.323 154.103C559.658 146.035 556.178 136.808 556.178 128.342C556.178 119.889 559.64 113.84 565.155 110.807Z" fill="#BA8FFF" stroke="black"/>
<path d="M596.147 139.112C597.883 137.898 598.622 136.005 597.427 133.106C595.801 129.143 591.791 128.178 587.131 128.274L585.431 122.718L581.911 123.088L583.564 128.498C582.637 128.595 581.699 128.712 580.764 128.829L579.099 123.385L575.582 123.754L577.279 129.308C576.521 129.403 575.777 129.496 575.046 129.573L575.041 129.556L570.184 130.065L571.289 133.676C571.289 133.676 573.875 133.356 573.846 133.406C575.271 133.257 575.98 134.003 576.324 134.675L578.26 141.004L580.977 149.894C581.046 150.331 580.993 151.047 579.996 151.153C580.053 151.187 577.435 151.422 577.435 151.422L577.972 155.533L582.552 155.052C583.406 154.963 584.249 154.887 585.073 154.807L586.794 160.425L590.311 160.056L588.61 154.497C589.583 154.415 590.52 154.325 591.431 154.228L593.122 159.761L596.642 159.391L594.93 153.782C600.747 152.833 604.452 150.966 603.335 145.573C602.436 141.231 599.744 139.533 596.147 139.112ZM582.064 132.795C584.049 132.586 590.108 131.322 591.327 135.307C592.494 139.127 586.115 139.337 584.128 139.546L582.064 132.795ZM587.444 150.399L585.17 142.954C587.555 142.703 594.836 141.258 596.176 145.637C597.461 149.838 589.831 150.146 587.444 150.399Z" fill="black"/>
<path fill-rule="evenodd" clip-rule="evenodd" d="M600.296 183.209C599.606 181.376 599.242 179.419 599.242 177.357C599.242 162.631 617.839 148.152 640.78 145.017C660.509 142.322 677.026 148.895 681.264 160.155L684.159 168.909C679.921 157.649 663.404 151.076 643.675 153.771C620.734 156.906 602.137 171.385 602.137 186.111C602.137 188.173 602.501 190.13 603.191 191.964L600.296 183.209Z" fill="black"/>
<path fill-rule="evenodd" clip-rule="evenodd" d="M681.263 160.155C681.953 161.988 682.317 163.945 682.317 166.007C682.317 180.733 663.72 195.212 640.779 198.347C621.05 201.042 604.533 194.469 600.296 183.209L603.19 191.963C607.428 203.224 623.945 209.796 643.674 207.101C666.615 203.966 685.212 189.487 685.212 174.761C685.212 172.699 684.848 170.742 684.158 168.909L681.263 160.155Z" fill="black"/>
<path d="M640.847 145.513C652.24 143.956 662.519 145.517 669.926 149.26C677.331 153.002 681.818 158.888 681.818 166.007C681.818 173.156 677.296 180.327 669.844 186.129C662.635 191.742 652.744 196.021 641.777 197.698L640.712 197.851C629.319 199.408 619.041 197.847 611.633 194.104C604.229 190.362 599.742 184.477 599.742 177.358C599.742 170.209 604.263 163.037 611.715 157.235C618.924 151.622 628.816 147.343 639.783 145.666L640.847 145.513Z" fill="#BA8FFF" stroke="black"/>
<path d="M614.243 162.979L650.66 175.686L654.213 161.143L614.243 162.979Z" fill="black" stroke="#BA8FFF" stroke-linejoin="round"/>
<path d="M614.243 162.979L628.137 183.62L650.659 175.686L633.796 169.806L614.243 162.979Z" fill="black" stroke="#BA8FFF" stroke-linejoin="round"/>
<path d="M653.844 176.802L667.13 181.438L657.3 162.21L653.844 176.802Z" fill="black" stroke="#BA8FFF" stroke-linejoin="round"/>
<path d="M667.13 181.438L653.845 176.802L631.216 184.694L667.13 181.438Z" fill="black" stroke="#BA8FFF" stroke-linejoin="round"/>
<path d="M650.659 175.686L654.213 161.143L633.796 169.806L650.659 175.686Z" fill="black" stroke="#BA8FFF" stroke-linejoin="round"/>
<path d="M628.137 183.62L650.656 175.689L633.796 169.807L628.137 183.62Z" fill="black" stroke="#BA8FFF" stroke-linejoin="round"/>
</g>
<path fill-rule="evenodd" clip-rule="evenodd" d="M287.789 56.787L306.813 53.7738L317.833 57.5246L298.808 60.5378L287.789 56.787Z" fill="black"/>
<path fill-rule="evenodd" clip-rule="evenodd" d="M306.813 53.7738L306.528 60.5608L317.548 64.3116L317.833 57.5246L306.813 53.7738Z" fill="black"/>
<path fill-rule="evenodd" clip-rule="evenodd" d="M306.528 60.5608L311.964 59.6999L322.983 63.4507L317.548 64.3116L306.528 60.5608Z" fill="black"/>
<path fill-rule="evenodd" clip-rule="evenodd" d="M311.964 59.6999L311.109 80.0608L322.129 83.8116L322.983 63.4507L311.964 59.6999Z" fill="black"/>
<path fill-rule="evenodd" clip-rule="evenodd" d="M311.109 80.0608L321.981 78.339L333 82.0898L322.129 83.8116L311.109 80.0608Z" fill="black"/>
<path fill-rule="evenodd" clip-rule="evenodd" d="M321.981 78.339L320.841 105.487L309.97 107.209L309.115 127.57L303.68 128.431L303.395 135.218L284.37 138.231L284.085 145.018L256.907 149.322L267.927 153.073L295.105 148.768L295.39 141.981L314.414 138.968L314.699 132.181L320.135 131.32L320.989 110.959L331.861 109.238L333 82.0898L321.981 78.339Z" fill="black"/>
<path fill-rule="evenodd" clip-rule="evenodd" d="M256.907 149.322L257.192 142.535L268.211 146.286L267.927 153.073L256.907 149.322Z" fill="black"/>
<path fill-rule="evenodd" clip-rule="evenodd" d="M257.192 142.535L238.167 145.548L249.187 149.299L268.211 146.286L257.192 142.535Z" fill="black"/>
<path fill-rule="evenodd" clip-rule="evenodd" d="M238.167 145.548L238.452 138.761L249.472 142.512L249.187 149.299L238.167 145.548Z" fill="black"/>
<path fill-rule="evenodd" clip-rule="evenodd" d="M238.452 138.761L233.017 139.622L244.036 143.373L249.472 142.512L238.452 138.761Z" fill="black"/>
<path fill-rule="evenodd" clip-rule="evenodd" d="M233.017 139.622L233.871 119.261L244.891 123.012L244.036 143.373L233.017 139.622Z" fill="black"/>
<path fill-rule="evenodd" clip-rule="evenodd" d="M233.871 119.261L223 120.983L234.019 124.734L244.891 123.012L233.871 119.261Z" fill="black"/>
<path fill-rule="evenodd" clip-rule="evenodd" d="M223 120.983L224.139 93.8353L235.011 92.1135L235.865 71.7526L241.301 70.8917L241.586 64.1047L260.611 61.0915L260.895 54.3045L288.073 50L299.093 53.7508L271.915 58.0553L271.63 64.8423L252.605 67.8555L252.32 74.6425L246.885 75.5034L246.03 95.8643L235.159 97.5861L234.019 124.734L223 120.983Z" fill="black"/>
<path fill-rule="evenodd" clip-rule="evenodd" d="M288.074 50L287.789 56.787L298.808 60.5378L299.093 53.7508L288.074 50Z" fill="black"/>
<path fill-rule="evenodd" clip-rule="evenodd" d="M259.544 104.89L269.794 103.266L280.813 107.017L270.563 108.64L259.544 104.89Z" fill="black"/>
<path fill-rule="evenodd" clip-rule="evenodd" d="M275.993 76.8583L270.868 77.6699L270.6 84.0691L260.349 85.6926L260.081 92.0918L254.956 92.9036L254.687 99.3028L252.5 124.5H289L292 97L287.012 80.6091L275.993 76.8583Z" fill="black"/>
<path d="M287.789 56.787L306.813 53.7738L306.528 60.5608L311.964 59.6999L311.109 80.0608L321.981 78.339L320.841 105.487L309.97 107.209L309.115 127.57L303.68 128.431L303.395 135.218L284.37 138.231L284.085 145.018L256.907 149.322L257.192 142.535L238.167 145.548L238.452 138.761L233.017 139.622L233.871 119.261L223 120.983L224.139 93.8353L235.011 92.1135L235.865 71.7526L241.301 70.8917L241.586 64.1047L260.611 61.0915L260.895 54.3045L288.073 50L287.789 56.787ZM270.868 77.6699L270.6 84.0691L260.349 85.6926L260.081 92.0918L254.956 92.9036L254.687 99.3028L259.812 98.4911L259.544 104.89L269.794 103.266L269.525 109.665L254.15 112.101L253.881 118.5L269.257 116.065L268.988 122.464L274.113 121.652L274.381 115.253L284.631 113.63L284.9 107.23L290.025 106.419L290.294 100.019L285.168 100.831L285.437 94.4325L275.187 96.056L275.456 89.6567L285.706 88.0333L285.974 81.6341L275.724 83.2575L275.993 76.8583L270.868 77.6699ZM280.044 101.643L279.775 108.042L274.65 108.854L274.918 102.455L280.044 101.643ZM270.331 90.4684L270.062 96.8676L264.937 97.6793L265.206 91.2801L270.331 90.4684Z" fill="white"/>
<circle cx="385.986" cy="341.986" r="43.6091" transform="rotate(-46.995 385.986 341.986)" fill="white" stroke="black"/>
<path d="M421.586 320.865C429.617 334.4 429.047 350.653 421.497 363.273C419.913 365.921 413.922 364.55 413.943 360.512C413.973 354.577 416.406 349.977 412.354 340.545C408.301 331.114 401.966 323.037 394.957 316.543C390.631 312.536 390.537 298.921 402.263 303.924C410.068 307.254 416.924 313.007 421.586 320.865Z" fill="#BA8FFF"/>
<circle cx="834.435" cy="250.436" r="57.2767" transform="rotate(-85.1709 834.435 250.436)" fill="black" stroke="black"/>
<path d="M830.783 208.44C847.944 229.596 853.954 239.199 866.796 253.169C876.014 263.197 879.858 272.842 877.502 280.222C872.203 296.828 848.311 305.8 828.008 304.085C798.29 301.574 776.235 275.448 778.745 245.73C780.525 224.669 794.165 207.457 812.538 200.109C817.3 198.205 824.571 200.781 830.783 208.44Z" fill="#A66CFF"/>
<path fill-rule="evenodd" clip-rule="evenodd" d="M106.244 245.238L101.61 243.653L108.098 241.434L112.732 243.019L106.244 245.238Z" fill="white" stroke="black" stroke-width="0.3" stroke-linejoin="round"/>
<path fill-rule="evenodd" clip-rule="evenodd" d="M101.61 243.653V262.128L108.098 259.909V241.434L101.61 243.653Z" fill="white" stroke="black" stroke-width="0.3" stroke-linejoin="round"/>
<path d="M98.8293 244.423L92.3415 246.642V252.8L96.9756 254.385V260.543L101.61 262.128L108.098 259.909" stroke="black" stroke-width="0.3" stroke-linejoin="round"/>
<path d="M92.3415 246.642L96.9756 248.227L98.8293 244.423L92.3415 246.642Z" fill="white" stroke="black" stroke-width="0.3" stroke-linejoin="round"/>
<path d="M96.9756 248.227V235.91L103.463 233.691" stroke="black" stroke-width="0.3" stroke-linejoin="round"/>
<path fill-rule="evenodd" clip-rule="evenodd" d="M96.9756 235.91L106.244 239.08V245.238L112.732 243.019V236.861L103.463 233.691L96.9756 235.91Z" fill="white" stroke="black" stroke-width="0.3" stroke-linejoin="round"/>
<path fill-rule="evenodd" clip-rule="evenodd" d="M92.3415 246.642L87.7073 245.057V238.898L94.1951 236.679V242.838L98.8293 244.423L92.3415 246.642Z" fill="white" stroke="black" stroke-width="0.3" stroke-linejoin="round"/>
<path fill-rule="evenodd" clip-rule="evenodd" d="M87.7073 238.898L92.3415 240.483V246.642L98.8293 244.423V238.264L94.1951 236.679L87.7073 238.898Z" fill="white" stroke="black" stroke-width="0.3" stroke-linejoin="round"/>
<path fill-rule="evenodd" clip-rule="evenodd" d="M87.7073 238.898L55.2683 227.803V221.645L61.7561 219.426V225.584L94.1951 236.679L87.7073 238.898Z" fill="white" stroke="black" stroke-width="0.3" stroke-linejoin="round"/>
<path fill-rule="evenodd" clip-rule="evenodd" d="M55.2683 221.645L87.7073 232.74V238.898L94.1951 236.679V230.521L61.7561 219.426L55.2683 221.645Z" fill="white" stroke="black" stroke-width="0.3" stroke-linejoin="round"/>
<path fill-rule="evenodd" clip-rule="evenodd" d="M55.2683 221.645L50.6342 220.06V213.901L57.122 211.683V217.841L61.7561 219.426L55.2683 221.645Z" fill="white" stroke="black" stroke-width="0.3" stroke-linejoin="round"/>
<path fill-rule="evenodd" clip-rule="evenodd" d="M50.6342 213.901L55.2683 215.486V221.645L61.7561 219.426V213.267L57.122 211.683L50.6342 213.901Z" fill="white" stroke="black" stroke-width="0.3" stroke-linejoin="round"/>
<path fill-rule="evenodd" clip-rule="evenodd" d="M110.878 240.665L106.244 239.08V232.921L112.732 230.702V236.861L117.366 238.446L110.878 240.665Z" fill="white" stroke="black" stroke-width="0.3" stroke-linejoin="round"/>
<path fill-rule="evenodd" clip-rule="evenodd" d="M106.244 232.921L110.878 234.506V240.665L117.366 238.446V232.287L112.732 230.702L106.244 232.921Z" fill="white" stroke="black" stroke-width="0.3" stroke-linejoin="round"/>
<path fill-rule="evenodd" clip-rule="evenodd" d="M50.6341 213.902L46 212.317V175.366L52.4878 173.147V210.098L57.122 211.683L50.6341 213.902Z" fill="white" stroke="black" stroke-width="0.3" stroke-linejoin="round"/>
<path fill-rule="evenodd" clip-rule="evenodd" d="M46 175.366L50.6341 176.951V213.902L57.122 211.683V174.732L52.4878 173.147L46 175.366Z" fill="white" stroke="black" stroke-width="0.3" stroke-linejoin="round"/>
<path fill-rule="evenodd" clip-rule="evenodd" d="M115.512 236.091L110.878 234.506V197.555L117.366 195.337V232.287L122 233.872L115.512 236.091Z" fill="white" stroke="black" stroke-width="0.3" stroke-linejoin="round"/>
<path fill-rule="evenodd" clip-rule="evenodd" d="M110.878 197.555L115.512 199.14V236.091L122 233.872V196.921L117.366 195.337L110.878 197.555Z" fill="white" stroke="black" stroke-width="0.3" stroke-linejoin="round"/>
<path fill-rule="evenodd" clip-rule="evenodd" d="M73.8049 206.43L69.1707 204.845V198.687L75.6586 196.468V202.626L80.2927 204.211L73.8049 206.43Z" fill="white" stroke="black" stroke-width="0.3" stroke-linejoin="round"/>
<path fill-rule="evenodd" clip-rule="evenodd" d="M69.1707 198.687L73.8049 200.272V206.43L80.2927 204.211V198.053L75.6586 196.468L69.1707 198.687Z" fill="white" stroke="black" stroke-width="0.3" stroke-linejoin="round"/>
<path fill-rule="evenodd" clip-rule="evenodd" d="M83.0732 209.6L78.439 208.015V201.857L84.9268 199.638V205.796L89.561 207.381L83.0732 209.6Z" fill="white" stroke="black" stroke-width="0.3" stroke-linejoin="round"/>
<path fill-rule="evenodd" clip-rule="evenodd" d="M78.439 201.857L83.0732 203.442V209.6L89.561 207.381V201.223L84.9268 199.638L78.439 201.857Z" fill="white" stroke="black" stroke-width="0.3" stroke-linejoin="round"/>
<path fill-rule="evenodd" clip-rule="evenodd" d="M92.3415 212.77L87.7073 211.185V205.027L94.1951 202.808V208.966L98.8293 210.551L92.3415 212.77Z" fill="white" stroke="black" stroke-width="0.3" stroke-linejoin="round"/>
<path fill-rule="evenodd" clip-rule="evenodd" d="M87.7073 205.027L92.3415 206.612V212.77L98.8293 210.551V204.393L94.1951 202.808L87.7073 205.027Z" fill="white" stroke="black" stroke-width="0.3" stroke-linejoin="round"/>
<path fill-rule="evenodd" clip-rule="evenodd" d="M55.2683 178.536L50.6342 176.951V170.792L57.122 168.573V174.732L61.7561 176.317L55.2683 178.536Z" fill="white" stroke="black" stroke-width="0.3" stroke-linejoin="round"/>
<path fill-rule="evenodd" clip-rule="evenodd" d="M50.6342 170.792L55.2683 172.377V178.536L61.7561 176.317V170.158L57.122 168.573L50.6342 170.792Z" fill="white" stroke="black" stroke-width="0.3" stroke-linejoin="round"/>
<path fill-rule="evenodd" clip-rule="evenodd" d="M110.878 197.555L106.244 195.971V189.812L112.732 187.593V193.752L117.366 195.337L110.878 197.555Z" fill="white" stroke="black" stroke-width="0.3" stroke-linejoin="round"/>
<path fill-rule="evenodd" clip-rule="evenodd" d="M106.244 189.812L110.878 191.397V197.555L117.366 195.337V189.178L112.732 187.593L106.244 189.812Z" fill="white" stroke="black" stroke-width="0.3" stroke-linejoin="round"/>
<path fill-rule="evenodd" clip-rule="evenodd" d="M106.244 189.812L55.2683 172.377V166.219L61.7561 164V170.158L112.732 187.593L106.244 189.812Z" fill="white" stroke="black" stroke-width="0.3" stroke-linejoin="round"/>
<path fill-rule="evenodd" clip-rule="evenodd" d="M55.2683 166.219L106.244 183.654V189.812L112.732 187.593V181.435L61.7561 164L55.2683 166.219Z" fill="white" stroke="black" stroke-width="0.3" stroke-linejoin="round"/>
<path d="M106.244 245.238L101.61 243.653V262.128L96.9756 260.543V254.385L92.3415 252.8V246.642L96.9756 248.227V235.91L106.244 239.08V245.238ZM92.3415 246.642L87.7073 245.057V238.898L92.3415 240.483V246.642ZM87.7073 238.898L55.2683 227.803V221.645L87.7073 232.74V238.898ZM55.2683 221.645L50.6341 220.06V213.902L55.2683 215.486V221.645ZM110.878 240.665L106.244 239.08V232.921L110.878 234.506V240.665ZM50.6341 213.902L46 212.317V175.366L50.6341 176.951V213.902ZM115.512 236.091L110.878 234.506V197.556L115.512 199.14V236.091ZM73.8049 206.43L69.1707 204.845V198.687L73.8049 200.272V206.43ZM83.0732 209.6L78.439 208.015V201.857L83.0732 203.442V209.6ZM92.3415 212.77L87.7073 211.185V205.027L92.3415 206.612V212.77ZM55.2683 178.536L50.6341 176.951V170.792L55.2683 172.377V178.536ZM110.878 197.556L106.244 195.971V189.812L110.878 191.397V197.556ZM106.244 189.812L55.2683 172.377V166.219L106.244 183.654V189.812Z" fill="black"/>
</svg>
