<svg width="529" height="350" viewBox="0 0 529 350" fill="none" xmlns="http://www.w3.org/2000/svg">
<path d="M529 48C516 26 505.5 13 481 0H491C511.987 0 529 17.0132 529 38V48Z" fill="white"/>
<path d="M208.56 140.601C215.223 150.585 233.342 150.191 249.031 139.721C253.385 136.815 257.079 133.476 260.013 129.94C267.65 120.736 270.133 110.2 265.685 102.517L261.208 95.2415L234.904 113.654L205.242 134.418L208.56 140.601Z" fill="white"/>
<path d="M260.013 129.94C257.079 133.476 253.385 136.815 249.031 139.721C233.342 150.191 215.223 150.585 208.56 140.601L205.242 134.418L234.904 113.654M260.013 129.94C267.65 120.736 270.133 110.2 265.685 102.517L261.208 95.2415L234.904 113.654M260.013 129.94L255.052 124.344L234.904 113.654" stroke="black"/>
<path d="M265.685 102.517L261.208 95.2415L234.904 113.654L255.052 124.344L260.013 129.94C267.65 120.736 270.133 110.2 265.685 102.517Z" fill="#BA8FFF" stroke="black"/>
<path d="M205.064 133.993C211.727 143.977 229.847 143.583 245.536 133.113C249.445 130.504 252.835 127.515 255.618 124.344C264.003 114.788 266.881 103.573 261.879 96.0774C255.216 86.0935 237.096 86.4877 221.407 96.9578C218.756 98.7275 216.343 100.672 214.197 102.729C203.644 112.845 199.527 125.697 205.064 133.993Z" fill="white"/>
<path d="M255.618 124.344C252.835 127.515 249.445 130.504 245.536 133.113C229.847 143.583 211.727 143.977 205.064 133.993C199.527 125.697 203.644 112.845 214.197 102.729M255.618 124.344C264.003 114.788 266.881 103.573 261.879 96.0774C255.216 86.0935 237.096 86.4877 221.407 96.9578C218.756 98.7275 216.343 100.672 214.197 102.729M255.618 124.344L214.197 102.729" stroke="black"/>
<path d="M221.407 96.9578C237.096 86.4877 255.216 86.0935 261.879 96.0774C266.881 103.573 264.003 114.788 255.618 124.344L214.197 102.729C216.343 100.672 218.756 98.7275 221.407 96.9578Z" fill="#BA8FFF" stroke="black"/>
<path d="M503.152 260.216L442.462 159.418L374.184 260.717L440.961 374.976C446.231 371.979 450.686 367.559 453.731 362.067L503.372 272.537C505.507 268.686 505.423 263.988 503.152 260.216Z" fill="white" stroke="black"/>
<path d="M321.641 379.364H424.364C430.289 379.364 435.988 377.803 440.961 374.976L374.184 260.717L252.179 270.79L313.938 374.976C315.55 377.696 318.478 379.364 321.641 379.364Z" fill="#C4E703" stroke="black"/>
<path d="M390.115 259.488L441.981 166.305C444.923 161.02 441.021 154.537 434.974 154.661L327.446 156.864C317.916 157.06 309.203 162.291 304.55 170.61L252.666 263.386C249.718 268.658 253.593 275.143 259.633 275.044L367.083 273.283C376.673 273.126 385.451 267.868 390.115 259.488Z" fill="white" stroke="black"/>
<path d="M380.974 258.223L404.318 216.504L431.204 168.452C432.472 166.188 430.8 163.403 428.206 163.456L322.882 165.602C319.315 165.675 316.054 167.628 314.306 170.737L263.44 261.215C262.169 263.474 263.83 266.26 266.421 266.218L370.43 264.522C374.815 264.45 378.832 262.051 380.974 258.223Z" fill="#C4E703"/>
<path d="M322.882 165.602L428.206 163.456C430.8 163.403 432.472 166.188 431.204 168.452L404.318 216.504M322.882 165.602C319.315 165.675 316.054 167.628 314.306 170.737L263.44 261.215C262.169 263.474 263.83 266.26 266.421 266.218L370.43 264.522C374.815 264.45 378.832 262.051 380.974 258.223L404.318 216.504M322.882 165.602L404.318 216.504" stroke="black"/>
<path d="M266.422 266.218L370.43 264.522C374.816 264.45 378.832 262.051 380.974 258.223L404.318 216.504L325.155 167.023C323.672 166.096 321.918 165.516 320.24 166.011C317.755 166.743 315.609 168.419 314.306 170.737L263.44 261.215C262.169 263.474 263.83 266.26 266.422 266.218Z" fill="black" stroke="black"/>
<path d="M487.947 71.1573L481.86 99.2531L377.764 73.7097L269.75 47.2049L275.621 18.3371C276.121 15.8813 278.192 14.0569 280.691 13.8713L371.071 7.15991C377.108 6.71165 383.14 7.21011 388.957 8.60534C394.705 9.98392 400.243 12.238 405.369 15.3194L484.327 62.7829C487.202 64.5113 488.658 67.8785 487.947 71.1573Z" fill="white"/>
<path d="M388.957 8.60534C394.705 9.98392 400.243 12.238 405.369 15.3194L484.327 62.7829C487.202 64.5113 488.658 67.8785 487.947 71.1573L481.86 99.2531L377.764 73.7097M388.957 8.60534C383.14 7.21011 377.108 6.71165 371.071 7.15991L280.691 13.8713C278.192 14.0569 276.121 15.8813 275.621 18.3371L269.75 47.2049L377.764 73.7097M388.957 8.60534L377.764 73.7097" stroke="black"/>
<path d="M280.691 13.8713L371.072 7.15985C377.108 6.71159 383.14 7.21005 388.957 8.60528L377.764 73.7096L269.75 47.2048L275.621 18.337C276.121 15.8812 278.192 14.0569 280.691 13.8713Z" fill="#BA8FFF" stroke="black"/>
<path d="M382.593 109.537L479.983 102.548C482.151 102.392 482.848 99.5514 480.999 98.4099L388.771 41.4602C385.98 39.7369 382.719 38.9328 379.447 39.1611L271.265 46.7087C269.079 46.8612 268.391 49.7388 270.272 50.8633L359.03 103.931C366.124 108.172 374.349 110.129 382.593 109.537Z" fill="white" stroke="black"/>
<path d="M383.324 104.498L464.698 98.6437C466.882 98.4866 467.565 95.6119 465.686 94.4891L459.474 90.7775L386.949 47.445C384.246 45.83 381.119 45.0668 377.976 45.2547L295.494 50.1856L287.068 50.6894C284.869 50.8209 284.162 53.7155 286.053 54.8456L359.76 98.8957C363.122 100.905 366.737 102.401 370.488 103.356C374.654 104.417 378.986 104.81 383.324 104.498Z" fill="#BA8FFF"/>
<path d="M459.474 90.7775L386.949 47.445C384.246 45.83 381.119 45.0668 377.976 45.2547L295.494 50.1856M459.474 90.7775L465.686 94.4891C467.565 95.6119 466.882 98.4866 464.698 98.6437L383.324 104.498C378.986 104.81 374.654 104.417 370.488 103.356M459.474 90.7775L371.608 95.8952M371.608 95.8952L295.494 50.1856M371.608 95.8952L370.488 103.356M295.494 50.1856L287.068 50.6894C284.869 50.8209 284.162 53.7155 286.053 54.8456L359.76 98.8957C363.122 100.905 366.737 102.401 370.488 103.356" stroke="black"/>
<path d="M286.053 54.8456L359.76 98.8957C363.122 100.905 366.737 102.401 370.488 103.356L371.608 95.8951L295.494 50.1856L287.068 50.6893C284.869 50.8208 284.162 53.7155 286.053 54.8456Z" fill="black" stroke="black"/>
<path d="M136.247 159.015L153.401 220.245L161.02 218.06C161.868 217.815 162.609 216.874 163.11 215.059C163.602 213.276 163.814 210.805 163.732 207.805C163.568 201.813 162.236 193.825 159.766 185.272C157.296 176.718 154.164 169.251 151.108 164.095C149.577 161.513 148.081 159.535 146.714 158.289C145.323 157.021 144.194 156.62 143.347 156.863L136.247 159.015Z" fill="#C4E703" stroke="black"/>
<path d="M135.316 159.341C134.468 159.586 133.726 160.528 133.226 162.343C132.734 164.126 132.523 166.597 132.605 169.597C132.768 175.589 134.1 183.576 136.57 192.129C139.04 200.683 142.172 208.151 145.229 213.308C146.759 215.889 148.255 217.867 149.622 219.113C151.013 220.382 152.143 220.783 152.99 220.539C153.837 220.294 154.579 219.352 155.08 217.537C155.572 215.754 155.784 213.283 155.702 210.283C155.538 204.29 154.207 196.303 151.736 187.749C149.266 179.196 146.134 171.729 143.078 166.572C141.548 163.99 140.051 162.013 138.684 160.766C137.293 159.497 136.163 159.097 135.316 159.341Z" fill="white" stroke="black"/>
<path d="M286.386 245.382L288.497 238.222L227.907 220.597L225.8 228.497L225.798 228.505C225.56 229.347 225.938 230.437 227.146 231.763C228.337 233.069 230.237 234.49 232.741 235.943C237.744 238.846 245.057 241.817 253.625 244.236C262.192 246.654 270.182 247.948 276.169 248.093C279.166 248.165 281.633 247.948 283.41 247.457C285.22 246.956 286.149 246.22 286.384 245.387L286.386 245.382Z" fill="#BA8FFF" stroke="black"/>
<path d="M260.51 221.267C251.944 218.849 243.954 217.555 237.967 217.411C234.969 217.338 232.503 217.554 230.726 218.046C228.915 218.546 227.986 219.283 227.751 220.115C227.516 220.947 227.923 222.061 229.205 223.435C230.463 224.783 232.452 226.256 235.045 227.762C240.224 230.769 247.711 233.845 256.277 236.263C264.843 238.681 272.834 239.974 278.821 240.119C281.818 240.191 284.284 239.975 286.061 239.484C287.872 238.983 288.801 238.247 289.036 237.414C289.271 236.582 288.864 235.468 287.582 234.095C286.325 232.747 284.335 231.273 281.743 229.767C276.563 226.76 269.076 223.685 260.51 221.267Z" fill="white" stroke="black"/>
<path fill-rule="evenodd" clip-rule="evenodd" d="M326.816 255.658L322.653 254.234L328.482 252.241L332.645 253.665L326.816 255.658Z" fill="#BA8FFF"/>
<path fill-rule="evenodd" clip-rule="evenodd" d="M322.653 254.234V259.767L328.482 257.773V252.241L322.653 254.234Z" fill="#BA8FFF"/>
<path fill-rule="evenodd" clip-rule="evenodd" d="M322.654 259.767L318.49 258.343V241.745L314.327 240.321V234.788L320.156 232.795V238.327L324.319 239.751V256.35L328.482 257.773L322.654 259.767Z" fill="#BA8FFF"/>
<path fill-rule="evenodd" clip-rule="evenodd" d="M314.327 234.788L322.654 237.636V248.702L326.817 250.125V255.658L332.646 253.665V248.132L328.482 246.708V235.643L320.156 232.795L314.327 234.788Z" fill="#BA8FFF"/>
<path fill-rule="evenodd" clip-rule="evenodd" d="M330.98 251.549L326.817 250.125V244.593L332.645 242.599V248.132L336.809 249.556L330.98 251.549Z" fill="#BA8FFF"/>
<path fill-rule="evenodd" clip-rule="evenodd" d="M326.817 244.593L330.98 246.017V251.549L336.809 249.556V244.023L332.645 242.599L326.817 244.593Z" fill="#BA8FFF"/>
<path fill-rule="evenodd" clip-rule="evenodd" d="M360.123 255.984L330.98 246.017V240.484L336.809 238.49V244.023L365.952 253.991L360.123 255.984Z" fill="#BA8FFF"/>
<path fill-rule="evenodd" clip-rule="evenodd" d="M330.98 240.484L360.123 250.451V255.984L365.952 253.991V248.458L336.809 238.49L330.98 240.484Z" fill="#BA8FFF"/>
<path fill-rule="evenodd" clip-rule="evenodd" d="M314.327 234.788L310.164 233.364V227.831L315.992 225.838V231.371L320.156 232.795L314.327 234.788Z" fill="#BA8FFF"/>
<path fill-rule="evenodd" clip-rule="evenodd" d="M310.164 227.831L314.327 229.255V234.788L320.156 232.795V227.262L315.992 225.838L310.164 227.831Z" fill="#BA8FFF"/>
<path fill-rule="evenodd" clip-rule="evenodd" d="M364.286 251.875L360.123 250.451V244.919L365.952 242.925V248.458L370.115 249.882L364.286 251.875Z" fill="#BA8FFF"/>
<path fill-rule="evenodd" clip-rule="evenodd" d="M360.123 244.919L364.286 246.343V251.875L370.115 249.882V244.349L365.952 242.925L360.123 244.919Z" fill="#BA8FFF"/>
<path fill-rule="evenodd" clip-rule="evenodd" d="M310.163 227.831L306 226.407V193.211L311.829 191.218V224.414L315.992 225.838L310.163 227.831Z" fill="#BA8FFF"/>
<path fill-rule="evenodd" clip-rule="evenodd" d="M306 193.211L310.163 194.635V227.831L315.992 225.838V192.641L311.829 191.218L306 193.211Z" fill="#BA8FFF"/>
<path fill-rule="evenodd" clip-rule="evenodd" d="M368.45 247.766L364.286 246.342V213.146L370.115 211.153V244.349L374.278 245.773L368.45 247.766Z" fill="#BA8FFF"/>
<path fill-rule="evenodd" clip-rule="evenodd" d="M364.286 213.146L368.45 214.57V247.766L374.278 245.773V212.577L370.115 211.153L364.286 213.146Z" fill="#BA8FFF"/>
<path fill-rule="evenodd" clip-rule="evenodd" d="M330.98 221.119L326.817 219.695V214.163L332.645 212.169V217.702L336.809 219.126L330.98 221.119Z" fill="#BA8FFF"/>
<path fill-rule="evenodd" clip-rule="evenodd" d="M326.817 214.163L330.98 215.586V221.119L336.809 219.126V213.593L332.645 212.169L326.817 214.163Z" fill="#BA8FFF"/>
<path fill-rule="evenodd" clip-rule="evenodd" d="M339.307 223.967L335.144 222.543V217.01L340.972 215.017V220.55L345.136 221.974L339.307 223.967Z" fill="#BA8FFF"/>
<path fill-rule="evenodd" clip-rule="evenodd" d="M335.144 217.01L339.307 218.434V223.967L345.136 221.974V216.441L340.972 215.017L335.144 217.01Z" fill="#BA8FFF"/>
<path fill-rule="evenodd" clip-rule="evenodd" d="M347.633 226.815L343.47 225.391V219.858L349.298 217.865V223.398L353.462 224.821L347.633 226.815Z" fill="#BA8FFF"/>
<path fill-rule="evenodd" clip-rule="evenodd" d="M343.47 219.858L347.633 221.282V226.815L353.462 224.821V219.289L349.298 217.865L343.47 219.858Z" fill="#BA8FFF"/>
<path fill-rule="evenodd" clip-rule="evenodd" d="M314.327 196.059L310.164 194.635V189.102L315.992 187.109V192.641L320.156 194.065L314.327 196.059Z" fill="#BA8FFF"/>
<path fill-rule="evenodd" clip-rule="evenodd" d="M310.164 189.102L314.327 190.526V196.059L320.156 194.065V188.533L315.992 187.109L310.164 189.102Z" fill="#BA8FFF"/>
<path fill-rule="evenodd" clip-rule="evenodd" d="M364.286 213.146L360.123 211.722V206.19L365.952 204.196V209.729L370.115 211.153L364.286 213.146Z" fill="#BA8FFF"/>
<path fill-rule="evenodd" clip-rule="evenodd" d="M360.123 206.19L364.286 207.614V213.146L370.115 211.153V205.62L365.952 204.196L360.123 206.19Z" fill="#BA8FFF"/>
<path fill-rule="evenodd" clip-rule="evenodd" d="M360.124 206.19L314.327 190.526V184.994L320.156 183V188.533L365.952 204.196L360.124 206.19Z" fill="#BA8FFF"/>
<path fill-rule="evenodd" clip-rule="evenodd" d="M314.327 184.994L360.124 200.657V206.19L365.952 204.196V198.663L320.156 183L314.327 184.994Z" fill="#BA8FFF"/>
<path d="M322.654 248.701L326.817 250.125V255.658L322.654 254.234V259.767L318.49 258.343V241.745L314.327 240.321V234.788L322.654 237.636V248.701ZM330.98 251.549L326.817 250.125V244.593L330.98 246.017V251.549ZM360.123 255.984L330.98 246.017V240.484L360.123 250.451V255.984ZM314.327 234.788L310.164 233.364V227.831L314.327 229.255V234.788ZM364.287 251.875L360.123 250.451V244.919L364.287 246.343V251.875ZM310.164 194.635V227.831L306 226.407V193.211L310.164 194.635ZM368.45 247.767L364.287 246.343V213.146L368.45 214.57V247.767ZM330.98 221.119L326.817 219.695V214.163L330.98 215.587V221.119ZM339.307 223.967L335.144 222.543V217.01L339.307 218.434V223.967ZM347.633 226.815L343.47 225.391V219.858L347.633 221.282V226.815ZM314.327 196.059L310.164 194.635V189.102L314.327 190.526V196.059ZM364.287 213.146L360.123 211.722V206.19L364.287 207.613V213.146ZM360.123 206.19L314.327 190.526V184.994L360.123 200.657V206.19Z" fill="white"/>
<rect width="13.4318" height="13.4318" transform="matrix(-0.950395 -0.311046 -0.311046 0.950395 391.943 131.178)" fill="white"/>
<rect width="13.4318" height="13.4318" transform="matrix(-0.942026 -0.335538 -0.335538 0.942026 274.16 177.507)" fill="white"/>
<rect width="13.4318" height="13.4318" transform="matrix(-0.920971 0.389632 0.389632 0.920971 214.37 178)" fill="#C4E703"/>
<rect width="13.4318" height="13.4318" transform="matrix(-0.920971 0.389632 0.389632 0.920971 311.37 115)" fill="#C4E703"/>
<rect width="13.4318" height="13.4318" transform="matrix(-0.960014 -0.279953 -0.279953 0.960014 164.644 110.289)" fill="#C4E703"/>
<path fill-rule="evenodd" clip-rule="evenodd" d="M21.1463 150.03L27.3658 147.903L18.6585 144.925L12.439 147.052L21.1463 150.03Z" fill="#BA8FFF"/>
<path fill-rule="evenodd" clip-rule="evenodd" d="M27.3658 147.903V172.699L18.6585 169.72V144.925L27.3658 147.903Z" fill="#BA8FFF"/>
<path fill-rule="evenodd" clip-rule="evenodd" d="M39.8049 151.914L33.5854 154.041L30.3152 151.914L31.0976 148.936L39.8049 151.914Z" fill="#BA8FFF"/>
<path fill-rule="evenodd" clip-rule="evenodd" d="M33.5853 137.51L21.1463 141.765V150.03L12.439 147.052V138.787L24.878 134.532L33.5853 137.51Z" fill="#BA8FFF"/>
<path fill-rule="evenodd" clip-rule="evenodd" d="M39.8049 151.914L46.0244 149.786V141.521L37.3171 138.543V146.808L31.0976 148.936L39.8049 151.914Z" fill="#BA8FFF"/>
<path fill-rule="evenodd" clip-rule="evenodd" d="M46.0244 141.521L39.8049 143.648V151.914L31.0976 148.936V140.67L37.3171 138.543L46.0244 141.521Z" fill="#BA8FFF"/>
<path fill-rule="evenodd" clip-rule="evenodd" d="M46.0245 141.521L89.561 126.631V118.365L80.8537 115.387V123.653L37.3172 138.543L46.0245 141.521Z" fill="#BA8FFF"/>
<path fill-rule="evenodd" clip-rule="evenodd" d="M89.561 118.365L46.0245 133.256V141.521L37.3172 138.543V130.278L80.8537 115.387L89.561 118.365Z" fill="#BA8FFF"/>
<path fill-rule="evenodd" clip-rule="evenodd" d="M89.561 118.365L95.7805 116.238V107.973L87.0732 104.995V113.26L80.8537 115.387L89.561 118.365Z" fill="#BA8FFF"/>
<path fill-rule="evenodd" clip-rule="evenodd" d="M95.7805 107.973L89.561 110.1V118.365L80.8537 115.387V107.122L87.0732 104.995L95.7805 107.973Z" fill="#BA8FFF"/>
<path fill-rule="evenodd" clip-rule="evenodd" d="M14.9269 143.892L21.1464 141.765V133.499L12.4391 130.521V138.787L6.21954 140.914L14.9269 143.892Z" fill="#BA8FFF"/>
<path fill-rule="evenodd" clip-rule="evenodd" d="M21.1464 133.499L14.9269 135.627V143.892L6.21954 140.914V132.648L12.4391 130.521L21.1464 133.499Z" fill="#BA8FFF"/>
<path fill-rule="evenodd" clip-rule="evenodd" d="M95.7805 107.973L102 105.846V56.2542L93.2927 53.2761V102.868L87.0732 104.995L95.7805 107.973Z" fill="#BA8FFF"/>
<path fill-rule="evenodd" clip-rule="evenodd" d="M102 56.2542L95.7805 58.3814V107.973L87.0732 104.995V55.4033L93.2927 53.2761L102 56.2542Z" fill="#BA8FFF"/>
<path fill-rule="evenodd" clip-rule="evenodd" d="M52.244 122.863L58.4635 120.736V112.471L49.7562 109.493V117.758L43.5367 119.885L52.244 122.863Z" fill="#BA8FFF"/>
<path fill-rule="evenodd" clip-rule="evenodd" d="M58.4635 112.471L52.244 114.598V122.863L43.5367 119.885V111.62L49.7562 109.493L58.4635 112.471Z" fill="#BA8FFF"/>
<path fill-rule="evenodd" clip-rule="evenodd" d="M8.70725 137.754L14.9268 135.627V86.035L6.21945 83.0569V132.648L-6.19888e-05 134.776L8.70725 137.754Z" fill="#BA8FFF"/>
<path fill-rule="evenodd" clip-rule="evenodd" d="M14.9268 86.035L8.70725 88.1622V137.754L-6.19888e-05 134.776V85.1841L6.21945 83.0569L14.9268 86.035Z" fill="#BA8FFF"/>
<path fill-rule="evenodd" clip-rule="evenodd" d="M58.4635 112.471L64.683 110.344V102.078L55.9757 99.1004V107.366L49.7562 109.493L58.4635 112.471Z" fill="#BA8FFF"/>
<path fill-rule="evenodd" clip-rule="evenodd" d="M64.683 102.078L58.4635 104.206V112.471L49.7562 109.493V101.228L55.9757 99.1004L64.683 102.078Z" fill="#BA8FFF"/>
<path fill-rule="evenodd" clip-rule="evenodd" d="M46.0244 116.725L52.2439 114.598V106.333L43.5366 103.355V111.62L37.3171 113.747L46.0244 116.725Z" fill="#BA8FFF"/>
<path fill-rule="evenodd" clip-rule="evenodd" d="M52.2439 106.333L46.0244 108.46V116.725L37.3171 113.747V105.482L43.5366 103.355L52.2439 106.333Z" fill="#BA8FFF"/>
<path fill-rule="evenodd" clip-rule="evenodd" d="M64.683 102.078L70.9025 99.9513V91.686L62.1952 88.7079V96.9732L55.9756 99.1004L64.683 102.078Z" fill="#BA8FFF"/>
<path fill-rule="evenodd" clip-rule="evenodd" d="M70.9025 91.686L64.683 93.8132V102.078L55.9756 99.1004V90.8351L62.1952 88.7079L70.9025 91.686Z" fill="#BA8FFF"/>
<path fill-rule="evenodd" clip-rule="evenodd" d="M39.8049 110.587L46.0244 108.46V100.195L37.3171 97.2167V105.482L31.0976 107.609L39.8049 110.587Z" fill="#BA8FFF"/>
<path fill-rule="evenodd" clip-rule="evenodd" d="M46.0244 100.195L39.8049 102.322V110.587L31.0976 107.609V99.3439L37.3171 97.2167L46.0244 100.195Z" fill="#BA8FFF"/>
<path fill-rule="evenodd" clip-rule="evenodd" d="M70.9024 91.686L77.1219 89.5588V73.0283L68.4146 70.0502V86.5807L62.1951 88.7079L70.9024 91.686Z" fill="#BA8FFF"/>
<path fill-rule="evenodd" clip-rule="evenodd" d="M77.1219 73.0283L70.9024 75.1555V91.686L62.1951 88.7079V72.1774L68.4146 70.0502L77.1219 73.0283Z" fill="#BA8FFF"/>
<path fill-rule="evenodd" clip-rule="evenodd" d="M33.5854 104.449L39.8049 102.322V85.7914L31.0976 82.8134V99.3439L24.8781 101.471L33.5854 104.449Z" fill="#BA8FFF"/>
<path fill-rule="evenodd" clip-rule="evenodd" d="M39.8049 85.7914L33.5854 87.9186V104.449L24.8781 101.471V84.9406L31.0976 82.8134L39.8049 85.7914Z" fill="#BA8FFF"/>
<path fill-rule="evenodd" clip-rule="evenodd" d="M52.244 89.8023L58.4635 87.6751V79.4099L49.7562 76.4318V84.6971L43.5367 86.8243L52.244 89.8023Z" fill="#BA8FFF"/>
<path fill-rule="evenodd" clip-rule="evenodd" d="M58.4635 79.4099L52.244 81.5371V89.8023L43.5367 86.8243V78.559L49.7562 76.4318L58.4635 79.4099Z" fill="#BA8FFF"/>
<path fill-rule="evenodd" clip-rule="evenodd" d="M58.4634 79.4099L70.9025 75.1555V66.8902L62.1952 63.9121V72.1774L49.7561 76.4318L58.4634 79.4099Z" fill="#BA8FFF"/>
<path fill-rule="evenodd" clip-rule="evenodd" d="M70.9025 66.8902L58.4634 71.1446V79.4099L49.7561 76.4318V68.1665L62.1952 63.9121L70.9025 66.8902Z" fill="#BA8FFF"/>
<path fill-rule="evenodd" clip-rule="evenodd" d="M39.8049 85.7915L52.2439 81.5371V73.2718L43.5366 70.2937V78.559L31.0976 82.8134L39.8049 85.7915Z" fill="#BA8FFF"/>
<path fill-rule="evenodd" clip-rule="evenodd" d="M52.2439 73.2718L39.8049 77.5262V85.7915L31.0976 82.8134V74.5481L43.5366 70.2937L52.2439 73.2718Z" fill="#BA8FFF"/>
<path fill-rule="evenodd" clip-rule="evenodd" d="M89.561 60.5086L95.7805 58.3814V50.1162L87.0732 47.1381V55.4033L80.8537 57.5305L89.561 60.5086Z" fill="#BA8FFF"/>
<path fill-rule="evenodd" clip-rule="evenodd" d="M95.7805 50.1162L89.561 52.2433V60.5086L80.8537 57.5305V49.2653L87.0732 47.1381L95.7805 50.1162Z" fill="#BA8FFF"/>
<path fill-rule="evenodd" clip-rule="evenodd" d="M14.9269 86.035L21.1464 83.9078V75.6425L12.4391 72.6644V80.9297L6.21954 83.0569L14.9269 86.035Z" fill="#BA8FFF"/>
<path fill-rule="evenodd" clip-rule="evenodd" d="M21.1464 75.6425L14.9269 77.7697V86.035L6.21954 83.0569V74.7916L12.4391 72.6644L21.1464 75.6425Z" fill="#BA8FFF"/>
<path fill-rule="evenodd" clip-rule="evenodd" d="M21.1464 75.6425L89.561 52.2433V43.9781L80.8537 41V49.2653L12.4391 72.6644L21.1464 75.6425Z" fill="#BA8FFF"/>
<path fill-rule="evenodd" clip-rule="evenodd" d="M89.561 43.9781L21.1464 67.3772V75.6425L12.4391 72.6644V64.3992L80.8537 41L89.561 43.9781Z" fill="#BA8FFF"/>
<path d="M21.1464 150.03L27.3659 147.903V172.699L33.5854 170.571V162.306L39.8049 160.179V151.914L33.5854 154.041V137.51L21.1464 141.765V150.03ZM39.8049 151.914L46.0244 149.786V141.521L39.8049 143.648V151.914ZM46.0244 141.521L89.561 126.631V118.366L46.0244 133.256V141.521ZM89.561 118.366L95.7805 116.238V107.973L89.561 110.1V118.366ZM14.9269 143.892L21.1464 141.765V133.499L14.9269 135.627V143.892ZM95.7805 107.973L102 105.846V56.2542L95.7805 58.3814V107.973ZM52.2439 122.863L58.4634 120.736V112.471L52.2439 114.598V122.863ZM8.70737 137.754L14.9269 135.627V86.035L8.70737 88.1622V137.754ZM58.4634 112.471L64.6829 110.344V102.078L58.4634 104.206V112.471ZM46.0244 116.725L52.2439 114.598V106.333L46.0244 108.46V116.725ZM64.6829 102.078L70.9025 99.9513V91.686L64.6829 93.8132V102.078ZM39.8049 110.587L46.0244 108.46V100.195L39.8049 102.322V110.587ZM70.9025 91.686L77.122 89.5588V73.0283L70.9025 75.1555V91.686ZM33.5854 104.449L39.8049 102.322V85.7915L33.5854 87.9187V104.449ZM52.2439 89.8024L58.4634 87.6752V79.4099L52.2439 81.5371V89.8024ZM58.4634 79.4099L70.9025 75.1555V66.8902L58.4634 71.1446V79.4099ZM39.8049 85.7915L52.2439 81.5371V73.2718L39.8049 77.5262V85.7915ZM89.561 60.5086L95.7805 58.3814V50.1162L89.561 52.2434V60.5086ZM14.9269 86.035L21.1464 83.9078V75.6425L14.9269 77.7697V86.035ZM21.1464 75.6425L89.561 52.2434V43.9781L21.1464 67.3773V75.6425Z" fill="white"/>
</svg>
