<svg width="600" height="360" viewBox="0 0 600 360" fill="none" xmlns="http://www.w3.org/2000/svg">
    <g clip-path="url(#clip0_18_1198)">
        <rect width="600" height="360" rx="40" fill="black" />
        <path d="M590 58C577 36 566.5 23 542 10H552C572.987 10 590 27.0132 590 48V58Z" fill="white" />
        <path
            d="M269.56 150.601C276.223 160.585 294.342 160.191 310.031 149.721C314.385 146.815 318.079 143.476 321.013 139.94C328.65 130.736 331.133 120.2 326.685 112.517L322.208 105.241L295.904 123.654L266.242 144.418L269.56 150.601Z"
            fill="white" />
        <path
            d="M321.013 139.94C318.079 143.476 314.385 146.815 310.031 149.721C294.342 160.191 276.223 160.585 269.56 150.601L266.242 144.418L295.904 123.654M321.013 139.94C328.65 130.736 331.133 120.2 326.685 112.517L322.208 105.241L295.904 123.654M321.013 139.94L316.052 134.344L295.904 123.654"
            stroke="black" />
        <path
            d="M326.685 112.517L322.208 105.241L295.904 123.654L316.052 134.344L321.013 139.94C328.65 130.736 331.133 120.2 326.685 112.517Z"
            fill="#BA8FFF" stroke="black" />
        <path
            d="M266.064 143.993C272.727 153.977 290.847 153.583 306.536 143.113C310.445 140.504 313.835 137.515 316.618 134.344C325.003 124.788 327.881 113.573 322.879 106.077C316.216 96.0935 298.096 96.4877 282.407 106.958C279.756 108.727 277.343 110.672 275.197 112.729C264.644 122.845 260.527 135.697 266.064 143.993Z"
            fill="white" />
        <path
            d="M316.618 134.344C313.835 137.515 310.445 140.504 306.536 143.113C290.847 153.583 272.727 153.977 266.064 143.993C260.527 135.697 264.644 122.845 275.197 112.729M316.618 134.344C325.003 124.788 327.881 113.573 322.879 106.077C316.216 96.0935 298.096 96.4877 282.407 106.958C279.756 108.727 277.343 110.672 275.197 112.729M316.618 134.344L275.197 112.729"
            stroke="black" />
        <path
            d="M282.407 106.958C298.096 96.4877 316.216 96.0935 322.879 106.077C327.881 113.573 325.003 124.788 316.618 134.344L275.197 112.729C277.343 110.672 279.756 108.727 282.407 106.958Z"
            fill="#BA8FFF" stroke="black" />
        <path
            d="M564.152 270.216L503.462 169.418L435.184 270.717L501.961 384.976C507.231 381.979 511.686 377.559 514.731 372.067L564.372 282.537C566.507 278.686 566.423 273.988 564.152 270.216Z"
            fill="white" stroke="black" />
        <path
            d="M382.641 389.364H485.364C491.289 389.364 496.988 387.803 501.961 384.976L435.184 270.717L313.179 280.79L374.938 384.976C376.55 387.696 379.478 389.364 382.641 389.364Z"
            fill="#C4E703" stroke="black" />
        <path
            d="M451.115 269.488L502.981 176.305C505.923 171.02 502.021 164.537 495.974 164.661L388.446 166.864C378.916 167.06 370.203 172.291 365.55 180.61L313.666 273.386C310.718 278.658 314.593 285.143 320.633 285.044L428.083 283.283C437.673 283.126 446.451 277.868 451.115 269.488Z"
            fill="white" stroke="black" />
        <path
            d="M441.974 268.223L465.318 226.504L492.204 178.452C493.472 176.188 491.8 173.403 489.206 173.456L383.882 175.602C380.315 175.675 377.054 177.628 375.306 180.737L324.44 271.215C323.169 273.474 324.83 276.26 327.421 276.218L431.43 274.522C435.815 274.45 439.832 272.051 441.974 268.223Z"
            fill="#C4E703" />
        <path
            d="M383.882 175.602L489.206 173.456C491.8 173.403 493.472 176.188 492.204 178.452L465.318 226.504M383.882 175.602C380.315 175.675 377.054 177.628 375.306 180.737L324.44 271.215C323.169 273.474 324.83 276.26 327.421 276.218L431.43 274.522C435.815 274.45 439.832 272.051 441.974 268.223L465.318 226.504M383.882 175.602L465.318 226.504"
            stroke="black" />
        <path
            d="M327.422 276.218L431.43 274.522C435.816 274.45 439.832 272.051 441.974 268.223L465.318 226.504L386.155 177.023C384.672 176.096 382.918 175.516 381.24 176.011C378.755 176.743 376.609 178.419 375.306 180.737L324.44 271.215C323.169 273.474 324.83 276.26 327.422 276.218Z"
            fill="black" stroke="black" />
        <path
            d="M548.947 81.1573L542.86 109.253L438.764 83.7097L330.75 57.2049L336.621 28.3371C337.121 25.8813 339.192 24.0569 341.691 23.8713L432.071 17.1599C438.108 16.7117 444.14 17.2101 449.957 18.6053C455.705 19.9839 461.243 22.238 466.369 25.3194L545.327 72.7829C548.202 74.5113 549.658 77.8785 548.947 81.1573Z"
            fill="white" />
        <path
            d="M449.957 18.6053C455.705 19.9839 461.243 22.238 466.369 25.3194L545.327 72.7829C548.202 74.5113 549.658 77.8785 548.947 81.1573L542.86 109.253L438.764 83.7097M449.957 18.6053C444.14 17.2101 438.108 16.7117 432.071 17.1599L341.691 23.8713C339.192 24.0569 337.121 25.8813 336.621 28.3371L330.75 57.2049L438.764 83.7097M449.957 18.6053L438.764 83.7097"
            stroke="black" />
        <path
            d="M341.691 23.8713L432.072 17.1599C438.108 16.7116 444.14 17.21 449.957 18.6053L438.764 83.7096L330.75 57.2048L336.621 28.337C337.121 25.8812 339.192 24.0569 341.691 23.8713Z"
            fill="#BA8FFF" stroke="black" />
        <path
            d="M443.593 119.537L540.983 112.548C543.151 112.392 543.848 109.551 541.999 108.41L449.771 51.4602C446.98 49.7369 443.719 48.9328 440.447 49.1611L332.265 56.7087C330.079 56.8612 329.391 59.7388 331.272 60.8633L420.03 113.931C427.124 118.172 435.349 120.129 443.593 119.537Z"
            fill="white" stroke="black" />
        <path
            d="M444.324 114.498L525.698 108.644C527.882 108.487 528.565 105.612 526.686 104.489L520.474 100.778L447.949 57.445C445.246 55.83 442.119 55.0668 438.976 55.2547L356.494 60.1856L348.068 60.6894C345.869 60.8209 345.162 63.7155 347.053 64.8456L420.76 108.896C424.122 110.905 427.737 112.401 431.488 113.356C435.654 114.417 439.986 114.81 444.324 114.498Z"
            fill="#BA8FFF" />
        <path
            d="M520.474 100.778L447.949 57.445C445.246 55.83 442.119 55.0668 438.976 55.2547L356.494 60.1856M520.474 100.778L526.686 104.489C528.565 105.612 527.882 108.487 525.698 108.644L444.324 114.498C439.986 114.81 435.654 114.417 431.488 113.356M520.474 100.778L432.608 105.895M432.608 105.895L356.494 60.1856M432.608 105.895L431.488 113.356M356.494 60.1856L348.068 60.6894C345.869 60.8209 345.162 63.7155 347.053 64.8456L420.76 108.896C424.122 110.905 427.737 112.401 431.488 113.356"
            stroke="black" />
        <path
            d="M347.053 64.8456L420.76 108.896C424.122 110.905 427.737 112.401 431.488 113.356L432.608 105.895L356.494 60.1856L348.068 60.6893C345.869 60.8208 345.162 63.7155 347.053 64.8456Z"
            fill="black" stroke="black" />
        <path
            d="M197.247 169.015L214.401 230.245L222.02 228.06C222.868 227.815 223.609 226.874 224.11 225.059C224.602 223.276 224.814 220.805 224.732 217.805C224.568 211.813 223.236 203.825 220.766 195.272C218.296 186.718 215.164 179.251 212.108 174.095C210.577 171.513 209.081 169.535 207.714 168.289C206.323 167.021 205.194 166.62 204.347 166.863L197.247 169.015Z"
            fill="#C4E703" stroke="black" />
        <path
            d="M196.316 169.341C195.468 169.586 194.726 170.528 194.226 172.343C193.734 174.126 193.523 176.597 193.605 179.597C193.768 185.589 195.1 193.576 197.57 202.129C200.04 210.683 203.172 218.151 206.229 223.308C207.759 225.889 209.255 227.867 210.622 229.113C212.013 230.382 213.143 230.783 213.99 230.539C214.837 230.294 215.579 229.352 216.08 227.537C216.572 225.754 216.784 223.283 216.702 220.283C216.538 214.29 215.207 206.303 212.736 197.749C210.266 189.196 207.134 181.729 204.078 176.572C202.548 173.99 201.051 172.013 199.684 170.766C198.293 169.497 197.163 169.097 196.316 169.341Z"
            fill="white" stroke="black" />
        <path
            d="M347.386 255.382L349.497 248.222L288.907 230.597L286.8 238.497L286.798 238.505C286.56 239.347 286.938 240.437 288.146 241.763C289.337 243.069 291.237 244.49 293.741 245.943C298.744 248.846 306.057 251.817 314.625 254.236C323.192 256.654 331.182 257.948 337.169 258.093C340.166 258.165 342.633 257.948 344.41 257.457C346.22 256.956 347.149 256.22 347.384 255.387L347.386 255.382Z"
            fill="#BA8FFF" stroke="black" />
        <path
            d="M321.51 231.267C312.944 228.849 304.954 227.555 298.967 227.411C295.969 227.338 293.503 227.554 291.726 228.046C289.915 228.546 288.986 229.283 288.751 230.115C288.516 230.947 288.923 232.061 290.205 233.435C291.463 234.783 293.452 236.256 296.045 237.762C301.224 240.769 308.711 243.845 317.277 246.263C325.843 248.681 333.834 249.974 339.821 250.119C342.818 250.191 345.284 249.975 347.061 249.484C348.872 248.983 349.801 248.247 350.036 247.414C350.271 246.582 349.864 245.468 348.582 244.095C347.325 242.747 345.335 241.273 342.743 239.767C337.563 236.76 330.076 233.685 321.51 231.267Z"
            fill="white" stroke="black" />
        <path fill-rule="evenodd" clip-rule="evenodd"
            d="M387.816 265.658L383.653 264.234L389.482 262.241L393.645 263.665L387.816 265.658Z"
            fill="#BA8FFF" />
        <path fill-rule="evenodd" clip-rule="evenodd"
            d="M383.653 264.234V269.767L389.482 267.773V262.241L383.653 264.234Z" fill="#BA8FFF" />
        <path fill-rule="evenodd" clip-rule="evenodd"
            d="M383.654 269.767L379.49 268.343V251.745L375.327 250.321V244.788L381.156 242.795V248.327L385.319 249.751V266.35L389.482 267.773L383.654 269.767Z"
            fill="#BA8FFF" />
        <path fill-rule="evenodd" clip-rule="evenodd"
            d="M375.327 244.788L383.654 247.636V258.702L387.817 260.125V265.658L393.646 263.665V258.132L389.482 256.708V245.643L381.156 242.795L375.327 244.788Z"
            fill="#BA8FFF" />
        <path fill-rule="evenodd" clip-rule="evenodd"
            d="M391.98 261.549L387.817 260.125V254.593L393.645 252.599V258.132L397.809 259.556L391.98 261.549Z"
            fill="#BA8FFF" />
        <path fill-rule="evenodd" clip-rule="evenodd"
            d="M387.817 254.593L391.98 256.017V261.549L397.809 259.556V254.023L393.645 252.599L387.817 254.593Z"
            fill="#BA8FFF" />
        <path fill-rule="evenodd" clip-rule="evenodd"
            d="M421.123 265.984L391.98 256.017V250.484L397.809 248.49V254.023L426.952 263.991L421.123 265.984Z"
            fill="#BA8FFF" />
        <path fill-rule="evenodd" clip-rule="evenodd"
            d="M391.98 250.484L421.123 260.451V265.984L426.952 263.991V258.458L397.809 248.49L391.98 250.484Z"
            fill="#BA8FFF" />
        <path fill-rule="evenodd" clip-rule="evenodd"
            d="M375.327 244.788L371.164 243.364V237.831L376.992 235.838V241.371L381.156 242.795L375.327 244.788Z"
            fill="#BA8FFF" />
        <path fill-rule="evenodd" clip-rule="evenodd"
            d="M371.164 237.831L375.327 239.255V244.788L381.156 242.795V237.262L376.992 235.838L371.164 237.831Z"
            fill="#BA8FFF" />
        <path fill-rule="evenodd" clip-rule="evenodd"
            d="M425.286 261.875L421.123 260.451V254.919L426.952 252.925V258.458L431.115 259.882L425.286 261.875Z"
            fill="#BA8FFF" />
        <path fill-rule="evenodd" clip-rule="evenodd"
            d="M421.123 254.919L425.286 256.343V261.875L431.115 259.882V254.349L426.952 252.925L421.123 254.919Z"
            fill="#BA8FFF" />
        <path fill-rule="evenodd" clip-rule="evenodd"
            d="M371.163 237.831L367 236.407V203.211L372.829 201.218V234.414L376.992 235.838L371.163 237.831Z"
            fill="#BA8FFF" />
        <path fill-rule="evenodd" clip-rule="evenodd"
            d="M367 203.211L371.163 204.635V237.831L376.992 235.838V202.641L372.829 201.218L367 203.211Z"
            fill="#BA8FFF" />
        <path fill-rule="evenodd" clip-rule="evenodd"
            d="M429.45 257.766L425.286 256.342V223.146L431.115 221.153V254.349L435.278 255.773L429.45 257.766Z"
            fill="#BA8FFF" />
        <path fill-rule="evenodd" clip-rule="evenodd"
            d="M425.286 223.146L429.45 224.57V257.766L435.278 255.773V222.577L431.115 221.153L425.286 223.146Z"
            fill="#BA8FFF" />
        <path fill-rule="evenodd" clip-rule="evenodd"
            d="M391.98 231.119L387.817 229.695V224.163L393.645 222.169V227.702L397.809 229.126L391.98 231.119Z"
            fill="#BA8FFF" />
        <path fill-rule="evenodd" clip-rule="evenodd"
            d="M387.817 224.163L391.98 225.586V231.119L397.809 229.126V223.593L393.645 222.169L387.817 224.163Z"
            fill="#BA8FFF" />
        <path fill-rule="evenodd" clip-rule="evenodd"
            d="M400.307 233.967L396.144 232.543V227.01L401.972 225.017V230.55L406.136 231.974L400.307 233.967Z"
            fill="#BA8FFF" />
        <path fill-rule="evenodd" clip-rule="evenodd"
            d="M396.144 227.01L400.307 228.434V233.967L406.136 231.974V226.441L401.972 225.017L396.144 227.01Z"
            fill="#BA8FFF" />
        <path fill-rule="evenodd" clip-rule="evenodd"
            d="M408.633 236.815L404.47 235.391V229.858L410.298 227.865V233.398L414.462 234.821L408.633 236.815Z"
            fill="#BA8FFF" />
        <path fill-rule="evenodd" clip-rule="evenodd"
            d="M404.47 229.858L408.633 231.282V236.815L414.462 234.821V229.289L410.298 227.865L404.47 229.858Z"
            fill="#BA8FFF" />
        <path fill-rule="evenodd" clip-rule="evenodd"
            d="M375.327 206.059L371.164 204.635V199.102L376.992 197.109V202.641L381.156 204.065L375.327 206.059Z"
            fill="#BA8FFF" />
        <path fill-rule="evenodd" clip-rule="evenodd"
            d="M371.164 199.102L375.327 200.526V206.059L381.156 204.065V198.533L376.992 197.109L371.164 199.102Z"
            fill="#BA8FFF" />
        <path fill-rule="evenodd" clip-rule="evenodd"
            d="M425.286 223.146L421.123 221.722V216.19L426.952 214.196V219.729L431.115 221.153L425.286 223.146Z"
            fill="#BA8FFF" />
        <path fill-rule="evenodd" clip-rule="evenodd"
            d="M421.123 216.19L425.286 217.614V223.146L431.115 221.153V215.62L426.952 214.196L421.123 216.19Z"
            fill="#BA8FFF" />
        <path fill-rule="evenodd" clip-rule="evenodd"
            d="M421.124 216.19L375.327 200.526V194.994L381.156 193V198.533L426.952 214.196L421.124 216.19Z"
            fill="#BA8FFF" />
        <path fill-rule="evenodd" clip-rule="evenodd"
            d="M375.327 194.994L421.124 210.657V216.19L426.952 214.196V208.663L381.156 193L375.327 194.994Z"
            fill="#BA8FFF" />
        <path
            d="M383.654 258.701L387.817 260.125V265.658L383.654 264.234V269.767L379.49 268.343V251.745L375.327 250.321V244.788L383.654 247.636V258.701ZM391.98 261.549L387.817 260.125V254.593L391.98 256.017V261.549ZM421.123 265.984L391.98 256.017V250.484L421.123 260.451V265.984ZM375.327 244.788L371.164 243.364V237.831L375.327 239.255V244.788ZM425.287 261.875L421.123 260.451V254.919L425.287 256.343V261.875ZM371.164 204.635V237.831L367 236.407V203.211L371.164 204.635ZM429.45 257.767L425.287 256.343V223.146L429.45 224.57V257.767ZM391.98 231.119L387.817 229.695V224.163L391.98 225.587V231.119ZM400.307 233.967L396.144 232.543V227.01L400.307 228.434V233.967ZM408.633 236.815L404.47 235.391V229.858L408.633 231.282V236.815ZM375.327 206.059L371.164 204.635V199.102L375.327 200.526V206.059ZM425.287 223.146L421.123 221.722V216.19L425.287 217.613V223.146ZM421.123 216.19L375.327 200.526V194.994L421.123 210.657V216.19Z"
            fill="white" />
        <rect width="13.4318" height="13.4318"
            transform="matrix(-0.950395 -0.311046 -0.311046 0.950395 452.943 141.178)" fill="white" />
        <rect width="13.4318" height="13.4318"
            transform="matrix(-0.942026 -0.335538 -0.335538 0.942026 335.16 187.507)" fill="white" />
        <rect width="13.4318" height="13.4318"
            transform="matrix(-0.920971 0.389632 0.389632 0.920971 275.37 188)" fill="#C4E703" />
        <rect width="13.4318" height="13.4318"
            transform="matrix(-0.920971 0.389632 0.389632 0.920971 372.37 125)" fill="#C4E703" />
        <rect width="13.4318" height="13.4318"
            transform="matrix(-0.960014 -0.279953 -0.279953 0.960014 225.644 120.289)"
            fill="#C4E703" />
        <path fill-rule="evenodd" clip-rule="evenodd"
            d="M82.1463 160.03L88.3658 157.903L79.6585 154.925L73.439 157.052L82.1463 160.03Z"
            fill="#BA8FFF" />
        <path fill-rule="evenodd" clip-rule="evenodd"
            d="M88.3658 157.903V182.699L79.6585 179.72V154.925L88.3658 157.903Z" fill="#BA8FFF" />
        <path fill-rule="evenodd" clip-rule="evenodd"
            d="M100.805 161.914L94.5854 164.041L91.3152 161.914L92.0976 158.936L100.805 161.914Z"
            fill="#BA8FFF" />
        <path fill-rule="evenodd" clip-rule="evenodd"
            d="M94.5853 147.51L82.1463 151.765V160.03L73.439 157.052V148.787L85.878 144.532L94.5853 147.51Z"
            fill="#BA8FFF" />
        <path fill-rule="evenodd" clip-rule="evenodd"
            d="M100.805 161.914L107.024 159.786V151.521L98.3171 148.543V156.808L92.0976 158.936L100.805 161.914Z"
            fill="#BA8FFF" />
        <path fill-rule="evenodd" clip-rule="evenodd"
            d="M107.024 151.521L100.805 153.648V161.914L92.0976 158.936V150.67L98.3171 148.543L107.024 151.521Z"
            fill="#BA8FFF" />
        <path fill-rule="evenodd" clip-rule="evenodd"
            d="M107.024 151.521L150.561 136.631V128.365L141.854 125.387V133.653L98.3172 148.543L107.024 151.521Z"
            fill="#BA8FFF" />
        <path fill-rule="evenodd" clip-rule="evenodd"
            d="M150.561 128.365L107.024 143.256V151.521L98.3172 148.543V140.278L141.854 125.387L150.561 128.365Z"
            fill="#BA8FFF" />
        <path fill-rule="evenodd" clip-rule="evenodd"
            d="M150.561 128.365L156.781 126.238V117.973L148.073 114.995V123.26L141.854 125.387L150.561 128.365Z"
            fill="#BA8FFF" />
        <path fill-rule="evenodd" clip-rule="evenodd"
            d="M156.781 117.973L150.561 120.1V128.365L141.854 125.387V117.122L148.073 114.995L156.781 117.973Z"
            fill="#BA8FFF" />
        <path fill-rule="evenodd" clip-rule="evenodd"
            d="M75.9269 153.892L82.1464 151.765V143.499L73.4391 140.521V148.787L67.2195 150.914L75.9269 153.892Z"
            fill="#BA8FFF" />
        <path fill-rule="evenodd" clip-rule="evenodd"
            d="M82.1464 143.499L75.9269 145.627V153.892L67.2195 150.914V142.648L73.4391 140.521L82.1464 143.499Z"
            fill="#BA8FFF" />
        <path fill-rule="evenodd" clip-rule="evenodd"
            d="M156.78 117.973L163 115.846V66.2542L154.293 63.2761V112.868L148.073 114.995L156.78 117.973Z"
            fill="#BA8FFF" />
        <path fill-rule="evenodd" clip-rule="evenodd"
            d="M163 66.2542L156.78 68.3814V117.973L148.073 114.995V65.4033L154.293 63.2761L163 66.2542Z"
            fill="#BA8FFF" />
        <path fill-rule="evenodd" clip-rule="evenodd"
            d="M113.244 132.863L119.464 130.736V122.471L110.756 119.493V127.758L104.537 129.885L113.244 132.863Z"
            fill="#BA8FFF" />
        <path fill-rule="evenodd" clip-rule="evenodd"
            d="M119.464 122.471L113.244 124.598V132.863L104.537 129.885V121.62L110.756 119.493L119.464 122.471Z"
            fill="#BA8FFF" />
        <path fill-rule="evenodd" clip-rule="evenodd"
            d="M69.7072 147.754L75.9268 145.627V96.035L67.2194 93.0569V142.648L60.9999 144.776L69.7072 147.754Z"
            fill="#BA8FFF" />
        <path fill-rule="evenodd" clip-rule="evenodd"
            d="M75.9268 96.035L69.7072 98.1622V147.754L60.9999 144.776V95.1841L67.2194 93.0569L75.9268 96.035Z"
            fill="#BA8FFF" />
        <path fill-rule="evenodd" clip-rule="evenodd"
            d="M119.463 122.471L125.683 120.344V112.078L116.976 109.1V117.366L110.756 119.493L119.463 122.471Z"
            fill="#BA8FFF" />
        <path fill-rule="evenodd" clip-rule="evenodd"
            d="M125.683 112.078L119.463 114.206V122.471L110.756 119.493V111.228L116.976 109.1L125.683 112.078Z"
            fill="#BA8FFF" />
        <path fill-rule="evenodd" clip-rule="evenodd"
            d="M107.024 126.725L113.244 124.598V116.333L104.537 113.355V121.62L98.3171 123.747L107.024 126.725Z"
            fill="#BA8FFF" />
        <path fill-rule="evenodd" clip-rule="evenodd"
            d="M113.244 116.333L107.024 118.46V126.725L98.3171 123.747V115.482L104.537 113.355L113.244 116.333Z"
            fill="#BA8FFF" />
        <path fill-rule="evenodd" clip-rule="evenodd"
            d="M125.683 112.078L131.902 109.951V101.686L123.195 98.7079V106.973L116.976 109.1L125.683 112.078Z"
            fill="#BA8FFF" />
        <path fill-rule="evenodd" clip-rule="evenodd"
            d="M131.902 101.686L125.683 103.813V112.078L116.976 109.1V100.835L123.195 98.7079L131.902 101.686Z"
            fill="#BA8FFF" />
        <path fill-rule="evenodd" clip-rule="evenodd"
            d="M100.805 120.587L107.024 118.46V110.195L98.3171 107.217V115.482L92.0976 117.609L100.805 120.587Z"
            fill="#BA8FFF" />
        <path fill-rule="evenodd" clip-rule="evenodd"
            d="M107.024 110.195L100.805 112.322V120.587L92.0976 117.609V109.344L98.3171 107.217L107.024 110.195Z"
            fill="#BA8FFF" />
        <path fill-rule="evenodd" clip-rule="evenodd"
            d="M131.902 101.686L138.122 99.5588V83.0283L129.415 80.0502V96.5807L123.195 98.7079L131.902 101.686Z"
            fill="#BA8FFF" />
        <path fill-rule="evenodd" clip-rule="evenodd"
            d="M138.122 83.0283L131.902 85.1555V101.686L123.195 98.7079V82.1774L129.415 80.0502L138.122 83.0283Z"
            fill="#BA8FFF" />
        <path fill-rule="evenodd" clip-rule="evenodd"
            d="M94.5854 114.449L100.805 112.322V95.7914L92.0976 92.8134V109.344L85.8781 111.471L94.5854 114.449Z"
            fill="#BA8FFF" />
        <path fill-rule="evenodd" clip-rule="evenodd"
            d="M100.805 95.7914L94.5854 97.9186V114.449L85.8781 111.471V94.9406L92.0976 92.8134L100.805 95.7914Z"
            fill="#BA8FFF" />
        <path fill-rule="evenodd" clip-rule="evenodd"
            d="M113.244 99.8023L119.464 97.6751V89.4099L110.756 86.4318V94.6971L104.537 96.8243L113.244 99.8023Z"
            fill="#BA8FFF" />
        <path fill-rule="evenodd" clip-rule="evenodd"
            d="M119.464 89.4099L113.244 91.5371V99.8023L104.537 96.8243V88.559L110.756 86.4318L119.464 89.4099Z"
            fill="#BA8FFF" />
        <path fill-rule="evenodd" clip-rule="evenodd"
            d="M119.463 89.4099L131.902 85.1555V76.8902L123.195 73.9121V82.1774L110.756 86.4318L119.463 89.4099Z"
            fill="#BA8FFF" />
        <path fill-rule="evenodd" clip-rule="evenodd"
            d="M131.902 76.8902L119.463 81.1446V89.4099L110.756 86.4318V78.1665L123.195 73.9121L131.902 76.8902Z"
            fill="#BA8FFF" />
        <path fill-rule="evenodd" clip-rule="evenodd"
            d="M100.805 95.7915L113.244 91.5371V83.2718L104.537 80.2937V88.559L92.0976 92.8134L100.805 95.7915Z"
            fill="#BA8FFF" />
        <path fill-rule="evenodd" clip-rule="evenodd"
            d="M113.244 83.2718L100.805 87.5262V95.7915L92.0976 92.8134V84.5481L104.537 80.2937L113.244 83.2718Z"
            fill="#BA8FFF" />
        <path fill-rule="evenodd" clip-rule="evenodd"
            d="M150.561 70.5086L156.781 68.3814V60.1162L148.073 57.1381V65.4033L141.854 67.5305L150.561 70.5086Z"
            fill="#BA8FFF" />
        <path fill-rule="evenodd" clip-rule="evenodd"
            d="M156.781 60.1162L150.561 62.2433V70.5086L141.854 67.5305V59.2653L148.073 57.1381L156.781 60.1162Z"
            fill="#BA8FFF" />
        <path fill-rule="evenodd" clip-rule="evenodd"
            d="M75.9269 96.035L82.1464 93.9078V85.6425L73.4391 82.6644V90.9297L67.2195 93.0569L75.9269 96.035Z"
            fill="#BA8FFF" />
        <path fill-rule="evenodd" clip-rule="evenodd"
            d="M82.1464 85.6425L75.9269 87.7697V96.035L67.2195 93.0569V84.7916L73.4391 82.6644L82.1464 85.6425Z"
            fill="#BA8FFF" />
        <path fill-rule="evenodd" clip-rule="evenodd"
            d="M82.1464 85.6425L150.561 62.2433V53.9781L141.854 51V59.2653L73.4391 82.6644L82.1464 85.6425Z"
            fill="#BA8FFF" />
        <path fill-rule="evenodd" clip-rule="evenodd"
            d="M150.561 53.9781L82.1464 77.3772V85.6425L73.4391 82.6644V74.3992L141.854 51L150.561 53.9781Z"
            fill="#BA8FFF" />
        <path
            d="M82.1464 160.03L88.3659 157.903V182.699L94.5854 180.571V172.306L100.805 170.179V161.914L94.5854 164.041V147.51L82.1464 151.765V160.03ZM100.805 161.914L107.024 159.786V151.521L100.805 153.648V161.914ZM107.024 151.521L150.561 136.631V128.366L107.024 143.256V151.521ZM150.561 128.366L156.78 126.238V117.973L150.561 120.1V128.366ZM75.9269 153.892L82.1464 151.765V143.499L75.9269 145.627V153.892ZM156.78 117.973L163 115.846V66.2542L156.78 68.3814V117.973ZM113.244 132.863L119.463 130.736V122.471L113.244 124.598V132.863ZM69.7074 147.754L75.9269 145.627V96.035L69.7074 98.1622V147.754ZM119.463 122.471L125.683 120.344V112.078L119.463 114.206V122.471ZM107.024 126.725L113.244 124.598V116.333L107.024 118.46V126.725ZM125.683 112.078L131.902 109.951V101.686L125.683 103.813V112.078ZM100.805 120.587L107.024 118.46V110.195L100.805 112.322V120.587ZM131.902 101.686L138.122 99.5588V83.0283L131.902 85.1555V101.686ZM94.5854 114.449L100.805 112.322V95.7915L94.5854 97.9187V114.449ZM113.244 99.8024L119.463 97.6752V89.4099L113.244 91.5371V99.8024ZM119.463 89.4099L131.902 85.1555V76.8902L119.463 81.1446V89.4099ZM100.805 95.7915L113.244 91.5371V83.2718L100.805 87.5262V95.7915ZM150.561 70.5086L156.78 68.3814V60.1162L150.561 62.2434V70.5086ZM75.9269 96.035L82.1464 93.9078V85.6425L75.9269 87.7697V96.035ZM82.1464 85.6425L150.561 62.2434V53.9781L82.1464 77.3773V85.6425Z"
            fill="white" />
    </g>
    <defs>
        <clipPath id="clip0_18_1198">
            <rect width="600" height="360" rx="40" fill="white" />
        </clipPath>
    </defs>
</svg>
    