<svg width="802" height="600" viewBox="0 0 802 600" fill="none" xmlns="http://www.w3.org/2000/svg">
<path d="M269.545 -63.1272L343.911 -137H881V40.457L798.371 122.046H438.934L81.5634 479H1V203.636L79.0276 126.126M269.545 -63.1272L195.178 -137H1V53.6667L79.0276 126.126M269.545 -63.1272L79.0276 126.126" stroke="#474747"/>
<path d="M610.438 732.187L543.727 802H1.15751L0.999985 621.619L83.6144 540.574H442.987L800.294 186H880.842V459.529L798.997 542.057M610.438 732.187L675.703 802H881V611.333L798.997 542.057M610.438 732.187L798.997 542.057" stroke="#474747"/>
<path d="M473.127 100H702V175.621L666.789 210.389H513.62L361.331 362.5H327V245.157L360.25 212.128L327 181.25V100H409.746L441.437 131.48L473.127 100Z" fill="#D0F500"/>
<path d="M558.276 500H327.067L327 423.133L362.205 388.597H515.347L667.608 237.5H701.933V354.06L667.055 389.229L702 418.75V500H614.516L586.704 470.25L558.276 500Z" fill="#D0F500"/>
</svg>
