<svg width="100" height="90" viewBox="0 0 100 90" fill="none" xmlns="http://www.w3.org/2000/svg">
<path fill-rule="evenodd" clip-rule="evenodd" d="M97.3037 69.7253L84.6635 77.5518L28.5722 25.2578L15.9321 33.0842L6.58351 24.3685L8.75359 36.8168L18.1021 45.5324L30.7422 37.706L86.8335 90L99.4738 82.1735L97.3037 69.7253Z" fill="#BA8FFF"/>
<path fill-rule="evenodd" clip-rule="evenodd" d="M19.2238 16.542L9.87529 7.8264L12.0454 20.2747L21.3939 28.9903L19.2238 16.542Z" fill="#BA8FFF"/>
<path fill-rule="evenodd" clip-rule="evenodd" d="M53.8526 9.6049L41.2125 17.4313L43.3826 29.8795L56.0227 22.0532L53.8526 9.6049Z" fill="#BA8FFF"/>
<path fill-rule="evenodd" clip-rule="evenodd" d="M53.8526 9.6049L63.201 18.3206L75.8413 10.4941L85.1898 19.2098L97.8299 11.3833L100 23.8316L87.3599 31.658L78.0113 22.9423L65.3711 30.7688L56.0227 22.0532L53.8526 9.6049Z" fill="#BA8FFF"/>
<path fill-rule="evenodd" clip-rule="evenodd" d="M12.6407 49.6264L3.29219 40.9108L5.46228 53.359L14.8108 62.0747L12.6407 49.6264Z" fill="#BA8FFF"/>
<path fill-rule="evenodd" clip-rule="evenodd" d="M25.2809 41.8L12.6407 49.6264L14.8108 62.0747L27.451 54.2483L25.2809 41.8Z" fill="#BA8FFF"/>
<path fill-rule="evenodd" clip-rule="evenodd" d="M12.6407 49.6264L21.9887 58.3423L24.1588 70.7906L14.8108 62.0747L12.6407 49.6264Z" fill="#BA8FFF"/>
<path fill-rule="evenodd" clip-rule="evenodd" d="M21.9887 58.3423L9.34855 66.1687L0 57.4531L2.17009 69.9013L11.5186 78.617L24.1588 70.7906L21.9887 58.3423Z" fill="#BA8FFF"/>
<path d="M97.3037 69.7253L84.6635 77.5518L28.5722 25.2578L15.9321 33.0842L6.58351 24.3685L19.2238 16.542L9.87529 7.8264L22.5154 0L31.864 8.71567L44.5041 0.889233L53.8526 9.6049L41.2125 17.4313L97.3037 69.7253ZM75.8413 10.4941L66.4927 1.77847L53.8526 9.6049L63.201 18.3206L75.8413 10.4941ZM75.8413 10.4941L85.1898 19.2098L97.8299 11.3833L88.4814 2.6677L75.8413 10.4941ZM12.6407 49.6264L3.29219 40.9108L15.9321 33.0842L25.2809 41.8L12.6407 49.6264ZM12.6407 49.6264L21.9887 58.3423L9.34855 66.1687L0 57.4531L12.6407 49.6264Z" fill="black"/>
</svg>
