<svg width="51" height="50" viewBox="0 0 51 50" fill="none" xmlns="http://www.w3.org/2000/svg">
<path d="M17.25 9.16669C25.151 9.16669 31.7978 14.5308 33.7506 21.8156C34.347 21.7179 34.9592 21.6667 35.5833 21.6667C41.7965 21.6667 46.8333 26.7035 46.8333 32.9167C46.8333 39.1299 41.7965 44.1667 35.5833 44.1667C32.1691 44.1667 29.1105 42.6454 27.0473 40.2442C24.2733 42.1898 20.8956 43.3334 17.25 43.3334C7.81509 43.3334 0.166626 35.6849 0.166626 26.25C0.166626 16.8152 7.81509 9.16669 17.25 9.16669Z" fill="#F68FFF"/>
<path d="M17.6667 35.4166L26 43.75M26 43.75L34.3334 35.4166M26 43.75V25M44.5 37.6875C46.3113 36.4138 47.6695 34.5961 48.3777 32.4982C49.0859 30.4003 49.1071 28.1313 48.4384 26.0205C47.7696 23.9096 46.4456 22.0668 44.6585 20.7595C42.8715 19.4521 40.7143 18.7483 38.5 18.75H35.875C35.2485 16.3081 34.0761 14.0401 32.4461 12.1168C30.8162 10.1936 28.7712 8.66511 26.4651 7.64655C24.1589 6.628 21.6518 6.14587 19.1324 6.23648C16.613 6.32708 14.1469 6.98805 11.9199 8.16962C9.69295 9.35119 7.76301 11.0226 6.27543 13.058C4.78786 15.0933 3.7814 17.4397 3.33184 19.9203C2.88227 22.4009 3.00131 24.9512 3.68 27.3792C4.35869 29.8072 5.57933 32.0495 7.25004 33.9375" stroke="black" stroke-width="2" stroke-linecap="round" stroke-linejoin="round"/>
</svg>
