<svg width="170" height="200" viewBox="0 0 170 200" fill="none" xmlns="http://www.w3.org/2000/svg">
<path fill-rule="evenodd" clip-rule="evenodd" d="M140 130V140H160V150H170V200H160V210H150V220H140V273H100V233H70V273H30V220H20V210H10V200H0V150H10V140H30V130H40V120H30V130H10V40H20V20H40V10H50V0H110V10H120V20H130V30H140V40H160V130H140ZM140 130V120H130V130H140Z" fill="#EBDDFF"/>
<path d="M90 160H80V150H70V140H100V150H90V160Z" fill="#4A1F8F"/>
<path d="M110 223H60V233H40V163H30V180H10V150H30V140H50V130H60V140H70V150H80V160H90V150H100V140H110V130H120V140H140V150H160V180H140V163H130V233H110V223Z" fill="#7A38E4"/>
<path d="M40 263H60V223H110V263H130V163H140V210H150V220H140V273H100V233H70V273H30V220H20V210H30V163H40V263ZM20 210H10V200H20V210ZM160 210H150V200H160V210ZM10 200H0V150H10V200ZM170 200H160V150H170V200ZM30 150H10V140H30V150ZM160 150H140V140H160V150ZM60 130H50V140H30V130H40V120H60V130ZM70 140H60V130H70V140ZM110 140H100V130H110V140ZM130 130H140V140H120V130H110V120H130V130ZM110 10H120V20H130V30H140V40H160V130H140V120H130V100H140V80H130V50H120V40H50V50H40V80H30V100H40V120H30V130H10V40H20V20H40V10H50V0H110V10ZM96 99V109H76V99H96ZM69 90H59V70H69V90ZM112 90H102V70H112V90Z" fill="black"/>
</svg>
