<svg width="840" height="244" viewBox="0 0 840 244" fill="none" xmlns="http://www.w3.org/2000/svg">
<g clip-path="url(#clip0_52_877)">
<mask id="path-3-outside-1_52_877" maskUnits="userSpaceOnUse" x="-109" y="-120" width="1058" height="484" fill="black">
<rect fill="white" x="-109" y="-120" width="1058" height="484"/>
<path d="M-102.21 57.594L-107 23.5006L-77.7882 19.3936L-77.1039 24.2641L-72.2353 23.5795L-70.1826 38.191L-75.0512 38.8755L-74.3669 43.746L-93.8415 46.484L-92.473 56.225L-102.21 57.594ZM-94.5258 41.6135L-79.9198 39.56L-81.9726 24.9485L-96.5785 27.0021L-94.5258 41.6135ZM-57.6136 51.324L-62.4033 17.2305L-52.666 15.8615L-48.5605 45.0845L-29.086 42.3465L-28.4017 47.217L-57.6136 51.324ZM-22.7541 46.4229L-26.1753 22.0705L-21.3067 21.386L-21.9909 16.5155L-17.1223 15.8309L-17.8065 10.9605L-3.20061 8.90696L-2.51637 13.7775L2.35227 13.0929L3.03652 17.9634L7.90516 17.2789L11.3264 41.6314L1.58909 43.0004L0.220604 33.2594L-14.3853 35.3129L-13.0168 45.0539L-22.7541 46.4229ZM-15.0696 30.4425L-0.463638 28.3889L-1.83213 18.6479L-6.70077 19.3324L-7.385 14.462L-12.2536 15.1465L-11.5694 20.017L-16.438 20.7014L-15.0696 30.4425ZM31.5799 38.7839L27.4745 9.5609L17.7372 10.9299L17.0529 6.05942L46.2648 1.9524L46.949 6.82289L37.2117 8.1919L41.3172 37.4149L31.5799 38.7839ZM56.7021 35.2518L51.9124 1.15838L85.9929 -3.63315L86.6771 1.23734L62.3339 4.65986L63.7024 14.4008L83.177 11.6628L83.8612 16.5333L64.3866 19.2713L66.4394 33.8828L56.7021 35.2518ZM101.299 28.9818L100.615 24.1113L95.746 24.7958L92.3247 0.443321L97.1934 -0.241188L96.5091 -5.11167L120.852 -8.53419L121.537 -3.6637L126.405 -4.3482L129.826 20.0043L124.958 20.6888L125.642 25.5593L101.299 28.9818ZM105.483 23.4268L120.089 21.3733L116.668 -2.97919L102.062 -0.92569L105.483 23.4268ZM136.158 24.0807L131.369 -10.0127L160.58 -14.1197L161.265 -9.24924L166.133 -9.93375L168.186 4.67773L158.449 6.04675L159.133 10.9172L164.002 10.2327L164.686 15.1032L169.555 14.4187L170.239 19.2892L155.633 21.3427L154.949 16.4722L150.08 17.1567L149.396 12.2862L144.527 12.9707L145.896 22.7117L136.158 24.0807ZM143.843 8.10025L153.58 6.73125L152.896 1.86075L157.765 1.17625L156.396 -8.56475L141.79 -6.51123L143.843 8.10025ZM175.886 18.4952L171.097 -15.5983L180.834 -16.9673L181.518 -12.0968L186.387 -12.7813L187.071 -7.91079L191.94 -8.5953L191.255 -13.4658L196.124 -14.1503L195.44 -19.0208L205.177 -20.3898L209.967 13.7037L200.23 15.0727L197.493 -4.4093L192.624 -3.7248L193.992 6.01619L189.124 6.70069L187.755 -3.0403L182.887 -2.35579L185.624 17.1262L175.886 18.4952Z"/>
<path d="M244.924 8.78894L240.134 -25.3045L269.346 -29.4116L270.03 -24.5411L274.899 -25.2256L276.951 -10.6141L272.083 -9.92957L272.767 -5.05907L253.292 -2.32106L254.661 7.41993L244.924 8.78894ZM252.608 -7.19155L267.214 -9.24507L265.161 -23.8566L250.556 -21.803L252.608 -7.19155ZM289.52 2.51888L284.731 -31.5746L294.468 -32.9436L298.573 -3.72062L318.048 -6.45863L318.732 -1.58813L289.52 2.51888ZM324.38 -2.38216L320.959 -26.7346L325.827 -27.4191L325.143 -32.2896L330.012 -32.9741L329.327 -37.8446L343.933 -39.8981L344.618 -35.0277L349.486 -35.7122L350.171 -30.8417L355.039 -31.5262L358.46 -7.17368L348.723 -5.80468L347.355 -15.5457L332.749 -13.4922L334.117 -3.75117L324.38 -2.38216ZM332.064 -18.3627L346.67 -20.4162L345.302 -30.1572L340.433 -29.4726L339.749 -34.3431L334.88 -33.6586L335.565 -28.7882L330.696 -28.1036L332.064 -18.3627ZM378.714 -10.0212L374.608 -39.2442L364.871 -37.8752L364.187 -42.7457L393.399 -46.8527L394.083 -41.9822L384.346 -40.6132L388.451 -11.3902L378.714 -10.0212ZM403.836 -13.5533L399.046 -47.6467L433.127 -52.4382L433.811 -47.5678L409.468 -44.1452L410.836 -34.4042L430.311 -37.1423L430.995 -32.2718L411.521 -29.5337L413.573 -14.9223L403.836 -13.5533ZM448.433 -19.8233L447.749 -24.6938L442.88 -24.0093L439.459 -48.3618L444.327 -49.0463L443.643 -53.9168L467.986 -57.3393L468.671 -52.4688L473.539 -53.1533L476.96 -28.8008L472.092 -28.1163L472.776 -23.2458L448.433 -19.8233ZM452.617 -25.3783L467.223 -27.4318L463.802 -51.7843L449.196 -49.7308L452.617 -25.3783ZM483.292 -24.7244L478.503 -58.8178L507.714 -62.9248L508.399 -58.0544L513.267 -58.7389L515.32 -44.1274L505.583 -42.7584L506.267 -37.8879L511.136 -38.5724L511.82 -33.7019L516.689 -34.3864L517.373 -29.5159L502.767 -27.4624L502.083 -32.3329L497.214 -31.6484L496.53 -36.5189L491.661 -35.8344L493.03 -26.0934L483.292 -24.7244ZM490.977 -40.7048L500.714 -42.0739L500.03 -46.9444L504.898 -47.6289L503.53 -57.3699L488.924 -55.3163L490.977 -40.7048ZM523.02 -30.3099L518.231 -64.4034L527.968 -65.7724L528.652 -60.9019L533.521 -61.5864L534.205 -56.7159L539.074 -57.4004L538.389 -62.2709L543.258 -62.9554L542.574 -67.8259L552.311 -69.1949L557.101 -35.1014L547.364 -33.7324L544.627 -53.2144L539.758 -52.5299L541.126 -42.7889L536.258 -42.1044L534.889 -51.8454L530.021 -51.1609L532.758 -31.6789L523.02 -30.3099Z"/>
<path d="M592.058 -40.0162L587.268 -74.1096L616.48 -78.2167L617.164 -73.3462L622.033 -74.0307L624.085 -59.4192L619.217 -58.7347L619.901 -53.8642L600.426 -51.1262L601.795 -41.3852L592.058 -40.0162ZM599.742 -55.9967L614.348 -58.0502L612.295 -72.6617L597.69 -70.6081L599.742 -55.9967ZM636.654 -46.2862L631.865 -80.3797L641.602 -81.7487L645.707 -52.5257L665.182 -55.2637L665.866 -50.3932L636.654 -46.2862ZM671.514 -51.1873L668.093 -75.5397L672.961 -76.2242L672.277 -81.0947L677.146 -81.7792L676.461 -86.6497L691.067 -88.7032L691.752 -83.8328L696.62 -84.5173L697.305 -79.6468L702.173 -80.3313L705.594 -55.9788L695.857 -54.6098L694.489 -64.3508L679.883 -62.2973L681.251 -52.5563L671.514 -51.1873ZM679.198 -67.1678L693.804 -69.2213L692.436 -78.9623L687.567 -78.2778L686.883 -83.1483L682.014 -82.4637L682.699 -77.5933L677.83 -76.9087L679.198 -67.1678ZM725.848 -58.8263L721.742 -88.0493L712.005 -86.6803L711.321 -91.5508L740.533 -95.6578L741.217 -90.7873L731.48 -89.4183L735.585 -60.1953L725.848 -58.8263ZM750.97 -62.3584L746.18 -96.4518L780.261 -101.243L780.945 -96.3729L756.602 -92.9503L757.97 -83.2093L777.445 -85.9474L778.129 -81.0769L758.655 -78.3389L760.707 -63.7274L750.97 -62.3584ZM795.567 -68.6284L794.883 -73.4989L790.014 -72.8144L786.593 -97.1669L791.461 -97.8514L790.777 -102.722L815.12 -106.144L815.805 -101.274L820.673 -101.958L824.094 -77.6059L819.226 -76.9214L819.91 -72.0509L795.567 -68.6284ZM799.751 -74.1834L814.357 -76.2369L810.936 -100.589L796.33 -98.5359L799.751 -74.1834ZM830.426 -73.5295L825.637 -107.623L854.848 -111.73L855.533 -106.859L860.401 -107.544L862.454 -92.9325L852.717 -91.5635L853.401 -86.693L858.27 -87.3775L858.954 -82.507L863.823 -83.1915L864.507 -78.321L849.901 -76.2675L849.217 -81.138L844.348 -80.4535L843.664 -85.324L838.795 -84.6395L840.164 -74.8985L830.426 -73.5295ZM838.111 -89.51L847.848 -90.879L847.164 -95.7495L852.033 -96.434L850.664 -106.175L836.058 -104.121L838.111 -89.51ZM870.154 -79.115L865.365 -113.208L875.102 -114.577L875.786 -109.707L880.655 -110.391L881.339 -105.521L886.208 -106.206L885.523 -111.076L890.392 -111.76L889.708 -116.631L899.445 -118L904.235 -83.9065L894.498 -82.5375L891.761 -102.02L886.892 -101.335L888.26 -91.594L883.392 -90.9095L882.023 -100.65L877.155 -99.966L879.892 -80.484L870.154 -79.115Z"/>
<path d="M-93.6573 118.475L-98.447 84.3818L-69.2351 80.2747L-68.5509 85.1452L-63.6822 84.4607L-61.6295 99.0722L-66.4982 99.7567L-65.8139 104.627L-85.2885 107.365L-83.92 117.106L-93.6573 118.475ZM-85.9727 102.495L-71.3668 100.441L-73.4195 85.8297L-88.0254 87.8833L-85.9727 102.495ZM-49.0605 112.205L-53.8502 78.1117L-44.1129 76.7427L-40.0075 105.966L-20.5329 103.228L-19.8487 108.098L-49.0605 112.205ZM-14.2011 107.304L-17.6223 82.9517L-12.7536 82.2672L-13.4379 77.3967L-8.56925 76.7121L-9.25349 71.8417L5.35242 69.7881L6.03667 74.6586L10.9053 73.9741L11.5896 78.8446L16.4582 78.1601L19.8794 102.513L10.1421 103.882L8.77364 94.1406L-5.83228 96.1941L-4.46379 105.935L-14.2011 107.304ZM-6.51653 91.3237L8.0894 89.2701L6.72092 79.5291L1.85226 80.2136L1.16803 75.3432L-3.70061 76.0276L-3.01637 80.8981L-7.88501 81.5826L-6.51653 91.3237ZM40.1329 99.6651L36.0275 70.4421L26.2902 71.8111L25.606 66.9406L54.8178 62.8336L55.502 67.7041L45.7648 69.0731L49.8702 98.2961L40.1329 99.6651ZM65.2551 96.133L60.4654 62.0396L94.5459 57.248L95.2301 62.1185L70.8869 65.5411L72.2554 75.282L91.73 72.544L92.4142 77.4145L72.9397 80.1525L74.9924 94.764L65.2551 96.133ZM109.852 89.863L109.168 84.9925L104.299 85.677L100.878 61.3245L105.746 60.64L105.062 55.7695L129.405 52.347L130.09 57.2175L134.958 56.533L138.379 80.8855L133.511 81.57L134.195 86.4405L109.852 89.863ZM114.036 84.308L128.642 82.2545L125.221 57.902L110.615 59.9555L114.036 84.308ZM144.711 84.9619L139.922 50.8685L169.133 46.7614L169.818 51.6319L174.686 50.9474L176.739 65.5589L167.002 66.9279L167.686 71.7984L172.555 71.1139L173.239 75.9844L178.108 75.2999L178.792 80.1704L164.186 82.2239L163.502 77.3534L158.633 78.0379L157.949 73.1674L153.08 73.8519L154.449 83.5929L144.711 84.9619ZM152.396 68.9814L162.133 67.6124L161.449 62.742L166.318 62.0574L164.949 52.3165L150.343 54.37L152.396 68.9814ZM184.439 79.3764L179.65 45.2829L189.387 43.9139L190.071 48.7844L194.94 48.0999L195.624 52.9704L200.493 52.2859L199.809 47.4154L204.677 46.7309L203.993 41.8604L213.73 40.4914L218.52 74.5849L208.783 75.9539L206.046 56.4719L201.177 57.1564L202.545 66.8974L197.677 67.5819L196.308 57.8409L191.44 58.5254L194.177 78.0074L184.439 79.3764Z"/>
<path d="M253.477 69.6701L248.687 35.5767L277.899 31.4696L278.583 36.3401L283.452 35.6556L285.504 50.2671L280.636 50.9516L281.32 55.8221L261.846 58.5601L263.214 68.3011L253.477 69.6701ZM261.161 53.6896L275.767 51.6361L273.714 37.0246L259.109 39.0782L261.161 53.6896ZM298.073 63.4001L293.284 29.3066L303.021 27.9376L307.126 57.1606L326.601 54.4226L327.285 59.2931L298.073 63.4001ZM332.933 58.499L329.512 34.1465L334.38 33.4621L333.696 28.5916L338.565 27.9071L337.88 23.0366L352.486 20.983L353.171 25.8535L358.039 25.169L358.724 30.0395L363.592 29.355L367.013 53.7075L357.276 55.0765L355.908 45.3355L341.302 47.389L342.67 57.13L332.933 58.499ZM340.617 42.5185L355.223 40.465L353.855 30.724L348.986 31.4085L348.302 26.538L343.433 27.2225L344.118 32.093L339.249 32.7776L340.617 42.5185ZM387.267 50.86L383.161 21.637L373.424 23.006L372.74 18.1355L401.952 14.0285L402.636 18.899L392.899 20.268L397.004 49.491L387.267 50.86ZM412.389 47.3279L407.599 13.2345L441.68 8.44294L442.364 13.3134L418.021 16.736L419.389 26.4769L438.864 23.7389L439.548 28.6094L420.074 31.3474L422.126 45.9589L412.389 47.3279ZM456.986 41.0579L456.302 36.1874L451.433 36.8719L448.012 12.5194L452.88 11.8349L452.196 6.96442L476.539 3.5419L477.224 8.41239L482.092 7.72788L485.513 32.0804L480.645 32.7649L481.329 37.6354L456.986 41.0579ZM461.17 35.5029L475.776 33.4494L472.355 9.09689L457.749 11.1504L461.17 35.5029ZM491.845 36.1568L487.056 2.06337L516.267 -2.04365L516.952 2.82684L521.82 2.14233L523.873 16.7538L514.136 18.1228L514.82 22.9933L519.689 22.3088L520.373 27.1793L525.242 26.4948L525.926 31.3653L511.32 33.4188L510.636 28.5483L505.767 29.2328L505.083 24.3623L500.214 25.0468L501.583 34.7878L491.845 36.1568ZM499.53 20.1763L509.267 18.8073L508.583 13.9368L513.452 13.2523L512.083 3.51134L497.477 5.56485L499.53 20.1763ZM531.573 30.5713L526.784 -3.52219L536.521 -4.89119L537.205 -0.0206985L542.074 -0.705193L542.758 4.1653L547.627 3.48079L546.943 -1.3897L551.811 -2.0742L551.127 -6.94469L560.864 -8.31371L565.654 25.7798L555.917 27.1488L553.18 7.66679L548.311 8.35129L549.679 18.0923L544.811 18.7768L543.442 9.0358L538.574 9.7203L541.311 29.2023L531.573 30.5713Z"/>
<path d="M600.611 20.865L595.821 -13.2284L625.033 -17.3355L625.717 -12.465L630.586 -13.1495L632.638 1.46202L627.77 2.14651L628.454 7.01701L608.979 9.75504L610.348 19.496L600.611 20.865ZM608.295 4.88453L622.901 2.83102L620.849 -11.7805L606.243 -9.72695L608.295 4.88453ZM645.207 14.595L640.418 -19.4985L650.155 -20.8675L654.26 8.35548L673.735 5.61746L674.419 10.488L645.207 14.595ZM680.067 9.69393L676.646 -14.6585L681.514 -15.343L680.83 -20.2135L685.699 -20.8981L685.015 -25.7685L699.62 -27.8221L700.305 -22.9516L705.173 -23.6361L705.858 -18.7656L710.726 -19.4501L714.147 4.90241L704.41 6.27142L703.042 -3.46958L688.436 -1.41607L689.804 8.32493L680.067 9.69393ZM687.751 -6.28656L702.357 -8.34007L700.989 -18.0811L696.12 -17.3966L695.436 -22.2671L690.567 -21.5826L691.252 -16.7121L686.383 -16.0275L687.751 -6.28656ZM734.401 2.05487L730.295 -27.1681L720.558 -25.7991L719.874 -30.6696L749.086 -34.7766L749.77 -29.9061L740.033 -28.5371L744.138 0.68586L734.401 2.05487ZM759.523 -1.47717L754.733 -35.5706L788.814 -40.3622L789.498 -35.4917L765.155 -32.0691L766.523 -22.3282L785.998 -25.0662L786.682 -20.1957L767.208 -17.4577L769.26 -2.84617L759.523 -1.47717ZM804.12 -7.74722L803.436 -12.6177L798.567 -11.9332L795.146 -36.2857L800.014 -36.9702L799.33 -41.8407L823.673 -45.2632L824.358 -40.3927L829.226 -41.0772L832.647 -16.7247L827.779 -16.0402L828.463 -11.1697L804.12 -7.74722ZM808.304 -13.3022L822.91 -15.3557L819.489 -39.7082L804.883 -37.6547L808.304 -13.3022ZM838.979 -12.6483L834.19 -46.7417L863.401 -50.8488L864.086 -45.9783L868.954 -46.6628L871.007 -32.0513L861.27 -30.6823L861.954 -25.8118L866.823 -26.4963L867.507 -21.6258L872.376 -22.3103L873.06 -17.4398L858.454 -15.3863L857.77 -20.2568L852.901 -19.5723L852.217 -24.4428L847.348 -23.7583L848.717 -14.0173L838.979 -12.6483ZM846.664 -28.6288L856.401 -29.9978L855.717 -34.8683L860.586 -35.5528L859.217 -45.2938L844.611 -43.2402L846.664 -28.6288ZM878.707 -18.2338L873.918 -52.3273L883.655 -53.6963L884.339 -48.8258L889.208 -49.5103L889.892 -44.6398L894.761 -45.3243L894.077 -50.1948L898.945 -50.8793L898.261 -55.7498L907.998 -57.1188L912.788 -23.0253L903.051 -21.6563L900.314 -41.1383L895.445 -40.4538L896.813 -30.7128L891.945 -30.0283L890.576 -39.7693L885.708 -39.0848L888.445 -19.6028L878.707 -18.2338Z"/>
<path d="M-85.1042 179.356L-89.8939 145.263L-60.6821 141.156L-59.9978 146.026L-55.1292 145.342L-53.0765 159.953L-57.9451 160.638L-57.2609 165.508L-76.7354 168.246L-75.367 177.987L-85.1042 179.356ZM-77.4197 163.376L-62.8138 161.322L-64.8665 146.711L-79.4724 148.764L-77.4197 163.376ZM-40.5075 173.086L-45.2972 138.993L-35.5599 137.624L-31.4545 166.847L-11.9799 164.109L-11.2957 168.979L-40.5075 173.086ZM-5.64804 168.185L-9.06925 143.833L-4.20061 143.148L-4.88486 138.278L-0.0162201 137.593L-0.700462 132.723L13.9055 130.669L14.5897 135.54L19.4583 134.855L20.1426 139.726L25.0112 139.041L28.4324 163.394L18.6952 164.763L17.3267 155.022L2.72076 157.075L4.08924 166.816L-5.64804 168.185ZM2.03651 152.205L16.6424 150.151L15.2739 140.41L10.4053 141.095L9.72106 136.224L4.85242 136.909L5.53667 141.779L0.668022 142.464L2.03651 152.205ZM48.686 160.546L44.5805 131.323L34.8432 132.692L34.159 127.822L63.3708 123.715L64.0551 128.585L54.3178 129.954L58.4233 159.177L48.686 160.546ZM73.8082 157.014L69.0184 122.921L103.099 118.129L103.783 123L79.44 126.422L80.8085 136.163L100.283 133.425L100.967 138.296L81.4927 141.034L83.5454 155.645L73.8082 157.014ZM118.405 150.744L117.721 145.874L112.852 146.558L109.431 122.206L114.299 121.521L113.615 116.651L137.958 113.228L138.643 118.099L143.511 117.414L146.933 141.767L142.064 142.451L142.748 147.322L118.405 150.744ZM122.589 145.189L137.195 143.136L133.774 118.783L119.168 120.837L122.589 145.189ZM153.264 145.843L148.475 111.75L177.686 107.643L178.371 112.513L183.239 111.829L185.292 126.44L175.555 127.809L176.239 132.68L181.108 131.995L181.792 136.866L186.661 136.181L187.345 141.052L172.739 143.105L172.055 138.235L167.186 138.919L166.502 134.049L161.633 134.733L163.002 144.474L153.264 145.843ZM160.949 129.863L170.686 128.494L170.002 123.623L174.871 122.939L173.502 113.198L158.896 115.251L160.949 129.863ZM192.992 140.258L188.203 106.164L197.94 104.795L198.624 109.666L203.493 108.981L204.177 113.852L209.046 113.167L208.362 108.297L213.23 107.612L212.546 102.742L222.283 101.373L227.073 135.466L217.336 136.835L214.599 117.353L209.73 118.038L211.099 127.779L206.23 128.463L204.861 118.722L199.993 119.407L202.73 138.889L192.992 140.258Z"/>
<path d="M262.03 130.551L257.24 96.4579L286.452 92.3508L287.136 97.2213L292.005 96.5368L294.058 111.148L289.189 111.833L289.873 116.703L270.399 119.441L271.767 129.182L262.03 130.551ZM269.714 114.571L284.32 112.517L282.267 97.9058L267.662 99.9594L269.714 114.571ZM306.626 124.281L301.837 90.1878L311.574 88.8188L315.68 118.042L335.154 115.304L335.838 120.174L306.626 124.281ZM341.486 119.38L338.065 95.0277L342.933 94.3432L342.249 89.4727L347.118 88.7883L346.434 83.9178L361.039 81.8642L361.724 86.7347L366.592 86.0502L367.277 90.9207L372.145 90.2362L375.566 114.589L365.829 115.958L364.461 106.217L349.855 108.27L351.223 118.011L341.486 119.38ZM349.171 103.4L363.776 101.346L362.408 91.6052L357.539 92.2897L356.855 87.4192L351.986 88.1037L352.671 92.9742L347.802 93.6587L349.171 103.4ZM395.82 111.741L391.715 82.5182L381.977 83.8872L381.293 79.0167L410.505 74.9097L411.189 79.7802L401.452 81.1492L405.557 110.372L395.82 111.741ZM420.942 108.209L416.152 74.1157L450.233 69.3241L450.917 74.1946L426.574 77.6171L427.942 87.3581L447.417 84.6201L448.101 89.4906L428.627 92.2286L430.679 106.84L420.942 108.209ZM465.539 101.939L464.855 97.0686L459.986 97.7531L456.565 73.4006L461.433 72.7161L460.749 67.8456L485.092 64.4231L485.777 69.2936L490.645 68.6091L494.066 92.9616L489.198 93.6461L489.882 98.5166L465.539 101.939ZM469.723 96.3841L484.329 94.3306L480.908 69.9781L466.302 72.0316L469.723 96.3841ZM500.398 97.038L495.609 62.9446L524.82 58.8375L525.505 63.708L530.373 63.0235L532.426 77.635L522.689 79.004L523.373 83.8745L528.242 83.19L528.926 88.0605L533.795 87.376L534.479 92.2465L519.873 94.3L519.189 89.4295L514.32 90.114L513.636 85.2435L508.767 85.928L510.136 95.669L500.398 97.038ZM508.083 81.0575L517.82 79.6885L517.136 74.818L522.005 74.1335L520.636 64.3925L506.03 66.446L508.083 81.0575ZM540.126 91.4525L535.337 57.359L545.074 55.99L545.758 60.8605L550.627 60.176L551.311 65.0465L556.18 64.362L555.496 59.4915L560.364 58.807L559.68 53.9365L569.417 52.5675L574.207 86.661L564.47 88.03L561.733 68.548L556.864 69.2325L558.233 78.9735L553.364 79.658L551.995 69.917L547.127 70.6015L549.864 90.0835L540.126 91.4525Z"/>
<path d="M609.164 81.7462L604.374 47.6528L633.586 43.5457L634.27 48.4162L639.139 47.7317L641.192 62.3432L636.323 63.0277L637.007 67.8982L617.533 70.6362L618.901 80.3772L609.164 81.7462ZM616.848 65.7657L631.454 63.7122L629.401 49.1007L614.796 51.1542L616.848 65.7657Z"/>
<path d="M653.76 75.4762L648.971 41.3827L658.708 40.0137L662.814 69.2367L682.288 66.4987L682.972 71.3692L653.76 75.4762Z"/>
<path d="M688.62 70.5751L685.199 46.2227L690.067 45.5381L689.383 40.6676L694.252 39.9831L693.568 35.1126L708.173 33.0591L708.858 37.9296L713.726 37.2451L714.411 42.1156L719.279 41.4311L722.7 65.7836L712.963 67.1526L711.595 57.4116L696.989 59.4651L698.357 69.2061L688.62 70.5751ZM696.305 54.5946L710.91 52.5411L709.542 42.8001L704.673 43.4846L703.989 38.6141L699.12 39.2986L699.805 44.1691L694.936 44.8536L696.305 54.5946Z"/>
<path d="M742.954 62.9361L738.849 33.7131L729.111 35.0821L728.427 30.2116L757.639 26.1046L758.323 30.9751L748.586 32.3441L752.691 61.5671L742.954 62.9361Z"/>
<path d="M768.076 59.404L763.286 25.3106L797.367 20.519L798.051 25.3895L773.708 28.812L775.076 38.553L794.551 35.815L795.235 40.6855L775.761 43.4235L777.813 58.035L768.076 59.404Z"/>
<path d="M812.673 53.134L811.989 48.2635L807.12 48.948L803.699 24.5955L808.567 23.911L807.883 19.0405L832.226 15.618L832.911 20.4885L837.779 19.804L841.2 44.1564L836.332 44.841L837.016 49.7115L812.673 53.134ZM816.857 47.579L831.463 45.5255L828.042 21.173L813.436 23.2265L816.857 47.579Z"/>
<path d="M847.532 48.2329L842.743 14.1395L871.954 10.0324L872.639 14.9029L877.507 14.2184L879.56 28.8299L869.823 30.1989L870.507 35.0694L875.376 34.3849L876.06 39.2554L880.929 38.5709L881.613 43.4414L867.007 45.4949L866.323 40.6244L861.454 41.3089L860.77 36.4384L855.901 37.1229L857.27 46.8639L847.532 48.2329ZM855.217 32.2524L864.954 30.8834L864.27 26.0129L869.139 25.3284L867.77 15.5874L853.164 17.6409L855.217 32.2524Z"/>
<path d="M887.26 42.6474L882.471 8.55392L892.208 7.18491L892.892 12.0554L897.761 11.3709L898.445 16.2414L903.314 15.5569L902.63 10.6864L907.498 10.0019L906.814 5.13139L916.551 3.76239L921.341 37.8559L911.604 39.2249L908.867 19.7429L903.998 20.4274L905.367 30.1684L900.498 30.8529L899.129 21.1119L894.261 21.7964L896.998 41.2784L887.26 42.6474Z"/>
<path d="M-76.5512 240.238L-81.3409 206.144L-52.1291 202.037L-51.4448 206.908L-46.5762 206.223L-44.5234 220.835L-49.3921 221.519L-48.7078 226.39L-68.1824 229.128L-66.8139 238.869L-76.5512 240.238ZM-68.8666 224.257L-54.2607 222.204L-56.3135 207.592L-70.9194 209.646L-68.8666 224.257ZM-31.9545 233.968L-36.7442 199.874L-27.0069 198.505L-22.9014 227.728L-3.42686 224.99L-2.74262 229.861L-31.9545 233.968ZM2.905 229.067L-0.51622 204.714L4.35242 204.03L3.66817 199.159L8.53682 198.475L7.85258 193.604L22.4585 191.551L23.1427 196.421L28.0114 195.737L28.6956 200.607L33.5643 199.923L36.9855 224.275L27.2482 225.644L25.8797 215.903L11.2738 217.957L12.6423 227.698L2.905 229.067ZM10.5895 213.086L25.1955 211.033L23.827 201.292L18.9583 201.976L18.2741 197.106L13.4055 197.79L14.0897 202.661L9.22105 203.345L10.5895 213.086ZM57.239 221.427L53.1336 192.204L43.3963 193.573L42.712 188.703L71.9239 184.596L72.6081 189.466L62.8708 190.835L66.9763 220.058L57.239 221.427ZM82.3612 217.895L77.5715 183.802L111.652 179.01L112.336 183.881L87.993 187.303L89.3615 197.044L108.836 194.306L109.52 199.177L90.0457 201.915L92.0985 216.526L82.3612 217.895ZM126.958 211.625L126.274 206.755L121.405 207.439L117.984 183.087L122.852 182.402L122.168 177.532L146.511 174.109L147.196 178.98L152.064 178.295L155.486 202.648L150.617 203.332L151.301 208.203L126.958 211.625ZM131.142 206.07L145.748 204.017L142.327 179.664L127.721 181.718L131.142 206.07ZM161.817 206.724L157.028 172.631L186.24 168.524L186.924 173.394L191.792 172.71L193.845 187.321L184.108 188.69L184.792 193.561L189.661 192.876L190.345 197.747L195.214 197.062L195.898 201.933L181.292 203.986L180.608 199.116L175.739 199.8L175.055 194.93L170.186 195.614L171.555 205.355L161.817 206.724ZM169.502 190.744L179.239 189.375L178.555 184.504L183.424 183.82L182.055 174.079L167.449 176.132L169.502 190.744ZM201.546 201.139L196.756 167.045L206.493 165.676L207.177 170.547L212.046 169.862L212.73 174.733L217.599 174.048L216.915 169.178L221.783 168.493L221.099 163.623L230.836 162.254L235.626 196.347L225.889 197.716L223.152 178.234L218.283 178.919L219.652 188.66L214.783 189.344L213.414 179.603L208.546 180.288L211.283 199.77L201.546 201.139Z"/>
<path d="M270.583 191.433L265.793 157.339L295.005 153.232L295.689 158.103L300.558 157.418L302.611 172.029L297.742 172.714L298.426 177.585L278.952 180.323L280.32 190.064L270.583 191.433ZM278.267 175.452L292.873 173.399L290.821 158.787L276.215 160.841L278.267 175.452Z"/>
<path d="M315.18 185.162L310.39 151.069L320.127 149.7L324.233 178.923L343.707 176.185L344.391 181.055L315.18 185.162Z"/>
<path d="M350.039 180.261L346.618 155.909L351.486 155.224L350.802 150.354L355.671 149.669L354.987 144.799L369.592 142.745L370.277 147.616L375.145 146.931L375.83 151.802L380.698 151.117L384.119 175.47L374.382 176.839L373.014 167.098L358.408 169.151L359.776 178.892L350.039 180.261ZM357.724 164.281L372.329 162.227L370.961 152.486L366.092 153.171L365.408 148.3L360.539 148.985L361.224 153.855L356.355 154.54L357.724 164.281Z"/>
<path d="M404.373 172.622L400.268 143.399L390.53 144.768L389.846 139.898L419.058 135.791L419.742 140.661L410.005 142.03L414.11 171.253L404.373 172.622Z"/>
<path d="M429.495 169.09L424.705 134.997L458.786 130.205L459.47 135.076L435.127 138.498L436.495 148.239L455.97 145.501L456.654 150.372L437.18 153.11L439.232 167.721L429.495 169.09Z"/>
<path d="M474.092 162.82L473.408 157.95L468.539 158.634L465.118 134.282L469.986 133.597L469.302 128.727L493.645 125.304L494.33 130.175L499.198 129.49L502.62 153.843L497.751 154.527L498.435 159.398L474.092 162.82ZM478.276 157.265L492.882 155.212L489.461 130.859L474.855 132.913L478.276 157.265Z"/>
<path d="M508.951 157.919L504.162 123.826L533.373 119.719L534.058 124.589L538.926 123.905L540.979 138.516L531.242 139.885L531.926 144.756L536.795 144.071L537.479 148.942L542.348 148.257L543.032 153.128L528.426 155.181L527.742 150.311L522.873 150.995L522.189 146.125L517.32 146.809L518.689 156.55L508.951 157.919ZM516.636 141.939L526.373 140.57L525.689 135.699L530.558 135.015L529.189 125.274L514.583 127.327L516.636 141.939Z"/>
<path d="M548.68 152.334L543.89 118.24L553.627 116.871L554.311 121.742L559.18 121.057L559.864 125.928L564.733 125.243L564.049 120.373L568.917 119.688L568.233 114.818L577.97 113.449L582.76 147.542L573.023 148.911L570.286 129.429L565.417 130.114L566.786 139.855L561.917 140.539L560.548 130.798L555.68 131.483L558.417 150.965L548.68 152.334Z"/>
<path d="M617.717 142.627L612.927 108.534L642.139 104.427L642.823 109.297L647.692 108.613L649.745 123.224L644.876 123.909L645.56 128.779L626.086 131.517L627.454 141.258L617.717 142.627ZM625.401 126.647L640.007 124.593L637.955 109.982L623.349 112.035L625.401 126.647ZM662.314 136.357L657.524 102.264L667.261 100.895L671.367 130.118L690.841 127.38L691.525 132.25L662.314 136.357ZM697.173 131.456L693.752 107.104L698.62 106.419L697.936 101.549L702.805 100.864L702.121 95.9938L716.726 93.9403L717.411 98.8108L722.279 98.1263L722.964 102.997L727.832 102.312L731.253 126.665L721.516 128.034L720.148 118.293L705.542 120.346L706.91 130.087L697.173 131.456ZM704.857 115.476L719.464 113.422L718.095 103.681L713.226 104.366L712.542 99.4953L707.673 100.18L708.358 105.05L703.489 105.735L704.857 115.476ZM751.507 123.817L747.402 94.5943L737.664 95.9633L736.98 91.0928L766.192 86.9858L766.876 91.8563L757.139 93.2253L761.244 122.448L751.507 123.817ZM776.629 120.285L771.839 86.1917L805.92 81.4002L806.604 86.2707L782.261 89.6932L783.63 99.4342L803.104 96.6962L803.788 101.567L784.314 104.305L786.366 118.916L776.629 120.285ZM821.226 114.015L820.542 109.145L815.673 109.829L812.252 85.4767L817.12 84.7922L816.436 79.9217L840.779 76.4992L841.464 81.3697L846.332 80.6852L849.753 105.038L844.885 105.722L845.569 110.593L821.226 114.015ZM825.41 108.46L840.016 106.407L836.595 82.0542L821.989 84.1077L825.41 108.46ZM856.085 109.114L851.296 75.0206L880.508 70.9136L881.192 75.7841L886.06 75.0996L888.113 89.7111L878.376 91.0801L879.06 95.9506L883.929 95.2661L884.613 100.137L889.482 99.4521L890.166 104.323L875.56 106.376L874.876 101.506L870.007 102.19L869.323 97.3196L864.454 98.0041L865.823 107.745L856.085 109.114ZM863.77 93.1336L873.507 91.7646L872.823 86.8941L877.692 86.2096L876.323 76.4686L861.717 78.5221L863.77 93.1336ZM895.813 103.529L891.024 69.4351L900.761 68.0661L901.445 72.9366L906.314 72.2521L906.998 77.1226L911.867 76.4381L911.183 71.5676L916.051 70.8831L915.367 66.0126L925.104 64.6436L929.894 98.737L920.157 100.106L917.42 80.6241L912.551 81.3086L913.92 91.0496L909.051 91.7341L907.682 81.9931L902.814 82.6776L905.551 102.16L895.813 103.529Z"/>
<path d="M-67.9982 301.119L-72.7879 267.025L-43.576 262.918L-42.8918 267.789L-38.0231 267.104L-35.9704 281.716L-40.8391 282.4L-40.1548 287.271L-59.6294 290.009L-58.2609 299.75L-67.9982 301.119ZM-60.3136 285.138L-45.7077 283.085L-47.7604 268.473L-62.3663 270.527L-60.3136 285.138ZM-23.4014 294.849L-28.1911 260.755L-18.4538 259.386L-14.3484 288.609L5.12617 285.871L5.81041 290.742L-23.4014 294.849ZM11.458 289.948L8.03681 265.595L12.9055 264.911L12.2212 260.04L17.0899 259.356L16.4056 254.485L31.0115 252.432L31.6958 257.302L36.5644 256.618L37.2487 261.488L42.1173 260.804L45.5385 285.156L35.8012 286.525L34.4327 276.784L19.8268 278.838L21.1953 288.579L11.458 289.948ZM19.1426 273.967L33.7485 271.914L32.38 262.173L27.5114 262.857L26.8271 257.987L21.9585 258.671L22.6427 263.542L17.7741 264.226L19.1426 273.967ZM65.7921 282.309L61.6866 253.086L51.9493 254.455L51.2651 249.584L80.4769 245.477L81.1611 250.348L71.4239 251.717L75.5293 280.94L65.7921 282.309ZM90.9142 278.777L86.1245 244.683L120.205 239.892L120.889 244.762L96.5461 248.185L97.9145 257.926L117.389 255.188L118.073 260.058L98.5988 262.796L100.652 277.408L90.9142 278.777ZM135.511 272.507L134.827 267.636L129.958 268.321L126.537 243.968L131.406 243.284L130.721 238.413L155.064 234.991L155.749 239.861L160.617 239.177L164.039 263.529L159.17 264.214L159.854 269.084L135.511 272.507ZM139.695 266.952L154.301 264.898L150.88 240.546L136.274 242.599L139.695 266.952ZM170.37 267.605L165.581 233.512L194.793 229.405L195.477 234.276L200.345 233.591L202.398 248.203L192.661 249.572L193.345 254.442L198.214 253.758L198.898 258.628L203.767 257.944L204.451 262.814L189.845 264.868L189.161 259.997L184.292 260.682L183.608 255.811L178.739 256.496L180.108 266.237L170.37 267.605ZM178.055 251.625L187.792 250.256L187.108 245.386L191.977 244.701L190.608 234.96L176.002 237.014L178.055 251.625ZM210.099 262.02L205.309 227.926L215.046 226.557L215.73 231.428L220.599 230.743L221.283 235.614L226.152 234.929L225.468 230.059L230.336 229.374L229.652 224.504L239.389 223.135L244.179 257.228L234.442 258.597L231.705 239.115L226.836 239.8L228.205 249.541L223.336 250.225L221.967 240.484L217.099 241.169L219.836 260.651L210.099 262.02Z"/>
<path d="M279.136 252.314L274.346 218.22L303.558 214.113L304.242 218.984L309.111 218.299L311.164 232.911L306.295 233.595L306.979 238.466L287.505 241.204L288.873 250.945L279.136 252.314ZM286.82 236.333L301.426 234.28L299.374 219.668L284.768 221.722L286.82 236.333ZM323.733 246.044L318.943 211.95L328.68 210.581L332.786 239.804L352.26 237.066L352.944 241.937L323.733 246.044ZM358.592 241.143L355.171 216.79L360.039 216.106L359.355 211.235L364.224 210.551L363.54 205.68L378.146 203.627L378.83 208.497L383.698 207.813L384.383 212.683L389.251 211.999L392.673 236.351L382.935 237.72L381.567 227.979L366.961 230.033L368.329 239.774L358.592 241.143ZM366.277 225.162L380.882 223.109L379.514 213.368L374.645 214.052L373.961 209.182L369.092 209.866L369.777 214.737L364.908 215.421L366.277 225.162ZM412.926 233.504L408.821 204.281L399.083 205.65L398.399 200.779L427.611 196.672L428.295 201.543L418.558 202.912L422.663 232.135L412.926 233.504ZM438.048 229.972L433.259 195.878L467.339 191.087L468.023 195.957L443.68 199.38L445.049 209.121L464.523 206.383L465.207 211.253L445.733 213.991L447.785 228.603L438.048 229.972ZM482.645 223.701L481.961 218.831L477.092 219.515L473.671 195.163L478.539 194.478L477.855 189.608L502.198 186.185L502.883 191.056L507.751 190.371L511.173 214.724L506.304 215.408L506.988 220.279L482.645 223.701ZM486.829 218.146L501.435 216.093L498.014 191.74L483.408 193.794L486.829 218.146ZM517.504 218.8L512.715 184.707L541.927 180.6L542.611 185.47L547.479 184.786L549.532 199.397L539.795 200.766L540.479 205.637L545.348 204.952L546.032 209.823L550.901 209.138L551.585 214.009L536.979 216.062L536.295 211.192L531.426 211.876L530.742 207.006L525.873 207.69L527.242 217.431L517.504 218.8ZM525.189 202.82L534.926 201.451L534.242 196.58L539.111 195.896L537.742 186.155L523.136 188.208L525.189 202.82ZM557.232 213.215L552.443 179.121L562.18 177.752L562.864 182.623L567.733 181.938L568.417 186.809L573.286 186.124L572.602 181.254L577.47 180.569L576.786 175.699L586.523 174.33L591.313 208.423L581.576 209.792L578.839 190.31L573.97 190.995L575.339 200.736L570.47 201.42L569.101 191.679L564.233 192.364L566.97 211.846L557.232 213.215Z"/>
<path d="M626.27 203.509L621.48 169.415L650.692 165.308L651.376 170.179L656.245 169.494L658.298 184.106L653.429 184.79L654.113 189.661L634.639 192.399L636.007 202.14L626.27 203.509ZM633.954 187.528L648.56 185.475L646.508 170.863L631.902 172.917L633.954 187.528ZM670.867 197.239L666.077 163.145L675.814 161.776L679.92 190.999L699.394 188.261L700.078 193.132L670.867 197.239ZM705.726 192.338L702.305 167.985L707.173 167.301L706.489 162.43L711.358 161.746L710.674 156.875L725.28 154.822L725.964 159.692L730.832 159.008L731.517 163.878L736.385 163.193L739.807 187.546L730.069 188.915L728.701 179.174L714.095 181.228L715.463 190.969L705.726 192.338ZM713.411 176.357L728.016 174.304L726.648 164.563L721.779 165.247L721.095 160.377L716.226 161.061L716.911 165.932L712.042 166.616L713.411 176.357ZM760.06 184.698L755.955 155.475L746.217 156.844L745.533 151.974L774.745 147.867L775.429 152.737L765.692 154.106L769.797 183.329L760.06 184.698ZM785.182 181.166L780.393 147.073L814.473 142.281L815.157 147.152L790.814 150.574L792.182 160.315L811.657 157.577L812.341 162.448L792.867 165.186L794.919 179.797L785.182 181.166ZM829.779 174.896L829.095 170.026L824.226 170.71L820.805 146.358L825.674 145.673L824.989 140.803L849.332 137.38L850.017 142.251L854.885 141.566L858.307 165.919L853.438 166.603L854.122 171.474L829.779 174.896ZM833.963 169.341L848.569 167.288L845.148 142.935L830.542 144.989L833.963 169.341ZM864.638 169.995L859.849 135.902L889.061 131.795L889.745 136.665L894.613 135.981L896.666 150.592L886.929 151.961L887.613 156.832L892.482 156.147L893.166 161.018L898.035 160.333L898.719 165.204L884.113 167.257L883.429 162.387L878.56 163.071L877.876 158.201L873.007 158.885L874.376 168.626L864.638 169.995ZM872.323 154.015L882.06 152.646L881.376 147.775L886.245 147.091L884.876 137.35L870.27 139.403L872.323 154.015ZM904.367 164.41L899.577 130.316L909.314 128.947L909.998 133.818L914.867 133.133L915.551 138.004L920.42 137.319L919.736 132.449L924.604 131.764L923.92 126.894L933.657 125.525L938.447 159.618L928.71 160.987L925.973 141.505L921.104 142.19L922.473 151.931L917.604 152.615L916.235 142.874L911.367 143.559L914.104 163.041L904.367 164.41Z"/>
<path d="M-59.4451 362L-64.2348 327.907L-35.023 323.8L-34.3387 328.67L-29.4701 327.986L-27.4174 342.597L-32.286 343.281L-31.6018 348.152L-51.0763 350.89L-49.7079 360.631L-59.4451 362ZM-51.7606 346.02L-37.1547 343.966L-39.2074 329.354L-53.8133 331.408L-51.7606 346.02ZM-14.8484 355.73L-19.6381 321.636L-9.90082 320.267L-5.79536 349.49L13.6792 346.752L14.3634 351.623L-14.8484 355.73ZM20.0111 350.829L16.5899 326.476L21.4585 325.792L20.7742 320.921L25.6429 320.237L24.9586 315.366L39.5646 313.313L40.2488 318.183L45.1174 317.499L45.8017 322.369L50.6703 321.685L54.0915 346.037L44.3543 347.406L42.9858 337.665L28.3799 339.719L29.7484 349.46L20.0111 350.829ZM27.6956 334.848L42.3015 332.795L40.933 323.054L36.0644 323.738L35.3802 318.868L30.5115 319.552L31.1958 324.423L26.3271 325.107L27.6956 334.848ZM74.3451 343.19L70.2396 313.967L60.5023 315.336L59.8181 310.465L89.0299 306.358L89.7142 311.229L79.9769 312.598L84.0824 341.821L74.3451 343.19ZM99.4673 339.658L94.6776 305.564L128.758 300.773L129.442 305.643L105.099 309.066L106.468 318.807L125.942 316.069L126.626 320.939L107.152 323.677L109.205 338.289L99.4673 339.658ZM144.064 333.388L143.38 328.517L138.511 329.202L135.09 304.849L139.959 304.165L139.274 299.294L163.617 295.872L164.302 300.742L169.17 300.058L172.592 324.41L167.723 325.095L168.407 329.965L144.064 333.388ZM148.248 327.833L162.854 325.779L159.433 301.427L144.827 303.48L148.248 327.833ZM178.923 328.487L174.134 294.393L203.346 290.286L204.03 295.157L208.898 294.472L210.951 309.084L201.214 310.453L201.898 315.323L206.767 314.639L207.451 319.509L212.32 318.825L213.004 323.695L198.398 325.749L197.714 320.878L192.845 321.563L192.161 316.692L187.292 317.377L188.661 327.118L178.923 328.487ZM186.608 312.506L196.345 311.137L195.661 306.267L200.53 305.582L199.161 295.841L184.555 297.895L186.608 312.506ZM218.652 322.901L213.862 288.808L223.599 287.439L224.283 292.309L229.152 291.625L229.836 296.495L234.705 295.811L234.021 290.94L238.889 290.256L238.205 285.385L247.942 284.016L252.732 318.11L242.995 319.479L240.258 299.997L235.389 300.681L236.758 310.422L231.889 311.107L230.521 301.366L225.652 302.05L228.389 321.532L218.652 322.901Z"/>
<path d="M287.689 313.195L282.899 279.101L312.111 274.994L312.795 279.865L317.664 279.18L319.717 293.792L314.848 294.476L315.532 299.347L296.058 302.085L297.426 311.826L287.689 313.195ZM295.373 297.214L309.979 295.161L307.927 280.549L293.321 282.603L295.373 297.214ZM332.286 306.925L327.496 272.831L337.233 271.462L341.339 300.685L360.813 297.947L361.497 302.818L332.286 306.925ZM367.145 302.024L363.724 277.671L368.592 276.987L367.908 272.116L372.777 271.432L372.093 266.561L386.699 264.508L387.383 269.378L392.251 268.694L392.936 273.564L397.804 272.88L401.226 297.232L391.488 298.601L390.12 288.86L375.514 290.914L376.882 300.655L367.145 302.024ZM374.83 286.043L389.436 283.99L388.067 274.249L383.198 274.933L382.514 270.063L377.646 270.747L378.33 275.618L373.461 276.302L374.83 286.043ZM421.479 294.385L417.374 265.162L407.636 266.531L406.952 261.66L436.164 257.553L436.848 262.424L427.111 263.793L431.216 293.016L421.479 294.385ZM446.601 290.853L441.812 256.759L475.892 251.968L476.576 256.838L452.233 260.261L453.602 270.002L473.076 267.264L473.76 272.134L454.286 274.872L456.339 289.484L446.601 290.853ZM491.198 284.583L490.514 279.712L485.645 280.397L482.224 256.044L487.093 255.36L486.408 250.489L510.751 247.067L511.436 251.937L516.304 251.253L519.726 275.605L514.857 276.29L515.541 281.16L491.198 284.583ZM495.382 279.028L509.988 276.974L506.567 252.622L491.961 254.675L495.382 279.028ZM526.057 279.682L521.268 245.588L550.48 241.481L551.164 246.352L556.032 245.667L558.085 260.279L548.348 261.648L549.032 266.518L553.901 265.834L554.585 270.704L559.454 270.02L560.138 274.89L545.532 276.944L544.848 272.073L539.979 272.758L539.295 267.887L534.426 268.572L535.795 278.313L526.057 279.682ZM533.742 263.701L543.479 262.332L542.795 257.462L547.664 256.777L546.295 247.036L531.689 249.09L533.742 263.701ZM565.786 274.096L560.996 240.003L570.733 238.634L571.417 243.504L576.286 242.82L576.97 247.69L581.839 247.006L581.155 242.135L586.023 241.451L585.339 236.58L595.076 235.211L599.866 269.305L590.129 270.674L587.392 251.192L582.523 251.876L583.892 261.617L579.023 262.302L577.655 252.561L572.786 253.245L575.523 272.727L565.786 274.096Z"/>
<path d="M634.823 264.39L630.033 230.296L659.245 226.189L659.929 231.06L664.798 230.375L666.851 244.987L661.982 245.671L662.666 250.542L643.192 253.28L644.56 263.021L634.823 264.39ZM642.507 248.409L657.113 246.356L655.061 231.744L640.455 233.798L642.507 248.409ZM679.42 258.12L674.63 224.026L684.367 222.657L688.473 251.88L707.947 249.142L708.631 254.013L679.42 258.12ZM714.279 253.219L710.858 228.866L715.727 228.182L715.042 223.311L719.911 222.627L719.227 217.756L733.833 215.703L734.517 220.573L739.385 219.889L740.07 224.759L744.938 224.075L748.36 248.427L738.622 249.796L737.254 240.055L722.648 242.109L724.016 251.85L714.279 253.219ZM721.964 237.238L736.57 235.185L735.201 225.444L730.332 226.128L729.648 221.258L724.779 221.942L725.464 226.813L720.595 227.497L721.964 237.238ZM768.613 245.58L764.508 216.357L754.77 217.726L754.086 212.855L783.298 208.748L783.982 213.619L774.245 214.988L778.35 244.211L768.613 245.58ZM793.735 242.048L788.946 207.954L823.026 203.163L823.71 208.033L799.367 211.456L800.736 221.197L820.21 218.459L820.894 223.329L801.42 226.067L803.472 240.679L793.735 242.048ZM838.332 235.778L837.648 230.907L832.779 231.592L829.358 207.239L834.227 206.555L833.542 201.684L857.885 198.262L858.57 203.132L863.438 202.448L866.86 226.8L861.991 227.485L862.675 232.355L838.332 235.778ZM842.516 230.223L857.122 228.169L853.701 203.817L839.095 205.87L842.516 230.223ZM873.191 230.877L868.402 196.783L897.614 192.676L898.298 197.547L903.166 196.862L905.219 211.473L895.482 212.842L896.166 217.713L901.035 217.029L901.719 221.899L906.588 221.214L907.272 226.085L892.666 228.138L891.982 223.268L887.113 223.953L886.429 219.082L881.56 219.767L882.929 229.507L873.191 230.877ZM880.876 214.896L890.613 213.527L889.929 208.657L894.798 207.972L893.429 198.231L878.823 200.285L880.876 214.896ZM912.92 225.291L908.13 191.198L917.867 189.828L918.551 194.699L923.42 194.014L924.104 198.885L928.973 198.2L928.289 193.33L933.157 192.645L932.473 187.775L942.21 186.406L947 220.499L937.263 221.868L934.526 202.386L929.657 203.071L931.026 212.812L926.157 213.496L924.789 203.755L919.92 204.44L922.657 223.922L912.92 225.291Z"/>
</mask>
<path d="M609.164 81.7462L604.374 47.6528L633.586 43.5457L634.27 48.4162L639.139 47.7317L641.192 62.3432L636.323 63.0277L637.007 67.8982L617.533 70.6362L618.901 80.3772L609.164 81.7462ZM616.848 65.7657L631.454 63.7122L629.401 49.1007L614.796 51.1542L616.848 65.7657Z" fill="#453262"/>
<path d="M653.76 75.4762L648.971 41.3827L658.708 40.0137L662.814 69.2367L682.288 66.4987L682.972 71.3692L653.76 75.4762Z" fill="#453262"/>
<path d="M688.62 70.5751L685.199 46.2227L690.067 45.5381L689.383 40.6676L694.252 39.9831L693.568 35.1126L708.173 33.0591L708.858 37.9296L713.726 37.2451L714.411 42.1156L719.279 41.4311L722.7 65.7836L712.963 67.1526L711.595 57.4116L696.989 59.4651L698.357 69.2061L688.62 70.5751ZM696.305 54.5946L710.91 52.5411L709.542 42.8001L704.673 43.4846L703.989 38.6141L699.12 39.2986L699.805 44.1691L694.936 44.8536L696.305 54.5946Z" fill="#453262"/>
<path d="M742.954 62.9361L738.849 33.7131L729.111 35.0821L728.427 30.2116L757.639 26.1046L758.323 30.9751L748.586 32.3441L752.691 61.5671L742.954 62.9361Z" fill="#453262"/>
<path d="M768.076 59.404L763.286 25.3106L797.367 20.519L798.051 25.3895L773.708 28.812L775.076 38.553L794.551 35.815L795.235 40.6855L775.761 43.4235L777.813 58.035L768.076 59.404Z" fill="#453262"/>
<path d="M812.673 53.134L811.989 48.2635L807.12 48.948L803.699 24.5955L808.567 23.911L807.883 19.0405L832.226 15.618L832.911 20.4885L837.779 19.804L841.2 44.1564L836.332 44.841L837.016 49.7115L812.673 53.134ZM816.857 47.579L831.463 45.5255L828.042 21.173L813.436 23.2265L816.857 47.579Z" fill="#453262"/>
<path d="M847.532 48.2329L842.743 14.1395L871.954 10.0324L872.639 14.9029L877.507 14.2184L879.56 28.8299L869.823 30.1989L870.507 35.0694L875.376 34.3849L876.06 39.2554L880.929 38.5709L881.613 43.4414L867.007 45.4949L866.323 40.6244L861.454 41.3089L860.77 36.4384L855.901 37.1229L857.27 46.8639L847.532 48.2329ZM855.217 32.2524L864.954 30.8834L864.27 26.0129L869.139 25.3284L867.77 15.5874L853.164 17.6409L855.217 32.2524Z" fill="#453262"/>
<path d="M887.26 42.6474L882.471 8.55392L892.208 7.18491L892.892 12.0554L897.761 11.3709L898.445 16.2414L903.314 15.5569L902.63 10.6864L907.498 10.0019L906.814 5.13139L916.551 3.76239L921.341 37.8559L911.604 39.2249L908.867 19.7429L903.998 20.4274L905.367 30.1684L900.498 30.8529L899.129 21.1119L894.261 21.7964L896.998 41.2784L887.26 42.6474Z" fill="#453262"/>
<path d="M270.583 191.433L265.793 157.339L295.005 153.232L295.689 158.103L300.558 157.418L302.611 172.029L297.742 172.714L298.426 177.585L278.952 180.323L280.32 190.064L270.583 191.433ZM278.267 175.452L292.873 173.399L290.821 158.787L276.215 160.841L278.267 175.452Z" fill="#453262"/>
<path d="M315.18 185.162L310.39 151.069L320.127 149.7L324.233 178.923L343.707 176.185L344.391 181.055L315.18 185.162Z" fill="#453262"/>
<path d="M350.039 180.261L346.618 155.909L351.486 155.224L350.802 150.354L355.671 149.669L354.987 144.799L369.592 142.745L370.277 147.616L375.145 146.931L375.83 151.802L380.698 151.117L384.119 175.47L374.382 176.839L373.014 167.098L358.408 169.151L359.776 178.892L350.039 180.261ZM357.724 164.281L372.329 162.227L370.961 152.486L366.092 153.171L365.408 148.3L360.539 148.985L361.224 153.855L356.355 154.54L357.724 164.281Z" fill="#453262"/>
<path d="M404.373 172.622L400.268 143.399L390.53 144.768L389.846 139.898L419.058 135.791L419.742 140.661L410.005 142.03L414.11 171.253L404.373 172.622Z" fill="#453262"/>
<path d="M429.495 169.09L424.705 134.997L458.786 130.205L459.47 135.076L435.127 138.498L436.495 148.239L455.97 145.501L456.654 150.372L437.18 153.11L439.232 167.721L429.495 169.09Z" fill="#453262"/>
<path d="M474.092 162.82L473.408 157.95L468.539 158.634L465.118 134.282L469.986 133.597L469.302 128.727L493.645 125.304L494.33 130.175L499.198 129.49L502.62 153.843L497.751 154.527L498.435 159.398L474.092 162.82ZM478.276 157.265L492.882 155.212L489.461 130.859L474.855 132.913L478.276 157.265Z" fill="#453262"/>
<path d="M508.951 157.919L504.162 123.826L533.373 119.719L534.058 124.589L538.926 123.905L540.979 138.516L531.242 139.885L531.926 144.756L536.795 144.071L537.479 148.942L542.348 148.257L543.032 153.128L528.426 155.181L527.742 150.311L522.873 150.995L522.189 146.125L517.32 146.809L518.689 156.55L508.951 157.919ZM516.636 141.939L526.373 140.57L525.689 135.699L530.558 135.015L529.189 125.274L514.583 127.327L516.636 141.939Z" fill="#453262"/>
<path d="M548.68 152.334L543.89 118.24L553.627 116.871L554.311 121.742L559.18 121.057L559.864 125.928L564.733 125.243L564.049 120.373L568.917 119.688L568.233 114.818L577.97 113.449L582.76 147.542L573.023 148.911L570.286 129.429L565.417 130.114L566.786 139.855L561.917 140.539L560.548 130.798L555.68 131.483L558.417 150.965L548.68 152.334Z" fill="#453262"/>
<path d="M-102.21 57.594L-107 23.5006L-77.7882 19.3936L-77.1039 24.2641L-72.2353 23.5795L-70.1826 38.191L-75.0512 38.8755L-74.3669 43.746L-93.8415 46.484L-92.473 56.225L-102.21 57.594ZM-94.5258 41.6135L-79.9198 39.56L-81.9726 24.9485L-96.5785 27.0021L-94.5258 41.6135ZM-57.6136 51.324L-62.4033 17.2305L-52.666 15.8615L-48.5605 45.0845L-29.086 42.3465L-28.4017 47.217L-57.6136 51.324ZM-22.7541 46.4229L-26.1753 22.0705L-21.3067 21.386L-21.9909 16.5155L-17.1223 15.8309L-17.8065 10.9605L-3.20061 8.90696L-2.51637 13.7775L2.35227 13.0929L3.03652 17.9634L7.90516 17.2789L11.3264 41.6314L1.58909 43.0004L0.220604 33.2594L-14.3853 35.3129L-13.0168 45.0539L-22.7541 46.4229ZM-15.0696 30.4425L-0.463638 28.3889L-1.83213 18.6479L-6.70077 19.3324L-7.385 14.462L-12.2536 15.1465L-11.5694 20.017L-16.438 20.7014L-15.0696 30.4425ZM31.5799 38.7839L27.4745 9.5609L17.7372 10.9299L17.0529 6.05942L46.2648 1.9524L46.949 6.82289L37.2117 8.1919L41.3172 37.4149L31.5799 38.7839ZM56.7021 35.2518L51.9124 1.15838L85.9929 -3.63315L86.6771 1.23734L62.3339 4.65986L63.7024 14.4008L83.177 11.6628L83.8612 16.5333L64.3866 19.2713L66.4394 33.8828L56.7021 35.2518ZM101.299 28.9818L100.615 24.1113L95.746 24.7958L92.3247 0.443321L97.1934 -0.241188L96.5091 -5.11167L120.852 -8.53419L121.537 -3.6637L126.405 -4.3482L129.826 20.0043L124.958 20.6888L125.642 25.5593L101.299 28.9818ZM105.483 23.4268L120.089 21.3733L116.668 -2.97919L102.062 -0.92569L105.483 23.4268ZM136.158 24.0807L131.369 -10.0127L160.58 -14.1197L161.265 -9.24924L166.133 -9.93375L168.186 4.67773L158.449 6.04675L159.133 10.9172L164.002 10.2327L164.686 15.1032L169.555 14.4187L170.239 19.2892L155.633 21.3427L154.949 16.4722L150.08 17.1567L149.396 12.2862L144.527 12.9707L145.896 22.7117L136.158 24.0807ZM143.843 8.10025L153.58 6.73125L152.896 1.86075L157.765 1.17625L156.396 -8.56475L141.79 -6.51123L143.843 8.10025ZM175.886 18.4952L171.097 -15.5983L180.834 -16.9673L181.518 -12.0968L186.387 -12.7813L187.071 -7.91079L191.94 -8.5953L191.255 -13.4658L196.124 -14.1503L195.44 -19.0208L205.177 -20.3898L209.967 13.7037L200.23 15.0727L197.493 -4.4093L192.624 -3.7248L193.992 6.01619L189.124 6.70069L187.755 -3.0403L182.887 -2.35579L185.624 17.1262L175.886 18.4952Z" stroke="#453262" stroke-width="2" mask="url(#path-3-outside-1_52_877)"/>
<path d="M244.924 8.78894L240.134 -25.3045L269.346 -29.4116L270.03 -24.5411L274.899 -25.2256L276.951 -10.6141L272.083 -9.92957L272.767 -5.05907L253.292 -2.32106L254.661 7.41993L244.924 8.78894ZM252.608 -7.19155L267.214 -9.24507L265.161 -23.8566L250.556 -21.803L252.608 -7.19155ZM289.52 2.51888L284.731 -31.5746L294.468 -32.9436L298.573 -3.72062L318.048 -6.45863L318.732 -1.58813L289.52 2.51888ZM324.38 -2.38216L320.959 -26.7346L325.827 -27.4191L325.143 -32.2896L330.012 -32.9741L329.327 -37.8446L343.933 -39.8981L344.618 -35.0277L349.486 -35.7122L350.171 -30.8417L355.039 -31.5262L358.46 -7.17368L348.723 -5.80468L347.355 -15.5457L332.749 -13.4922L334.117 -3.75117L324.38 -2.38216ZM332.064 -18.3627L346.67 -20.4162L345.302 -30.1572L340.433 -29.4726L339.749 -34.3431L334.88 -33.6586L335.565 -28.7882L330.696 -28.1036L332.064 -18.3627ZM378.714 -10.0212L374.608 -39.2442L364.871 -37.8752L364.187 -42.7457L393.399 -46.8527L394.083 -41.9822L384.346 -40.6132L388.451 -11.3902L378.714 -10.0212ZM403.836 -13.5533L399.046 -47.6467L433.127 -52.4382L433.811 -47.5678L409.468 -44.1452L410.836 -34.4042L430.311 -37.1423L430.995 -32.2718L411.521 -29.5337L413.573 -14.9223L403.836 -13.5533ZM448.433 -19.8233L447.749 -24.6938L442.88 -24.0093L439.459 -48.3618L444.327 -49.0463L443.643 -53.9168L467.986 -57.3393L468.671 -52.4688L473.539 -53.1533L476.96 -28.8008L472.092 -28.1163L472.776 -23.2458L448.433 -19.8233ZM452.617 -25.3783L467.223 -27.4318L463.802 -51.7843L449.196 -49.7308L452.617 -25.3783ZM483.292 -24.7244L478.503 -58.8178L507.714 -62.9248L508.399 -58.0544L513.267 -58.7389L515.32 -44.1274L505.583 -42.7584L506.267 -37.8879L511.136 -38.5724L511.82 -33.7019L516.689 -34.3864L517.373 -29.5159L502.767 -27.4624L502.083 -32.3329L497.214 -31.6484L496.53 -36.5189L491.661 -35.8344L493.03 -26.0934L483.292 -24.7244ZM490.977 -40.7048L500.714 -42.0739L500.03 -46.9444L504.898 -47.6289L503.53 -57.3699L488.924 -55.3163L490.977 -40.7048ZM523.02 -30.3099L518.231 -64.4034L527.968 -65.7724L528.652 -60.9019L533.521 -61.5864L534.205 -56.7159L539.074 -57.4004L538.389 -62.2709L543.258 -62.9554L542.574 -67.8259L552.311 -69.1949L557.101 -35.1014L547.364 -33.7324L544.627 -53.2144L539.758 -52.5299L541.126 -42.7889L536.258 -42.1044L534.889 -51.8454L530.021 -51.1609L532.758 -31.6789L523.02 -30.3099Z" stroke="#453262" stroke-width="2" mask="url(#path-3-outside-1_52_877)"/>
<path d="M592.058 -40.0162L587.268 -74.1096L616.48 -78.2167L617.164 -73.3462L622.033 -74.0307L624.085 -59.4192L619.217 -58.7347L619.901 -53.8642L600.426 -51.1262L601.795 -41.3852L592.058 -40.0162ZM599.742 -55.9967L614.348 -58.0502L612.295 -72.6617L597.69 -70.6081L599.742 -55.9967ZM636.654 -46.2862L631.865 -80.3797L641.602 -81.7487L645.707 -52.5257L665.182 -55.2637L665.866 -50.3932L636.654 -46.2862ZM671.514 -51.1873L668.093 -75.5397L672.961 -76.2242L672.277 -81.0947L677.146 -81.7792L676.461 -86.6497L691.067 -88.7032L691.752 -83.8328L696.62 -84.5173L697.305 -79.6468L702.173 -80.3313L705.594 -55.9788L695.857 -54.6098L694.489 -64.3508L679.883 -62.2973L681.251 -52.5563L671.514 -51.1873ZM679.198 -67.1678L693.804 -69.2213L692.436 -78.9623L687.567 -78.2778L686.883 -83.1483L682.014 -82.4637L682.699 -77.5933L677.83 -76.9087L679.198 -67.1678ZM725.848 -58.8263L721.742 -88.0493L712.005 -86.6803L711.321 -91.5508L740.533 -95.6578L741.217 -90.7873L731.48 -89.4183L735.585 -60.1953L725.848 -58.8263ZM750.97 -62.3584L746.18 -96.4518L780.261 -101.243L780.945 -96.3729L756.602 -92.9503L757.97 -83.2093L777.445 -85.9474L778.129 -81.0769L758.655 -78.3389L760.707 -63.7274L750.97 -62.3584ZM795.567 -68.6284L794.883 -73.4989L790.014 -72.8144L786.593 -97.1669L791.461 -97.8514L790.777 -102.722L815.12 -106.144L815.805 -101.274L820.673 -101.958L824.094 -77.6059L819.226 -76.9214L819.91 -72.0509L795.567 -68.6284ZM799.751 -74.1834L814.357 -76.2369L810.936 -100.589L796.33 -98.5359L799.751 -74.1834ZM830.426 -73.5295L825.637 -107.623L854.848 -111.73L855.533 -106.859L860.401 -107.544L862.454 -92.9325L852.717 -91.5635L853.401 -86.693L858.27 -87.3775L858.954 -82.507L863.823 -83.1915L864.507 -78.321L849.901 -76.2675L849.217 -81.138L844.348 -80.4535L843.664 -85.324L838.795 -84.6395L840.164 -74.8985L830.426 -73.5295ZM838.111 -89.51L847.848 -90.879L847.164 -95.7495L852.033 -96.434L850.664 -106.175L836.058 -104.121L838.111 -89.51ZM870.154 -79.115L865.365 -113.208L875.102 -114.577L875.786 -109.707L880.655 -110.391L881.339 -105.521L886.208 -106.206L885.523 -111.076L890.392 -111.76L889.708 -116.631L899.445 -118L904.235 -83.9065L894.498 -82.5375L891.761 -102.02L886.892 -101.335L888.26 -91.594L883.392 -90.9095L882.023 -100.65L877.155 -99.966L879.892 -80.484L870.154 -79.115Z" stroke="#453262" stroke-width="2" mask="url(#path-3-outside-1_52_877)"/>
<path d="M-93.6573 118.475L-98.447 84.3818L-69.2351 80.2747L-68.5509 85.1452L-63.6822 84.4607L-61.6295 99.0722L-66.4982 99.7567L-65.8139 104.627L-85.2885 107.365L-83.92 117.106L-93.6573 118.475ZM-85.9727 102.495L-71.3668 100.441L-73.4195 85.8297L-88.0254 87.8833L-85.9727 102.495ZM-49.0605 112.205L-53.8502 78.1117L-44.1129 76.7427L-40.0075 105.966L-20.5329 103.228L-19.8487 108.098L-49.0605 112.205ZM-14.2011 107.304L-17.6223 82.9517L-12.7536 82.2672L-13.4379 77.3967L-8.56925 76.7121L-9.25349 71.8417L5.35242 69.7881L6.03667 74.6586L10.9053 73.9741L11.5896 78.8446L16.4582 78.1601L19.8794 102.513L10.1421 103.882L8.77364 94.1406L-5.83228 96.1941L-4.46379 105.935L-14.2011 107.304ZM-6.51653 91.3237L8.0894 89.2701L6.72092 79.5291L1.85226 80.2136L1.16803 75.3432L-3.70061 76.0276L-3.01637 80.8981L-7.88501 81.5826L-6.51653 91.3237ZM40.1329 99.6651L36.0275 70.4421L26.2902 71.8111L25.606 66.9406L54.8178 62.8336L55.502 67.7041L45.7648 69.0731L49.8702 98.2961L40.1329 99.6651ZM65.2551 96.133L60.4654 62.0396L94.5459 57.248L95.2301 62.1185L70.8869 65.5411L72.2554 75.282L91.73 72.544L92.4142 77.4145L72.9397 80.1525L74.9924 94.764L65.2551 96.133ZM109.852 89.863L109.168 84.9925L104.299 85.677L100.878 61.3245L105.746 60.64L105.062 55.7695L129.405 52.347L130.09 57.2175L134.958 56.533L138.379 80.8855L133.511 81.57L134.195 86.4405L109.852 89.863ZM114.036 84.308L128.642 82.2545L125.221 57.902L110.615 59.9555L114.036 84.308ZM144.711 84.9619L139.922 50.8685L169.133 46.7614L169.818 51.6319L174.686 50.9474L176.739 65.5589L167.002 66.9279L167.686 71.7984L172.555 71.1139L173.239 75.9844L178.108 75.2999L178.792 80.1704L164.186 82.2239L163.502 77.3534L158.633 78.0379L157.949 73.1674L153.08 73.8519L154.449 83.5929L144.711 84.9619ZM152.396 68.9814L162.133 67.6124L161.449 62.742L166.318 62.0574L164.949 52.3165L150.343 54.37L152.396 68.9814ZM184.439 79.3764L179.65 45.2829L189.387 43.9139L190.071 48.7844L194.94 48.0999L195.624 52.9704L200.493 52.2859L199.809 47.4154L204.677 46.7309L203.993 41.8604L213.73 40.4914L218.52 74.5849L208.783 75.9539L206.046 56.4719L201.177 57.1564L202.545 66.8974L197.677 67.5819L196.308 57.8409L191.44 58.5254L194.177 78.0074L184.439 79.3764Z" stroke="#453262" stroke-width="2" mask="url(#path-3-outside-1_52_877)"/>
<path d="M253.477 69.6701L248.687 35.5767L277.899 31.4696L278.583 36.3401L283.452 35.6556L285.504 50.2671L280.636 50.9516L281.32 55.8221L261.846 58.5601L263.214 68.3011L253.477 69.6701ZM261.161 53.6896L275.767 51.6361L273.714 37.0246L259.109 39.0782L261.161 53.6896ZM298.073 63.4001L293.284 29.3066L303.021 27.9376L307.126 57.1606L326.601 54.4226L327.285 59.2931L298.073 63.4001ZM332.933 58.499L329.512 34.1465L334.38 33.4621L333.696 28.5916L338.565 27.9071L337.88 23.0366L352.486 20.983L353.171 25.8535L358.039 25.169L358.724 30.0395L363.592 29.355L367.013 53.7075L357.276 55.0765L355.908 45.3355L341.302 47.389L342.67 57.13L332.933 58.499ZM340.617 42.5185L355.223 40.465L353.855 30.724L348.986 31.4085L348.302 26.538L343.433 27.2225L344.118 32.093L339.249 32.7776L340.617 42.5185ZM387.267 50.86L383.161 21.637L373.424 23.006L372.74 18.1355L401.952 14.0285L402.636 18.899L392.899 20.268L397.004 49.491L387.267 50.86ZM412.389 47.3279L407.599 13.2345L441.68 8.44294L442.364 13.3134L418.021 16.736L419.389 26.4769L438.864 23.7389L439.548 28.6094L420.074 31.3474L422.126 45.9589L412.389 47.3279ZM456.986 41.0579L456.302 36.1874L451.433 36.8719L448.012 12.5194L452.88 11.8349L452.196 6.96442L476.539 3.5419L477.224 8.41239L482.092 7.72788L485.513 32.0804L480.645 32.7649L481.329 37.6354L456.986 41.0579ZM461.17 35.5029L475.776 33.4494L472.355 9.09689L457.749 11.1504L461.17 35.5029ZM491.845 36.1568L487.056 2.06337L516.267 -2.04365L516.952 2.82684L521.82 2.14233L523.873 16.7538L514.136 18.1228L514.82 22.9933L519.689 22.3088L520.373 27.1793L525.242 26.4948L525.926 31.3653L511.32 33.4188L510.636 28.5483L505.767 29.2328L505.083 24.3623L500.214 25.0468L501.583 34.7878L491.845 36.1568ZM499.53 20.1763L509.267 18.8073L508.583 13.9368L513.452 13.2523L512.083 3.51134L497.477 5.56485L499.53 20.1763ZM531.573 30.5713L526.784 -3.52219L536.521 -4.89119L537.205 -0.0206985L542.074 -0.705193L542.758 4.1653L547.627 3.48079L546.943 -1.3897L551.811 -2.0742L551.127 -6.94469L560.864 -8.31371L565.654 25.7798L555.917 27.1488L553.18 7.66679L548.311 8.35129L549.679 18.0923L544.811 18.7768L543.442 9.0358L538.574 9.7203L541.311 29.2023L531.573 30.5713Z" stroke="#453262" stroke-width="2" mask="url(#path-3-outside-1_52_877)"/>
<path d="M600.611 20.865L595.821 -13.2284L625.033 -17.3355L625.717 -12.465L630.586 -13.1495L632.638 1.46202L627.77 2.14651L628.454 7.01701L608.979 9.75504L610.348 19.496L600.611 20.865ZM608.295 4.88453L622.901 2.83102L620.849 -11.7805L606.243 -9.72695L608.295 4.88453ZM645.207 14.595L640.418 -19.4985L650.155 -20.8675L654.26 8.35548L673.735 5.61746L674.419 10.488L645.207 14.595ZM680.067 9.69393L676.646 -14.6585L681.514 -15.343L680.83 -20.2135L685.699 -20.8981L685.015 -25.7685L699.62 -27.8221L700.305 -22.9516L705.173 -23.6361L705.858 -18.7656L710.726 -19.4501L714.147 4.90241L704.41 6.27142L703.042 -3.46958L688.436 -1.41607L689.804 8.32493L680.067 9.69393ZM687.751 -6.28656L702.357 -8.34007L700.989 -18.0811L696.12 -17.3966L695.436 -22.2671L690.567 -21.5826L691.252 -16.7121L686.383 -16.0275L687.751 -6.28656ZM734.401 2.05487L730.295 -27.1681L720.558 -25.7991L719.874 -30.6696L749.086 -34.7766L749.77 -29.9061L740.033 -28.5371L744.138 0.68586L734.401 2.05487ZM759.523 -1.47717L754.733 -35.5706L788.814 -40.3622L789.498 -35.4917L765.155 -32.0691L766.523 -22.3282L785.998 -25.0662L786.682 -20.1957L767.208 -17.4577L769.26 -2.84617L759.523 -1.47717ZM804.12 -7.74722L803.436 -12.6177L798.567 -11.9332L795.146 -36.2857L800.014 -36.9702L799.33 -41.8407L823.673 -45.2632L824.358 -40.3927L829.226 -41.0772L832.647 -16.7247L827.779 -16.0402L828.463 -11.1697L804.12 -7.74722ZM808.304 -13.3022L822.91 -15.3557L819.489 -39.7082L804.883 -37.6547L808.304 -13.3022ZM838.979 -12.6483L834.19 -46.7417L863.401 -50.8488L864.086 -45.9783L868.954 -46.6628L871.007 -32.0513L861.27 -30.6823L861.954 -25.8118L866.823 -26.4963L867.507 -21.6258L872.376 -22.3103L873.06 -17.4398L858.454 -15.3863L857.77 -20.2568L852.901 -19.5723L852.217 -24.4428L847.348 -23.7583L848.717 -14.0173L838.979 -12.6483ZM846.664 -28.6288L856.401 -29.9978L855.717 -34.8683L860.586 -35.5528L859.217 -45.2938L844.611 -43.2402L846.664 -28.6288ZM878.707 -18.2338L873.918 -52.3273L883.655 -53.6963L884.339 -48.8258L889.208 -49.5103L889.892 -44.6398L894.761 -45.3243L894.077 -50.1948L898.945 -50.8793L898.261 -55.7498L907.998 -57.1188L912.788 -23.0253L903.051 -21.6563L900.314 -41.1383L895.445 -40.4538L896.813 -30.7128L891.945 -30.0283L890.576 -39.7693L885.708 -39.0848L888.445 -19.6028L878.707 -18.2338Z" stroke="#453262" stroke-width="2" mask="url(#path-3-outside-1_52_877)"/>
<path d="M-85.1042 179.356L-89.8939 145.263L-60.6821 141.156L-59.9978 146.026L-55.1292 145.342L-53.0765 159.953L-57.9451 160.638L-57.2609 165.508L-76.7354 168.246L-75.367 177.987L-85.1042 179.356ZM-77.4197 163.376L-62.8138 161.322L-64.8665 146.711L-79.4724 148.764L-77.4197 163.376ZM-40.5075 173.086L-45.2972 138.993L-35.5599 137.624L-31.4545 166.847L-11.9799 164.109L-11.2957 168.979L-40.5075 173.086ZM-5.64804 168.185L-9.06925 143.833L-4.20061 143.148L-4.88486 138.278L-0.0162201 137.593L-0.700462 132.723L13.9055 130.669L14.5897 135.54L19.4583 134.855L20.1426 139.726L25.0112 139.041L28.4324 163.394L18.6952 164.763L17.3267 155.022L2.72076 157.075L4.08924 166.816L-5.64804 168.185ZM2.03651 152.205L16.6424 150.151L15.2739 140.41L10.4053 141.095L9.72106 136.224L4.85242 136.909L5.53667 141.779L0.668022 142.464L2.03651 152.205ZM48.686 160.546L44.5805 131.323L34.8432 132.692L34.159 127.822L63.3708 123.715L64.0551 128.585L54.3178 129.954L58.4233 159.177L48.686 160.546ZM73.8082 157.014L69.0184 122.921L103.099 118.129L103.783 123L79.44 126.422L80.8085 136.163L100.283 133.425L100.967 138.296L81.4927 141.034L83.5454 155.645L73.8082 157.014ZM118.405 150.744L117.721 145.874L112.852 146.558L109.431 122.206L114.299 121.521L113.615 116.651L137.958 113.228L138.643 118.099L143.511 117.414L146.933 141.767L142.064 142.451L142.748 147.322L118.405 150.744ZM122.589 145.189L137.195 143.136L133.774 118.783L119.168 120.837L122.589 145.189ZM153.264 145.843L148.475 111.75L177.686 107.643L178.371 112.513L183.239 111.829L185.292 126.44L175.555 127.809L176.239 132.68L181.108 131.995L181.792 136.866L186.661 136.181L187.345 141.052L172.739 143.105L172.055 138.235L167.186 138.919L166.502 134.049L161.633 134.733L163.002 144.474L153.264 145.843ZM160.949 129.863L170.686 128.494L170.002 123.623L174.871 122.939L173.502 113.198L158.896 115.251L160.949 129.863ZM192.992 140.258L188.203 106.164L197.94 104.795L198.624 109.666L203.493 108.981L204.177 113.852L209.046 113.167L208.362 108.297L213.23 107.612L212.546 102.742L222.283 101.373L227.073 135.466L217.336 136.835L214.599 117.353L209.73 118.038L211.099 127.779L206.23 128.463L204.861 118.722L199.993 119.407L202.73 138.889L192.992 140.258Z" stroke="#453262" stroke-width="2" mask="url(#path-3-outside-1_52_877)"/>
<path d="M262.03 130.551L257.24 96.4579L286.452 92.3508L287.136 97.2213L292.005 96.5368L294.058 111.148L289.189 111.833L289.873 116.703L270.399 119.441L271.767 129.182L262.03 130.551ZM269.714 114.571L284.32 112.517L282.267 97.9058L267.662 99.9594L269.714 114.571ZM306.626 124.281L301.837 90.1878L311.574 88.8188L315.68 118.042L335.154 115.304L335.838 120.174L306.626 124.281ZM341.486 119.38L338.065 95.0277L342.933 94.3432L342.249 89.4727L347.118 88.7883L346.434 83.9178L361.039 81.8642L361.724 86.7347L366.592 86.0502L367.277 90.9207L372.145 90.2362L375.566 114.589L365.829 115.958L364.461 106.217L349.855 108.27L351.223 118.011L341.486 119.38ZM349.171 103.4L363.776 101.346L362.408 91.6052L357.539 92.2897L356.855 87.4192L351.986 88.1037L352.671 92.9742L347.802 93.6587L349.171 103.4ZM395.82 111.741L391.715 82.5182L381.977 83.8872L381.293 79.0167L410.505 74.9097L411.189 79.7802L401.452 81.1492L405.557 110.372L395.82 111.741ZM420.942 108.209L416.152 74.1157L450.233 69.3241L450.917 74.1946L426.574 77.6171L427.942 87.3581L447.417 84.6201L448.101 89.4906L428.627 92.2286L430.679 106.84L420.942 108.209ZM465.539 101.939L464.855 97.0686L459.986 97.7531L456.565 73.4006L461.433 72.7161L460.749 67.8456L485.092 64.4231L485.777 69.2936L490.645 68.6091L494.066 92.9616L489.198 93.6461L489.882 98.5166L465.539 101.939ZM469.723 96.3841L484.329 94.3306L480.908 69.9781L466.302 72.0316L469.723 96.3841ZM500.398 97.038L495.609 62.9446L524.82 58.8375L525.505 63.708L530.373 63.0235L532.426 77.635L522.689 79.004L523.373 83.8745L528.242 83.19L528.926 88.0605L533.795 87.376L534.479 92.2465L519.873 94.3L519.189 89.4295L514.32 90.114L513.636 85.2435L508.767 85.928L510.136 95.669L500.398 97.038ZM508.083 81.0575L517.82 79.6885L517.136 74.818L522.005 74.1335L520.636 64.3925L506.03 66.446L508.083 81.0575ZM540.126 91.4525L535.337 57.359L545.074 55.99L545.758 60.8605L550.627 60.176L551.311 65.0465L556.18 64.362L555.496 59.4915L560.364 58.807L559.68 53.9365L569.417 52.5675L574.207 86.661L564.47 88.03L561.733 68.548L556.864 69.2325L558.233 78.9735L553.364 79.658L551.995 69.917L547.127 70.6015L549.864 90.0835L540.126 91.4525Z" stroke="#453262" stroke-width="2" mask="url(#path-3-outside-1_52_877)"/>
<path d="M609.164 81.7462L604.374 47.6528L633.586 43.5457L634.27 48.4162L639.139 47.7317L641.192 62.3432L636.323 63.0277L637.007 67.8982L617.533 70.6362L618.901 80.3772L609.164 81.7462ZM616.848 65.7657L631.454 63.7122L629.401 49.1007L614.796 51.1542L616.848 65.7657Z" stroke="#453262" stroke-width="2" mask="url(#path-3-outside-1_52_877)"/>
<path d="M653.76 75.4762L648.971 41.3827L658.708 40.0137L662.814 69.2367L682.288 66.4987L682.972 71.3692L653.76 75.4762Z" stroke="#453262" stroke-width="2" mask="url(#path-3-outside-1_52_877)"/>
<path d="M688.62 70.5751L685.199 46.2227L690.067 45.5381L689.383 40.6676L694.252 39.9831L693.568 35.1126L708.173 33.0591L708.858 37.9296L713.726 37.2451L714.411 42.1156L719.279 41.4311L722.7 65.7836L712.963 67.1526L711.595 57.4116L696.989 59.4651L698.357 69.2061L688.62 70.5751ZM696.305 54.5946L710.91 52.5411L709.542 42.8001L704.673 43.4846L703.989 38.6141L699.12 39.2986L699.805 44.1691L694.936 44.8536L696.305 54.5946Z" stroke="#453262" stroke-width="2" mask="url(#path-3-outside-1_52_877)"/>
<path d="M742.954 62.9361L738.849 33.7131L729.111 35.0821L728.427 30.2116L757.639 26.1046L758.323 30.9751L748.586 32.3441L752.691 61.5671L742.954 62.9361Z" stroke="#453262" stroke-width="2" mask="url(#path-3-outside-1_52_877)"/>
<path d="M768.076 59.404L763.286 25.3106L797.367 20.519L798.051 25.3895L773.708 28.812L775.076 38.553L794.551 35.815L795.235 40.6855L775.761 43.4235L777.813 58.035L768.076 59.404Z" stroke="#453262" stroke-width="2" mask="url(#path-3-outside-1_52_877)"/>
<path d="M812.673 53.134L811.989 48.2635L807.12 48.948L803.699 24.5955L808.567 23.911L807.883 19.0405L832.226 15.618L832.911 20.4885L837.779 19.804L841.2 44.1564L836.332 44.841L837.016 49.7115L812.673 53.134ZM816.857 47.579L831.463 45.5255L828.042 21.173L813.436 23.2265L816.857 47.579Z" stroke="#453262" stroke-width="2" mask="url(#path-3-outside-1_52_877)"/>
<path d="M847.532 48.2329L842.743 14.1395L871.954 10.0324L872.639 14.9029L877.507 14.2184L879.56 28.8299L869.823 30.1989L870.507 35.0694L875.376 34.3849L876.06 39.2554L880.929 38.5709L881.613 43.4414L867.007 45.4949L866.323 40.6244L861.454 41.3089L860.77 36.4384L855.901 37.1229L857.27 46.8639L847.532 48.2329ZM855.217 32.2524L864.954 30.8834L864.27 26.0129L869.139 25.3284L867.77 15.5874L853.164 17.6409L855.217 32.2524Z" stroke="#453262" stroke-width="2" mask="url(#path-3-outside-1_52_877)"/>
<path d="M887.26 42.6474L882.471 8.55392L892.208 7.18491L892.892 12.0554L897.761 11.3709L898.445 16.2414L903.314 15.5569L902.63 10.6864L907.498 10.0019L906.814 5.13139L916.551 3.76239L921.341 37.8559L911.604 39.2249L908.867 19.7429L903.998 20.4274L905.367 30.1684L900.498 30.8529L899.129 21.1119L894.261 21.7964L896.998 41.2784L887.26 42.6474Z" stroke="#453262" stroke-width="2" mask="url(#path-3-outside-1_52_877)"/>
<path d="M-76.5512 240.238L-81.3409 206.144L-52.1291 202.037L-51.4448 206.908L-46.5762 206.223L-44.5234 220.835L-49.3921 221.519L-48.7078 226.39L-68.1824 229.128L-66.8139 238.869L-76.5512 240.238ZM-68.8666 224.257L-54.2607 222.204L-56.3135 207.592L-70.9194 209.646L-68.8666 224.257ZM-31.9545 233.968L-36.7442 199.874L-27.0069 198.505L-22.9014 227.728L-3.42686 224.99L-2.74262 229.861L-31.9545 233.968ZM2.905 229.067L-0.51622 204.714L4.35242 204.03L3.66817 199.159L8.53682 198.475L7.85258 193.604L22.4585 191.551L23.1427 196.421L28.0114 195.737L28.6956 200.607L33.5643 199.923L36.9855 224.275L27.2482 225.644L25.8797 215.903L11.2738 217.957L12.6423 227.698L2.905 229.067ZM10.5895 213.086L25.1955 211.033L23.827 201.292L18.9583 201.976L18.2741 197.106L13.4055 197.79L14.0897 202.661L9.22105 203.345L10.5895 213.086ZM57.239 221.427L53.1336 192.204L43.3963 193.573L42.712 188.703L71.9239 184.596L72.6081 189.466L62.8708 190.835L66.9763 220.058L57.239 221.427ZM82.3612 217.895L77.5715 183.802L111.652 179.01L112.336 183.881L87.993 187.303L89.3615 197.044L108.836 194.306L109.52 199.177L90.0457 201.915L92.0985 216.526L82.3612 217.895ZM126.958 211.625L126.274 206.755L121.405 207.439L117.984 183.087L122.852 182.402L122.168 177.532L146.511 174.109L147.196 178.98L152.064 178.295L155.486 202.648L150.617 203.332L151.301 208.203L126.958 211.625ZM131.142 206.07L145.748 204.017L142.327 179.664L127.721 181.718L131.142 206.07ZM161.817 206.724L157.028 172.631L186.24 168.524L186.924 173.394L191.792 172.71L193.845 187.321L184.108 188.69L184.792 193.561L189.661 192.876L190.345 197.747L195.214 197.062L195.898 201.933L181.292 203.986L180.608 199.116L175.739 199.8L175.055 194.93L170.186 195.614L171.555 205.355L161.817 206.724ZM169.502 190.744L179.239 189.375L178.555 184.504L183.424 183.82L182.055 174.079L167.449 176.132L169.502 190.744ZM201.546 201.139L196.756 167.045L206.493 165.676L207.177 170.547L212.046 169.862L212.73 174.733L217.599 174.048L216.915 169.178L221.783 168.493L221.099 163.623L230.836 162.254L235.626 196.347L225.889 197.716L223.152 178.234L218.283 178.919L219.652 188.66L214.783 189.344L213.414 179.603L208.546 180.288L211.283 199.77L201.546 201.139Z" stroke="#453262" stroke-width="2" mask="url(#path-3-outside-1_52_877)"/>
<path d="M270.583 191.433L265.793 157.339L295.005 153.232L295.689 158.103L300.558 157.418L302.611 172.029L297.742 172.714L298.426 177.585L278.952 180.323L280.32 190.064L270.583 191.433ZM278.267 175.452L292.873 173.399L290.821 158.787L276.215 160.841L278.267 175.452Z" stroke="#453262" stroke-width="2" mask="url(#path-3-outside-1_52_877)"/>
<path d="M315.18 185.162L310.39 151.069L320.127 149.7L324.233 178.923L343.707 176.185L344.391 181.055L315.18 185.162Z" stroke="#453262" stroke-width="2" mask="url(#path-3-outside-1_52_877)"/>
<path d="M350.039 180.261L346.618 155.909L351.486 155.224L350.802 150.354L355.671 149.669L354.987 144.799L369.592 142.745L370.277 147.616L375.145 146.931L375.83 151.802L380.698 151.117L384.119 175.47L374.382 176.839L373.014 167.098L358.408 169.151L359.776 178.892L350.039 180.261ZM357.724 164.281L372.329 162.227L370.961 152.486L366.092 153.171L365.408 148.3L360.539 148.985L361.224 153.855L356.355 154.54L357.724 164.281Z" stroke="#453262" stroke-width="2" mask="url(#path-3-outside-1_52_877)"/>
<path d="M404.373 172.622L400.268 143.399L390.53 144.768L389.846 139.898L419.058 135.791L419.742 140.661L410.005 142.03L414.11 171.253L404.373 172.622Z" stroke="#453262" stroke-width="2" mask="url(#path-3-outside-1_52_877)"/>
<path d="M429.495 169.09L424.705 134.997L458.786 130.205L459.47 135.076L435.127 138.498L436.495 148.239L455.97 145.501L456.654 150.372L437.18 153.11L439.232 167.721L429.495 169.09Z" stroke="#453262" stroke-width="2" mask="url(#path-3-outside-1_52_877)"/>
<path d="M474.092 162.82L473.408 157.95L468.539 158.634L465.118 134.282L469.986 133.597L469.302 128.727L493.645 125.304L494.33 130.175L499.198 129.49L502.62 153.843L497.751 154.527L498.435 159.398L474.092 162.82ZM478.276 157.265L492.882 155.212L489.461 130.859L474.855 132.913L478.276 157.265Z" stroke="#453262" stroke-width="2" mask="url(#path-3-outside-1_52_877)"/>
<path d="M508.951 157.919L504.162 123.826L533.373 119.719L534.058 124.589L538.926 123.905L540.979 138.516L531.242 139.885L531.926 144.756L536.795 144.071L537.479 148.942L542.348 148.257L543.032 153.128L528.426 155.181L527.742 150.311L522.873 150.995L522.189 146.125L517.32 146.809L518.689 156.55L508.951 157.919ZM516.636 141.939L526.373 140.57L525.689 135.699L530.558 135.015L529.189 125.274L514.583 127.327L516.636 141.939Z" stroke="#453262" stroke-width="2" mask="url(#path-3-outside-1_52_877)"/>
<path d="M548.68 152.334L543.89 118.24L553.627 116.871L554.311 121.742L559.18 121.057L559.864 125.928L564.733 125.243L564.049 120.373L568.917 119.688L568.233 114.818L577.97 113.449L582.76 147.542L573.023 148.911L570.286 129.429L565.417 130.114L566.786 139.855L561.917 140.539L560.548 130.798L555.68 131.483L558.417 150.965L548.68 152.334Z" stroke="#453262" stroke-width="2" mask="url(#path-3-outside-1_52_877)"/>
<path d="M617.717 142.627L612.927 108.534L642.139 104.427L642.823 109.297L647.692 108.613L649.745 123.224L644.876 123.909L645.56 128.779L626.086 131.517L627.454 141.258L617.717 142.627ZM625.401 126.647L640.007 124.593L637.955 109.982L623.349 112.035L625.401 126.647ZM662.314 136.357L657.524 102.264L667.261 100.895L671.367 130.118L690.841 127.38L691.525 132.25L662.314 136.357ZM697.173 131.456L693.752 107.104L698.62 106.419L697.936 101.549L702.805 100.864L702.121 95.9938L716.726 93.9403L717.411 98.8108L722.279 98.1263L722.964 102.997L727.832 102.312L731.253 126.665L721.516 128.034L720.148 118.293L705.542 120.346L706.91 130.087L697.173 131.456ZM704.857 115.476L719.464 113.422L718.095 103.681L713.226 104.366L712.542 99.4953L707.673 100.18L708.358 105.05L703.489 105.735L704.857 115.476ZM751.507 123.817L747.402 94.5943L737.664 95.9633L736.98 91.0928L766.192 86.9858L766.876 91.8563L757.139 93.2253L761.244 122.448L751.507 123.817ZM776.629 120.285L771.839 86.1917L805.92 81.4002L806.604 86.2707L782.261 89.6932L783.63 99.4342L803.104 96.6962L803.788 101.567L784.314 104.305L786.366 118.916L776.629 120.285ZM821.226 114.015L820.542 109.145L815.673 109.829L812.252 85.4767L817.12 84.7922L816.436 79.9217L840.779 76.4992L841.464 81.3697L846.332 80.6852L849.753 105.038L844.885 105.722L845.569 110.593L821.226 114.015ZM825.41 108.46L840.016 106.407L836.595 82.0542L821.989 84.1077L825.41 108.46ZM856.085 109.114L851.296 75.0206L880.508 70.9136L881.192 75.7841L886.06 75.0996L888.113 89.7111L878.376 91.0801L879.06 95.9506L883.929 95.2661L884.613 100.137L889.482 99.4521L890.166 104.323L875.56 106.376L874.876 101.506L870.007 102.19L869.323 97.3196L864.454 98.0041L865.823 107.745L856.085 109.114ZM863.77 93.1336L873.507 91.7646L872.823 86.8941L877.692 86.2096L876.323 76.4686L861.717 78.5221L863.77 93.1336ZM895.813 103.529L891.024 69.4351L900.761 68.0661L901.445 72.9366L906.314 72.2521L906.998 77.1226L911.867 76.4381L911.183 71.5676L916.051 70.8831L915.367 66.0126L925.104 64.6436L929.894 98.737L920.157 100.106L917.42 80.6241L912.551 81.3086L913.92 91.0496L909.051 91.7341L907.682 81.9931L902.814 82.6776L905.551 102.16L895.813 103.529Z" stroke="#453262" stroke-width="2" mask="url(#path-3-outside-1_52_877)"/>
<path d="M-67.9982 301.119L-72.7879 267.025L-43.576 262.918L-42.8918 267.789L-38.0231 267.104L-35.9704 281.716L-40.8391 282.4L-40.1548 287.271L-59.6294 290.009L-58.2609 299.75L-67.9982 301.119ZM-60.3136 285.138L-45.7077 283.085L-47.7604 268.473L-62.3663 270.527L-60.3136 285.138ZM-23.4014 294.849L-28.1911 260.755L-18.4538 259.386L-14.3484 288.609L5.12617 285.871L5.81041 290.742L-23.4014 294.849ZM11.458 289.948L8.03681 265.595L12.9055 264.911L12.2212 260.04L17.0899 259.356L16.4056 254.485L31.0115 252.432L31.6958 257.302L36.5644 256.618L37.2487 261.488L42.1173 260.804L45.5385 285.156L35.8012 286.525L34.4327 276.784L19.8268 278.838L21.1953 288.579L11.458 289.948ZM19.1426 273.967L33.7485 271.914L32.38 262.173L27.5114 262.857L26.8271 257.987L21.9585 258.671L22.6427 263.542L17.7741 264.226L19.1426 273.967ZM65.7921 282.309L61.6866 253.086L51.9493 254.455L51.2651 249.584L80.4769 245.477L81.1611 250.348L71.4239 251.717L75.5293 280.94L65.7921 282.309ZM90.9142 278.777L86.1245 244.683L120.205 239.892L120.889 244.762L96.5461 248.185L97.9145 257.926L117.389 255.188L118.073 260.058L98.5988 262.796L100.652 277.408L90.9142 278.777ZM135.511 272.507L134.827 267.636L129.958 268.321L126.537 243.968L131.406 243.284L130.721 238.413L155.064 234.991L155.749 239.861L160.617 239.177L164.039 263.529L159.17 264.214L159.854 269.084L135.511 272.507ZM139.695 266.952L154.301 264.898L150.88 240.546L136.274 242.599L139.695 266.952ZM170.37 267.605L165.581 233.512L194.793 229.405L195.477 234.276L200.345 233.591L202.398 248.203L192.661 249.572L193.345 254.442L198.214 253.758L198.898 258.628L203.767 257.944L204.451 262.814L189.845 264.868L189.161 259.997L184.292 260.682L183.608 255.811L178.739 256.496L180.108 266.237L170.37 267.605ZM178.055 251.625L187.792 250.256L187.108 245.386L191.977 244.701L190.608 234.96L176.002 237.014L178.055 251.625ZM210.099 262.02L205.309 227.926L215.046 226.557L215.73 231.428L220.599 230.743L221.283 235.614L226.152 234.929L225.468 230.059L230.336 229.374L229.652 224.504L239.389 223.135L244.179 257.228L234.442 258.597L231.705 239.115L226.836 239.8L228.205 249.541L223.336 250.225L221.967 240.484L217.099 241.169L219.836 260.651L210.099 262.02Z" stroke="#453262" stroke-width="2" mask="url(#path-3-outside-1_52_877)"/>
<path d="M279.136 252.314L274.346 218.22L303.558 214.113L304.242 218.984L309.111 218.299L311.164 232.911L306.295 233.595L306.979 238.466L287.505 241.204L288.873 250.945L279.136 252.314ZM286.82 236.333L301.426 234.28L299.374 219.668L284.768 221.722L286.82 236.333ZM323.733 246.044L318.943 211.95L328.68 210.581L332.786 239.804L352.26 237.066L352.944 241.937L323.733 246.044ZM358.592 241.143L355.171 216.79L360.039 216.106L359.355 211.235L364.224 210.551L363.54 205.68L378.146 203.627L378.83 208.497L383.698 207.813L384.383 212.683L389.251 211.999L392.673 236.351L382.935 237.72L381.567 227.979L366.961 230.033L368.329 239.774L358.592 241.143ZM366.277 225.162L380.882 223.109L379.514 213.368L374.645 214.052L373.961 209.182L369.092 209.866L369.777 214.737L364.908 215.421L366.277 225.162ZM412.926 233.504L408.821 204.281L399.083 205.65L398.399 200.779L427.611 196.672L428.295 201.543L418.558 202.912L422.663 232.135L412.926 233.504ZM438.048 229.972L433.259 195.878L467.339 191.087L468.023 195.957L443.68 199.38L445.049 209.121L464.523 206.383L465.207 211.253L445.733 213.991L447.785 228.603L438.048 229.972ZM482.645 223.701L481.961 218.831L477.092 219.515L473.671 195.163L478.539 194.478L477.855 189.608L502.198 186.185L502.883 191.056L507.751 190.371L511.173 214.724L506.304 215.408L506.988 220.279L482.645 223.701ZM486.829 218.146L501.435 216.093L498.014 191.74L483.408 193.794L486.829 218.146ZM517.504 218.8L512.715 184.707L541.927 180.6L542.611 185.47L547.479 184.786L549.532 199.397L539.795 200.766L540.479 205.637L545.348 204.952L546.032 209.823L550.901 209.138L551.585 214.009L536.979 216.062L536.295 211.192L531.426 211.876L530.742 207.006L525.873 207.69L527.242 217.431L517.504 218.8ZM525.189 202.82L534.926 201.451L534.242 196.58L539.111 195.896L537.742 186.155L523.136 188.208L525.189 202.82ZM557.232 213.215L552.443 179.121L562.18 177.752L562.864 182.623L567.733 181.938L568.417 186.809L573.286 186.124L572.602 181.254L577.47 180.569L576.786 175.699L586.523 174.33L591.313 208.423L581.576 209.792L578.839 190.31L573.97 190.995L575.339 200.736L570.47 201.42L569.101 191.679L564.233 192.364L566.97 211.846L557.232 213.215Z" stroke="#453262" stroke-width="2" mask="url(#path-3-outside-1_52_877)"/>
<path d="M626.27 203.509L621.48 169.415L650.692 165.308L651.376 170.179L656.245 169.494L658.298 184.106L653.429 184.79L654.113 189.661L634.639 192.399L636.007 202.14L626.27 203.509ZM633.954 187.528L648.56 185.475L646.508 170.863L631.902 172.917L633.954 187.528ZM670.867 197.239L666.077 163.145L675.814 161.776L679.92 190.999L699.394 188.261L700.078 193.132L670.867 197.239ZM705.726 192.338L702.305 167.985L707.173 167.301L706.489 162.43L711.358 161.746L710.674 156.875L725.28 154.822L725.964 159.692L730.832 159.008L731.517 163.878L736.385 163.193L739.807 187.546L730.069 188.915L728.701 179.174L714.095 181.228L715.463 190.969L705.726 192.338ZM713.411 176.357L728.016 174.304L726.648 164.563L721.779 165.247L721.095 160.377L716.226 161.061L716.911 165.932L712.042 166.616L713.411 176.357ZM760.06 184.698L755.955 155.475L746.217 156.844L745.533 151.974L774.745 147.867L775.429 152.737L765.692 154.106L769.797 183.329L760.06 184.698ZM785.182 181.166L780.393 147.073L814.473 142.281L815.157 147.152L790.814 150.574L792.182 160.315L811.657 157.577L812.341 162.448L792.867 165.186L794.919 179.797L785.182 181.166ZM829.779 174.896L829.095 170.026L824.226 170.71L820.805 146.358L825.674 145.673L824.989 140.803L849.332 137.38L850.017 142.251L854.885 141.566L858.307 165.919L853.438 166.603L854.122 171.474L829.779 174.896ZM833.963 169.341L848.569 167.288L845.148 142.935L830.542 144.989L833.963 169.341ZM864.638 169.995L859.849 135.902L889.061 131.795L889.745 136.665L894.613 135.981L896.666 150.592L886.929 151.961L887.613 156.832L892.482 156.147L893.166 161.018L898.035 160.333L898.719 165.204L884.113 167.257L883.429 162.387L878.56 163.071L877.876 158.201L873.007 158.885L874.376 168.626L864.638 169.995ZM872.323 154.015L882.06 152.646L881.376 147.775L886.245 147.091L884.876 137.35L870.27 139.403L872.323 154.015ZM904.367 164.41L899.577 130.316L909.314 128.947L909.998 133.818L914.867 133.133L915.551 138.004L920.42 137.319L919.736 132.449L924.604 131.764L923.92 126.894L933.657 125.525L938.447 159.618L928.71 160.987L925.973 141.505L921.104 142.19L922.473 151.931L917.604 152.615L916.235 142.874L911.367 143.559L914.104 163.041L904.367 164.41Z" stroke="#453262" stroke-width="2" mask="url(#path-3-outside-1_52_877)"/>
<path d="M-59.4451 362L-64.2348 327.907L-35.023 323.8L-34.3387 328.67L-29.4701 327.986L-27.4174 342.597L-32.286 343.281L-31.6018 348.152L-51.0763 350.89L-49.7079 360.631L-59.4451 362ZM-51.7606 346.02L-37.1547 343.966L-39.2074 329.354L-53.8133 331.408L-51.7606 346.02ZM-14.8484 355.73L-19.6381 321.636L-9.90082 320.267L-5.79536 349.49L13.6792 346.752L14.3634 351.623L-14.8484 355.73ZM20.0111 350.829L16.5899 326.476L21.4585 325.792L20.7742 320.921L25.6429 320.237L24.9586 315.366L39.5646 313.313L40.2488 318.183L45.1174 317.499L45.8017 322.369L50.6703 321.685L54.0915 346.037L44.3543 347.406L42.9858 337.665L28.3799 339.719L29.7484 349.46L20.0111 350.829ZM27.6956 334.848L42.3015 332.795L40.933 323.054L36.0644 323.738L35.3802 318.868L30.5115 319.552L31.1958 324.423L26.3271 325.107L27.6956 334.848ZM74.3451 343.19L70.2396 313.967L60.5023 315.336L59.8181 310.465L89.0299 306.358L89.7142 311.229L79.9769 312.598L84.0824 341.821L74.3451 343.19ZM99.4673 339.658L94.6776 305.564L128.758 300.773L129.442 305.643L105.099 309.066L106.468 318.807L125.942 316.069L126.626 320.939L107.152 323.677L109.205 338.289L99.4673 339.658ZM144.064 333.388L143.38 328.517L138.511 329.202L135.09 304.849L139.959 304.165L139.274 299.294L163.617 295.872L164.302 300.742L169.17 300.058L172.592 324.41L167.723 325.095L168.407 329.965L144.064 333.388ZM148.248 327.833L162.854 325.779L159.433 301.427L144.827 303.48L148.248 327.833ZM178.923 328.487L174.134 294.393L203.346 290.286L204.03 295.157L208.898 294.472L210.951 309.084L201.214 310.453L201.898 315.323L206.767 314.639L207.451 319.509L212.32 318.825L213.004 323.695L198.398 325.749L197.714 320.878L192.845 321.563L192.161 316.692L187.292 317.377L188.661 327.118L178.923 328.487ZM186.608 312.506L196.345 311.137L195.661 306.267L200.53 305.582L199.161 295.841L184.555 297.895L186.608 312.506ZM218.652 322.901L213.862 288.808L223.599 287.439L224.283 292.309L229.152 291.625L229.836 296.495L234.705 295.811L234.021 290.94L238.889 290.256L238.205 285.385L247.942 284.016L252.732 318.11L242.995 319.479L240.258 299.997L235.389 300.681L236.758 310.422L231.889 311.107L230.521 301.366L225.652 302.05L228.389 321.532L218.652 322.901Z" stroke="#453262" stroke-width="2" mask="url(#path-3-outside-1_52_877)"/>
<path d="M287.689 313.195L282.899 279.101L312.111 274.994L312.795 279.865L317.664 279.18L319.717 293.792L314.848 294.476L315.532 299.347L296.058 302.085L297.426 311.826L287.689 313.195ZM295.373 297.214L309.979 295.161L307.927 280.549L293.321 282.603L295.373 297.214ZM332.286 306.925L327.496 272.831L337.233 271.462L341.339 300.685L360.813 297.947L361.497 302.818L332.286 306.925ZM367.145 302.024L363.724 277.671L368.592 276.987L367.908 272.116L372.777 271.432L372.093 266.561L386.699 264.508L387.383 269.378L392.251 268.694L392.936 273.564L397.804 272.88L401.226 297.232L391.488 298.601L390.12 288.86L375.514 290.914L376.882 300.655L367.145 302.024ZM374.83 286.043L389.436 283.99L388.067 274.249L383.198 274.933L382.514 270.063L377.646 270.747L378.33 275.618L373.461 276.302L374.83 286.043ZM421.479 294.385L417.374 265.162L407.636 266.531L406.952 261.66L436.164 257.553L436.848 262.424L427.111 263.793L431.216 293.016L421.479 294.385ZM446.601 290.853L441.812 256.759L475.892 251.968L476.576 256.838L452.233 260.261L453.602 270.002L473.076 267.264L473.76 272.134L454.286 274.872L456.339 289.484L446.601 290.853ZM491.198 284.583L490.514 279.712L485.645 280.397L482.224 256.044L487.093 255.36L486.408 250.489L510.751 247.067L511.436 251.937L516.304 251.253L519.726 275.605L514.857 276.29L515.541 281.16L491.198 284.583ZM495.382 279.028L509.988 276.974L506.567 252.622L491.961 254.675L495.382 279.028ZM526.057 279.682L521.268 245.588L550.48 241.481L551.164 246.352L556.032 245.667L558.085 260.279L548.348 261.648L549.032 266.518L553.901 265.834L554.585 270.704L559.454 270.02L560.138 274.89L545.532 276.944L544.848 272.073L539.979 272.758L539.295 267.887L534.426 268.572L535.795 278.313L526.057 279.682ZM533.742 263.701L543.479 262.332L542.795 257.462L547.664 256.777L546.295 247.036L531.689 249.09L533.742 263.701ZM565.786 274.096L560.996 240.003L570.733 238.634L571.417 243.504L576.286 242.82L576.97 247.69L581.839 247.006L581.155 242.135L586.023 241.451L585.339 236.58L595.076 235.211L599.866 269.305L590.129 270.674L587.392 251.192L582.523 251.876L583.892 261.617L579.023 262.302L577.655 252.561L572.786 253.245L575.523 272.727L565.786 274.096Z" stroke="#453262" stroke-width="2" mask="url(#path-3-outside-1_52_877)"/>
<path d="M634.823 264.39L630.033 230.296L659.245 226.189L659.929 231.06L664.798 230.375L666.851 244.987L661.982 245.671L662.666 250.542L643.192 253.28L644.56 263.021L634.823 264.39ZM642.507 248.409L657.113 246.356L655.061 231.744L640.455 233.798L642.507 248.409ZM679.42 258.12L674.63 224.026L684.367 222.657L688.473 251.88L707.947 249.142L708.631 254.013L679.42 258.12ZM714.279 253.219L710.858 228.866L715.727 228.182L715.042 223.311L719.911 222.627L719.227 217.756L733.833 215.703L734.517 220.573L739.385 219.889L740.07 224.759L744.938 224.075L748.36 248.427L738.622 249.796L737.254 240.055L722.648 242.109L724.016 251.85L714.279 253.219ZM721.964 237.238L736.57 235.185L735.201 225.444L730.332 226.128L729.648 221.258L724.779 221.942L725.464 226.813L720.595 227.497L721.964 237.238ZM768.613 245.58L764.508 216.357L754.77 217.726L754.086 212.855L783.298 208.748L783.982 213.619L774.245 214.988L778.35 244.211L768.613 245.58ZM793.735 242.048L788.946 207.954L823.026 203.163L823.71 208.033L799.367 211.456L800.736 221.197L820.21 218.459L820.894 223.329L801.42 226.067L803.472 240.679L793.735 242.048ZM838.332 235.778L837.648 230.907L832.779 231.592L829.358 207.239L834.227 206.555L833.542 201.684L857.885 198.262L858.57 203.132L863.438 202.448L866.86 226.8L861.991 227.485L862.675 232.355L838.332 235.778ZM842.516 230.223L857.122 228.169L853.701 203.817L839.095 205.87L842.516 230.223ZM873.191 230.877L868.402 196.783L897.614 192.676L898.298 197.547L903.166 196.862L905.219 211.473L895.482 212.842L896.166 217.713L901.035 217.029L901.719 221.899L906.588 221.214L907.272 226.085L892.666 228.138L891.982 223.268L887.113 223.953L886.429 219.082L881.56 219.767L882.929 229.507L873.191 230.877ZM880.876 214.896L890.613 213.527L889.929 208.657L894.798 207.972L893.429 198.231L878.823 200.285L880.876 214.896ZM912.92 225.291L908.13 191.198L917.867 189.828L918.551 194.699L923.42 194.014L924.104 198.885L928.973 198.2L928.289 193.33L933.157 192.645L932.473 187.775L942.21 186.406L947 220.499L937.263 221.868L934.526 202.386L929.657 203.071L931.026 212.812L926.157 213.496L924.789 203.755L919.92 204.44L922.657 223.922L912.92 225.291Z" stroke="#453262" stroke-width="2" mask="url(#path-3-outside-1_52_877)"/>
<circle cx="170.81" cy="198.81" r="58.3095" fill="white" stroke="black"/>
<path d="M225.999 198.81C225.999 219.793 214.288 238.042 197.046 247.377C193.428 249.335 187.492 243.687 190.262 239.072C194.334 232.286 200.254 228.667 202.024 215.095C203.794 201.524 202.025 187.953 198.405 175.738C196.171 168.201 205.326 152.525 215.367 166.238C222.052 175.368 225.999 186.628 225.999 198.81Z" fill="#BA8FFF"/>
<circle cx="576.214" cy="32.2143" r="68.7143" fill="#BA8FFF" stroke="black"/>
<path d="M625.977 23.6191C602.453 46.2382 591.596 54.381 576.215 71.1191C565.174 83.1338 554.048 88.6949 545.001 86.6276C524.643 81.9762 511.524 54.361 511.524 29.9524C511.524 -5.77513 540.487 -34.738 576.215 -34.738C601.535 -34.738 623.457 -20.1916 634.081 1.00006C636.834 6.49221 634.492 15.4313 625.977 23.6191Z" fill="white"/>
</g>
<rect x="0.5" y="1" width="839" height="242" rx="39.5" stroke="black"/>
<defs>
<clipPath id="clip0_52_877">
<rect y="0.5" width="840" height="243" rx="40" fill="white"/>
</clipPath>
</defs>
</svg>
