<svg width="432" height="674" viewBox="0 0 432 674" fill="none" xmlns="http://www.w3.org/2000/svg">
<path d="M78.0617 352.838L236.49 262L393.196 352.838L413 444.537L393.574 433.344L394.057 536.236L236.49 627.505L76.3396 536.236V379.633L1 336.048L78.0617 352.838Z" fill="white"/>
<path d="M78.0616 352.838L236.49 262M78.0616 352.838L236.49 444.107M78.0616 352.838L1 336.048L76.3396 379.633M236.49 262L393.196 352.838M236.49 262V444.107M393.196 352.838L236.49 444.107M393.196 352.838L393.574 433.344M393.196 352.838L413 444.537L393.574 433.344M236.49 444.107V627.505M236.49 444.107L157.276 426.456L76.3396 379.633M236.49 627.505L394.057 536.236L393.574 433.344M236.49 627.505L76.3396 536.236V379.633" stroke="black"/>
<path d="M236.15 627.872V444.474L156.936 426.823L76 380V536.603L236.15 627.872Z" fill="black" stroke="black"/>
<path d="M236 444.269L392.706 353L393.084 433.506L393.567 536.398L236 627.667V444.269Z" fill="#BA8FFF" stroke="black"/>
<path d="M267.732 490V488L271.196 486V478L269.464 479V477L271.196 476V474L274.66 472V484L278.124 482V484L267.732 490ZM279.856 483V479L281.588 478V476L283.321 475V473L286.785 471V469L288.517 468V466L283.321 469V471L279.856 473V471L281.588 470V468L290.249 463V465L291.981 464V468L290.249 469V471L288.517 472V474L285.053 476V478L291.981 474V476L279.856 483ZM297.177 473V471L295.445 472V470L293.713 471V465L295.445 464V462L297.177 461V459L302.373 456V458L304.105 457V459L305.837 458V464L304.105 465V467L302.373 468V470L297.177 473ZM298.909 470L302.373 468V460L300.641 461V459L297.177 461V469L298.909 468V470ZM266 513V503L276.392 497V499L278.124 498V506L274.66 508V500L272.928 501V509L269.464 511V503L267.732 504V512L266 513ZM285.053 490V488L288.517 486V488L285.053 490ZM281.588 504V502L285.053 500V494L283.321 495V493L288.517 490V498L291.981 496V498L281.588 504ZM295.445 496V494L298.909 492V482L297.177 483V481L302.373 478V490L305.837 488V490L295.445 496ZM309.301 488V486L312.765 484V474L311.033 475V473L316.229 470V482L319.694 480V482L309.301 488ZM326.622 466V464L330.086 462V464L326.622 466ZM323.158 480V478L326.622 476V470L324.89 471V469L330.086 466V474L333.55 472V474L323.158 480ZM337.014 472V470L335.282 471V465L337.014 464V462L345.674 457V459L347.406 458V464L345.674 465V467L337.014 472ZM338.746 469L343.942 466V460L338.746 463V469ZM349.138 465V455L359.531 449V451L361.263 450V458L357.799 460V452L352.603 455V463L349.138 465Z" fill="black"/>
<path d="M267.382 541.202V531.402L270.559 529.568C271.278 529.153 271.896 528.931 272.414 528.903C272.931 528.866 273.327 529.02 273.602 529.365C273.885 529.696 274.026 530.217 274.026 530.926C274.026 531.617 273.885 532.296 273.602 532.963C273.327 533.616 272.931 534.228 272.414 534.797C271.896 535.357 271.278 535.845 270.559 536.26L267.879 537.807L268.279 537.1V540.684L267.382 541.202ZM273.178 537.856L270.995 535.56L271.965 535L274.16 537.289L273.178 537.856ZM268.279 537.184L267.879 536.925L270.535 535.392C271.383 534.902 272.026 534.316 272.462 533.635C272.907 532.949 273.129 532.219 273.129 531.444C273.129 530.66 272.907 530.182 272.462 530.009C272.026 529.832 271.383 529.988 270.535 530.478L267.879 532.011L268.279 531.29V537.184ZM278.666 534.757C278.003 535.14 277.421 535.317 276.92 535.289C276.419 535.252 276.027 535.035 275.744 534.638C275.461 534.232 275.319 533.665 275.319 532.937C275.319 532.209 275.453 531.488 275.72 530.774C275.994 530.056 276.366 529.402 276.835 528.814C277.312 528.212 277.845 527.741 278.435 527.4C279.034 527.055 279.563 526.908 280.024 526.959C280.493 526.997 280.86 527.223 281.127 527.638C281.394 528.044 281.527 528.616 281.527 529.353C281.527 529.4 281.523 529.454 281.515 529.514C281.515 529.561 281.515 529.612 281.515 529.668L275.974 532.867V532.125L281.054 529.192L280.715 529.682C280.715 529.15 280.614 528.737 280.412 528.443C280.218 528.135 279.951 527.963 279.611 527.925C279.272 527.888 278.88 527.998 278.435 528.254C277.999 528.506 277.607 528.849 277.259 529.283C276.912 529.717 276.641 530.2 276.447 530.732C276.253 531.264 276.156 531.801 276.156 532.342V532.496C276.156 533.056 276.261 533.49 276.471 533.798C276.69 534.092 276.989 534.251 277.368 534.274C277.756 534.284 278.197 534.146 278.69 533.861C279.078 533.637 279.438 533.35 279.769 533C280.109 532.646 280.4 532.235 280.642 531.768L281.127 532.132C280.844 532.688 280.488 533.192 280.06 533.644C279.64 534.092 279.175 534.463 278.666 534.757ZM285.995 533.242C285.413 533.578 284.855 533.802 284.322 533.914C283.789 534.026 283.356 533.995 283.025 533.823L283.461 532.815C283.76 532.95 284.128 532.98 284.564 532.906C285.009 532.836 285.478 532.658 285.971 532.374C286.779 531.907 287.373 531.345 287.753 530.687C288.133 530.038 288.323 529.256 288.323 528.342V526.508L288.444 525.178L288.359 523.967V521.741L289.184 521.265V527.719C289.184 528.988 288.913 530.073 288.372 530.974C287.838 531.879 287.046 532.635 285.995 533.242ZM285.838 530.267C285.231 530.617 284.686 530.782 284.201 530.764C283.716 530.736 283.332 530.533 283.049 530.155C282.774 529.772 282.637 529.231 282.637 528.531C282.637 527.831 282.774 527.135 283.049 526.445C283.332 525.74 283.716 525.098 284.201 524.52C284.686 523.941 285.231 523.477 285.838 523.127C286.403 522.8 286.913 522.641 287.365 522.651C287.818 522.66 288.178 522.854 288.444 523.232C288.711 523.61 288.844 524.181 288.844 524.947C288.844 525.712 288.711 526.438 288.444 527.124C288.178 527.81 287.818 528.423 287.365 528.965C286.913 529.506 286.403 529.94 285.838 530.267ZM285.922 529.336C286.391 529.065 286.807 528.713 287.171 528.279C287.535 527.835 287.822 527.352 288.032 526.83C288.242 526.298 288.347 525.766 288.347 525.234C288.347 524.702 288.242 524.296 288.032 524.016C287.822 523.736 287.535 523.589 287.171 523.575C286.807 523.551 286.391 523.675 285.922 523.946C285.462 524.212 285.045 524.569 284.674 525.017C284.31 525.451 284.023 525.929 283.813 526.452C283.611 526.97 283.51 527.495 283.51 528.027C283.51 528.559 283.611 528.972 283.813 529.266C284.023 529.546 284.31 529.697 284.674 529.721C285.045 529.73 285.462 529.602 285.922 529.336ZM291.579 527.232V519.882L292.44 519.385V526.735L291.579 527.232ZM292.016 518.006C291.838 518.108 291.688 518.125 291.567 518.055C291.446 517.985 291.385 517.852 291.385 517.656C291.385 517.46 291.446 517.261 291.567 517.061C291.688 516.851 291.838 516.694 292.016 516.592C292.194 516.489 292.343 516.468 292.464 516.529C292.586 516.589 292.646 516.718 292.646 516.914C292.646 517.119 292.586 517.327 292.464 517.537C292.351 517.742 292.202 517.898 292.016 518.006ZM296.545 524.435C296.019 524.738 295.522 524.941 295.054 525.044C294.585 525.137 294.217 525.13 293.95 525.023L294.338 524.015C294.597 524.09 294.928 524.094 295.332 524.029C295.737 523.954 296.161 523.789 296.605 523.532C297.212 523.182 297.648 522.823 297.915 522.454C298.182 522.076 298.315 521.705 298.315 521.341C298.315 521.07 298.238 520.905 298.085 520.844C297.939 520.769 297.745 520.765 297.503 520.83C297.26 520.886 296.989 520.972 296.69 521.089C296.391 521.206 296.092 521.313 295.793 521.411C295.502 521.504 295.235 521.551 294.993 521.551C294.75 521.542 294.552 521.455 294.399 521.292C294.253 521.124 294.181 520.83 294.181 520.41C294.181 520.009 294.278 519.593 294.472 519.164C294.666 518.735 294.948 518.324 295.32 517.932C295.7 517.526 296.161 517.167 296.702 516.854C297.115 516.616 297.527 516.443 297.939 516.336C298.351 516.219 298.691 516.187 298.958 516.238L298.582 517.253C298.299 517.192 297.996 517.209 297.672 517.302C297.349 517.386 297.026 517.521 296.702 517.708C296.129 518.039 295.704 518.401 295.429 518.793C295.163 519.171 295.029 519.537 295.029 519.892C295.029 520.172 295.102 520.349 295.248 520.424C295.401 520.494 295.599 520.506 295.842 520.459C296.092 520.398 296.363 520.312 296.654 520.2C296.953 520.083 297.248 519.983 297.539 519.899C297.838 519.801 298.109 519.752 298.351 519.752C298.602 519.738 298.8 519.815 298.945 519.983C299.099 520.137 299.176 520.415 299.176 520.816C299.176 521.245 299.071 521.679 298.861 522.118C298.659 522.543 298.359 522.958 297.963 523.364C297.575 523.756 297.103 524.113 296.545 524.435ZM302.768 520.842C302.17 521.187 301.709 521.267 301.386 521.08C301.063 520.893 300.901 520.459 300.901 519.778V512.876L301.762 512.379V519.225C301.762 519.654 301.855 519.932 302.041 520.058C302.235 520.179 302.509 520.137 302.865 519.932C303.245 519.713 303.56 519.405 303.811 519.008L304.114 519.547C303.944 519.822 303.738 520.072 303.496 520.296C303.261 520.515 303.019 520.697 302.768 520.842ZM299.761 515.984V515.158L303.702 512.883V513.709L299.761 515.984ZM308.16 517.729C307.497 518.112 306.915 518.289 306.414 518.261C305.913 518.224 305.521 518.007 305.238 517.61C304.955 517.204 304.813 516.637 304.813 515.909C304.813 515.181 304.947 514.46 305.213 513.746C305.488 513.027 305.86 512.374 306.329 511.786C306.806 511.184 307.339 510.713 307.929 510.372C308.527 510.027 309.057 509.88 309.518 509.931C309.986 509.968 310.354 510.195 310.621 510.61C310.888 511.016 311.021 511.588 311.021 512.325C311.021 512.372 311.017 512.425 311.009 512.486C311.009 512.533 311.009 512.584 311.009 512.64L305.468 515.839V515.097L310.548 512.164L310.209 512.654C310.209 512.122 310.108 511.709 309.906 511.415C309.712 511.107 309.445 510.934 309.105 510.897C308.766 510.86 308.374 510.969 307.929 511.226C307.493 511.478 307.101 511.821 306.753 512.255C306.406 512.689 306.135 513.172 305.941 513.704C305.747 514.236 305.65 514.773 305.65 515.314V515.468C305.65 516.028 305.755 516.462 305.965 516.77C306.183 517.064 306.482 517.223 306.862 517.246C307.25 517.255 307.691 517.118 308.184 516.833C308.572 516.609 308.932 516.322 309.263 515.972C309.602 515.617 309.893 515.207 310.136 514.74L310.621 515.104C310.338 515.659 309.982 516.163 309.554 516.616C309.134 517.064 308.669 517.435 308.16 517.729ZM312.773 514.995V507.645L313.598 507.169V509.171L313.513 508.87C313.691 508.208 313.99 507.61 314.41 507.078C314.83 506.537 315.352 506.087 315.974 505.727V506.693C315.942 506.712 315.909 506.731 315.877 506.749C315.845 506.759 315.812 506.773 315.78 506.791C315.109 507.179 314.584 507.72 314.204 508.415C313.824 509.101 313.634 509.878 313.634 510.746V514.498L312.773 514.995ZM320.189 510.784C319.527 511.166 318.945 511.344 318.443 511.316C317.942 511.278 317.55 511.061 317.267 510.665C316.984 510.259 316.843 509.692 316.843 508.964C316.843 508.236 316.976 507.515 317.243 506.801C317.518 506.082 317.89 505.429 318.359 504.841C318.835 504.239 319.369 503.767 319.959 503.427C320.557 503.081 321.087 502.934 321.547 502.986C322.016 503.023 322.384 503.249 322.651 503.665C322.917 504.071 323.051 504.642 323.051 505.38C323.051 505.426 323.047 505.48 323.039 505.541C323.039 505.587 323.039 505.639 323.039 505.695L317.498 508.894V508.152L322.578 505.219L322.238 505.709C322.238 505.177 322.137 504.764 321.935 504.47C321.741 504.162 321.475 503.989 321.135 503.952C320.796 503.914 320.404 504.024 319.959 504.281C319.522 504.533 319.13 504.876 318.783 505.31C318.435 505.744 318.165 506.227 317.971 506.759C317.777 507.291 317.68 507.827 317.68 508.369V508.523C317.68 509.083 317.785 509.517 317.995 509.825C318.213 510.119 318.512 510.277 318.892 510.301C319.28 510.31 319.721 510.172 320.214 509.888C320.602 509.664 320.961 509.377 321.293 509.027C321.632 508.672 321.923 508.261 322.166 507.795L322.651 508.159C322.368 508.714 322.012 509.218 321.584 509.671C321.163 510.119 320.699 510.49 320.189 510.784ZM327.337 506.657C326.731 507.007 326.185 507.163 325.7 507.126C325.223 507.084 324.847 506.862 324.572 506.461C324.298 506.05 324.16 505.476 324.16 504.739C324.16 503.992 324.298 503.26 324.572 502.541C324.847 501.822 325.223 501.171 325.7 500.588C326.185 499.991 326.731 499.517 327.337 499.167C327.895 498.845 328.392 498.703 328.828 498.74C329.273 498.773 329.624 498.994 329.883 499.405C330.15 499.802 330.283 500.401 330.283 501.204C330.283 501.997 330.154 502.749 329.895 503.458C329.636 504.167 329.285 504.8 328.84 505.355C328.404 505.896 327.903 506.33 327.337 506.657ZM327.397 505.74C327.85 505.479 328.254 505.129 328.61 504.69C328.974 504.237 329.257 503.738 329.459 503.192C329.669 502.632 329.774 502.067 329.774 501.498C329.774 500.919 329.669 500.476 329.459 500.168C329.257 499.855 328.974 499.687 328.61 499.664C328.254 499.627 327.85 499.739 327.397 500C326.953 500.257 326.553 500.609 326.197 501.057C325.841 501.496 325.559 501.99 325.348 502.541C325.138 503.092 325.033 503.656 325.033 504.235C325.033 504.804 325.138 505.248 325.348 505.565C325.559 505.873 325.841 506.046 326.197 506.083C326.553 506.111 326.953 505.997 327.397 505.74ZM329.798 505.166V502.954L329.883 501.421L329.762 500.007V494.799L330.623 494.302V504.69L329.798 505.166ZM269.831 556.858C269.29 557.171 268.817 557.327 268.413 557.327C268.009 557.327 267.693 557.159 267.467 556.823C267.249 556.482 267.14 555.962 267.14 555.262V550.992L268.001 550.495V554.653C268.001 555.437 268.166 555.934 268.498 556.144C268.837 556.34 269.31 556.263 269.916 555.913C270.361 555.656 270.745 555.332 271.068 554.94C271.399 554.534 271.65 554.081 271.82 553.582C271.998 553.078 272.086 552.546 272.086 551.986V548.136L272.947 547.639V554.989L272.123 555.465V553.449L272.256 553.736C272.054 554.394 271.739 555.001 271.31 555.556C270.89 556.097 270.397 556.531 269.831 556.858ZM277.056 552.687C276.531 552.99 276.033 553.193 275.565 553.296C275.096 553.389 274.728 553.382 274.461 553.275L274.849 552.267C275.108 552.342 275.439 552.346 275.843 552.281C276.248 552.206 276.672 552.041 277.117 551.784C277.723 551.434 278.159 551.075 278.426 550.706C278.693 550.328 278.826 549.957 278.826 549.593C278.826 549.322 278.749 549.157 278.596 549.096C278.45 549.021 278.256 549.017 278.014 549.082C277.771 549.138 277.5 549.224 277.201 549.341C276.902 549.458 276.603 549.565 276.304 549.663C276.013 549.756 275.746 549.803 275.504 549.803C275.261 549.794 275.063 549.707 274.91 549.544C274.764 549.376 274.692 549.082 274.692 548.662C274.692 548.261 274.789 547.845 274.983 547.416C275.177 546.987 275.46 546.576 275.831 546.184C276.211 545.778 276.672 545.419 277.214 545.106C277.626 544.868 278.038 544.695 278.45 544.588C278.862 544.471 279.202 544.439 279.469 544.49L279.093 545.505C278.81 545.444 278.507 545.461 278.183 545.554C277.86 545.638 277.537 545.773 277.214 545.96C276.64 546.291 276.215 546.653 275.94 547.045C275.674 547.423 275.54 547.789 275.54 548.144C275.54 548.424 275.613 548.601 275.759 548.676C275.912 548.746 276.11 548.758 276.353 548.711C276.603 548.65 276.874 548.564 277.165 548.452C277.464 548.335 277.759 548.235 278.05 548.151C278.349 548.053 278.62 548.004 278.862 548.004C279.113 547.99 279.311 548.067 279.457 548.235C279.61 548.389 279.687 548.667 279.687 549.068C279.687 549.497 279.582 549.931 279.372 550.37C279.17 550.795 278.871 551.21 278.474 551.616C278.086 552.008 277.614 552.365 277.056 552.687ZM283.97 548.695C283.307 549.078 282.725 549.255 282.224 549.227C281.723 549.19 281.331 548.973 281.048 548.576C280.765 548.17 280.624 547.603 280.624 546.875C280.624 546.147 280.757 545.426 281.024 544.712C281.299 543.993 281.671 543.34 282.139 542.752C282.616 542.15 283.15 541.679 283.74 541.338C284.338 540.993 284.867 540.846 285.328 540.897C285.797 540.934 286.165 541.161 286.431 541.576C286.698 541.982 286.832 542.554 286.832 543.291C286.832 543.338 286.827 543.391 286.819 543.452C286.819 543.499 286.819 543.55 286.819 543.606L281.279 546.805V546.063L286.359 543.13L286.019 543.62C286.019 543.088 285.918 542.675 285.716 542.381C285.522 542.073 285.255 541.9 284.916 541.863C284.576 541.826 284.184 541.935 283.74 542.192C283.303 542.444 282.911 542.787 282.564 543.221C282.216 543.655 281.945 544.138 281.751 544.67C281.557 545.202 281.46 545.739 281.46 546.28V546.434C281.46 546.994 281.566 547.428 281.776 547.736C281.994 548.03 282.293 548.189 282.673 548.212C283.061 548.221 283.501 548.084 283.994 547.799C284.382 547.575 284.742 547.288 285.074 546.938C285.413 546.583 285.704 546.173 285.946 545.706L286.431 546.07C286.149 546.625 285.793 547.129 285.364 547.582C284.944 548.03 284.479 548.401 283.97 548.695ZM288.584 545.961V538.611L289.408 538.135V540.137L289.323 539.836C289.501 539.174 289.8 538.576 290.22 538.044C290.641 537.503 291.162 537.053 291.785 536.693V537.659C291.752 537.678 291.72 537.697 291.688 537.715C291.655 537.725 291.623 537.739 291.591 537.757C290.92 538.145 290.394 538.686 290.014 539.381C289.634 540.067 289.445 540.844 289.445 541.712V545.464L288.584 545.961ZM295.136 542.248C294.61 542.552 294.113 542.755 293.645 542.857C293.176 542.951 292.808 542.944 292.541 542.836L292.929 541.828C293.188 541.903 293.519 541.908 293.923 541.842C294.328 541.768 294.752 541.602 295.196 541.345C295.803 540.995 296.239 540.636 296.506 540.267C296.773 539.889 296.906 539.518 296.906 539.154C296.906 538.884 296.829 538.718 296.676 538.657C296.53 538.583 296.336 538.578 296.094 538.643C295.851 538.699 295.58 538.786 295.281 538.902C294.982 539.019 294.683 539.126 294.384 539.224C294.093 539.318 293.826 539.364 293.584 539.364C293.341 539.355 293.143 539.269 292.99 539.105C292.844 538.937 292.772 538.643 292.772 538.223C292.772 537.822 292.869 537.407 293.063 536.977C293.257 536.548 293.539 536.137 293.911 535.745C294.291 535.339 294.752 534.98 295.293 534.667C295.706 534.429 296.118 534.257 296.53 534.149C296.942 534.033 297.282 534 297.549 534.051L297.173 535.066C296.89 535.006 296.587 535.022 296.263 535.115C295.94 535.199 295.617 535.335 295.293 535.521C294.72 535.853 294.295 536.214 294.02 536.606C293.754 536.984 293.62 537.351 293.62 537.705C293.62 537.985 293.693 538.163 293.839 538.237C293.992 538.307 294.19 538.319 294.433 538.272C294.683 538.212 294.954 538.125 295.245 538.013C295.544 537.897 295.839 537.796 296.13 537.712C296.429 537.614 296.7 537.565 296.942 537.565C297.193 537.551 297.391 537.628 297.536 537.796C297.69 537.95 297.767 538.228 297.767 538.629C297.767 539.059 297.662 539.493 297.452 539.931C297.25 540.356 296.95 540.771 296.554 541.177C296.166 541.569 295.694 541.926 295.136 542.248Z" fill="black"/>
<path d="M99.1962 444V442L94 439V437L99.1962 440V438L95.7321 436V434L94 433V431L95.7321 432V430L99.1962 432V430L100.928 431V433L104.392 435V437L100.928 435V437L104.392 439V441L106.124 442V444L104.392 443V445L100.928 443V445L99.1962 444ZM97.4641 435L99.1962 436V434L97.4641 433V435ZM100.928 441L102.66 442V440L100.928 439V441ZM109.588 450V448L107.856 447V445L111.321 447V449L116.517 452V448L111.321 445V443L113.053 444V442L114.785 443V441L109.588 438V436L119.981 442V444L118.249 443V445L116.517 444V446L118.249 447V449L119.981 450V454L118.249 453V455L109.588 450ZM123.445 458V456L121.713 455V451L123.445 452V450L121.713 449V445L123.445 446V444L130.373 448V450L132.105 451V455L130.373 454V456L133.837 458V462L132.105 461V463L123.445 458ZM126.909 452L130.373 454V450L125.177 447V449L126.909 450V452ZM123.445 456L130.373 460V458L126.909 456V454L123.445 452V456ZM95.7321 464V462L94 461V449L97.4641 451V455L104.392 459V461L106.124 462V468L104.392 467V469L95.7321 464ZM97.4641 463L102.66 466V460L97.4641 457V463ZM113.053 462V460L116.517 462V464L113.053 462ZM109.588 472V470L113.053 472V466L111.321 465V463L116.517 466V474L119.981 476V478L109.588 472ZM123.445 480V478L126.909 480V470L125.177 469V467L130.373 470V482L133.837 484V486L123.445 480ZM137.301 488V486L140.765 488V478L139.033 477V475L144.229 478V490L147.694 492V494L137.301 488ZM154.622 486V484L158.086 486V488L154.622 486ZM151.158 496V494L154.622 496V490L152.89 489V487L158.086 490V498L161.55 500V502L151.158 496ZM165.014 504V502L163.282 501V495L165.014 496V494L173.674 499V501L175.406 502V508L173.674 507V509L165.014 504ZM166.746 503L171.942 506V500L166.746 497V503ZM177.138 511V501L187.531 507V509L189.263 510V518L185.799 516V508L180.603 505V513L177.138 511Z" fill="white"/>
<path d="M94.4728 492.273V491.559L98.001 489.606C98.3244 489.429 98.5668 489.251 98.7285 489.074C98.8902 488.887 98.9993 488.689 99.0559 488.479C99.1124 488.269 99.1407 488.057 99.1407 487.842C99.1407 487.273 98.971 486.727 98.6315 486.204C98.3001 485.686 97.807 485.238 97.1523 484.86C96.6512 484.571 96.2066 484.403 95.8187 484.356C95.4388 484.314 95.1114 484.4 94.8366 484.615L94.2182 483.642C94.5496 483.385 94.974 483.285 95.4913 483.341C96.0086 483.397 96.5865 483.609 97.2251 483.978C97.799 484.309 98.2961 484.704 98.7164 485.161C99.1367 485.609 99.46 486.099 99.6863 486.631C99.9207 487.168 100.038 487.707 100.038 488.248C100.038 488.565 99.9975 488.855 99.9167 489.116C99.8439 489.382 99.7065 489.629 99.5045 489.858C99.3105 490.082 99.0235 490.299 98.6436 490.509L95.4064 492.308L95.1639 491.776L100.426 494.814V495.71L94.4728 492.273ZM101.104 493.525V492.797L105.602 488.898L106.572 489.458L102.11 493.378L101.637 492.937L108.463 496.878V497.774L101.104 493.525ZM105.893 498.866V496.29L105.917 495.408V493.14L106.766 493.63V499.37L105.893 498.866ZM113.084 495.598C113.601 495.897 114.054 496.275 114.442 496.732C114.838 497.185 115.145 497.708 115.363 498.3C115.59 498.898 115.703 499.551 115.703 500.26V504.53L114.842 504.033V499.861C114.842 499.087 114.672 498.405 114.333 497.817C114.002 497.225 113.533 496.753 112.926 496.403C112.474 496.142 112.078 496.021 111.738 496.039C111.407 496.053 111.148 496.207 110.962 496.501C110.785 496.791 110.696 497.215 110.696 497.775V501.639L109.835 501.142V490.754L110.696 491.251V496.305L110.526 495.829C110.728 495.414 111.051 495.185 111.496 495.143C111.94 495.092 112.47 495.244 113.084 495.598ZM123.214 508.937C122.616 508.591 122.155 508.139 121.832 507.579C121.509 507.019 121.347 506.398 121.347 505.717V498.815L122.208 499.312V506.158C122.208 506.587 122.301 506.972 122.487 507.313C122.681 507.658 122.955 507.933 123.311 508.139C123.691 508.358 124.006 508.414 124.257 508.307L124.56 509.196C124.39 509.275 124.184 509.287 123.941 509.231C123.707 509.179 123.465 509.081 123.214 508.937ZM120.207 500.607V499.781L124.148 502.056V502.882L120.207 500.607ZM126.127 510.548V503.198L126.951 503.674V505.676L126.866 505.277C127.044 504.82 127.343 504.568 127.764 504.521C128.184 504.465 128.705 504.617 129.328 504.976V505.942C129.295 505.924 129.263 505.905 129.231 505.886C129.198 505.858 129.166 505.835 129.134 505.816C128.463 505.429 127.937 505.364 127.558 505.62C127.178 505.868 126.988 506.425 126.988 507.293V511.045L126.127 510.548ZM134.414 515.333V513.709L134.377 513.422V510.706C134.377 510.081 134.224 509.511 133.917 508.998C133.618 508.489 133.169 508.062 132.571 507.717C132.159 507.479 131.767 507.332 131.395 507.276C131.023 507.22 130.708 507.248 130.449 507.36L130.061 506.394C130.384 506.263 130.772 506.245 131.225 506.338C131.678 506.422 132.155 506.609 132.656 506.898C133.48 507.374 134.115 507.978 134.559 508.711C135.012 509.439 135.238 510.284 135.238 511.245V515.809L134.414 515.333ZM132.219 514.136C131.742 513.861 131.326 513.532 130.97 513.149C130.623 512.762 130.356 512.356 130.17 511.931C129.984 511.497 129.891 511.07 129.891 510.65C129.891 510.267 129.968 509.966 130.122 509.747C130.283 509.523 130.542 509.42 130.898 509.439C131.261 509.453 131.746 509.635 132.353 509.985L134.547 511.252V511.994L132.377 510.741C131.763 510.386 131.334 510.265 131.092 510.377C130.857 510.494 130.74 510.739 130.74 511.112C130.74 511.532 130.882 511.95 131.164 512.365C131.447 512.78 131.843 513.135 132.353 513.429C132.838 513.709 133.254 513.823 133.601 513.772C133.957 513.716 134.216 513.492 134.377 513.1L134.571 513.898C134.41 514.29 134.127 514.514 133.723 514.57C133.327 514.631 132.826 514.486 132.219 514.136ZM140.11 518.692C139.504 518.342 138.959 517.868 138.474 517.271C137.997 516.678 137.621 516.022 137.346 515.304C137.071 514.576 136.934 513.843 136.934 513.106C136.934 512.359 137.071 511.785 137.346 511.384C137.621 510.982 137.997 510.765 138.474 510.733C138.959 510.695 139.504 510.852 140.11 511.202C140.668 511.524 141.165 511.955 141.602 512.497C142.046 513.043 142.398 513.67 142.656 514.38C142.923 515.084 143.057 515.838 143.057 516.641C143.057 517.434 142.927 518.036 142.669 518.447C142.41 518.857 142.058 519.084 141.614 519.126C141.177 519.163 140.676 519.018 140.11 518.692ZM140.171 517.845C140.624 518.106 141.028 518.223 141.383 518.195C141.747 518.162 142.03 517.989 142.232 517.677C142.442 517.359 142.547 516.916 142.547 516.347C142.547 515.768 142.442 515.203 142.232 514.653C142.03 514.107 141.747 513.612 141.383 513.169C141.028 512.721 140.624 512.366 140.171 512.105C139.726 511.848 139.326 511.738 138.971 511.776C138.615 511.804 138.332 511.972 138.122 512.28C137.912 512.588 137.807 513.031 137.807 513.61C137.807 514.179 137.912 514.744 138.122 515.304C138.332 515.854 138.615 516.354 138.971 516.802C139.326 517.24 139.726 517.588 140.171 517.845ZM142.572 520.043V517.831L142.656 516.396L142.535 514.842V509.634L143.396 510.131V520.519L142.572 520.043ZM145.793 521.903V514.553L146.654 515.05V522.4L145.793 521.903ZM146.23 513.181C146.052 513.078 145.903 512.922 145.781 512.712C145.66 512.502 145.599 512.299 145.599 512.103C145.599 511.907 145.66 511.779 145.781 511.718C145.903 511.648 146.052 511.664 146.23 511.767C146.408 511.87 146.557 512.021 146.679 512.222C146.8 512.423 146.86 512.621 146.86 512.817C146.86 513.022 146.8 513.16 146.679 513.23C146.565 513.305 146.416 513.288 146.23 513.181ZM152.299 518.239C152.816 518.538 153.269 518.916 153.657 519.373C154.053 519.826 154.36 520.348 154.578 520.941C154.805 521.538 154.918 522.192 154.918 522.901V527.171L154.057 526.674V522.502C154.057 521.727 153.887 521.046 153.548 520.458C153.216 519.865 152.747 519.394 152.141 519.044C151.689 518.783 151.293 518.661 150.953 518.68C150.622 518.694 150.363 518.848 150.177 519.142C149.999 519.431 149.91 519.856 149.91 520.416V524.28L149.049 523.783V516.433L149.874 516.909V518.925L149.741 518.47C149.943 518.055 150.266 517.826 150.711 517.784C151.155 517.733 151.685 517.884 152.299 518.239ZM159.959 532.867C159.377 532.531 158.819 532.111 158.286 531.607C157.752 531.103 157.32 530.574 156.988 530.018L157.425 529.514C157.724 529.995 158.092 530.45 158.528 530.879C158.973 531.323 159.441 531.687 159.935 531.971C160.743 532.438 161.337 532.562 161.717 532.342C162.097 532.132 162.287 531.57 162.287 530.655V528.821L162.408 527.631L162.323 526.322V524.096L163.147 524.572V531.026C163.147 532.296 162.877 533.068 162.335 533.343C161.802 533.633 161.01 533.474 159.959 532.867ZM159.801 529.71C159.195 529.36 158.649 528.896 158.164 528.317C157.679 527.729 157.295 527.083 157.013 526.378C156.738 525.678 156.6 524.978 156.6 524.278C156.6 523.578 156.738 523.042 157.013 522.668C157.295 522.29 157.679 522.092 158.164 522.073C158.649 522.055 159.195 522.22 159.801 522.57C160.367 522.897 160.876 523.326 161.329 523.858C161.781 524.39 162.141 524.999 162.408 525.685C162.675 526.371 162.808 527.097 162.808 527.862C162.808 528.628 162.675 529.199 162.408 529.577C162.141 529.955 161.781 530.154 161.329 530.172C160.876 530.191 160.367 530.037 159.801 529.71ZM159.886 528.877C160.355 529.148 160.771 529.276 161.135 529.262C161.499 529.239 161.786 529.087 161.996 528.807C162.206 528.518 162.311 528.107 162.311 527.575C162.311 527.043 162.206 526.516 161.996 525.993C161.786 525.471 161.499 524.992 161.135 524.558C160.771 524.115 160.355 523.758 159.886 523.487C159.425 523.221 159.009 523.098 158.637 523.116C158.273 523.13 157.987 523.277 157.776 523.557C157.574 523.842 157.473 524.25 157.473 524.782C157.473 525.314 157.574 525.844 157.776 526.371C157.987 526.894 158.273 527.377 158.637 527.82C159.009 528.259 159.425 528.611 159.886 528.877ZM170.353 536.082L167.528 527.101L168.425 527.619L171.02 535.935L170.595 535.69L173.226 530.391L174.075 530.881L171.238 536.593L170.353 536.082ZM177.704 540.397C177.09 540.042 176.536 539.564 176.043 538.962C175.558 538.355 175.174 537.69 174.892 536.967C174.609 536.234 174.467 535.504 174.467 534.776C174.467 534.038 174.609 533.471 174.892 533.075C175.174 532.678 175.558 532.461 176.043 532.424C176.528 532.386 177.082 532.547 177.704 532.907C178.335 533.271 178.893 533.751 179.378 534.349C179.871 534.951 180.255 535.611 180.529 536.33C180.812 537.053 180.954 537.783 180.954 538.521C180.954 539.249 180.812 539.816 180.529 540.222C180.255 540.623 179.871 540.845 179.378 540.887C178.884 540.919 178.327 540.756 177.704 540.397ZM177.704 539.515C178.165 539.781 178.573 539.9 178.929 539.872C179.285 539.834 179.563 539.659 179.766 539.347C179.976 539.029 180.081 538.586 180.081 538.017C180.081 537.438 179.976 536.873 179.766 536.323C179.563 535.777 179.285 535.284 178.929 534.846C178.573 534.398 178.169 534.043 177.716 533.782C177.264 533.52 176.86 533.408 176.504 533.446C176.148 533.474 175.866 533.642 175.655 533.95C175.445 534.258 175.34 534.701 175.34 535.28C175.34 535.849 175.445 536.414 175.655 536.974C175.866 537.524 176.148 538.024 176.504 538.472C176.86 538.91 177.26 539.258 177.704 539.515ZM182.711 543.217V532.829L183.572 533.326V543.714L182.711 543.217ZM188.598 546.686C188.057 546.374 187.584 545.984 187.18 545.517C186.776 545.051 186.46 544.519 186.234 543.921C186.016 543.329 185.907 542.682 185.907 541.982V537.712L186.767 538.209V542.367C186.767 543.151 186.933 543.84 187.265 544.432C187.604 545.02 188.077 545.489 188.683 545.839C189.128 546.096 189.512 546.215 189.835 546.196C190.166 546.173 190.417 546.01 190.587 545.706C190.764 545.408 190.853 544.978 190.853 544.418V540.568L191.714 541.065V548.415L190.89 547.939V545.923L191.023 546.364C190.821 546.789 190.506 547.032 190.077 547.092C189.657 547.148 189.164 547.013 188.598 546.686ZM202.067 546.972C202.584 547.271 203.033 547.647 203.413 548.099C203.801 548.547 204.1 549.065 204.31 549.653C204.528 550.246 204.637 550.897 204.637 551.606V555.876L203.776 555.379V551.207C203.776 550.433 203.615 549.756 203.291 549.177C202.976 548.594 202.528 548.134 201.946 547.798C201.509 547.546 201.129 547.434 200.806 547.462C200.491 547.486 200.244 547.647 200.066 547.945C199.897 548.239 199.812 548.666 199.812 549.226V553.09L198.951 552.593V548.421C198.951 547.647 198.789 546.97 198.466 546.391C198.143 545.803 197.69 545.341 197.108 545.005C196.68 544.758 196.304 544.648 195.98 544.676C195.657 544.695 195.407 544.854 195.229 545.152C195.059 545.446 194.974 545.873 194.974 546.433V550.297L194.113 549.8V542.45L194.938 542.926V544.914L194.804 544.487C194.998 544.067 195.31 543.832 195.738 543.78C196.174 543.724 196.688 543.867 197.278 544.207C197.9 544.567 198.43 545.054 198.866 545.67C199.302 546.277 199.585 546.977 199.715 547.77L199.375 547.42C199.561 546.93 199.889 546.639 200.357 546.545C200.834 546.447 201.404 546.59 202.067 546.972ZM209.675 558.855C209.013 558.473 208.431 557.978 207.93 557.371C207.428 556.755 207.036 556.086 206.753 555.362C206.471 554.63 206.329 553.899 206.329 553.171C206.329 552.443 206.462 551.876 206.729 551.47C207.004 551.069 207.376 550.845 207.845 550.798C208.322 550.747 208.855 550.892 209.445 551.232C210.043 551.578 210.573 552.042 211.033 552.625C211.502 553.204 211.87 553.855 212.137 554.578C212.403 555.292 212.537 556.018 212.537 556.755C212.537 556.802 212.533 556.851 212.525 556.902C212.525 556.949 212.525 557 212.525 557.056L206.984 553.857V553.115L212.064 556.048L211.724 556.146C211.724 555.614 211.623 555.085 211.421 554.557C211.227 554.025 210.961 553.545 210.621 553.115C210.282 552.686 209.89 552.343 209.445 552.086C209.009 551.834 208.617 551.725 208.269 551.757C207.921 551.79 207.651 551.96 207.457 552.268C207.263 552.576 207.166 553.001 207.166 553.542V553.696C207.166 554.256 207.271 554.812 207.481 555.362C207.699 555.908 207.998 556.412 208.378 556.874C208.766 557.332 209.207 557.703 209.7 557.987C210.088 558.211 210.447 558.34 210.779 558.372C211.118 558.41 211.409 558.335 211.652 558.148L212.137 559.072C211.854 559.301 211.498 559.394 211.07 559.352C210.649 559.315 210.185 559.149 209.675 558.855ZM97.7949 511.261C97.1806 510.906 96.6269 510.428 96.1339 509.826C95.6489 509.219 95.265 508.554 94.9821 507.831C94.6992 507.098 94.5577 506.368 94.5577 505.64C94.5577 504.903 94.6992 504.336 94.9821 503.939C95.265 503.542 95.6489 503.325 96.1339 503.288C96.6189 503.251 97.1725 503.412 97.7949 503.771C98.4254 504.135 98.9831 504.616 99.4681 505.213C99.9611 505.815 100.345 506.475 100.62 507.194C100.903 507.917 101.044 508.648 101.044 509.385C101.044 510.113 100.903 510.68 100.62 511.086C100.345 511.487 99.9611 511.709 99.4681 511.751C98.975 511.784 98.4173 511.62 97.7949 511.261ZM97.7949 510.379C98.2556 510.645 98.6638 510.764 99.0195 510.736C99.3751 510.699 99.654 510.524 99.8561 510.211C100.066 509.894 100.171 509.45 100.171 508.881C100.171 508.302 100.066 507.738 99.8561 507.187C99.654 506.641 99.3751 506.149 99.0195 505.71C98.6638 505.262 98.2597 504.907 97.807 504.646C97.3544 504.385 96.9503 504.273 96.5946 504.31C96.239 504.338 95.9561 504.506 95.7459 504.814C95.5358 505.122 95.4307 505.565 95.4307 506.144C95.4307 506.713 95.5358 507.278 95.7459 507.838C95.9561 508.389 96.239 508.888 96.5946 509.336C96.9503 509.775 97.3504 510.122 97.7949 510.379ZM106.051 508.538C106.568 508.836 107.021 509.214 107.409 509.672C107.805 510.124 108.112 510.647 108.33 511.24C108.557 511.837 108.67 512.49 108.67 513.2V517.47L107.809 516.973V512.801C107.809 512.026 107.639 511.345 107.3 510.757C106.968 510.164 106.5 509.693 105.893 509.343C105.441 509.081 105.045 508.96 104.705 508.979C104.374 508.993 104.115 509.147 103.929 509.441C103.751 509.73 103.663 510.155 103.663 510.715V514.579L102.802 514.082V506.732L103.626 507.208V509.224L103.493 508.769C103.695 508.353 104.018 508.125 104.463 508.083C104.907 508.031 105.437 508.183 106.051 508.538ZM116.763 522.212C116.149 521.858 115.595 521.379 115.102 520.777C114.617 520.171 114.233 519.506 113.95 518.782C113.667 518.05 113.526 517.319 113.526 516.591C113.526 515.854 113.667 515.287 113.95 514.89C114.233 514.494 114.617 514.277 115.102 514.239C115.587 514.202 116.141 514.363 116.763 514.722C117.393 515.086 117.951 515.567 118.436 516.164C118.929 516.766 119.313 517.427 119.588 518.145C119.871 518.869 120.012 519.599 120.012 520.336C120.012 521.064 119.871 521.631 119.588 522.037C119.313 522.439 118.929 522.66 118.436 522.702C117.943 522.735 117.385 522.572 116.763 522.212ZM116.763 521.33C117.224 521.596 117.632 521.715 117.987 521.687C118.343 521.65 118.622 521.475 118.824 521.162C119.034 520.845 119.139 520.402 119.139 519.832C119.139 519.254 119.034 518.689 118.824 518.138C118.622 517.592 118.343 517.1 117.987 516.661C117.632 516.213 117.228 515.859 116.775 515.597C116.322 515.336 115.918 515.224 115.563 515.261C115.207 515.289 114.924 515.457 114.714 515.765C114.504 516.073 114.399 516.517 114.399 517.095C114.399 517.665 114.504 518.229 114.714 518.789C114.924 519.34 115.207 519.839 115.563 520.287C115.918 520.726 116.318 521.074 116.763 521.33ZM124.401 526.622C123.859 526.309 123.386 525.92 122.982 525.453C122.578 524.986 122.263 524.454 122.036 523.857C121.818 523.264 121.709 522.618 121.709 521.918V517.648L122.57 518.145V522.303C122.57 523.087 122.736 523.775 123.067 524.368C123.406 524.956 123.879 525.425 124.486 525.775C124.93 526.032 125.314 526.151 125.637 526.132C125.969 526.109 126.219 525.945 126.389 525.642C126.567 525.343 126.656 524.914 126.656 524.354V520.504L127.517 521.001V528.351L126.692 527.875V525.859L126.826 526.3C126.623 526.725 126.308 526.967 125.88 527.028C125.46 527.084 124.966 526.949 124.401 526.622ZM129.916 529.736V522.386L130.74 522.862V524.864L130.655 524.465C130.833 524.008 131.132 523.756 131.553 523.709C131.973 523.653 132.494 523.805 133.117 524.164V525.13C133.084 525.111 133.052 525.093 133.02 525.074C132.987 525.046 132.955 525.023 132.923 525.004C132.252 524.617 131.726 524.551 131.346 524.808C130.967 525.055 130.777 525.613 130.777 526.481V530.233L129.916 529.736ZM140.659 536.009C139.996 535.626 139.414 535.131 138.913 534.525C138.412 533.909 138.02 533.239 137.737 532.516C137.454 531.783 137.313 531.053 137.313 530.325C137.313 529.597 137.446 529.03 137.713 528.624C137.988 528.222 138.359 527.998 138.828 527.952C139.305 527.9 139.839 528.045 140.429 528.386C141.027 528.731 141.556 529.195 142.017 529.779C142.486 530.357 142.853 531.008 143.12 531.732C143.387 532.446 143.52 533.171 143.52 533.909C143.52 533.955 143.516 534.004 143.508 534.056C143.508 534.102 143.508 534.154 143.508 534.21L137.967 531.011V530.269L143.047 533.202L142.708 533.3C142.708 532.768 142.607 532.238 142.405 531.711C142.211 531.179 141.944 530.698 141.605 530.269C141.265 529.839 140.873 529.496 140.429 529.24C139.992 528.988 139.6 528.878 139.253 528.911C138.905 528.943 138.634 529.114 138.44 529.422C138.246 529.73 138.149 530.154 138.149 530.696V530.85C138.149 531.41 138.254 531.965 138.464 532.516C138.683 533.062 138.982 533.566 139.362 534.028C139.75 534.485 140.19 534.856 140.683 535.141C141.071 535.365 141.431 535.493 141.762 535.526C142.102 535.563 142.393 535.488 142.635 535.302L143.12 536.226C142.837 536.454 142.482 536.548 142.053 536.506C141.633 536.468 141.168 536.303 140.659 536.009ZM144.125 537.94L146.817 535.462L146.804 535.945L144.246 530.66L145.216 531.22L147.314 535.581L146.95 535.357L149.047 533.432L149.993 533.978L147.411 536.337L147.423 535.812L150.139 541.412L149.157 540.845L146.938 536.204L147.277 536.456L145.095 538.5L144.125 537.94ZM153.99 543.705C153.359 543.341 152.793 542.856 152.292 542.249C151.799 541.638 151.411 540.97 151.128 540.247C150.845 539.514 150.704 538.784 150.704 538.056C150.704 537.319 150.845 536.752 151.128 536.355C151.411 535.958 151.799 535.744 152.292 535.711C152.793 535.683 153.359 535.851 153.99 536.215C154.531 536.528 155.02 536.931 155.457 537.426C155.893 537.921 156.237 538.483 156.487 539.113L155.845 539.246C155.626 538.747 155.356 538.315 155.032 537.951C154.709 537.587 154.357 537.295 153.977 537.076C153.525 536.815 153.117 536.7 152.753 536.733C152.389 536.756 152.102 536.922 151.892 537.23C151.682 537.538 151.577 537.981 151.577 538.56C151.577 539.139 151.682 539.703 151.892 540.254C152.102 540.805 152.389 541.306 152.753 541.759C153.117 542.202 153.525 542.555 153.977 542.816C154.357 543.035 154.709 543.15 155.032 543.159C155.356 543.168 155.626 543.054 155.845 542.816L156.487 543.691C156.237 544.022 155.893 544.188 155.457 544.188C155.02 544.179 154.531 544.018 153.99 543.705ZM161.333 540.455C161.85 540.753 162.303 541.131 162.691 541.589C163.087 542.041 163.394 542.564 163.612 543.157C163.839 543.754 163.952 544.407 163.952 545.117V549.387L163.091 548.89V544.718C163.091 543.943 162.921 543.262 162.582 542.674C162.25 542.081 161.781 541.61 161.175 541.26C160.723 540.998 160.327 540.877 159.987 540.896C159.656 540.91 159.397 541.064 159.211 541.358C159.033 541.647 158.944 542.072 158.944 542.632V546.496L158.084 545.999V535.611L158.944 536.108V541.162L158.775 540.686C158.977 540.27 159.3 540.042 159.745 540C160.189 539.948 160.719 540.1 161.333 540.455ZM170.266 553.032V551.408L170.23 551.121V548.405C170.23 547.78 170.076 547.21 169.769 546.697C169.47 546.188 169.021 545.761 168.423 545.416C168.011 545.178 167.619 545.031 167.247 544.975C166.875 544.919 166.56 544.947 166.301 545.059L165.913 544.093C166.237 543.962 166.625 543.944 167.077 544.037C167.53 544.121 168.007 544.308 168.508 544.597C169.332 545.073 169.967 545.677 170.411 546.41C170.864 547.138 171.09 547.983 171.09 548.944V553.508L170.266 553.032ZM168.071 551.835C167.594 551.56 167.178 551.231 166.823 550.848C166.475 550.461 166.208 550.055 166.022 549.63C165.836 549.196 165.744 548.769 165.744 548.349C165.744 547.966 165.82 547.665 165.974 547.446C166.136 547.222 166.394 547.119 166.75 547.138C167.114 547.152 167.599 547.334 168.205 547.684L170.399 548.951V549.693L168.229 548.44C167.615 548.085 167.186 547.964 166.944 548.076C166.709 548.193 166.592 548.438 166.592 548.811C166.592 549.231 166.734 549.649 167.017 550.064C167.299 550.479 167.696 550.834 168.205 551.128C168.69 551.408 169.106 551.522 169.454 551.471C169.809 551.415 170.068 551.191 170.23 550.799L170.424 551.597C170.262 551.989 169.979 552.213 169.575 552.269C169.179 552.33 168.678 552.185 168.071 551.835ZM176.678 549.314C177.195 549.613 177.648 549.991 178.036 550.448C178.432 550.901 178.739 551.423 178.957 552.016C179.183 552.613 179.297 553.267 179.297 553.976V558.246L178.436 557.749V553.577C178.436 552.802 178.266 552.121 177.927 551.533C177.595 550.94 177.126 550.469 176.52 550.119C176.068 549.858 175.671 549.736 175.332 549.755C175.001 549.769 174.742 549.923 174.556 550.217C174.378 550.506 174.289 550.931 174.289 551.491V555.355L173.428 554.858V547.508L174.253 547.984V550L174.12 549.545C174.322 549.13 174.645 548.901 175.089 548.859C175.534 548.808 176.063 548.959 176.678 549.314ZM184.338 563.943C183.756 563.607 183.198 563.187 182.665 562.683C182.131 562.179 181.699 561.649 181.367 561.094L181.804 560.59C182.103 561.07 182.471 561.525 182.907 561.955C183.352 562.398 183.82 562.762 184.313 563.047C185.122 563.513 185.716 563.637 186.096 563.418C186.476 563.208 186.666 562.645 186.666 561.731V559.897L186.787 558.707L186.702 557.398V555.172L187.526 555.648V562.102C187.526 563.371 187.256 564.143 186.714 564.419C186.181 564.708 185.388 564.549 184.338 563.943ZM184.18 560.786C183.574 560.436 183.028 559.971 182.543 559.393C182.058 558.805 181.674 558.158 181.392 557.454C181.117 556.754 180.979 556.054 180.979 555.354C180.979 554.654 181.117 554.117 181.392 553.744C181.674 553.366 182.058 553.167 182.543 553.149C183.028 553.13 183.574 553.296 184.18 553.646C184.746 553.972 185.255 554.402 185.708 554.934C186.16 555.466 186.52 556.075 186.787 556.761C187.054 557.447 187.187 558.172 187.187 558.938C187.187 559.703 187.054 560.275 186.787 560.653C186.52 561.031 186.16 561.229 185.708 561.248C185.255 561.266 184.746 561.112 184.18 560.786ZM184.265 559.953C184.734 560.223 185.15 560.352 185.514 560.338C185.878 560.314 186.164 560.163 186.375 559.883C186.585 559.593 186.69 559.183 186.69 558.651C186.69 558.119 186.585 557.591 186.375 557.069C186.164 556.546 185.878 556.068 185.514 555.634C185.15 555.19 184.734 554.833 184.265 554.563C183.804 554.297 183.388 554.173 183.016 554.192C182.652 554.206 182.365 554.353 182.155 554.633C181.953 554.917 181.852 555.326 181.852 555.858C181.852 556.39 181.953 556.919 182.155 557.447C182.365 557.969 182.652 558.452 183.016 558.896C183.388 559.334 183.804 559.687 184.265 559.953ZM192.626 566.012C191.963 565.629 191.381 565.134 190.88 564.528C190.379 563.911 189.987 563.242 189.704 562.518C189.421 561.786 189.279 561.055 189.279 560.327C189.279 559.599 189.413 559.032 189.679 558.626C189.954 558.225 190.326 558.001 190.795 557.954C191.272 557.903 191.805 558.048 192.395 558.388C192.993 558.734 193.523 559.198 193.983 559.781C194.452 560.36 194.82 561.011 195.087 561.735C195.354 562.449 195.487 563.174 195.487 563.912C195.487 563.958 195.483 564.007 195.475 564.059C195.475 564.105 195.475 564.157 195.475 564.213L189.934 561.013V560.272L195.014 563.205L194.675 563.303C194.675 562.771 194.574 562.241 194.371 561.713C194.177 561.181 193.911 560.701 193.571 560.271C193.232 559.842 192.84 559.499 192.395 559.242C191.959 558.99 191.567 558.881 191.219 558.913C190.872 558.946 190.601 559.116 190.407 559.424C190.213 559.732 190.116 560.157 190.116 560.698V560.852C190.116 561.412 190.221 561.968 190.431 562.518C190.649 563.064 190.948 563.569 191.328 564.03C191.716 564.488 192.157 564.859 192.65 565.143C193.038 565.368 193.397 565.496 193.729 565.529C194.068 565.566 194.359 565.491 194.602 565.305L195.087 566.229C194.804 566.457 194.448 566.551 194.02 566.509C193.6 566.471 193.135 566.306 192.626 566.012Z" fill="white"/>
<mask id="mask0_52_1323" style="mask-type:alpha" maskUnits="userSpaceOnUse" x="77" y="261" width="318" height="184">
<path d="M236.49 262L78.0615 352.838L236.49 444.107L393.196 352.838L236.49 262Z" fill="#8E2C2C" stroke="black"/>
</mask>
<g mask="url(#mask0_52_1323)">
<path d="M236.92 324.424C244.239 319.101 253.711 319.689 256.293 322.702L255.002 361.448L248.975 393.306L206.354 429.039C196.165 426.312 147.116 406.394 144.36 403.639C136.611 395.889 132.736 382.544 139.194 370.92C142.35 365.239 150.818 362.31 157.275 364.032L170.621 358.435C173.635 354.991 181.704 347.256 189.134 345.089C199.466 342.075 213.816 344.658 222.713 348.103C225.87 341.358 227.449 331.312 236.92 324.424Z" fill="black" fill-opacity="0.5"/>
<path fill-rule="evenodd" clip-rule="evenodd" d="M259.201 375.759C249.928 375.022 243.012 364.229 243.012 349.098C243.012 331.504 252.363 314.708 263.898 311.583C265.513 311.145 267.085 310.999 268.594 311.119L277.752 311.946C276.243 311.826 274.671 311.972 273.056 312.41C261.521 315.535 252.17 332.331 252.17 349.925C252.17 365.056 259.086 375.849 268.359 376.587L259.201 375.759Z" fill="black"/>
<path fill-rule="evenodd" clip-rule="evenodd" d="M268.593 311.119C277.866 311.856 284.782 322.649 284.782 337.78C284.782 355.374 275.431 372.17 263.897 375.296C262.282 375.733 260.71 375.88 259.2 375.759L268.358 376.587C269.868 376.707 271.44 376.56 273.055 376.123C284.59 372.997 293.94 356.201 293.94 338.607C293.94 323.476 287.025 312.683 277.751 311.946L268.593 311.119Z" fill="black"/>
<path d="M264.029 312.065C269.573 310.563 274.598 312.612 278.275 317.223C281.965 321.852 284.284 329.063 284.284 337.781C284.284 346.493 281.966 355.006 278.229 361.72C274.602 368.235 269.674 372.994 264.29 374.661L263.767 374.813C258.223 376.315 253.197 374.266 249.52 369.655C245.83 365.026 243.512 357.815 243.512 349.098C243.512 340.385 245.828 331.871 249.566 325.157C253.193 318.643 258.122 313.885 263.506 312.217L264.029 312.065Z" fill="#BA8FFF" stroke="black"/>
<path d="M253.098 346.419C253.278 346.319 253.497 346.326 253.707 346.447L272.778 357.457C273.126 357.659 273.196 358.296 272.889 358.468L268.187 361.098C268.007 361.199 267.788 361.191 267.578 361.07L248.508 350.06C248.159 349.858 248.089 349.221 248.397 349.049L253.098 346.419Z" fill="black"/>
<path d="M256.796 327.389C256.982 327.292 257.201 327.299 257.405 327.417L276.475 338.427C276.824 338.629 276.894 339.266 276.586 339.438L271.885 342.068C271.705 342.168 271.486 342.161 271.276 342.04L252.206 331.03C251.857 330.828 251.787 330.191 252.094 330.019L256.796 327.389Z" fill="black"/>
<path d="M271.077 346.218C270.969 345.951 270.791 345.729 270.581 345.608L251.511 334.597C251.162 334.396 250.884 334.832 251.069 335.288L253.902 342.269C254.011 342.536 254.188 342.757 254.398 342.879L273.469 353.889C273.817 354.09 274.096 353.654 273.911 353.198L271.077 346.218Z" fill="black"/>
<path fill-rule="evenodd" clip-rule="evenodd" d="M262.048 413.017C257.023 408.795 255.056 401.088 257.441 391.37C261.699 374.017 278.224 356.82 294.349 352.96C301.444 351.262 307.279 352.429 311.227 355.746L320.551 363.863C316.603 360.545 310.768 359.379 303.673 361.077C287.548 364.937 271.024 382.133 266.765 399.487C264.38 409.205 266.347 416.911 271.372 421.134L262.048 413.017Z" fill="black" stroke="black" stroke-width="0.3" stroke-linejoin="round"/>
<path fill-rule="evenodd" clip-rule="evenodd" d="M311.228 355.746C316.253 359.969 318.22 367.675 315.835 377.393C311.576 394.747 295.052 411.943 278.927 415.803C271.832 417.501 265.996 416.335 262.048 413.017L271.372 421.134C275.32 424.451 281.156 425.618 288.251 423.92C304.376 420.06 320.9 402.863 325.159 385.51C327.544 375.792 325.577 368.085 320.552 363.863L311.228 355.746Z" fill="black" stroke="black" stroke-width="0.3" stroke-linejoin="round"/>
<path d="M294.466 353.447C302.403 351.547 308.628 353.308 312.361 357.552C316.105 361.81 317.454 368.694 315.349 377.274C313.244 385.849 308.101 394.412 301.47 401.312C295.045 407.999 287.259 413.088 279.555 415.129L278.81 415.317C270.873 417.217 264.648 415.456 260.916 411.212C257.172 406.954 255.821 400.069 257.927 391.49C260.031 382.914 265.175 374.352 271.806 367.452C278.438 360.549 286.521 355.349 294.466 353.447Z" fill="#BA8FFF" stroke="black"/>
<path d="M297.938 362.589C298.19 362.121 298.719 361.816 299.112 361.958C304.834 362.855 308.435 366.773 308.559 372.786C308.766 382.808 299.317 395.169 287.342 400.457C287.192 400.589 286.961 400.63 286.846 400.651C286.419 400.62 286.291 400.325 286.428 399.877L286.907 398.31C287.078 397.75 287.412 397.374 287.941 397.069C293.179 394.557 298.078 390.305 301.244 385.3C307.221 376.093 305.587 367.17 297.555 365.621C297.278 365.458 297.069 365.071 297.206 364.624L297.685 363.056C297.754 362.833 297.788 362.721 297.938 362.589ZM286.929 364.001C287.356 364.031 287.484 364.326 287.347 364.773L286.868 366.34C286.697 366.9 286.364 367.277 285.835 367.582C280.596 370.094 275.698 374.345 272.532 379.351C266.554 388.558 268.188 397.482 276.22 399.03C276.497 399.193 276.706 399.58 276.603 399.916L276.125 401.482C276.056 401.706 276.022 401.818 275.872 401.95C275.62 402.418 275.09 402.723 274.698 402.581C268.86 401.704 265.375 397.766 265.217 391.864C265.01 381.842 274.459 369.482 286.434 364.194C286.583 364.062 286.814 364.021 286.929 364.001ZM291.833 368.641C292.375 368.652 292.618 368.927 292.481 369.374L291.66 372.06C294.242 371.817 295.735 373.353 295.444 375.734L295.409 375.846C295.273 376.293 294.824 376.69 294.363 376.772L292.519 377.097C292.174 377.158 291.896 376.995 291.883 376.68C291.821 375.103 290.873 374.634 288.798 375C286.494 375.406 285.033 376.616 284.554 378.183C284.075 379.75 284.493 380.524 287.813 380.362C292.483 380.068 294.493 380.984 293.295 384.901C292.371 387.923 289.348 390.679 285.719 391.849L284.898 394.535C284.612 395.114 284.163 395.511 283.702 395.593L281.974 395.898C281.432 395.887 281.188 395.612 281.325 395.165L282.146 392.479C278.514 392.589 277.286 390.9 277.681 388.184L277.715 388.072C277.852 387.624 278.301 387.227 278.761 387.146L280.72 386.801C281.066 386.74 281.344 386.903 281.322 387.33C281.154 388.948 281.815 389.996 284.812 389.468C287.001 389.081 288.991 387.566 289.538 385.776C290.086 383.985 289.254 383.496 286.198 383.506C281.529 383.799 279.668 382.751 280.797 379.058C281.653 376.26 284.527 373.636 288.121 372.578L288.908 370.004C289.195 369.424 289.643 369.028 290.104 368.946L291.833 368.641Z" fill="black"/>
<path fill-rule="evenodd" clip-rule="evenodd" d="M266.451 394.173C261.846 399.459 250.006 398.195 236.192 390.069C218.483 379.65 204.236 361.897 204.372 350.416C204.402 347.89 205.125 345.878 206.424 344.387L199.114 352.13C197.815 353.621 197.092 355.632 197.062 358.158C196.927 369.639 211.173 387.393 228.883 397.811C242.696 405.938 254.536 407.201 259.142 401.916L266.451 394.173Z" fill="black"/>
<path fill-rule="evenodd" clip-rule="evenodd" d="M206.425 344.387C211.03 339.102 222.871 340.365 236.684 348.492C254.394 358.911 268.64 376.664 268.505 388.145C268.475 390.671 267.751 392.683 266.452 394.173L259.143 401.916C260.442 400.425 261.165 398.413 261.195 395.887C261.33 384.406 247.084 366.653 229.374 356.235C215.561 348.108 203.721 346.844 199.115 352.13L206.425 344.387Z" fill="black"/>
<path d="M213.967 341.74C219.495 341.411 227.122 343.594 235.606 348.445L236.43 348.923C245.232 354.102 253.174 361.104 258.895 368.233C264.632 375.382 268.069 382.575 268.003 388.138C267.971 390.898 267.082 392.964 265.548 394.387C264.006 395.818 261.756 396.65 258.909 396.82C253.381 397.149 245.754 394.966 237.27 390.116L236.446 389.638C227.644 384.46 219.701 377.456 213.98 370.328C208.243 363.178 204.806 355.985 204.872 350.422C204.904 347.662 205.794 345.596 207.327 344.173C208.87 342.742 211.12 341.91 213.967 341.74Z" fill="#BA8FFF" stroke="black"/>
<path d="M217.422 355.114C216.958 354.805 216.688 354.34 216.871 354.096C218.311 350.223 222.702 348.704 228.96 350.258C239.389 352.849 251.39 363.029 255.818 373.092C255.942 373.236 255.964 373.413 255.975 373.501C255.906 373.8 255.587 373.811 255.134 373.59L253.549 372.817C252.983 372.541 252.622 372.198 252.352 371.734C250.208 367.277 246.227 362.591 241.309 358.944C232.275 352.125 222.86 350.861 220.538 356.217C220.344 356.372 219.924 356.417 219.471 356.196L217.886 355.423C217.66 355.313 217.546 355.258 217.422 355.114ZM217.91 363.422C217.98 363.123 218.297 363.112 218.75 363.332L220.335 364.105C220.902 364.382 221.263 364.724 221.533 365.189C223.677 369.645 227.658 374.332 232.576 377.979C241.609 384.797 251.024 386.062 253.347 380.706C253.541 380.551 253.961 380.506 254.301 380.672L255.886 381.445C256.112 381.555 256.226 381.61 256.35 381.754C256.813 382.063 257.083 382.528 256.9 382.771C255.471 386.733 251.07 388.164 244.925 386.664C234.495 384.073 222.495 373.894 218.066 363.831C217.943 363.687 217.921 363.511 217.91 363.422ZM223.165 361.16C223.224 360.773 223.532 360.674 223.984 360.894L226.702 362.22C226.678 360.295 228.408 359.64 230.855 360.501L230.968 360.556C231.421 360.777 231.792 361.208 231.836 361.562L232.01 362.978C232.042 363.243 231.849 363.399 231.521 363.322C229.877 362.936 229.306 363.49 229.502 365.082C229.719 366.852 230.846 368.234 232.431 369.007C234.016 369.78 234.857 369.691 234.984 367.257C235.093 363.816 236.224 362.621 240.187 364.553C243.243 366.044 245.838 368.974 246.73 371.904L249.448 373.23C250.025 373.594 250.397 374.026 250.441 374.38L250.603 375.707C250.544 376.094 250.237 376.195 249.785 375.974L247.067 374.648C246.859 377.292 244.995 377.714 242.209 376.688L242.096 376.632C241.643 376.411 241.271 375.98 241.227 375.626L241.042 374.122C241.01 373.857 241.204 373.702 241.646 373.834C243.311 374.397 244.459 374.208 244.177 371.907C243.97 370.226 242.573 368.379 240.761 367.496C238.949 366.612 238.368 367.077 238.106 369.279C237.996 372.719 236.742 373.771 233.006 371.949C230.175 370.569 227.704 367.783 226.925 364.908L224.321 363.637C223.744 363.273 223.372 362.841 223.328 362.487L223.165 361.16Z" fill="black"/>
<path fill-rule="evenodd" clip-rule="evenodd" d="M215.659 413.64C209.922 418.858 200.66 419.826 190.211 415.257C172.796 407.642 158.678 387.533 158.678 370.342C158.678 363.465 160.937 358.097 164.762 354.618L156.035 361.847C152.209 365.326 149.951 370.694 149.951 377.571C149.951 394.762 164.068 414.872 181.483 422.486C191.932 427.055 201.194 426.088 206.932 420.869L215.659 413.64Z" fill="black"/>
<path fill-rule="evenodd" clip-rule="evenodd" d="M164.763 354.618C170.501 349.4 179.763 348.432 190.212 353.001C207.627 360.616 221.744 380.725 221.744 397.916C221.744 404.793 219.485 410.161 215.66 413.64L206.933 420.869C210.758 417.39 213.017 412.022 213.017 405.145C213.017 387.954 198.899 367.845 181.484 360.23C171.035 355.661 161.773 356.629 156.036 361.847L164.763 354.618Z" fill="black"/>
<path d="M168.155 352.807C173.513 349.861 180.918 349.701 189.206 353.118L190.011 353.459C198.621 357.224 206.436 364.089 212.099 372.155C217.763 380.223 221.244 389.45 221.244 397.917C221.244 406.369 217.781 412.418 212.267 415.451C206.909 418.397 199.503 418.557 191.216 415.14L190.411 414.798C181.801 411.034 173.986 404.169 168.323 396.103C162.659 388.035 159.179 378.808 159.179 370.341C159.179 361.889 162.641 355.84 168.155 352.807Z" fill="#BA8FFF" stroke="black"/>
<path d="M199.148 381.112C200.884 379.898 201.623 378.005 200.428 375.106C198.802 371.143 194.792 370.178 190.132 370.273L188.432 364.718L184.912 365.088L186.565 370.497C185.638 370.595 184.699 370.712 183.765 370.828L182.1 365.384L178.582 365.754L180.28 371.308C179.522 371.403 178.778 371.496 178.047 371.573L178.042 371.556L173.185 372.065L174.29 375.676C174.29 375.676 176.875 375.355 176.847 375.405C178.272 375.257 178.981 376.003 179.325 376.675L181.26 383.004L183.978 391.893C184.047 392.331 183.994 393.047 182.997 393.153C183.054 393.186 180.436 393.422 180.436 393.422L180.972 397.533L185.553 397.051C186.407 396.963 187.249 396.887 188.074 396.807L189.795 402.425L193.311 402.056L191.611 396.497C192.584 396.414 193.52 396.324 194.432 396.227L196.123 401.761L199.643 401.391L197.931 395.782C203.748 394.833 207.453 392.966 206.336 387.572C205.437 383.23 202.745 381.533 199.148 381.112ZM185.064 374.795C187.05 374.586 193.109 373.322 194.328 377.307C195.495 381.127 189.116 381.337 187.129 381.546L185.064 374.795ZM190.445 392.398L188.171 384.954C190.556 384.703 197.837 383.258 199.177 387.637C200.462 391.837 192.831 392.146 190.445 392.398Z" fill="black"/>
<path fill-rule="evenodd" clip-rule="evenodd" d="M203.297 425.209C202.607 423.376 202.242 421.419 202.242 419.357C202.242 404.63 220.839 390.151 243.78 387.017C263.51 384.321 280.026 390.894 284.264 402.154L287.159 410.909C282.921 399.648 266.404 393.076 246.675 395.771C223.734 398.906 205.137 413.385 205.137 428.111C205.137 430.173 205.502 432.13 206.191 433.963L203.297 425.209Z" fill="black"/>
<path fill-rule="evenodd" clip-rule="evenodd" d="M284.263 402.154C284.953 403.987 285.318 405.945 285.318 408.006C285.318 422.733 266.721 437.212 243.78 440.346C224.05 443.042 207.534 436.469 203.296 425.209L206.191 433.963C210.429 445.223 226.945 451.796 246.674 449.101C269.615 445.966 288.213 431.487 288.213 416.76C288.213 414.699 287.848 412.742 287.158 410.908L284.263 402.154Z" fill="black"/>
<path d="M243.848 387.513C255.241 385.956 265.519 387.517 272.927 391.26C280.331 395.001 284.818 400.887 284.818 408.007C284.818 415.156 280.297 422.327 272.845 428.129C265.636 433.741 255.744 438.02 244.777 439.697L243.713 439.851C232.32 441.407 222.041 439.847 214.634 436.104C207.23 432.362 202.742 426.477 202.742 419.357C202.742 412.208 207.264 405.036 214.716 399.234C221.925 393.622 231.816 389.343 242.783 387.666L243.848 387.513Z" fill="#BA8FFF" stroke="black"/>
<path d="M217.24 404.979L253.656 417.686L257.21 403.143L217.24 404.979Z" fill="black" stroke="#BA8FFF" stroke-linejoin="round"/>
<path d="M217.239 404.979L231.132 425.62L253.655 417.686L236.792 411.806L217.239 404.979Z" fill="black" stroke="#BA8FFF" stroke-linejoin="round"/>
<path d="M256.842 418.802L270.127 423.438L260.297 404.21L256.842 418.802Z" fill="black" stroke="#BA8FFF" stroke-linejoin="round"/>
<path d="M270.125 423.438L256.84 418.802L234.211 426.694L270.125 423.438Z" fill="black" stroke="#BA8FFF" stroke-linejoin="round"/>
<path d="M253.653 417.686L257.206 403.142L236.79 411.806L253.653 417.686Z" fill="black" stroke="#BA8FFF" stroke-linejoin="round"/>
<path d="M231.132 425.62L253.651 417.689L236.791 411.806L231.132 425.62Z" fill="black" stroke="#BA8FFF" stroke-linejoin="round"/>
</g>
<path fill-rule="evenodd" clip-rule="evenodd" d="M265.924 192.958L258.853 190.54L268.753 187.154L275.824 189.572L265.924 192.958Z" fill="black"/>
<path fill-rule="evenodd" clip-rule="evenodd" d="M258.853 190.54V218.73L268.753 215.345V187.154L258.853 190.54Z" fill="black"/>
<path fill-rule="evenodd" clip-rule="evenodd" d="M244.71 195.1L251.782 197.518L255.5 195.1L254.61 191.714L244.71 195.1Z" fill="black"/>
<path fill-rule="evenodd" clip-rule="evenodd" d="M251.782 178.724L265.924 183.561V192.958L275.823 189.572V180.175L261.681 175.338L251.782 178.724Z" fill="black"/>
<path fill-rule="evenodd" clip-rule="evenodd" d="M244.711 195.1L237.64 192.681V183.284L247.539 179.898V189.295L254.61 191.714L244.711 195.1Z" fill="black"/>
<path fill-rule="evenodd" clip-rule="evenodd" d="M237.64 183.284L244.711 185.703V195.1L254.61 191.714V182.317L247.539 179.898L237.64 183.284Z" fill="black"/>
<path fill-rule="evenodd" clip-rule="evenodd" d="M237.64 183.284L188.142 166.355V156.958L198.042 153.572V162.969L247.539 179.898L237.64 183.284Z" fill="black"/>
<path fill-rule="evenodd" clip-rule="evenodd" d="M188.142 156.958L237.64 173.887V183.284L247.539 179.898V170.501L198.042 153.572L188.142 156.958Z" fill="black"/>
<path fill-rule="evenodd" clip-rule="evenodd" d="M188.142 156.958L181.071 154.54V145.143L190.971 141.757V151.154L198.042 153.572L188.142 156.958Z" fill="black"/>
<path fill-rule="evenodd" clip-rule="evenodd" d="M181.071 145.143L188.142 147.561V156.958L198.042 153.572V144.176L190.971 141.757L181.071 145.143Z" fill="black"/>
<path fill-rule="evenodd" clip-rule="evenodd" d="M272.995 185.98L265.924 183.561V174.164L275.823 170.778V180.175L282.894 182.594L272.995 185.98Z" fill="black"/>
<path fill-rule="evenodd" clip-rule="evenodd" d="M265.924 174.164L272.995 176.583V185.98L282.894 182.594V173.197L275.823 170.778L265.924 174.164Z" fill="black"/>
<path fill-rule="evenodd" clip-rule="evenodd" d="M181.071 145.143L174 142.724V86.3429L183.899 82.957V139.339L190.971 141.757L181.071 145.143Z" fill="black"/>
<path fill-rule="evenodd" clip-rule="evenodd" d="M174 86.3429L181.071 88.7613V145.143L190.971 141.757V85.3755L183.899 82.957L174 86.3429Z" fill="black"/>
<path fill-rule="evenodd" clip-rule="evenodd" d="M230.569 162.072L223.498 159.653V150.256L233.397 146.871V156.268L240.468 158.686L230.569 162.072Z" fill="black"/>
<path fill-rule="evenodd" clip-rule="evenodd" d="M223.498 150.256L230.569 152.675V162.072L240.468 158.686V149.289L233.397 146.871L223.498 150.256Z" fill="black"/>
<path fill-rule="evenodd" clip-rule="evenodd" d="M280.066 179.001L272.995 176.583V120.201L282.895 116.815V173.197L289.966 175.615L280.066 179.001Z" fill="black"/>
<path fill-rule="evenodd" clip-rule="evenodd" d="M272.995 120.201L280.066 122.619V179.001L289.966 175.615V119.234L282.895 116.815L272.995 120.201Z" fill="black"/>
<path fill-rule="evenodd" clip-rule="evenodd" d="M223.497 150.257L216.426 147.838V138.441L226.326 135.055V144.452L233.397 146.871L223.497 150.257Z" fill="black"/>
<path fill-rule="evenodd" clip-rule="evenodd" d="M216.426 138.441L223.497 140.86V150.257L233.397 146.871V137.474L226.326 135.055L216.426 138.441Z" fill="black"/>
<path fill-rule="evenodd" clip-rule="evenodd" d="M237.639 155.094L230.568 152.675V143.278L240.468 139.892V149.289L247.539 151.708L237.639 155.094Z" fill="black"/>
<path fill-rule="evenodd" clip-rule="evenodd" d="M230.568 143.278L237.639 145.697V155.094L247.539 151.708V142.311L240.468 139.892L230.568 143.278Z" fill="black"/>
<path fill-rule="evenodd" clip-rule="evenodd" d="M216.427 138.441L209.355 136.023V126.626L219.255 123.24V132.637L226.326 135.055L216.427 138.441Z" fill="black"/>
<path fill-rule="evenodd" clip-rule="evenodd" d="M209.355 126.626L216.427 129.044V138.441L226.326 135.055V125.658L219.255 123.24L209.355 126.626Z" fill="black"/>
<path fill-rule="evenodd" clip-rule="evenodd" d="M244.711 148.115L237.64 145.697V136.3L247.539 132.914V142.311L254.61 144.729L244.711 148.115Z" fill="black"/>
<path fill-rule="evenodd" clip-rule="evenodd" d="M237.64 136.3L244.711 138.718V148.115L254.61 144.729V135.332L247.539 132.914L237.64 136.3Z" fill="black"/>
<path fill-rule="evenodd" clip-rule="evenodd" d="M209.355 126.626L202.284 124.207V105.413L212.184 102.028V120.821L219.255 123.24L209.355 126.626Z" fill="black"/>
<path fill-rule="evenodd" clip-rule="evenodd" d="M202.284 105.413L209.355 107.832V126.626L219.255 123.24V104.446L212.184 102.028L202.284 105.413Z" fill="black"/>
<path fill-rule="evenodd" clip-rule="evenodd" d="M251.782 141.136L244.71 138.718V119.924L254.61 116.538V135.332L261.681 137.751L251.782 141.136Z" fill="black"/>
<path fill-rule="evenodd" clip-rule="evenodd" d="M244.71 119.924L251.782 122.343V141.136L261.681 137.751V118.957L254.61 116.538L244.71 119.924Z" fill="black"/>
<path fill-rule="evenodd" clip-rule="evenodd" d="M230.569 124.484L223.498 122.066V112.669L233.397 109.283V118.68L240.468 121.098L230.569 124.484Z" fill="black"/>
<path fill-rule="evenodd" clip-rule="evenodd" d="M223.498 112.669L230.569 115.087V124.484L240.468 121.098V111.701L233.397 109.283L223.498 112.669Z" fill="black"/>
<path fill-rule="evenodd" clip-rule="evenodd" d="M223.498 112.669L209.355 107.832V98.4351L219.255 95.0493V104.446L233.397 109.283L223.498 112.669Z" fill="black"/>
<path fill-rule="evenodd" clip-rule="evenodd" d="M209.355 98.4351L223.498 103.272V112.669L233.397 109.283V99.8862L219.255 95.0493L209.355 98.4351Z" fill="black"/>
<path fill-rule="evenodd" clip-rule="evenodd" d="M244.71 119.924L230.568 115.087V105.69L240.468 102.304V111.701L254.61 116.538L244.71 119.924Z" fill="black"/>
<path fill-rule="evenodd" clip-rule="evenodd" d="M230.568 105.69L244.71 110.527V119.924L254.61 116.538V107.141L240.468 102.304L230.568 105.69Z" fill="black"/>
<path fill-rule="evenodd" clip-rule="evenodd" d="M188.142 91.1797L181.071 88.7613V79.3643L190.971 75.9785V85.3754L198.042 87.7939L188.142 91.1797Z" fill="black"/>
<path fill-rule="evenodd" clip-rule="evenodd" d="M181.071 79.3643L188.142 81.7828V91.1797L198.042 87.7939V78.397L190.971 75.9785L181.071 79.3643Z" fill="black"/>
<path fill-rule="evenodd" clip-rule="evenodd" d="M272.995 120.201L265.924 117.783V108.386L275.823 105V114.397L282.894 116.815L272.995 120.201Z" fill="black"/>
<path fill-rule="evenodd" clip-rule="evenodd" d="M265.924 108.386L272.995 110.804V120.201L282.894 116.815V107.418L275.823 105L265.924 108.386Z" fill="black"/>
<path fill-rule="evenodd" clip-rule="evenodd" d="M265.924 108.386L188.142 81.7828V72.3858L198.042 69V78.3969L275.823 105L265.924 108.386Z" fill="black"/>
<path fill-rule="evenodd" clip-rule="evenodd" d="M188.142 72.3858L265.924 98.9888V108.386L275.823 105V95.6029L198.042 69L188.142 72.3858Z" fill="black"/>
<path d="M265.924 192.958L258.853 190.539V218.73L251.782 216.312V206.915L244.711 204.496V195.1L251.782 197.518V178.724L265.924 183.561V192.958ZM244.711 195.1L237.64 192.681V183.284L244.711 185.703V195.1ZM237.64 183.284L188.142 166.355V156.958L237.64 173.887V183.284ZM188.142 156.958L181.071 154.54V145.143L188.142 147.561V156.958ZM272.995 185.979L265.924 183.561V174.164L272.995 176.583V185.979ZM181.071 145.143L174 142.724V86.3427L181.071 88.7611V145.143ZM230.569 162.072L223.497 159.653V150.256L230.569 152.675V162.072ZM280.066 179.001L272.995 176.583V120.201L280.066 122.619V179.001ZM223.497 150.256L216.426 147.838V138.441L223.497 140.86V150.256ZM237.64 155.093L230.569 152.675V143.278L237.64 145.696V155.093ZM216.426 138.441L209.355 136.023V126.626L216.426 129.044V138.441ZM244.711 148.115L237.64 145.696V136.3L244.711 138.718V148.115ZM209.355 126.626L202.284 124.207V105.413L209.355 107.832V126.626ZM251.782 141.136L244.711 138.718V119.924L251.782 122.343V141.136ZM230.569 124.484L223.497 122.066V112.669L230.569 115.087V124.484ZM223.497 112.669L209.355 107.832V98.4349L223.497 103.272V112.669ZM244.711 119.924L230.569 115.087V105.69L244.711 110.527V119.924ZM188.142 91.1796L181.071 88.7611V79.3642L188.142 81.7827V91.1796ZM272.995 120.201L265.924 117.783V108.386L272.995 110.804V120.201ZM265.924 108.386L188.142 81.7827V72.3857L265.924 98.9887V108.386Z" fill="white"/>
</svg>
