<svg width="180" height="201" viewBox="0 0 180 201" fill="none" xmlns="http://www.w3.org/2000/svg">
<path d="M130 140V130H140V110H150V50H140V40H130V30H120V20H110V10H70V20H40V30H20V50V100V110H30V130H40V140H30V150H10V160H0V210H10V220H20V230H30V281H70V241H100V281H140V230H150V220H160V210H170V160H160V150H140V140H130Z" fill="#EBDDFF"/>
<path d="M40 271H60V231H110V271H130V181H140V220H150V230H140V281H100V241H70V281H30V230H20V220H30V181H40V271ZM20 220H10V210H20V220ZM160 220H150V210H160V220ZM10 210H0V160H10V210ZM170 210H160V160H170V210ZM30 160H10V150H30V160ZM160 160H140V150H160V160ZM60 140H50V150H30V140H40V130H60V140ZM70 150H60V140H70V150ZM110 150H100V140H110V150ZM130 140H140V150H120V140H110V130H130V140ZM40 130H30V110H40V130ZM140 130H130V110H140V130ZM96 109V119H76V109H96ZM110 20H120V30H130V40H140V50H150V110H140V90H130V60H120V50H50V60H40V90H30V110H20V30H40V20H70V10H110V20ZM67 99H57V79H67V99ZM113 99H103V79H113V99Z" fill="black"/>
<path d="M140 160H160V210H150V220H140V181H130V201H40V181H30V220H20V210H10V160H30V150H50H60H110H120H140V160Z" fill="white"/>
<path d="M50 140V150H60V140H50Z" fill="white"/>
<path d="M110 140V150H120V140H110Z" fill="white"/>
<path d="M120 20H130V40H20V20H30V10H40V0H110V10H120V20Z" fill="#885DCD"/>
<rect x="20" y="40" width="120" height="10" fill="black"/>
<rect x="140" y="40" width="40" height="10" fill="black"/>
</svg>
