<svg width="840" height="388" viewBox="0 0 840 388" fill="none" xmlns="http://www.w3.org/2000/svg">
<g clip-path="url(#clip0_52_863)">
<path d="M469.389 37.9117L484.088 13.2726C470.599 4.00532 439.145 -15.5672 421.242 -19.7187C417.25 -20.6444 413.388 -21.4921 409.745 -22.1912C410.477 -16.8095 413.316 -1.70231 418.815 15.6735C425.689 37.3933 433.07 68.8739 432.434 88.0964C431.797 107.319 419.496 124.998 404.736 134.27C395.073 140.339 380.326 146.22 364.704 148.045C356.464 149.009 347.98 148.843 339.871 146.982C329.67 144.641 324.477 139.159 322.093 133.526C313.571 119.47 308.406 107.16 309.688 81.2292C310.555 63.7006 312.313 45.5538 313.774 28.5059C314.474 20.3342 315.106 12.415 315.539 4.93751C316.009 -3.2009 314.117 -11.9219 311.389 -19.7017C306.692 -19.7936 295.198 -18.4242 286.793 -12.2109C277.725 -5.50774 247.348 25.2984 236.567 44.1025C234.857 47.086 233.639 49.7674 233.079 52.0024C229.805 65.0597 226.29 76.9359 234.541 94.1911C259.073 110.472 290.558 134.463 289.714 147.57C288.557 165.561 285.391 176.476 283.632 181.163C281.434 187.021 256.671 207.563 250.718 212.173C249.846 212.848 249.189 213.683 248.697 214.651C247.197 217.597 247.225 221.767 247.363 226.353C247.489 230.545 247.707 235.086 246.933 239.357C246.244 243.165 244.585 246.319 242.465 249.067C236.922 256.255 228.227 260.668 225.479 266.754C222.601 273.128 222.059 283.548 223.701 289.14C225.679 291.029 227.798 292.927 230.055 294.883C240.674 304.086 260.926 320.189 269.724 327.09L249.348 323.401C242.168 316.983 234.27 309.296 227.857 300.741C225.381 297.438 218.284 285.737 216.128 280.986C210.692 274.179 207.002 266.622 205.198 256.257C204.712 253.463 204.744 250.807 205.17 248.289C207.179 236.412 217.946 227.63 224.334 222.184C225.131 221.504 225.86 220.876 226.496 220.3C231.876 215.427 228.738 206.521 232.41 197.483C233.381 195.093 234.829 192.694 237.036 190.358C245.073 181.851 270.873 169.964 283.137 158.323C282.443 154.974 279.111 146.447 271.337 139.124C263.563 131.801 238.139 102.59 226.399 88.8996C200.953 66.0922 200.54 49.5236 205.43 28.7962C208.323 16.5319 223.067 -1.7063 237.956 -17.0717C249.527 -29.0124 261.186 -39.2181 267.439 -43.537C278.88 -51.4381 293.971 -45.574 300.086 -41.6544L338.702 -13.0501C340.455 -11.216 344.714 -6.04661 347.722 -0.0419686C355.555 15.5951 352.117 54.2169 342.071 75.1483C339.221 81.0853 336.375 86.8516 333.726 92.2204L333.384 92.9132C327.222 105.398 322.181 115.652 320.73 120.766C327.42 124.059 333.814 125.182 339.901 124.827C353.773 124.018 366.049 115.535 376.584 107.56C393.72 94.5891 417.655 72.3393 414.086 51.2178C410.516 30.0962 383.01 -3.3217 381.799 -15.4847C381.475 -18.7499 382.554 -20.9412 384.739 -22.2993C395.048 -31.0654 416.495 -48.7886 419.818 -49.5519C423.972 -50.5061 442.217 -48.4006 463.827 -38.1714C491.067 -25.2767 521.869 -3.77482 524.878 4.7327C527.286 11.5387 510.963 28.1865 502.826 35.4342C500.509 43.2048 479.569 40.3236 469.389 37.9117Z" fill="#A66CFF"/>
<path d="M484.088 13.2726L469.389 37.9117C479.569 40.3236 500.509 43.2048 502.826 35.4342M484.088 13.2726C491.299 17.4221 505.143 27.6636 502.826 35.4342M484.088 13.2726C470.599 4.00532 439.145 -15.5672 421.242 -19.7187C417.25 -20.6444 413.388 -21.4921 409.745 -22.1912M502.826 35.4342C510.963 28.1865 527.286 11.5387 524.878 4.7327C521.869 -3.77482 491.067 -25.2767 463.827 -38.1714C442.217 -48.4006 423.972 -50.5061 419.818 -49.5519C416.495 -48.7886 395.048 -31.0654 384.739 -22.2993M320.73 120.766C320.069 123.939 320.087 128.786 322.093 133.526M320.73 120.766C322.181 115.652 327.222 105.398 333.384 92.9132M320.73 120.766C327.42 124.059 333.814 125.182 339.901 124.827M384.739 -22.2993C382.554 -20.9412 381.475 -18.7499 381.799 -15.4847C383.01 -3.3217 410.516 30.0962 414.086 51.2178C417.655 72.3393 393.72 94.5891 376.584 107.56C366.049 115.535 353.773 124.018 339.901 124.827M384.739 -22.2993C389.244 -25.0979 398.446 -24.3592 409.745 -22.1912M409.745 -22.1912C410.477 -16.8095 413.316 -1.70231 418.815 15.6735C425.689 37.3933 433.07 68.8739 432.434 88.0964C431.797 107.319 419.496 124.998 404.736 134.27C395.073 140.339 380.326 146.22 364.704 148.046M300.086 -41.6544L338.702 -13.0501C340.455 -11.216 344.714 -6.04661 347.722 -0.0419676C355.555 15.5951 352.117 54.2169 342.071 75.1483C339.098 81.3415 336.13 87.3489 333.384 92.9132M300.086 -41.6544C293.971 -45.574 278.88 -51.4381 267.439 -43.537C261.186 -39.2181 249.527 -29.0124 237.956 -17.0717M300.086 -41.6544C303.122 -37.9245 307.928 -29.5703 311.389 -19.7017M322.093 133.526C324.477 139.159 329.67 144.641 339.871 146.982C347.98 148.843 356.464 149.009 364.704 148.046M322.093 133.526C313.571 119.47 308.406 107.16 309.688 81.2292C310.555 63.7006 312.313 45.5538 313.774 28.5059M226.399 88.8996C200.953 66.0922 200.54 49.5236 205.43 28.7962C208.323 16.532 223.067 -1.7063 237.956 -17.0717M226.399 88.8996C238.139 102.59 263.563 131.801 271.337 139.124C279.111 146.447 282.443 154.974 283.137 158.323M226.399 88.8996C228.677 90.9419 231.714 92.3155 234.541 94.1911M289.714 147.57C288.557 165.561 285.391 176.476 283.632 181.163C281.434 187.021 256.671 207.563 250.718 212.173C249.846 212.848 249.189 213.683 248.697 214.651M289.714 147.57C289.49 151.056 286.977 154.677 283.137 158.323M289.714 147.57C290.558 134.463 259.073 110.472 234.541 94.1911M237.036 190.358C245.073 181.851 270.873 169.964 283.137 158.323M237.036 190.358L248.697 214.651M237.036 190.358C234.829 192.694 233.381 195.093 232.41 197.483M216.128 280.986C210.692 274.179 207.002 266.622 205.198 256.257C204.712 253.463 204.744 250.807 205.17 248.289M216.128 280.986C218.284 285.737 225.381 297.438 227.857 300.741C234.27 309.296 242.168 316.983 249.348 323.401L269.724 327.09C260.926 320.189 240.674 304.086 230.055 294.883C227.798 292.927 225.679 291.029 223.701 289.14M216.128 280.986C218.361 283.783 220.889 286.453 223.701 289.14M223.701 289.14C222.059 283.548 222.601 273.128 225.479 266.754M225.479 266.754C228.227 260.668 236.922 256.255 242.465 249.067M225.479 266.754L205.17 248.289M311.389 -19.7017C314.117 -11.9219 316.009 -3.2009 315.539 4.93751C315.106 12.415 314.474 20.3342 313.774 28.5059M311.389 -19.7017C306.692 -19.7936 295.198 -18.4242 286.793 -12.2109C277.725 -5.50774 247.348 25.2984 236.567 44.1025M234.541 94.1911C226.29 76.9359 229.805 65.0597 233.079 52.0024C233.639 49.7674 234.857 47.086 236.567 44.1025M237.956 -17.0717C234.167 3.85509 230.658 27.6763 236.567 44.1025M313.774 28.5059C325.531 47.1285 329.899 63.8444 333.384 92.9132M339.901 124.827C344.619 136.467 351.18 141.067 364.704 148.046M248.697 214.651C247.197 217.597 247.225 221.767 247.363 226.353M232.41 197.483C228.738 206.521 231.876 215.427 226.496 220.3C225.86 220.876 225.131 221.504 224.334 222.184M232.41 197.483L247.363 226.353M247.363 226.353C247.489 230.545 247.707 235.086 246.933 239.357C246.244 243.165 244.585 246.319 242.465 249.067M224.334 222.184L242.465 249.067M224.334 222.184C217.946 227.63 207.179 236.412 205.17 248.289" stroke="#C4E703"/>
<path d="M347.721 -0.0420473C355.554 15.595 352.117 54.2169 342.071 75.1483C339.221 81.085 336.375 86.8512 333.726 92.2199L333.383 92.9132C327.222 105.398 322.18 115.652 320.73 120.766C327.419 124.059 333.814 125.182 339.901 124.827C344.619 136.467 351.18 141.067 364.704 148.045C356.464 149.008 347.98 148.843 339.871 146.982C329.67 144.641 324.477 139.159 322.093 133.526C320.086 128.786 320.069 123.939 320.73 120.766C322.18 115.652 327.222 105.398 333.383 92.9132C329.898 63.8443 325.531 47.1284 313.774 28.5058C314.474 20.3341 315.106 12.415 315.538 4.93743C316.009 -3.20098 314.117 -11.9219 311.388 -19.7017C307.927 -29.5703 303.121 -37.9246 300.086 -41.6545L338.702 -13.0502C340.455 -11.2161 344.714 -6.04669 347.721 -0.0420473Z" fill="#C4E703"/>
<path d="M226.398 88.8995C200.952 66.0922 200.54 49.5235 205.43 28.7961C208.323 16.5319 223.067 -1.70638 237.956 -17.0718C234.167 3.85501 230.658 27.6762 236.567 44.1024C234.856 47.0859 233.639 49.7673 233.079 52.0023C229.805 65.0597 226.289 76.9359 234.54 94.191C259.073 110.472 290.557 134.463 289.714 147.57C288.557 165.561 285.391 176.476 283.632 181.163C281.434 187.021 256.671 207.563 250.717 212.173C249.846 212.848 249.189 213.683 248.696 214.651L237.035 190.358C245.072 181.851 270.873 169.964 283.136 158.323C286.977 154.677 289.49 151.056 289.714 147.57C290.557 134.463 259.073 110.472 234.54 94.191C231.714 92.3154 228.677 90.9418 226.398 88.8995Z" fill="#C4E703"/>
<path d="M216.128 280.986C210.692 274.178 207.002 266.622 205.198 256.257C204.711 253.463 204.744 250.807 205.17 248.289C207.179 236.412 217.946 227.63 224.333 222.183C225.131 221.503 225.86 220.875 226.496 220.3C231.876 215.427 228.737 206.521 232.41 197.483L247.363 226.353C247.489 230.545 247.706 235.086 246.933 239.357C246.244 243.165 244.585 246.319 242.465 249.067L224.333 222.183C217.946 227.63 207.179 236.412 205.17 248.289L225.479 266.754C222.601 273.128 222.059 283.548 223.701 289.139C220.888 286.453 218.361 283.783 216.128 280.986Z" fill="#C4E703"/>
<path d="M320.73 120.766C320.069 123.939 320.086 128.786 322.093 133.526C324.477 139.159 329.67 144.641 339.871 146.982C347.98 148.843 356.464 149.008 364.704 148.045C351.18 141.067 344.619 136.467 339.901 124.827C333.814 125.182 327.419 124.059 320.73 120.766ZM320.73 120.766C322.18 115.652 327.222 105.398 333.383 92.9132M289.714 147.57C288.557 165.561 285.391 176.476 283.632 181.163C281.434 187.021 256.671 207.563 250.717 212.173C249.846 212.848 249.189 213.683 248.696 214.651L237.035 190.358C245.072 181.851 270.873 169.964 283.136 158.323C286.977 154.677 289.49 151.056 289.714 147.57ZM289.714 147.57C290.557 134.463 259.073 110.472 234.54 94.191M230.055 294.883C227.798 292.927 225.679 291.029 223.701 289.139M227.857 300.741C225.38 297.438 218.284 285.737 216.128 280.986M216.128 280.986C210.692 274.178 207.002 266.622 205.198 256.257C204.711 253.463 204.744 250.807 205.17 248.289M216.128 280.986C218.361 283.783 220.888 286.453 223.701 289.139M223.701 289.139C222.059 283.548 222.601 273.128 225.479 266.754L205.17 248.289M234.54 94.191C231.714 92.3154 228.677 90.9418 226.398 88.8995C200.952 66.0922 200.54 49.5235 205.43 28.7961C208.323 16.5319 223.067 -1.70637 237.956 -17.0718C234.167 3.85501 230.658 27.6762 236.567 44.1024C234.856 47.0859 233.639 49.7673 233.079 52.0023C229.805 65.0597 226.289 76.9359 234.54 94.191ZM333.383 92.9132C336.13 87.3488 339.098 81.3414 342.071 75.1483C352.117 54.2169 355.554 15.595 347.721 -0.0420456C344.714 -6.04669 340.455 -11.2161 338.702 -13.0502L300.086 -41.6545C303.121 -37.9246 307.927 -29.5703 311.388 -19.7017C314.117 -11.9219 316.009 -3.20098 315.538 4.93743C315.106 12.415 314.474 20.3341 313.774 28.5058C325.531 47.1284 329.898 63.8443 333.383 92.9132ZM224.333 222.183C225.131 221.503 225.86 220.875 226.496 220.3C231.876 215.427 228.737 206.521 232.41 197.483L247.363 226.353C247.489 230.545 247.706 235.085 246.933 239.357C246.244 243.165 244.585 246.319 242.465 249.067L224.333 222.183ZM224.333 222.183C217.946 227.63 207.179 236.412 205.17 248.289" stroke="#C4E703"/>
<path d="M441.869 307.195C435.527 327.655 445.806 353.777 445.806 366C445.806 388.153 433.306 393.629 433.306 393.629L390.806 392.956C410.306 377.521 418.683 354.771 421.614 336.783C425.278 314.298 432.892 282.873 442.132 266.005C451.372 249.137 470.325 238.908 487.681 237.292C499.043 236.235 514.857 237.64 529.622 243.058C537.411 245.916 544.908 249.891 551.305 255.21C559.353 261.901 561.514 269.136 561.101 275.239C562.365 291.628 561.421 304.945 548.579 327.508C539.898 342.761 530.142 358.162 521.147 372.718C516.836 379.695 512.699 386.478 508.94 392.956C504.849 400.007 502.603 408.643 501.528 416.817C505.678 419.018 516.554 422.981 526.858 421.228C537.974 419.336 578.983 405.548 597.087 393.629C599.96 391.738 602.256 389.894 603.764 388.153C612.577 377.976 621.072 368.963 621.492 349.842C606.943 324.245 589.667 288.63 596.333 277.313C605.482 261.779 613.232 253.465 616.916 250.076C621.521 245.839 652.888 238.678 660.281 237.25C661.363 237.041 662.326 236.592 663.202 235.95C665.869 233.997 667.725 230.263 669.671 226.108C671.45 222.31 673.304 218.16 675.921 214.697C678.255 211.609 681.158 209.543 684.289 208.046C692.479 204.132 702.231 204.116 707.428 199.925C712.872 195.534 718.057 186.479 719.114 180.749C718.201 178.17 717.166 175.52 716.034 172.756C710.709 159.753 699.9 136.245 695.161 126.116C675.921 94.0001 674.258 62.0303 684.289 38.5001C695.161 13.0001 719.591 -2.49983 731.806 -10.9998L787.806 -10.9998C765.849 2.16684 727.306 34.0001 711.681 58.5001C693.266 87.3756 702.806 109.899 711.681 137.5C714.098 145.016 717.249 157.472 719.114 168C719.834 172.065 722.413 186.229 722.194 191.441C723.974 199.969 723.858 208.378 720.793 218.442C719.966 221.155 718.739 223.511 717.223 225.566C710.072 235.259 696.501 238.24 688.343 240.219C687.325 240.466 686.391 240.697 685.564 240.924C678.563 242.846 677.347 252.21 669.992 258.619C668.047 260.314 665.673 261.802 662.65 262.891C651.639 266.857 623.251 265.827 607.054 270.683C606.163 273.985 605.289 283.098 608.924 293.141C612.558 303.183 622.07 340.723 626.372 358.237C638.792 390.071 631.686 405.044 617.971 421.336C609.856 430.976 588.47 440.602 568.25 447.598C552.537 453.035 537.528 456.883 529.998 457.916C516.223 459.806 505.401 447.765 501.711 441.508L480.153 398.559C479.416 396.131 477.947 389.597 477.972 382.881C478.035 365.392 498.527 332.474 516.936 318.326C522.157 314.313 527.298 310.451 532.084 306.855L532.703 306.391C543.834 298.028 552.959 291.151 556.561 287.241C552.076 281.285 546.876 277.398 541.283 274.968C528.539 269.433 513.756 271.466 500.756 273.83C479.611 277.675 448.212 286.734 441.869 307.195Z" fill="#A66CFF"/>
<path d="M556.561 287.241C558.582 284.708 560.753 280.375 561.101 275.239M556.561 287.241C552.959 291.151 543.834 298.028 532.703 306.391M556.561 287.241C552.076 281.285 546.876 277.398 541.283 274.968M501.711 441.508L480.153 398.559C479.416 396.131 477.947 389.597 477.972 382.881C478.035 365.392 498.527 332.474 516.936 318.326C522.382 314.14 527.742 310.118 532.703 306.391M501.711 441.508C505.401 447.765 516.223 459.806 529.998 457.916C537.528 456.883 552.537 453.035 568.25 447.598M501.711 441.508C500.685 436.81 500.165 427.186 501.528 416.817M561.101 275.239C561.514 269.136 559.353 261.901 551.305 255.21C544.908 249.891 537.411 245.916 529.622 243.058M561.101 275.239C562.365 291.628 561.421 304.945 548.579 327.508C539.898 342.76 530.142 358.162 521.147 372.718M626.372 358.237C638.792 390.071 631.686 405.044 617.971 421.336C609.856 430.976 588.47 440.602 568.25 447.598M626.372 358.237C622.07 340.723 612.558 303.183 608.924 293.141C605.289 283.098 606.163 273.985 607.054 270.683M626.372 358.237C625.259 355.387 623.169 352.791 621.492 349.842M596.333 277.313C605.482 261.779 613.232 253.465 616.916 250.076C621.521 245.839 652.888 238.678 660.281 237.25C661.363 237.041 662.326 236.592 663.202 235.95M596.333 277.313C598.106 274.303 601.982 272.204 607.054 270.683M596.333 277.313C589.667 288.63 606.943 324.245 621.492 349.842M662.65 262.891C651.639 266.857 623.251 265.827 607.054 270.683M662.65 262.891L663.202 235.95M662.65 262.891C665.673 261.802 668.047 260.314 669.992 258.619M695.161 126.116C699.9 136.245 710.709 159.753 716.034 172.756C717.166 175.52 718.201 178.17 719.114 180.749M695.161 126.116L711.681 137.5M695.161 126.116C675.921 94.0001 674.258 62.0303 684.289 38.5001C695.161 13.0001 719.591 -2.49984 731.806 -10.9998L787.806 -10.9998C765.849 2.16684 727.306 34.0001 711.681 58.5001C693.266 87.3756 702.806 109.899 711.681 137.5M711.681 137.5C714.098 145.016 717.249 157.472 719.114 168C719.834 172.065 722.413 186.229 722.194 191.441M722.194 191.441C723.974 199.969 723.858 208.378 720.793 218.442C719.966 221.155 718.739 223.511 717.223 225.566M722.194 191.441C721.463 187.938 720.412 184.415 719.114 180.749M719.114 180.749C718.057 186.479 712.872 195.534 707.428 199.925M707.428 199.925C702.231 204.116 692.479 204.132 684.289 208.046M707.428 199.925L717.223 225.566M501.528 416.817C502.603 408.643 504.849 400.007 508.94 392.956C512.699 386.478 516.836 379.695 521.147 372.718M501.528 416.817C505.678 419.018 516.554 422.981 526.858 421.228C537.974 419.336 578.983 405.548 597.087 393.629M621.492 349.842C621.072 368.963 612.577 377.976 603.764 388.153C602.256 389.894 599.96 391.738 597.087 393.629M568.25 447.598C581.072 430.631 594.95 410.955 597.087 393.629M521.147 372.718C519.056 350.794 522.699 333.906 532.703 306.391M541.283 274.968C528.539 269.433 513.756 271.466 500.756 273.83C479.611 277.675 448.212 286.734 441.869 307.195C435.527 327.655 445.806 353.777 445.806 366C445.806 388.153 433.306 393.629 433.306 393.629L390.806 392.956C410.306 377.521 418.683 354.771 421.614 336.783C425.278 314.298 432.892 282.873 442.132 266.005C451.372 249.137 470.325 238.908 487.681 237.292C499.043 236.235 514.857 237.64 529.622 243.058M541.283 274.968C542.324 262.452 538.544 255.387 529.622 243.058M663.202 235.95C665.869 233.997 667.725 230.263 669.671 226.108M669.992 258.619C677.347 252.21 678.563 242.846 685.564 240.924C686.391 240.697 687.325 240.466 688.343 240.219M669.992 258.619L669.671 226.108M669.671 226.108C671.45 222.31 673.304 218.16 675.921 214.697C678.255 211.609 681.158 209.543 684.289 208.046M688.343 240.219L684.289 208.046M688.343 240.219C696.501 238.24 710.072 235.259 717.223 225.566" stroke="#C4E703"/>
<path d="M477.971 382.881C478.035 365.392 498.527 332.474 516.935 318.326C522.157 314.313 527.298 310.451 532.085 306.854L532.703 306.391C522.699 333.906 519.056 350.794 521.147 372.718C516.836 379.695 512.699 386.477 508.94 392.956C504.849 400.007 502.603 408.643 501.528 416.817C500.165 427.186 500.685 436.81 501.711 441.508L480.153 398.559C479.416 396.131 477.947 389.597 477.971 382.881Z" fill="#C4E703"/>
<path d="M561.101 275.239C560.753 280.375 558.582 284.708 556.561 287.241C552.076 281.285 546.876 277.398 541.283 274.968C542.324 262.452 538.544 255.387 529.622 243.058C537.411 245.916 544.908 249.891 551.305 255.21C559.353 261.901 561.514 269.136 561.101 275.239Z" fill="#C4E703"/>
<path d="M626.372 358.237C638.792 390.071 631.686 405.044 617.971 421.336C609.855 430.976 588.47 440.602 568.25 447.598C581.072 430.631 594.95 410.955 597.087 393.629C599.96 391.738 602.256 389.894 603.764 388.153C612.577 377.976 621.072 368.963 621.492 349.841C623.169 352.79 625.259 355.386 626.372 358.237Z" fill="#C4E703"/>
<path d="M722.194 191.441C723.974 199.969 723.858 208.378 720.793 218.442C719.966 221.154 718.739 223.511 717.223 225.566L707.428 199.925C712.872 195.534 718.057 186.479 719.114 180.749C720.412 184.415 721.463 187.938 722.194 191.441Z" fill="#C4E703"/>
<path d="M616.916 250.076C621.521 245.839 652.888 238.678 660.28 237.25C661.363 237.041 662.326 236.592 663.202 235.95L662.649 262.891C651.639 266.857 623.251 265.827 607.054 270.683C601.982 272.204 598.106 274.303 596.333 277.312C605.482 261.779 613.232 253.465 616.916 250.076Z" fill="#C4E703"/>
<path d="M685.564 240.924C678.563 242.846 677.347 252.21 669.992 258.619L669.671 226.108C671.45 222.31 673.304 218.16 675.921 214.697C678.255 211.609 681.158 209.543 684.289 208.046L688.343 240.218C687.325 240.466 686.39 240.697 685.564 240.924Z" fill="#C4E703"/>
<path d="M477.971 382.881C478.035 365.392 498.527 332.474 516.935 318.326C522.157 314.313 527.298 310.451 532.085 306.854L532.703 306.391C522.699 333.906 519.056 350.794 521.147 372.718C516.836 379.695 512.699 386.477 508.94 392.956C504.849 400.007 502.603 408.643 501.528 416.817C500.165 427.186 500.685 436.81 501.711 441.508L480.153 398.559C479.416 396.131 477.947 389.597 477.971 382.881Z" stroke="#C4E703"/>
<path d="M561.101 275.239C560.753 280.375 558.582 284.708 556.561 287.241C552.076 281.285 546.876 277.398 541.283 274.968C542.324 262.452 538.544 255.387 529.622 243.058C537.411 245.916 544.908 249.891 551.305 255.21C559.353 261.901 561.514 269.136 561.101 275.239Z" stroke="#C4E703"/>
<path d="M626.372 358.237C638.792 390.071 631.686 405.044 617.971 421.336C609.855 430.976 588.47 440.602 568.25 447.598C581.072 430.631 594.95 410.955 597.087 393.629C599.96 391.738 602.256 389.894 603.764 388.153C612.577 377.976 621.072 368.963 621.492 349.841C623.169 352.79 625.259 355.386 626.372 358.237Z" stroke="#C4E703"/>
<path d="M722.194 191.441C723.974 199.969 723.858 208.378 720.793 218.442C719.966 221.154 718.739 223.511 717.223 225.566L707.428 199.925C712.872 195.534 718.057 186.479 719.114 180.749C720.412 184.415 721.463 187.938 722.194 191.441Z" stroke="#C4E703"/>
<path d="M616.916 250.076C621.521 245.839 652.888 238.678 660.28 237.25C661.363 237.041 662.326 236.592 663.202 235.95L662.649 262.891C651.639 266.857 623.251 265.827 607.054 270.683C601.982 272.204 598.106 274.303 596.333 277.312C605.482 261.779 613.232 253.465 616.916 250.076Z" stroke="#C4E703"/>
<path d="M685.564 240.924C678.563 242.846 677.347 252.21 669.992 258.619L669.671 226.108C671.45 222.31 673.304 218.16 675.921 214.697C678.255 211.609 681.158 209.543 684.289 208.046L688.343 240.218C687.325 240.466 686.39 240.697 685.564 240.924Z" stroke="#C4E703"/>
<path d="M106.764 291.087L167.454 190.29L235.733 291.588L168.955 405.847C163.685 402.85 159.23 398.431 156.185 392.939L106.544 303.408C104.409 299.557 104.493 294.859 106.764 291.087Z" fill="white" stroke="black"/>
<path d="M288.275 410.235H185.552C179.627 410.235 173.928 408.674 168.955 405.847L235.732 291.588L357.738 301.661L295.978 405.847C294.366 408.567 291.438 410.235 288.275 410.235Z" fill="#C4E703" stroke="black"/>
<path d="M219.801 290.359L167.935 197.176C164.994 191.892 168.895 185.408 174.942 185.532L282.47 187.736C292 187.931 300.713 193.162 305.366 201.481L357.25 294.257C360.198 299.53 356.323 306.015 350.283 305.916L242.833 304.154C233.244 303.997 224.465 298.739 219.801 290.359Z" fill="white" stroke="black"/>
<path d="M228.943 289.094L205.599 247.375L178.712 199.324C177.445 197.059 179.116 194.274 181.711 194.327L287.035 196.474C290.601 196.546 293.863 198.499 295.611 201.609L346.477 292.086C347.747 294.345 346.087 297.131 343.495 297.089L239.487 295.393C235.101 295.321 231.085 292.922 228.943 289.094Z" fill="#C4E703"/>
<path d="M287.035 196.474L181.711 194.327C179.116 194.274 177.445 197.059 178.712 199.324L205.599 247.375M287.035 196.474C290.601 196.546 293.863 198.499 295.611 201.609L346.477 292.086C347.747 294.345 346.087 297.131 343.495 297.089L239.487 295.393C235.101 295.321 231.085 292.922 228.943 289.094L205.599 247.375M287.035 196.474L205.599 247.375" stroke="black"/>
<path d="M343.495 297.089L239.487 295.393C235.101 295.321 231.084 292.922 228.943 289.094L205.599 247.375L284.761 197.894C286.245 196.967 287.998 196.387 289.676 196.882C292.162 197.614 294.307 199.29 295.611 201.608L346.477 292.086C347.747 294.345 346.087 297.131 343.495 297.089Z" fill="black" stroke="black"/>
<path d="M679.768 86.1572L673.681 114.253L569.584 88.7096L461.57 62.2049L467.442 33.337C467.941 30.8812 470.012 29.0569 472.512 28.8713L562.892 22.1599C568.929 21.7116 574.96 22.21 580.778 23.6053C586.525 24.9839 592.063 27.2379 597.189 30.3193L676.147 77.7828C679.023 79.5112 680.479 82.8785 679.768 86.1572Z" fill="#C4E703"/>
<path d="M580.778 23.6053C586.525 24.9839 592.063 27.2379 597.189 30.3193L676.147 77.7828C679.023 79.5112 680.479 82.8785 679.768 86.1572L673.681 114.253L569.584 88.7096M580.778 23.6053C574.96 22.21 568.929 21.7116 562.892 22.1599L472.512 28.8713C470.012 29.0569 467.941 30.8812 467.442 33.337L461.57 62.2049L569.584 88.7096M580.778 23.6053L569.584 88.7096" stroke="black"/>
<path d="M472.512 28.8713L562.892 22.1599C568.929 21.7116 574.961 22.21 580.778 23.6053L569.585 88.7096L461.571 62.2048L467.442 33.337C467.942 30.8812 470.013 29.0569 472.512 28.8713Z" fill="white" stroke="black"/>
<path d="M574.413 124.537L671.804 117.548C673.971 117.392 674.669 114.551 672.82 113.41L580.592 56.4602C577.801 54.7369 574.54 53.9328 571.268 54.1611L463.085 61.7087C460.899 61.8612 460.212 64.7388 462.092 65.8633L550.851 118.931C557.944 123.172 566.17 125.129 574.413 124.537Z" fill="white" stroke="black"/>
<path d="M575.144 119.498L656.519 113.644C658.702 113.487 659.386 110.612 657.507 109.489L651.295 105.777L578.77 62.4449C576.067 60.83 572.94 60.0667 569.797 60.2546L487.315 65.1856L478.889 65.6894C476.69 65.8208 475.983 68.7155 477.874 69.8456L551.581 113.896C554.942 115.905 558.558 117.401 562.309 118.356C566.474 119.417 570.807 119.81 575.144 119.498Z" fill="#BA8FFF"/>
<path d="M651.295 105.777L578.77 62.4449C576.067 60.83 572.94 60.0667 569.797 60.2546L487.315 65.1856M651.295 105.777L657.507 109.489C659.386 110.612 658.702 113.487 656.519 113.644L575.144 119.498C570.807 119.81 566.474 119.417 562.309 118.356M651.295 105.777L563.428 110.895M563.428 110.895L487.315 65.1856M563.428 110.895L562.309 118.356M487.315 65.1856L478.889 65.6894C476.69 65.8208 475.983 68.7155 477.874 69.8456L551.581 113.896C554.942 115.905 558.558 117.401 562.309 118.356" stroke="black"/>
<path d="M477.874 69.8455L551.581 113.896C554.942 115.904 558.558 117.401 562.309 118.356L563.428 110.895L487.315 65.1855L478.889 65.6893C476.69 65.8207 475.983 68.7154 477.874 69.8455Z" fill="black" stroke="black"/>
<path d="M519.715 192.201L576.452 220.913L572.829 227.964C572.424 228.747 571.358 229.292 569.48 229.431C567.636 229.567 565.17 229.296 562.243 228.633C556.397 227.309 548.82 224.453 540.908 220.369C532.997 216.285 526.28 211.764 521.814 207.765C519.579 205.763 517.929 203.911 516.972 202.328C515.998 200.717 515.823 199.532 516.227 198.749L519.715 192.201Z" stroke="black"/>
<path d="M520.217 191.351C520.621 190.567 521.689 190.022 523.567 189.883C525.411 189.747 527.876 190.019 530.803 190.682C536.65 192.005 544.226 194.862 552.138 198.945C560.049 203.029 566.767 207.551 571.232 211.55C573.468 213.552 575.118 215.403 576.075 216.986C577.05 218.597 577.224 219.783 576.819 220.567C576.415 221.351 575.347 221.896 573.469 222.035C571.624 222.171 569.159 221.9 566.232 221.237C560.386 219.913 552.808 217.057 544.897 212.973C536.986 208.889 530.269 204.368 525.803 200.369C523.567 198.367 521.918 196.515 520.961 194.932C519.986 193.321 519.812 192.135 520.217 191.351Z" fill="white" stroke="black"/>
<path d="M317.458 275.997L315.346 268.838L375.936 251.212L378.044 259.113L378.046 259.12C378.283 259.962 377.906 261.053 376.698 262.378C375.507 263.685 373.607 265.105 371.102 266.559C366.099 269.461 358.787 272.433 350.218 274.851C341.652 277.269 333.662 278.564 327.675 278.708C324.678 278.781 322.211 278.564 320.434 278.072C318.623 277.572 317.694 276.835 317.459 276.003L317.458 275.997Z" fill="#BA8FFF" stroke="black"/>
<path d="M343.333 251.882C351.899 249.464 359.89 248.171 365.877 248.026C368.874 247.954 371.34 248.17 373.117 248.661C374.928 249.162 375.857 249.898 376.092 250.731C376.327 251.563 375.92 252.676 374.639 254.05C373.381 255.398 371.391 256.872 368.799 258.377C363.62 261.385 356.132 264.46 347.566 266.878C339 269.296 331.01 270.589 325.023 270.734C322.026 270.807 319.559 270.59 317.782 270.099C315.971 269.598 315.042 268.862 314.807 268.03C314.572 267.197 314.979 266.084 316.261 264.71C317.519 263.362 319.508 261.888 322.101 260.383C327.28 257.376 334.767 254.3 343.333 251.882Z" fill="white" stroke="black"/>
<path fill-rule="evenodd" clip-rule="evenodd" d="M447.816 214.658L443.653 213.234L449.481 211.241L453.645 212.665L447.816 214.658Z" fill="black"/>
<path fill-rule="evenodd" clip-rule="evenodd" d="M443.653 213.234V218.767L449.481 216.773V211.241L443.653 213.234Z" fill="black"/>
<path fill-rule="evenodd" clip-rule="evenodd" d="M443.653 218.767L439.49 217.343V200.745L435.327 199.321V193.788L441.155 191.795V197.327L445.319 198.751V215.35L449.482 216.773L443.653 218.767Z" fill="black"/>
<path fill-rule="evenodd" clip-rule="evenodd" d="M435.327 193.788L443.653 196.636V207.702L447.817 209.125V214.658L453.645 212.665V207.132L449.482 205.708V194.643L441.155 191.795L435.327 193.788Z" fill="black"/>
<path fill-rule="evenodd" clip-rule="evenodd" d="M451.98 210.549L447.816 209.125V203.593L453.645 201.599V207.132L457.808 208.556L451.98 210.549Z" fill="black"/>
<path fill-rule="evenodd" clip-rule="evenodd" d="M447.816 203.593L451.98 205.017V210.549L457.808 208.556V203.023L453.645 201.599L447.816 203.593Z" fill="black"/>
<path fill-rule="evenodd" clip-rule="evenodd" d="M481.123 214.984L451.98 205.017V199.484L457.809 197.49V203.023L486.952 212.991L481.123 214.984Z" fill="black"/>
<path fill-rule="evenodd" clip-rule="evenodd" d="M451.98 199.484L481.123 209.451V214.984L486.952 212.991V207.458L457.809 197.49L451.98 199.484Z" fill="black"/>
<path fill-rule="evenodd" clip-rule="evenodd" d="M435.326 193.788L431.163 192.364V186.831L436.992 184.838V190.371L441.155 191.795L435.326 193.788Z" fill="black"/>
<path fill-rule="evenodd" clip-rule="evenodd" d="M431.163 186.831L435.326 188.255V193.788L441.155 191.795V186.262L436.992 184.838L431.163 186.831Z" fill="black"/>
<path fill-rule="evenodd" clip-rule="evenodd" d="M485.286 210.875L481.123 209.451V203.919L486.951 201.925V207.458L491.114 208.882L485.286 210.875Z" fill="black"/>
<path fill-rule="evenodd" clip-rule="evenodd" d="M481.123 203.919L485.286 205.342V210.875L491.114 208.882V203.349L486.951 201.925L481.123 203.919Z" fill="black"/>
<path fill-rule="evenodd" clip-rule="evenodd" d="M431.163 186.831L427 185.407V152.211L432.828 150.218V183.414L436.991 184.838L431.163 186.831Z" fill="black"/>
<path fill-rule="evenodd" clip-rule="evenodd" d="M427 152.211L431.163 153.635V186.831L436.991 184.838V151.641L432.828 150.218L427 152.211Z" fill="black"/>
<path fill-rule="evenodd" clip-rule="evenodd" d="M489.449 206.766L485.286 205.342V172.146L491.115 170.153V203.349L495.278 204.773L489.449 206.766Z" fill="black"/>
<path fill-rule="evenodd" clip-rule="evenodd" d="M485.286 172.146L489.449 173.57V206.766L495.278 204.773V171.577L491.115 170.153L485.286 172.146Z" fill="black"/>
<path fill-rule="evenodd" clip-rule="evenodd" d="M451.98 180.119L447.816 178.695V173.163L453.645 171.169V176.702L457.808 178.126L451.98 180.119Z" fill="black"/>
<path fill-rule="evenodd" clip-rule="evenodd" d="M447.816 173.163L451.98 174.587V180.119L457.808 178.126V172.593L453.645 171.169L447.816 173.163Z" fill="black"/>
<path fill-rule="evenodd" clip-rule="evenodd" d="M460.307 182.967L456.144 181.543V176.01L461.972 174.017V179.55L466.135 180.974L460.307 182.967Z" fill="black"/>
<path fill-rule="evenodd" clip-rule="evenodd" d="M456.144 176.01L460.307 177.434V182.967L466.135 180.974V175.441L461.972 174.017L456.144 176.01Z" fill="black"/>
<path fill-rule="evenodd" clip-rule="evenodd" d="M468.633 185.815L464.469 184.391V178.858L470.298 176.865V182.398L474.461 183.822L468.633 185.815Z" fill="black"/>
<path fill-rule="evenodd" clip-rule="evenodd" d="M464.469 178.858L468.633 180.282V185.815L474.461 183.822V178.289L470.298 176.865L464.469 178.858Z" fill="black"/>
<path fill-rule="evenodd" clip-rule="evenodd" d="M435.326 155.059L431.163 153.635V148.102L436.992 146.109V151.641L441.155 153.065L435.326 155.059Z" fill="black"/>
<path fill-rule="evenodd" clip-rule="evenodd" d="M431.163 148.102L435.326 149.526V155.059L441.155 153.065V147.533L436.992 146.109L431.163 148.102Z" fill="black"/>
<path fill-rule="evenodd" clip-rule="evenodd" d="M485.286 172.146L481.123 170.722V165.19L486.951 163.196V168.729L491.114 170.153L485.286 172.146Z" fill="black"/>
<path fill-rule="evenodd" clip-rule="evenodd" d="M481.123 165.19L485.286 166.613V172.146L491.114 170.153V164.62L486.951 163.196L481.123 165.19Z" fill="black"/>
<path fill-rule="evenodd" clip-rule="evenodd" d="M481.123 165.19L435.327 149.526V143.994L441.155 142V147.533L486.952 163.196L481.123 165.19Z" fill="black"/>
<path fill-rule="evenodd" clip-rule="evenodd" d="M435.327 143.994L481.123 159.657V165.19L486.952 163.196V157.663L441.155 142L435.327 143.994Z" fill="black"/>
<path d="M443.653 207.701L447.817 209.125V214.658L443.653 213.234V218.767L439.49 217.343V200.745L435.327 199.321V193.788L443.653 196.636V207.701ZM451.98 210.549L447.817 209.125V203.593L451.98 205.017V210.549ZM481.123 214.984L451.98 205.017V199.484L481.123 209.451V214.984ZM435.327 193.788L431.163 192.364V186.831L435.327 188.255V193.788ZM485.286 210.875L481.123 209.451V203.919L485.286 205.343V210.875ZM431.163 153.635V186.831L427 185.407V152.211L431.163 153.635ZM489.45 206.767L485.286 205.343V172.146L489.45 173.57V206.767ZM451.98 180.119L447.817 178.695V173.163L451.98 174.587V180.119ZM460.306 182.967L456.143 181.543V176.01L460.306 177.434V182.967ZM468.633 185.815L464.47 184.391V178.858L468.633 180.282V185.815ZM435.327 155.059L431.163 153.635V148.102L435.327 149.526V155.059ZM485.286 172.146L481.123 170.722V165.19L485.286 166.613V172.146ZM481.123 165.19L435.327 149.526V143.994L481.123 159.657V165.19Z" fill="white"/>
<rect x="472" y="120.178" width="13.4318" height="13.4318" transform="rotate(-18.1223 472 120.178)" fill="black"/>
<rect x="598" y="228.178" width="13.4318" height="13.4318" transform="rotate(-18.1223 598 228.178)" fill="white"/>
<rect x="349" y="196.178" width="13.4318" height="13.4318" transform="rotate(-18.1223 349 196.178)" fill="white"/>
<rect x="491" y="258.507" width="13.4318" height="13.4318" transform="rotate(-19.6053 491 258.507)" fill="black"/>
<rect x="419.233" y="255" width="13.4318" height="13.4318" transform="rotate(22.9316 419.233 255)" fill="#C4E703"/>
<rect x="401.233" y="81" width="13.4318" height="13.4318" transform="rotate(22.9316 401.233 81)" fill="#C4E703"/>
<rect x="615" y="182.76" width="13.4318" height="13.4318" transform="rotate(-16.2574 615 182.76)" fill="#C4E703"/>
<path d="M372.433 159.601C365.77 169.585 347.651 169.191 331.962 158.721C327.608 155.815 323.914 152.476 320.98 148.94C313.343 139.736 310.86 129.2 315.307 121.517L319.785 114.241L346.089 132.654L375.75 153.418L372.433 159.601Z" fill="white"/>
<path d="M320.98 148.94C323.914 152.476 327.608 155.815 331.962 158.721C347.651 169.191 365.77 169.585 372.433 159.601L375.75 153.418L346.089 132.654M320.98 148.94C313.343 139.736 310.86 129.2 315.307 121.517L319.785 114.241L346.089 132.654M320.98 148.94L325.941 143.344L346.089 132.654" stroke="black"/>
<path d="M315.307 121.517L319.785 114.241L346.089 132.654L325.941 143.344L320.98 148.94C313.343 139.736 310.86 129.2 315.307 121.517Z" fill="black" stroke="black"/>
<path d="M375.929 152.993C369.266 162.977 351.146 162.583 335.457 152.113C331.548 149.504 328.158 146.515 325.375 143.344C316.989 133.788 314.111 122.573 319.114 115.077C325.776 105.094 343.896 105.488 359.585 115.958C362.237 117.727 364.649 119.672 366.796 121.729C377.348 131.845 381.465 144.697 375.929 152.993Z" fill="white"/>
<path d="M325.375 143.344C328.158 146.515 331.548 149.504 335.457 152.113C351.146 162.583 369.266 162.977 375.929 152.993C381.465 144.697 377.348 131.845 366.796 121.729M325.375 143.344C316.989 133.788 314.111 122.573 319.114 115.077C325.776 105.094 343.896 105.488 359.585 115.958C362.237 117.727 364.649 119.672 366.796 121.729M325.375 143.344L366.796 121.729" stroke="black"/>
<path d="M359.585 115.958C343.896 105.488 325.776 105.094 319.114 115.077C314.111 122.573 316.989 133.788 325.375 143.344L366.796 121.729C364.649 119.672 362.237 117.727 359.585 115.958Z" fill="black" stroke="black"/>
</g>
<rect x="0.5" y="1" width="839" height="386" rx="39.5" stroke="black"/>
<defs>
<clipPath id="clip0_52_863">
<rect y="0.5" width="840" height="387" rx="40" fill="white"/>
</clipPath>
</defs>
</svg>
