<svg width="802" height="964" viewBox="0 0 802 964" fill="none" xmlns="http://www.w3.org/2000/svg">
<path d="M269.545 64.8728L343.911 -9H881V168.457L798.371 250.046H438.934L81.5634 607H1V331.636L79.0276 254.126M269.545 64.8728L195.178 -9H1V181.667L79.0276 254.126M269.545 64.8728L79.0276 254.126" stroke="#474747"/>
<path d="M610.438 860.187L543.727 930H1.15751L0.999985 749.619L83.6144 668.574H442.987L800.294 314H880.842V587.529L798.997 670.057M610.438 860.187L675.703 930H881V739.333L798.997 670.057M610.438 860.187L798.997 670.057" stroke="#474747"/>
<path d="M444.127 564H673V639.621L637.789 674.389H484.62L332.331 826.5H298V709.157L331.25 676.128L298 645.25V564H380.746L412.437 595.48L444.127 564Z" fill="#D0F500"/>
<path d="M529.276 964H298.067L298 887.133L333.205 852.597H486.347L638.608 701.5H672.933V818.06L638.055 853.229L673 882.75V964H585.516L557.704 934.25L529.276 964Z" fill="#D0F500"/>
</svg>
