<svg width="187" height="196" viewBox="0 0 187 196" fill="none" xmlns="http://www.w3.org/2000/svg">
<path d="M158.667 224V214.667H168V205.333H177.333V149.333H168V140H149.333V130.667H140V121.333H149.333V102.667H158.667V84H149.333V56H158.667V46.6667H186.667V37.3333H149.333V28H130.667V18.6667H121.333V9.33333H112V0H74.6667V9.33333H65.3333V18.6667H56V28H37.3333V37.3333H0V46.6667H28V56H37.3333V84H28V102.667H37.3333V121.333H46.6667V130.667H37.3333V140H18.6667V149.333H9.33333V205.333H18.6667V214.667H28V224H37.3333V280H84V242.667H102.667V280H149.333V224H158.667Z" fill="#EBDDFF"/>
<path d="M65.3327 140H74.666V149.333H83.9994V158.666H93.3327V233.333H46.666V168H37.3327V186.666H18.666V149.333H37.3327V140H55.9994V130.666H65.3327V140Z" fill="#4A1F8F"/>
<path d="M121.334 140H112.001V149.333H102.667V158.666H93.334V233.333H140.001V168H149.334V186.666H168.001V149.333H149.334V140H130.667V130.666H121.334V140Z" fill="#7A38E4"/>
<path d="M102.666 149.334V158.667H84V149.334H102.666ZM112 140V149.333H74.667V140H112Z" fill="black"/>
<path d="M112 158.666H130.666V177.333H112V158.666Z" fill="black"/>
<path d="M46.667 233.334H102.666V242.667H84V280H37.334V168H46.667V233.334ZM149.333 214.666H158.666V224H149.333V280H102.667V233.334H140V168H149.333V214.666ZM37.333 224H28V214.666H37.333V224ZM18.667 205.334H28V214.667H18.666V205.334H9.33398V149.334H18.667V205.334ZM168 214.667H158.667V205.334H168V214.667ZM177.334 205.334H168V149.334H177.334V205.334ZM168 149.334H149.334V140H168V149.334ZM37.333 149.333H18.666V140H37.333V149.333ZM65.333 130.667H56V140H37.334V130.666H46.666V121.334H65.333V130.667ZM74.667 140H65.334V130.666H74.667V140ZM121.333 140H112V130.667H121.333V140ZM149.333 140H130.666V130.667H149.333V140ZM140 130.666H121.334V121.333H140V130.666ZM121.333 121.334H112V112H121.333V121.334ZM149.333 121.334H140V102.667H149.333V121.334ZM46.667 121.333H37.334V102.666H46.667V121.333ZM112 112H74.667V121.333H65.334V112H74.666V102.666H112V112ZM37.333 102.667H28V93.334H37.333V102.667ZM158.667 102.666H149.334V84H158.667V102.666ZM37.333 93.333H28V84H37.333V93.333ZM74.667 93.333H65.334V74.666H74.667V93.333ZM121.333 93.333H112V74.666H121.333V93.333ZM121.334 18.666H130.667V28H149.333V84H140V56H121.333V65.333H112V56H102.667V65.333H93.334V56H93.333V65.333H84V56H74.667V65.333H65.334V56H46.667V84H37.334V28H56V18.666H65.334V9.33398H121.334V18.666ZM37.333 56H28V46.667H0V37.334H37.333V56ZM186.667 46.667H158.667V56H149.334V37.334H186.667V46.667ZM46.667 37.334H140V37.333H46.667V37.334ZM112 9.33301H74.666V0H112V9.33301Z" fill="black"/>
</svg>
