<svg width="184" height="203" viewBox="0 0 184 203" fill="none" xmlns="http://www.w3.org/2000/svg">
<path d="M135.172 125.517V135.172H144.828V144.827H164.138V154.483H173.793V212.413H164.138V222.069H154.483V231.724H144.828V280H96.5517V251.034H77.2414V280H28.9655V231.724H19.3103V222.069H9.65517V212.413H0V154.483H9.65517V144.827H28.9655V135.172H38.6207V125.517H28.9655V106.207H19.3103V86.8964H28.9655V19.3103H38.6207V9.65516H48.2759V0H115.862V9.65516H125.517V19.3103H135.172V38.6206H183.448V48.2758H144.828V86.8964H154.483V106.207H144.828V125.517H135.172Z" fill="#EADDFF"/>
<rect x="57.9307" y="77.2423" width="9.65517" height="9.65516" fill="black"/>
<path d="M135.171 38.6201H28.9653V19.3105H135.171V38.6201ZM115.861 19.3096H38.6196V9.65527H48.2749V0H115.861V19.3096ZM125.517 19.3096H115.862V9.65527H125.517V19.3096Z" fill="#885DCD"/>
<rect x="57.9307" y="86.8971" width="9.65517" height="9.65516" fill="black"/>
<path d="M106.207 125.517H77.2422V115.862H96.5518V106.207H106.207V125.517Z" fill="#6F44B4"/>
<path d="M57.9306 144.827H67.5858V154.482H77.241V164.138H96.5513V154.482H106.207V144.827H115.862V135.172H125.517V144.827H144.827V154.482H164.138V193.103H144.827V173.793H135.172V222.068H38.6203V173.793H28.9651V193.103H9.65479V154.482H28.9651V144.827H48.2755V135.172H57.9306V144.827Z" fill="#885DCD"/>
<path d="M38.6201 270.344H67.5859V241.378H77.2402V279.998H67.5859V279.999H28.9658V231.724H19.3105V222.068H28.9658V173.792H38.6201V270.344ZM144.827 222.068H154.482V231.724H144.827V279.999H106.206V279.998H96.5518V251.033H77.2412V241.378H106.207V270.344H135.172V173.792H144.827V222.068ZM9.65527 212.412H19.3096V222.067H9.65527V212.414H0V154.482H9.65527V212.412ZM173.793 212.414H164.138V222.067H154.482V212.412H164.138V154.482H173.793V212.414ZM19.3096 154.482H9.65527V144.827H19.3096V154.482ZM28.9658 154.482H19.3105V144.827H28.9658V154.482ZM144.828 144.827H164.138V154.482H144.827V144.827H135.173V135.172H144.828V144.827ZM57.9297 135.173H48.2754V144.827H28.9658V135.172H38.6201V125.518H57.9297V135.173ZM67.5859 144.827H57.9307V135.172H67.5859V144.827ZM115.862 144.827H106.207V135.172H115.862V144.827ZM135.172 144.827H125.517V135.173H115.862V125.518H135.172V144.827ZM38.6201 125.518H28.9658V106.207H38.6201V125.518ZM144.828 125.518H135.173V106.207H144.828V125.518ZM28.9658 106.206H19.3105V96.5508H28.9658V106.206ZM154.482 106.206H144.827V96.5508H154.482V106.206ZM28.9658 96.5498H19.3105V86.8955H28.9658V96.5498ZM183.448 38.6202V48.2754H144.828V86.8955H154.482V96.5498H144.827V86.8955H135.173V38.6202H183.448ZM135.172 57.9297H38.6201V86.8955H28.9658V38.6202H135.172V57.9297Z" fill="black"/>
<path d="M106.206 154.482H96.551V164.137H77.2406V154.482H67.5854V144.827H106.206V154.482Z" fill="#885DCD"/>
<path d="M86.895 173.793H77.2397V164.138H86.895V173.793ZM96.5513 173.793H86.896V164.138H96.5503V154.483H106.205V144.827H115.86V154.483H106.206V164.138H96.5513V173.793ZM77.2397 164.138H67.5854V154.483H77.2397V164.138ZM67.5854 154.483H57.9302V144.827H67.5854V154.483ZM57.9292 144.827H48.2749V135.172H57.9292V144.827ZM125.516 144.827H115.861V135.172H125.516V144.827Z" fill="#CCACFF"/>
<rect x="106.208" y="77.2423" width="9.65517" height="9.65516" fill="black"/>
<rect x="106.208" y="86.8971" width="9.65517" height="9.65516" fill="black"/>
</svg>
