<svg width="180" height="203" viewBox="0 0 180 203" fill="none" xmlns="http://www.w3.org/2000/svg">
<path d="M140 130V140H150V150H170V160H180V220H170V230H160V240H150V290H100V260H80V290H30V240H20V230H10V220H0V160H10V150H30V140H40V130H30V110H20V90H30V40L150 40V90H160V110H150V130H140Z" fill="#EADDFF"/>
<rect x="60" y="80" width="10" height="10" fill="black"/>
<rect x="60" y="90" width="10" height="10" fill="black"/>
<path d="M110 120V130H80V120H110Z" fill="#6F44B4"/>
<path d="M60 150H70V160H80V170H100V160H110V150H120V140H130V150H150V160H170V200H150V180H140V230H40V180H30V200H10V160H30V150H50V140H60V150Z" fill="#885DCD"/>
<path d="M40 280H70V250H110V280H140V180H150V230H160V240H150V290H100V260H80V290H30V240H20V230H30V180H40V280ZM20 230H10V220H20V230ZM170 230H160V220H170V230ZM10 220H0V160H10V220ZM180 220H170V160H180V220ZM30 160H10V150H30V160ZM170 160H150V150H170V160ZM60 140H50V150H30V140H40V130H60V140ZM70 150H60V140H70V150ZM140 140H150V150H130V140H120V150H110V140H120V130H140V140ZM40 130H30V110H40V130ZM150 130H140V110H150V130ZM30 110H20V90H30V110ZM160 110H150V90H160V110Z" fill="black"/>
<path d="M110 160H100V170H80V160H70V150H110V160Z" fill="#885DCD"/>
<rect x="110" y="80" width="10" height="10" fill="black"/>
<rect x="110" y="90" width="10" height="10" fill="black"/>
<path d="M120 10H130V20H140V30H150V40H170V90H160V100H150V80H140V60H130V50H50V60H40V80H30V100H20V90H10V40H20V20H40V10H70V0H120V10Z" fill="black"/>
</svg>
