<svg width="1920" height="450" viewBox="0 0 1920 450" fill="none" xmlns="http://www.w3.org/2000/svg">
<mask id="path-1-outside-1_68_14478" maskUnits="userSpaceOnUse" x="-120" y="-210.358" width="2147" height="980" fill="black">
<rect fill="white" x="-120" y="-210.358" width="2147" height="980"/>
<path d="M-108.258 148.66L-118 79.3409L-58.5839 70.9905L-57.1922 80.8932L-47.2895 79.5014L-43.1143 109.209L-53.017 110.601L-51.6253 120.504L-91.236 126.071L-88.4525 145.876L-108.258 148.66ZM-92.6277 116.168L-62.9197 111.993L-67.0949 82.2849L-96.8029 86.4601L-92.6277 116.168ZM-17.5493 135.911L-27.2915 66.5926L-7.48608 63.8091L0.864304 123.225L40.475 117.658L41.8668 127.561L-17.5493 135.911ZM53.3539 125.947L46.3952 76.4332L56.2979 75.0414L54.9062 65.1388L64.8088 63.747L63.4171 53.8444L93.1252 49.6692L94.5169 59.5718L104.42 58.1801L105.811 68.0828L115.714 66.691L122.673 116.204L102.867 118.988L100.084 99.1826L70.3758 103.358L73.1592 123.163L53.3539 125.947ZM68.984 93.4551L98.6921 89.2799L95.9086 69.4745L86.0059 70.8662L84.6142 60.9636L74.7115 62.3553L76.1032 72.258L66.2006 73.6497L68.984 93.4551ZM163.868 110.415L155.517 50.9987L135.712 53.7822L134.32 43.8795L193.736 35.5292L195.128 45.4318L175.323 48.2153L183.673 107.631L163.868 110.415ZM214.966 103.234L205.223 33.9148L274.542 24.1726L275.934 34.0753L226.421 41.034L229.204 60.8393L268.815 55.2724L270.207 65.1751L230.596 70.742L234.771 100.45L214.966 103.234ZM305.674 90.4853L304.282 80.5826L294.38 81.9743L287.421 32.4609L297.324 31.0692L295.932 21.1665L345.445 14.2078L346.837 24.1105L356.74 22.7188L363.699 72.2322L353.796 73.6239L355.188 83.5266L305.674 90.4853ZM314.185 79.1909L343.893 75.0157L336.935 25.5023L307.226 29.6774L314.185 79.1909ZM376.577 80.5205L366.835 11.2017L426.251 2.85132L427.643 12.754L437.546 11.3623L441.721 41.0703L421.916 43.8538L423.307 53.7564L433.21 52.3647L434.602 62.2674L444.504 60.8757L445.896 70.7784L416.188 74.9536L414.796 65.0509L404.894 66.4426L403.502 56.5399L393.599 57.9316L396.383 77.737L376.577 80.5205ZM392.208 48.029L412.013 45.2455L410.621 35.3428L420.524 33.9511L417.74 14.1457L388.032 18.3209L392.208 48.029ZM457.383 69.1639L447.641 -0.154816L467.446 -2.93828L468.838 6.96439L478.741 5.57266L480.133 15.4753L490.035 14.0836L488.644 4.18092L498.546 2.7892L497.155 -7.11348L516.96 -9.89694L526.702 59.4218L506.897 62.2053L501.33 22.5946L491.427 23.9863L494.211 43.7917L484.308 45.1834L481.524 25.378L471.622 26.7698L477.189 66.3805L457.383 69.1639Z"/>
<path d="M597.803 49.4292L588.061 -19.8896L647.477 -28.24L648.869 -18.3373L658.772 -19.729L662.947 9.97903L653.044 11.3708L654.436 21.2735L614.825 26.8404L617.609 46.6457L597.803 49.4292ZM613.433 16.9377L643.141 12.7625L638.966 -16.9455L609.258 -12.7704L613.433 16.9377ZM688.512 36.6809L678.77 -32.6378L698.575 -35.4213L706.925 23.9948L746.536 18.4279L747.928 28.3306L688.512 36.6809ZM759.415 26.7161L752.456 -22.7973L762.359 -24.189L760.967 -34.0917L770.87 -35.4834L769.478 -45.3861L799.186 -49.5613L800.578 -39.6586L810.481 -41.0503L811.872 -31.1476L821.775 -32.5394L828.734 16.974L808.928 19.7575L806.145 -0.0478668L776.437 4.12732L779.22 23.9327L759.415 26.7161ZM775.045 -5.77536L804.753 -9.95055L801.97 -29.7559L792.067 -28.3642L790.675 -38.2669L780.773 -36.8751L782.164 -26.9725L772.262 -25.5807L775.045 -5.77536ZM869.929 11.1844L861.578 -48.2317L841.773 -45.4482L840.381 -55.3509L899.797 -63.7013L901.189 -53.7986L881.384 -51.0151L889.734 8.40097L869.929 11.1844ZM921.027 4.0031L911.285 -65.3157L980.603 -75.0578L981.995 -65.1551L932.482 -58.1965L935.265 -38.3911L974.876 -43.958L976.268 -34.0553L936.657 -28.4884L940.832 1.21964L921.027 4.0031ZM1011.74 -8.74516L1010.34 -18.6478L1000.44 -17.2561L993.482 -66.7695L1003.38 -68.1613L1001.99 -78.0639L1051.51 -85.0226L1052.9 -75.1199L1062.8 -76.5116L1069.76 -26.9982L1059.86 -25.6065L1061.25 -15.7038L1011.74 -8.74516ZM1020.25 -20.0396L1049.95 -24.2148L1043 -73.7282L1013.29 -69.553L1020.25 -20.0396ZM1082.64 -18.71L1072.9 -88.0287L1132.31 -96.3791L1133.7 -86.4764L1143.61 -87.8682L1147.78 -58.1601L1127.98 -55.3766L1129.37 -45.474L1139.27 -46.8657L1140.66 -36.963L1150.57 -38.3548L1151.96 -28.4521L1122.25 -24.2769L1120.86 -34.1796L1110.95 -32.7878L1109.56 -42.6905L1099.66 -41.2988L1102.44 -21.4934L1082.64 -18.71ZM1098.27 -51.2015L1118.07 -53.9849L1116.68 -63.8876L1126.58 -65.2793L1123.8 -85.0847L1094.09 -80.9095L1098.27 -51.2015ZM1163.44 -30.0665L1153.7 -99.3852L1173.51 -102.169L1174.9 -92.266L1184.8 -93.6578L1186.19 -83.7551L1196.1 -85.1468L1194.7 -95.0495L1204.61 -96.4412L1203.22 -106.344L1223.02 -109.127L1232.76 -39.8086L1212.96 -37.0251L1207.39 -76.6359L1197.49 -75.2441L1200.27 -55.4388L1190.37 -54.047L1187.59 -73.8524L1177.68 -72.4607L1183.25 -32.8499L1163.44 -30.0665Z"/>
<path d="M1303.86 -49.8012L1294.12 -119.12L1353.54 -127.47L1354.93 -117.568L1364.83 -118.959L1369.01 -89.2514L1359.11 -87.8597L1360.5 -77.957L1320.89 -72.39L1323.67 -52.5847L1303.86 -49.8012ZM1319.49 -82.2927L1349.2 -86.4679L1345.03 -116.176L1315.32 -112.001L1319.49 -82.2927ZM1394.57 -62.5495L1384.83 -131.868L1404.64 -134.652L1412.99 -75.2356L1452.6 -80.8026L1453.99 -70.8999L1394.57 -62.5495ZM1465.48 -72.5143L1458.52 -122.028L1468.42 -123.419L1467.03 -133.322L1476.93 -134.714L1475.54 -144.617L1505.25 -148.792L1506.64 -138.889L1516.54 -140.281L1517.93 -130.378L1527.84 -131.77L1534.79 -82.2564L1514.99 -79.4729L1512.21 -99.2783L1482.5 -95.1031L1485.28 -75.2977L1465.48 -72.5143ZM1481.11 -105.006L1510.81 -109.181L1508.03 -128.986L1498.13 -127.595L1496.74 -137.497L1486.83 -136.106L1488.23 -126.203L1478.32 -124.811L1481.11 -105.006ZM1575.99 -88.046L1567.64 -147.462L1547.83 -144.679L1546.44 -154.581L1605.86 -162.932L1607.25 -153.029L1587.44 -150.246L1595.8 -90.8295L1575.99 -88.046ZM1627.09 -95.2273L1617.35 -164.546L1686.66 -174.288L1688.06 -164.386L1638.54 -157.427L1641.33 -137.622L1680.94 -143.188L1682.33 -133.286L1642.72 -127.719L1646.89 -98.0108L1627.09 -95.2273ZM1717.8 -107.976L1716.4 -117.878L1706.5 -116.487L1699.54 -166L1709.45 -167.392L1708.05 -177.294L1757.57 -184.253L1758.96 -174.35L1768.86 -175.742L1775.82 -126.229L1765.92 -124.837L1767.31 -114.934L1717.8 -107.976ZM1726.31 -119.27L1756.02 -123.445L1749.06 -172.959L1719.35 -168.783L1726.31 -119.27ZM1788.7 -117.94L1778.96 -187.259L1838.37 -195.61L1839.77 -185.707L1849.67 -187.099L1853.84 -157.391L1834.04 -154.607L1835.43 -144.704L1845.33 -146.096L1846.72 -136.193L1856.63 -137.585L1858.02 -127.682L1828.31 -123.507L1826.92 -133.41L1817.02 -132.018L1815.62 -141.921L1805.72 -140.529L1808.51 -120.724L1788.7 -117.94ZM1804.33 -150.432L1824.14 -153.215L1822.74 -163.118L1832.65 -164.51L1829.86 -184.315L1800.15 -180.14L1804.33 -150.432ZM1869.51 -129.297L1859.76 -198.616L1879.57 -201.399L1880.96 -191.496L1890.86 -192.888L1892.25 -182.986L1902.16 -184.377L1900.77 -194.28L1910.67 -195.672L1909.28 -205.574L1929.08 -208.358L1938.82 -139.039L1919.02 -136.256L1913.45 -175.866L1903.55 -174.475L1906.33 -154.669L1896.43 -153.277L1893.65 -173.083L1883.74 -171.691L1889.31 -132.08L1869.51 -129.297Z"/>
<path d="M-90.8612 272.443L-100.603 203.124L-41.1873 194.774L-39.7955 204.677L-29.8929 203.285L-25.7177 232.993L-35.6203 234.385L-34.2286 244.287L-73.8393 249.854L-71.0559 269.66L-90.8612 272.443ZM-75.2311 239.952L-45.523 235.776L-49.6982 206.068L-79.4063 210.244L-75.2311 239.952ZM-0.152695 259.695L-9.89481 190.376L9.91055 187.593L18.2609 247.009L57.8717 241.442L59.2634 251.344L-0.152695 259.695ZM70.7505 249.73L63.7918 200.217L73.6945 198.825L72.3028 188.922L82.2055 187.531L80.8137 177.628L110.522 173.453L111.914 183.355L121.816 181.964L123.208 191.866L133.111 190.475L140.069 239.988L120.264 242.771L117.48 222.966L87.7724 227.141L90.5559 246.947L70.7505 249.73ZM86.3807 217.239L116.089 213.063L113.305 193.258L103.403 194.65L102.011 184.747L92.1082 186.139L93.4999 196.041L83.5972 197.433L86.3807 217.239ZM181.264 234.198L172.914 174.782L153.109 177.566L151.717 167.663L211.133 159.313L212.525 169.215L192.719 171.999L201.07 231.415L181.264 234.198ZM232.362 227.017L222.62 157.698L291.939 147.956L293.331 157.859L243.817 164.817L246.601 184.623L286.211 179.056L287.603 188.959L247.992 194.526L252.168 224.234L232.362 227.017ZM323.071 214.269L321.679 204.366L311.776 205.758L304.818 156.244L314.72 154.853L313.329 144.95L362.842 137.991L364.234 147.894L374.137 146.502L381.095 196.016L371.192 197.407L372.584 207.31L323.071 214.269ZM331.582 202.974L361.29 198.799L354.331 149.286L324.623 153.461L331.582 202.974ZM393.974 204.304L384.232 134.985L443.648 126.635L445.04 136.538L454.942 135.146L459.118 164.854L439.312 167.637L440.704 177.54L450.607 176.148L451.998 186.051L461.901 184.659L463.293 194.562L433.585 198.737L432.193 188.834L422.29 190.226L420.899 180.323L410.996 181.715L413.779 201.521L393.974 204.304ZM409.604 171.812L429.41 169.029L428.018 159.126L437.92 157.735L435.137 137.929L405.429 142.104L409.604 171.812ZM474.78 192.947L465.038 123.629L484.843 120.845L486.235 130.748L496.138 129.356L497.529 139.259L507.432 137.867L506.04 127.964L515.943 126.573L514.551 116.67L534.357 113.887L544.099 183.205L524.293 185.989L518.726 146.378L508.824 147.77L511.607 167.575L501.704 168.967L498.921 149.162L489.018 150.553L494.585 190.164L474.78 192.947Z"/>
<path d="M615.2 173.213L605.458 103.894L664.874 95.5435L666.266 105.446L676.168 104.055L680.343 133.763L670.441 135.154L671.833 145.057L632.222 150.624L635.005 170.429L615.2 173.213ZM630.83 140.721L660.538 136.546L656.363 106.838L626.655 111.013L630.83 140.721ZM705.908 160.464L696.166 91.1457L715.972 88.3622L724.322 147.778L763.933 142.211L765.325 152.114L705.908 160.464ZM776.812 150.5L769.853 100.986L779.756 99.5945L778.364 89.6918L788.267 88.3001L786.875 78.3974L816.583 74.2222L817.975 84.1249L827.877 82.7332L829.269 92.6359L839.172 91.2441L846.13 140.758L826.325 143.541L823.542 123.736L793.833 127.911L796.617 147.716L776.812 150.5ZM792.442 118.008L822.15 113.833L819.366 94.0276L809.464 95.4193L808.072 85.5166L798.169 86.9084L799.561 96.8111L789.658 98.2028L792.442 118.008ZM887.326 134.968L878.975 75.5518L859.17 78.3353L857.778 68.4326L917.194 60.0822L918.586 69.9849L898.781 72.7684L907.131 132.184L887.326 134.968ZM938.423 127.787L928.681 58.4678L998 48.7257L999.392 58.6284L949.878 65.5871L952.662 85.3924L992.273 79.8255L993.664 89.7282L954.054 95.2951L958.229 125.003L938.423 127.787ZM1029.13 115.038L1027.74 105.136L1017.84 106.527L1010.88 57.014L1020.78 55.6223L1019.39 45.7196L1068.9 38.7609L1070.29 48.6636L1080.2 47.2719L1087.16 96.7853L1077.25 98.177L1078.65 108.08L1029.13 115.038ZM1037.64 103.744L1067.35 99.5688L1060.39 50.0553L1030.68 54.2305L1037.64 103.744ZM1100.04 105.074L1090.29 35.7548L1149.71 27.4044L1151.1 37.3071L1161 35.9153L1165.18 65.6234L1145.37 68.4069L1146.77 78.3095L1156.67 76.9178L1158.06 86.8205L1167.96 85.4287L1169.35 95.3314L1139.65 99.5066L1138.25 89.6039L1128.35 90.9957L1126.96 81.093L1117.06 82.4847L1119.84 102.29L1100.04 105.074ZM1115.67 72.5821L1135.47 69.7986L1134.08 59.8959L1143.98 58.5042L1141.2 38.6988L1111.49 42.874L1115.67 72.5821ZM1180.84 93.717L1171.1 24.3983L1190.9 21.6148L1192.3 31.5175L1202.2 30.1257L1203.59 40.0284L1213.49 38.6367L1212.1 28.734L1222 27.3423L1220.61 17.4396L1240.42 14.6561L1250.16 83.9749L1230.35 86.7584L1224.79 47.1476L1214.88 48.5394L1217.67 68.3447L1207.77 69.7365L1204.98 49.9311L1195.08 51.3228L1200.65 90.9336L1180.84 93.717Z"/>
<path d="M1321.26 73.9823L1311.52 4.66351L1370.93 -3.68687L1372.33 6.21581L1382.23 4.82407L1386.4 34.5321L1376.5 35.9238L1377.89 45.8265L1338.28 51.3935L1341.07 71.1988L1321.26 73.9823ZM1336.89 41.4908L1366.6 37.3156L1362.42 7.60754L1332.72 11.7827L1336.89 41.4908ZM1411.97 61.234L1402.23 -8.08475L1422.03 -10.8682L1430.38 48.5479L1469.99 42.981L1471.39 52.8836L1411.97 61.234ZM1482.87 51.2692L1475.91 1.75583L1485.82 0.36409L1484.43 -9.53859L1494.33 -10.9303L1492.94 -20.833L1522.64 -25.0082L1524.04 -15.1055L1533.94 -16.4972L1535.33 -6.59456L1545.23 -7.9863L1552.19 41.5271L1532.39 44.3106L1529.6 24.5052L1499.89 28.6804L1502.68 48.4858L1482.87 51.2692ZM1498.5 18.7777L1528.21 14.6025L1525.43 -5.20284L1515.52 -3.8111L1514.13 -13.7138L1504.23 -12.3221L1505.62 -2.41937L1495.72 -1.02763L1498.5 18.7777ZM1593.39 35.7375L1585.04 -23.6786L1565.23 -20.8951L1563.84 -30.7978L1623.26 -39.1482L1624.65 -29.2455L1604.84 -26.462L1613.19 32.954L1593.39 35.7375ZM1644.48 28.5562L1634.74 -40.7626L1704.06 -50.5047L1705.45 -40.602L1655.94 -33.6434L1658.72 -13.838L1698.33 -19.4049L1699.73 -9.50224L1660.11 -3.93532L1664.29 25.7727L1644.48 28.5562ZM1735.19 15.8079L1733.8 5.90524L1723.9 7.29697L1716.94 -42.2164L1726.84 -43.6082L1725.45 -53.5108L1774.96 -60.4695L1776.36 -50.5668L1786.26 -51.9586L1793.22 -2.44514L1783.31 -1.05342L1784.71 8.84926L1735.19 15.8079ZM1743.7 4.5135L1773.41 0.338318L1766.45 -49.1751L1736.75 -44.9999L1743.7 4.5135ZM1806.1 5.84312L1796.35 -63.4756L1855.77 -71.826L1857.16 -61.9234L1867.06 -63.3151L1871.24 -33.607L1851.43 -30.8236L1852.83 -20.9209L1862.73 -22.3126L1864.12 -12.4099L1874.02 -13.8017L1875.42 -3.89899L1845.71 0.276199L1844.32 -9.62648L1834.41 -8.23474L1833.02 -18.1374L1823.12 -16.7457L1825.9 3.05966L1806.1 5.84312ZM1821.73 -26.6484L1841.53 -29.4318L1840.14 -39.3345L1850.04 -40.7263L1847.26 -60.5316L1817.55 -56.3564L1821.73 -26.6484ZM1886.9 -5.5134L1877.16 -74.8322L1896.97 -77.6156L1898.36 -67.713L1908.26 -69.1047L1909.65 -59.202L1919.55 -60.5937L1918.16 -70.4964L1928.07 -71.8881L1926.67 -81.7908L1946.48 -84.5743L1956.22 -15.2555L1936.42 -12.4721L1930.85 -52.0828L1920.95 -50.691L1923.73 -30.8857L1913.83 -29.494L1911.04 -49.2993L1901.14 -47.9076L1906.71 -8.29686L1886.9 -5.5134Z"/>
<path d="M-73.4646 396.227L-83.2067 326.908L-23.7906 318.557L-22.3989 328.46L-12.4962 327.068L-8.32103 356.776L-18.2237 358.168L-16.832 368.071L-56.4427 373.638L-53.6592 393.443L-73.4646 396.227ZM-57.8344 363.735L-28.1264 359.56L-32.3016 329.852L-62.0096 334.027L-57.8344 363.735ZM17.2439 383.478L7.50183 314.16L27.3072 311.376L35.6576 370.792L75.2683 365.225L76.66 375.128L17.2439 383.478ZM88.1471 373.514L81.1885 324L91.0912 322.608L89.6994 312.706L99.6021 311.314L98.2104 301.411L127.918 297.236L129.31 307.139L139.213 305.747L140.605 315.65L150.507 314.258L157.466 363.771L137.661 366.555L134.877 346.75L105.169 350.925L107.952 370.73L88.1471 373.514ZM103.777 341.022L133.485 336.847L130.702 317.042L120.799 318.433L119.407 308.531L109.505 309.922L110.897 319.825L100.994 321.217L103.777 341.022ZM198.661 357.982L190.311 298.566L170.505 301.349L169.114 291.447L228.53 283.096L229.921 292.999L210.116 295.782L218.466 355.198L198.661 357.982ZM249.759 350.801L240.017 281.482L309.336 271.74L310.727 281.642L261.214 288.601L263.997 308.406L303.608 302.839L305 312.742L265.389 318.309L269.564 348.017L249.759 350.801ZM340.467 338.052L339.076 328.15L329.173 329.541L322.214 280.028L332.117 278.636L330.725 268.734L380.239 261.775L381.63 271.678L391.533 270.286L398.492 319.799L388.589 321.191L389.981 331.094L340.467 338.052ZM348.978 326.758L378.686 322.583L371.728 273.069L342.02 277.244L348.978 326.758ZM411.371 328.087L401.629 258.769L461.045 250.418L462.436 260.321L472.339 258.929L476.514 288.637L456.709 291.421L458.101 301.323L468.003 299.932L469.395 309.834L479.298 308.443L480.689 318.345L450.981 322.521L449.59 312.618L439.687 314.01L438.295 304.107L428.393 305.499L431.176 325.304L411.371 328.087ZM427.001 295.596L446.806 292.812L445.414 282.91L455.317 281.518L452.534 261.713L422.826 265.888L427.001 295.596ZM492.177 316.731L482.434 247.412L502.24 244.629L503.631 254.531L513.534 253.14L514.926 263.042L524.829 261.651L523.437 251.748L533.34 250.356L531.948 240.454L551.753 237.67L561.495 306.989L541.69 309.772L536.123 270.162L526.22 271.553L529.004 291.359L519.101 292.75L516.318 272.945L506.415 274.337L511.982 313.948L492.177 316.731Z"/>
<path d="M632.596 296.996L622.854 227.677L682.271 219.327L683.662 229.23L693.565 227.838L697.74 257.546L687.837 258.938L689.229 268.84L649.618 274.407L652.402 294.213L632.596 296.996ZM648.227 264.505L677.935 260.329L673.76 230.621L644.052 234.797L648.227 264.505ZM723.305 284.248L713.563 214.929L733.368 212.146L741.719 271.562L781.329 265.995L782.721 275.898L723.305 284.248ZM794.208 274.283L787.25 224.77L797.152 223.378L795.761 213.475L805.663 212.084L804.271 202.181L833.98 198.006L835.371 207.908L845.274 206.517L846.666 216.419L856.568 215.028L863.527 264.541L843.722 267.324L840.938 247.519L811.23 251.694L814.014 271.5L794.208 274.283ZM809.838 241.792L839.546 237.616L836.763 217.811L826.86 219.203L825.469 209.3L815.566 210.692L816.958 220.595L807.055 221.986L809.838 241.792ZM904.722 258.751L896.372 199.335L876.566 202.119L875.175 192.216L934.591 183.866L935.983 193.768L916.177 196.552L924.528 255.968L904.722 258.751ZM955.82 251.57L946.078 182.251L1015.4 172.509L1016.79 182.412L967.275 189.371L970.058 209.176L1009.67 203.609L1011.06 213.512L971.45 219.079L975.625 248.787L955.82 251.57ZM1046.53 238.822L1045.14 228.919L1035.23 230.311L1028.28 180.797L1038.18 179.406L1036.79 169.503L1086.3 162.544L1087.69 172.447L1097.59 171.055L1104.55 220.569L1094.65 221.961L1096.04 231.863L1046.53 238.822ZM1055.04 227.527L1084.75 223.352L1077.79 173.839L1048.08 178.014L1055.04 227.527ZM1117.43 228.857L1107.69 159.538L1167.11 151.188L1168.5 161.091L1178.4 159.699L1182.58 189.407L1162.77 192.19L1164.16 202.093L1174.06 200.701L1175.46 210.604L1185.36 209.212L1186.75 219.115L1157.04 223.29L1155.65 213.387L1145.75 214.779L1144.36 204.876L1134.45 206.268L1137.24 226.074L1117.43 228.857ZM1133.06 196.366L1152.87 193.582L1151.48 183.679L1161.38 182.288L1158.59 162.482L1128.89 166.658L1133.06 196.366ZM1198.24 217.501L1188.5 148.182L1208.3 145.398L1209.69 155.301L1219.6 153.909L1220.99 163.812L1230.89 162.42L1229.5 152.518L1239.4 151.126L1238.01 141.223L1257.81 138.44L1267.56 207.758L1247.75 210.542L1242.18 170.931L1232.28 172.323L1235.06 192.128L1225.16 193.52L1222.38 173.715L1212.48 175.106L1218.04 214.717L1198.24 217.501Z"/>
<path d="M1338.66 197.766L1328.92 128.447L1388.33 120.097L1389.72 129.999L1399.63 128.608L1403.8 158.316L1393.9 159.707L1395.29 169.61L1355.68 175.177L1358.46 194.982L1338.66 197.766ZM1354.29 165.274L1384 161.099L1379.82 131.391L1350.11 135.566L1354.29 165.274Z"/>
<path d="M1429.37 185.018L1419.62 115.699L1439.43 112.915L1447.78 172.331L1487.39 166.764L1488.78 176.667L1429.37 185.018Z"/>
<path d="M1500.27 175.053L1493.31 125.539L1503.21 124.148L1501.82 114.245L1511.72 112.853L1510.33 102.951L1540.04 98.7753L1541.43 108.678L1551.34 107.286L1552.73 117.189L1562.63 115.797L1569.59 165.311L1549.78 168.094L1547 148.289L1517.29 152.464L1520.07 172.269L1500.27 175.053ZM1515.9 142.561L1545.61 138.386L1542.82 118.581L1532.92 119.972L1531.53 110.07L1521.63 111.461L1523.02 121.364L1513.12 122.756L1515.9 142.561Z"/>
<path d="M1610.78 159.521L1602.43 100.105L1582.63 102.888L1581.24 92.9857L1640.65 84.6353L1642.04 94.538L1622.24 97.3215L1630.59 156.738L1610.78 159.521Z"/>
<path d="M1661.88 152.34L1652.14 83.0209L1721.46 73.2788L1722.85 83.1815L1673.34 90.1401L1676.12 109.945L1715.73 104.379L1717.12 114.281L1677.51 119.848L1681.69 149.556L1661.88 152.34Z"/>
<path d="M1752.59 139.591L1751.2 129.689L1741.3 131.08L1734.34 81.5671L1744.24 80.1754L1742.85 70.2727L1792.36 63.314L1793.75 73.2167L1803.66 71.825L1810.61 121.338L1800.71 122.73L1802.1 132.633L1752.59 139.591ZM1761.1 128.297L1790.81 124.122L1783.85 74.6084L1754.14 78.7836L1761.1 128.297Z"/>
<path d="M1823.49 129.627L1813.75 60.3079L1873.17 51.9575L1874.56 61.8602L1884.46 60.4684L1888.64 90.1765L1868.83 92.9599L1870.22 102.863L1880.13 101.471L1881.52 111.374L1891.42 109.982L1892.81 119.885L1863.1 124.06L1861.71 114.157L1851.81 115.549L1850.42 105.646L1840.51 107.038L1843.3 126.843L1823.49 129.627ZM1839.12 97.1351L1858.93 94.3517L1857.54 84.449L1867.44 83.0573L1864.66 63.2519L1834.95 67.4271L1839.12 97.1351Z"/>
<path d="M1904.3 118.27L1894.56 48.9514L1914.36 46.1679L1915.75 56.0706L1925.66 54.6788L1927.05 64.5815L1936.95 63.1898L1935.56 53.2871L1945.46 51.8954L1944.07 41.9927L1963.88 39.2092L1973.62 108.528L1953.81 111.311L1948.25 71.7007L1938.34 73.0925L1941.13 92.8978L1931.22 94.2896L1928.44 74.4842L1918.54 75.8759L1924.1 115.487L1904.3 118.27Z"/>
<path d="M-56.068 520.01L-65.8101 450.691L-6.394 442.341L-5.00227 452.244L4.90041 450.852L9.07561 480.56L-0.827072 481.952L0.564659 491.854L-39.0461 497.421L-36.2626 517.227L-56.068 520.01ZM-40.4378 487.519L-10.7298 483.343L-14.905 453.635L-44.613 457.811L-40.4378 487.519ZM34.6406 507.262L24.8985 437.943L44.7038 435.16L53.0542 494.576L92.6649 489.009L94.0567 498.911L34.6406 507.262ZM105.544 497.297L98.5851 447.784L108.488 446.392L107.096 436.489L116.999 435.098L115.607 425.195L145.315 421.02L146.707 430.922L156.609 429.531L158.001 439.433L167.904 438.042L174.863 487.555L155.057 490.338L152.274 470.533L122.566 474.708L125.349 494.514L105.544 497.297ZM121.174 464.806L150.882 460.63L148.099 440.825L138.196 442.217L136.804 432.314L126.901 433.706L128.293 443.608L118.39 445L121.174 464.806ZM216.058 481.765L207.707 422.349L187.902 425.133L186.51 415.23L245.926 406.88L247.318 416.782L227.513 419.566L235.863 478.982L216.058 481.765ZM267.156 474.584L257.413 405.265L326.732 395.523L328.124 405.426L278.611 412.384L281.394 432.19L321.005 426.623L322.396 436.526L282.786 442.093L286.961 471.801L267.156 474.584ZM357.864 461.836L356.472 451.933L346.57 453.325L339.611 403.811L349.514 402.42L348.122 392.517L397.635 385.558L399.027 395.461L408.93 394.069L415.888 443.583L405.986 444.974L407.378 454.877L357.864 461.836ZM366.375 450.541L396.083 446.366L389.124 396.853L359.416 401.028L366.375 450.541ZM428.767 451.871L419.025 382.552L478.441 374.202L479.833 384.104L489.736 382.713L493.911 412.421L474.105 415.204L475.497 425.107L485.4 423.715L486.792 433.618L496.694 432.226L498.086 442.129L468.378 446.304L466.986 436.401L457.084 437.793L455.692 427.89L445.789 429.282L448.573 449.088L428.767 451.871ZM444.397 419.379L464.203 416.596L462.811 406.693L472.714 405.302L469.93 385.496L440.222 389.671L444.397 419.379ZM509.573 440.514L499.831 371.196L519.636 368.412L521.028 378.315L530.931 376.923L532.323 386.826L542.225 385.434L540.833 375.531L550.736 374.14L549.344 364.237L569.15 361.454L578.892 430.772L559.087 433.556L553.52 393.945L543.617 395.337L546.4 415.142L536.498 416.534L533.714 396.729L523.812 398.12L529.379 437.731L509.573 440.514Z"/>
<path d="M649.993 420.78L640.251 351.461L699.667 343.111L701.059 353.013L710.962 351.622L715.137 381.33L705.234 382.721L706.626 392.624L667.015 398.191L669.799 417.996L649.993 420.78ZM665.623 388.288L695.331 384.113L691.156 354.405L661.448 358.58L665.623 388.288Z"/>
<path d="M740.702 408.031L730.96 338.713L750.765 335.929L759.115 395.345L798.726 389.778L800.118 399.681L740.702 408.031Z"/>
<path d="M811.605 398.067L804.646 348.553L814.549 347.161L813.157 337.259L823.06 335.867L821.668 325.964L851.376 321.789L852.768 331.692L862.671 330.3L864.062 340.203L873.965 338.811L880.924 388.325L861.118 391.108L858.335 371.303L828.627 375.478L831.41 395.283L811.605 398.067ZM827.235 365.575L856.943 361.4L854.16 341.595L844.257 342.986L842.865 333.084L832.963 334.475L834.354 344.378L824.452 345.77L827.235 365.575Z"/>
<path d="M922.119 382.535L913.768 323.119L893.963 325.902L892.571 316L951.987 307.649L953.379 317.552L933.574 320.335L941.924 379.751L922.119 382.535Z"/>
<path d="M973.217 375.354L963.474 306.035L1032.79 296.293L1034.19 306.195L984.672 313.154L987.455 332.959L1027.07 327.393L1028.46 337.295L988.847 342.862L993.022 372.57L973.217 375.354Z"/>
<path d="M1063.93 362.605L1062.53 352.703L1052.63 354.094L1045.67 304.581L1055.57 303.189L1054.18 293.287L1103.7 286.328L1105.09 296.231L1114.99 294.839L1121.95 344.352L1112.05 345.744L1113.44 355.647L1063.93 362.605ZM1072.44 351.311L1102.14 347.136L1095.19 297.622L1065.48 301.798L1072.44 351.311Z"/>
<path d="M1134.83 352.641L1125.09 283.322L1184.5 274.971L1185.89 284.874L1195.8 283.482L1199.97 313.19L1180.17 315.974L1181.56 325.877L1191.46 324.485L1192.85 334.388L1202.76 332.996L1204.15 342.898L1174.44 347.074L1173.05 337.171L1163.14 338.563L1161.75 328.66L1151.85 330.052L1154.63 349.857L1134.83 352.641ZM1150.46 320.149L1170.26 317.366L1168.87 307.463L1178.77 306.071L1175.99 286.266L1146.28 290.441L1150.46 320.149Z"/>
<path d="M1215.63 341.284L1205.89 271.965L1225.7 269.182L1227.09 279.084L1236.99 277.693L1238.38 287.595L1248.29 286.204L1246.89 276.301L1256.8 274.909L1255.41 265.007L1275.21 262.223L1284.95 331.542L1265.15 334.325L1259.58 294.715L1249.68 296.106L1252.46 315.912L1242.56 317.303L1239.78 297.498L1229.87 298.89L1235.44 338.501L1215.63 341.284Z"/>
<path d="M1356.05 321.549L1346.31 252.231L1405.73 243.88L1407.12 253.783L1417.02 252.391L1421.2 282.099L1411.3 283.491L1412.69 293.394L1373.08 298.96L1375.86 318.766L1356.05 321.549ZM1371.68 289.058L1401.39 284.883L1397.22 255.175L1367.51 259.35L1371.68 289.058ZM1446.76 308.801L1437.02 239.482L1456.83 236.699L1465.18 296.115L1504.79 290.548L1506.18 300.451L1446.76 308.801ZM1517.67 298.836L1510.71 249.323L1520.61 247.931L1519.22 238.028L1529.12 236.637L1527.73 226.734L1557.44 222.559L1558.83 232.461L1568.73 231.07L1570.12 240.972L1580.03 239.581L1586.98 289.094L1567.18 291.878L1564.4 272.072L1534.69 276.247L1537.47 296.053L1517.67 298.836ZM1533.3 266.345L1563 262.17L1560.22 242.364L1550.32 243.756L1548.93 233.853L1539.02 235.245L1540.42 245.148L1530.51 246.539L1533.3 266.345ZM1628.18 283.305L1619.83 223.888L1600.02 226.672L1598.63 216.769L1658.05 208.419L1659.44 218.322L1639.63 221.105L1647.99 280.521L1628.18 283.305ZM1679.28 276.123L1669.54 206.804L1738.85 197.062L1740.25 206.965L1690.73 213.924L1693.52 233.729L1733.13 228.162L1734.52 238.065L1694.91 243.632L1699.08 273.34L1679.28 276.123ZM1769.99 263.375L1768.59 253.472L1758.69 254.864L1751.73 205.351L1761.64 203.959L1760.24 194.056L1809.76 187.098L1811.15 197L1821.05 195.608L1828.01 245.122L1818.11 246.514L1819.5 256.416L1769.99 263.375ZM1778.5 252.081L1808.21 247.905L1801.25 198.392L1771.54 202.567L1778.5 252.081ZM1840.89 253.41L1831.15 184.091L1890.56 175.741L1891.96 185.644L1901.86 184.252L1906.03 213.96L1886.23 216.743L1887.62 226.646L1897.52 225.254L1898.91 235.157L1908.82 233.765L1910.21 243.668L1880.5 247.843L1879.11 237.941L1869.21 239.332L1867.81 229.43L1857.91 230.821L1860.69 250.627L1840.89 253.41ZM1856.52 220.919L1876.33 218.135L1874.93 208.232L1884.84 206.841L1882.05 187.035L1852.34 191.211L1856.52 220.919ZM1921.7 242.054L1911.95 172.735L1931.76 169.951L1933.15 179.854L1943.05 178.462L1944.44 188.365L1954.35 186.973L1952.96 177.071L1962.86 175.679L1961.47 165.776L1981.27 162.993L1991.01 232.311L1971.21 235.095L1965.64 195.484L1955.74 196.876L1958.52 216.681L1948.62 218.073L1945.84 198.268L1935.93 199.659L1941.5 239.27L1921.7 242.054Z"/>
<path d="M-38.6713 643.794L-48.4134 574.475L11.0026 566.125L12.3944 576.027L22.2971 574.635L26.4722 604.344L16.5696 605.735L17.9613 615.638L-21.6494 621.205L-18.866 641.01L-38.6713 643.794ZM-23.0412 611.302L6.66688 607.127L2.49168 577.419L-27.2164 581.594L-23.0412 611.302ZM52.0372 631.045L42.2951 561.727L62.1005 558.943L70.4509 618.359L110.062 612.792L111.453 622.695L52.0372 631.045ZM122.94 621.081L115.982 571.567L125.884 570.175L124.493 560.273L134.395 558.881L133.004 548.978L162.712 544.803L164.103 554.706L174.006 553.314L175.398 563.217L185.301 561.825L192.259 611.339L172.454 614.122L169.67 594.317L139.962 598.492L142.746 618.297L122.94 621.081ZM138.571 588.589L168.279 584.414L165.495 564.609L155.592 566L154.201 556.098L144.298 557.489L145.69 567.392L135.787 568.784L138.571 588.589ZM233.454 605.549L225.104 546.133L205.299 548.916L203.907 539.014L263.323 530.663L264.715 540.566L244.909 543.349L253.26 602.765L233.454 605.549ZM284.552 598.368L274.81 529.049L344.129 519.307L345.521 529.209L296.007 536.168L298.791 555.973L338.401 550.406L339.793 560.309L300.182 565.876L304.358 595.584L284.552 598.368ZM375.261 585.619L373.869 575.717L363.966 577.108L357.008 527.595L366.91 526.203L365.519 516.301L415.032 509.342L416.424 519.245L426.326 517.853L433.285 567.366L423.382 568.758L424.774 578.661L375.261 585.619ZM383.772 574.325L413.48 570.15L406.521 520.636L376.813 524.811L383.772 574.325ZM446.164 575.654L436.422 506.336L495.838 497.985L497.23 507.888L507.132 506.496L511.307 536.204L491.502 538.988L492.894 548.891L502.797 547.499L504.188 557.401L514.091 556.01L515.483 565.912L485.775 570.088L484.383 560.185L474.48 561.577L473.089 551.674L463.186 553.066L465.969 572.871L446.164 575.654ZM461.794 543.163L481.599 540.38L480.208 530.477L490.11 529.085L487.327 509.28L457.619 513.455L461.794 543.163ZM526.97 564.298L517.228 494.979L537.033 492.196L538.425 502.098L548.327 500.707L549.719 510.609L559.622 509.218L558.23 499.315L568.133 497.923L566.741 488.021L586.546 485.237L596.289 554.556L576.483 557.339L570.916 517.729L561.014 519.12L563.797 538.926L553.894 540.317L551.111 520.512L541.208 521.904L546.775 561.515L526.97 564.298Z"/>
<path d="M667.39 544.563L657.648 475.244L717.064 466.894L718.456 476.797L728.358 475.405L732.533 505.113L722.631 506.505L724.022 516.407L684.412 521.974L687.195 541.78L667.39 544.563ZM683.02 512.072L712.728 507.897L708.553 478.188L678.845 482.364L683.02 512.072ZM758.098 531.815L748.356 462.496L768.162 459.713L776.512 519.129L816.123 513.562L817.514 523.465L758.098 531.815ZM829.002 521.85L822.043 472.337L831.946 470.945L830.554 461.042L840.456 459.651L839.065 449.748L868.773 445.573L870.165 455.475L880.067 454.084L881.459 463.986L891.362 462.595L898.32 512.108L878.515 514.892L875.731 495.086L846.023 499.261L848.807 519.067L829.002 521.85ZM844.632 489.359L874.34 485.183L871.556 465.378L861.654 466.77L860.262 456.867L850.359 458.259L851.751 468.162L841.848 469.553L844.632 489.359ZM939.516 506.318L931.165 446.902L911.36 449.686L909.968 439.783L969.384 431.433L970.776 441.335L950.97 444.119L959.321 503.535L939.516 506.318ZM990.613 499.137L980.871 429.818L1050.19 420.076L1051.58 429.979L1002.07 436.938L1004.85 456.743L1044.46 451.176L1045.85 461.079L1006.24 466.646L1010.42 496.354L990.613 499.137ZM1081.32 486.389L1079.93 476.486L1070.03 477.878L1063.07 428.365L1072.97 426.973L1071.58 417.07L1121.09 410.111L1122.48 420.014L1132.39 418.622L1139.35 468.136L1129.44 469.528L1130.84 479.43L1081.32 486.389ZM1089.83 475.094L1119.54 470.919L1112.58 421.406L1082.87 425.581L1089.83 475.094ZM1152.22 476.424L1142.48 407.105L1201.9 398.755L1203.29 408.658L1213.19 407.266L1217.37 436.974L1197.56 439.757L1198.95 449.66L1208.86 448.268L1210.25 458.171L1220.15 456.779L1221.54 466.682L1191.84 470.857L1190.44 460.954L1180.54 462.346L1179.15 452.444L1169.25 453.835L1172.03 473.641L1152.22 476.424ZM1167.86 443.933L1187.66 441.149L1186.27 431.246L1196.17 429.855L1193.39 410.049L1163.68 414.225L1167.86 443.933ZM1233.03 465.068L1223.29 395.749L1243.09 392.965L1244.49 402.868L1254.39 401.476L1255.78 411.379L1265.68 409.987L1264.29 400.085L1274.19 398.693L1272.8 388.79L1292.61 386.007L1302.35 455.325L1282.54 458.109L1276.98 418.498L1267.07 419.89L1269.86 439.695L1259.96 441.087L1257.17 421.282L1247.27 422.673L1252.84 462.284L1233.03 465.068Z"/>
<path d="M1373.45 445.333L1363.71 376.014L1423.12 367.664L1424.52 377.566L1434.42 376.175L1438.59 405.883L1428.69 407.274L1430.08 417.177L1390.47 422.744L1393.26 442.549L1373.45 445.333ZM1389.08 412.841L1418.79 408.666L1414.61 378.958L1384.91 383.133L1389.08 412.841ZM1464.16 432.585L1454.42 363.266L1474.22 360.482L1482.57 419.898L1522.18 414.331L1523.58 424.234L1464.16 432.585ZM1535.06 422.62L1528.1 373.106L1538.01 371.715L1536.61 361.812L1546.52 360.42L1545.13 350.518L1574.83 346.342L1576.23 356.245L1586.13 354.853L1587.52 364.756L1597.42 363.364L1604.38 412.878L1584.58 415.661L1581.79 395.856L1552.08 400.031L1554.87 419.836L1535.06 422.62ZM1550.69 390.128L1580.4 385.953L1577.62 366.148L1567.71 367.539L1566.32 357.637L1556.42 359.028L1557.81 368.931L1547.91 370.323L1550.69 390.128ZM1645.58 407.088L1637.23 347.672L1617.42 350.455L1616.03 340.553L1675.45 332.202L1676.84 342.105L1657.03 344.888L1665.38 404.305L1645.58 407.088ZM1696.67 399.907L1686.93 330.588L1756.25 320.846L1757.64 330.748L1708.13 337.707L1710.91 357.513L1750.52 351.946L1751.92 361.848L1712.3 367.415L1716.48 397.123L1696.67 399.907ZM1787.38 387.158L1785.99 377.256L1776.09 378.647L1769.13 329.134L1779.03 327.742L1777.64 317.84L1827.15 310.881L1828.55 320.784L1838.45 319.392L1845.41 368.905L1835.5 370.297L1836.9 380.2L1787.38 387.158ZM1795.89 375.864L1825.6 371.689L1818.64 322.175L1788.94 326.351L1795.89 375.864ZM1858.29 377.194L1848.54 307.875L1907.96 299.525L1909.35 309.427L1919.25 308.035L1923.43 337.743L1903.62 340.527L1905.02 350.43L1914.92 349.038L1916.31 358.941L1926.21 357.549L1927.6 367.452L1897.9 371.627L1896.51 361.724L1886.6 363.116L1885.21 353.213L1875.31 354.605L1878.09 374.41L1858.29 377.194ZM1873.92 344.702L1893.72 341.919L1892.33 332.016L1902.23 330.624L1899.45 310.819L1869.74 314.994L1873.92 344.702ZM1939.09 365.837L1929.35 296.518L1949.16 293.735L1950.55 303.638L1960.45 302.246L1961.84 312.148L1971.74 310.757L1970.35 300.854L1980.26 299.462L1978.86 289.56L1998.67 286.776L2008.41 356.095L1988.61 358.878L1983.04 319.268L1973.14 320.659L1975.92 340.465L1966.02 341.857L1963.23 322.051L1953.33 323.443L1958.9 363.054L1939.09 365.837Z"/>
<path d="M-21.2747 767.577L-31.0168 698.258L28.3993 689.908L29.791 699.811L39.6937 698.419L43.8689 728.127L33.9662 729.519L35.3579 739.421L-4.25279 744.988L-1.46933 764.794L-21.2747 767.577ZM-5.64452 735.086L24.0635 730.91L19.8883 701.202L-9.81972 705.378L-5.64452 735.086ZM69.4339 754.829L59.6917 685.51L79.4971 682.727L87.8475 742.143L127.458 736.576L128.85 746.479L69.4339 754.829ZM140.337 744.864L133.378 695.351L143.281 693.959L141.889 684.056L151.792 682.665L150.4 672.762L180.108 668.587L181.5 678.489L191.403 677.098L192.794 687L202.697 685.609L209.656 735.122L189.85 737.905L187.067 718.1L157.359 722.275L160.142 742.081L140.337 744.864ZM155.967 712.373L185.675 708.197L182.892 688.392L172.989 689.784L171.597 679.881L161.695 681.273L163.086 691.175L153.184 692.567L155.967 712.373ZM250.851 729.332L242.501 669.916L222.695 672.7L221.303 662.797L280.72 654.447L282.111 664.349L262.306 667.133L270.656 726.549L250.851 729.332ZM301.949 722.151L292.207 652.832L361.525 643.09L362.917 652.993L313.404 659.951L316.187 679.757L355.798 674.19L357.19 684.093L317.579 689.66L321.754 719.368L301.949 722.151ZM392.657 709.403L391.266 699.5L381.363 700.892L374.404 651.378L384.307 649.987L382.915 640.084L432.429 633.125L433.82 643.028L443.723 641.636L450.682 691.15L440.779 692.541L442.171 702.444L392.657 709.403ZM401.168 698.108L430.876 693.933L423.918 644.42L394.21 648.595L401.168 698.108ZM463.561 699.438L453.818 630.119L513.234 621.769L514.626 631.672L524.529 630.28L528.704 659.988L508.899 662.771L510.29 672.674L520.193 671.282L521.585 681.185L531.488 679.793L532.879 689.696L503.171 693.871L501.78 683.968L491.877 685.36L490.485 675.457L480.582 676.849L483.366 696.655L463.561 699.438ZM479.191 666.946L498.996 664.163L497.604 654.26L507.507 652.869L504.724 633.063L475.016 637.238L479.191 666.946ZM544.366 688.081L534.624 618.763L554.43 615.979L555.821 625.882L565.724 624.49L567.116 634.393L577.018 633.001L575.627 623.098L585.529 621.707L584.138 611.804L603.943 609.021L613.685 678.339L593.88 681.123L588.313 641.512L578.41 642.904L581.194 662.709L571.291 664.101L568.508 644.296L558.605 645.687L564.172 685.298L544.366 688.081Z"/>
<path d="M684.786 668.347L675.044 599.028L734.46 590.678L735.852 600.58L745.755 599.189L749.93 628.897L740.027 630.288L741.419 640.191L701.808 645.758L704.592 665.563L684.786 668.347ZM700.417 635.855L730.125 631.68L725.949 601.972L696.241 606.147L700.417 635.855ZM775.495 655.598L765.753 586.28L785.558 583.496L793.909 642.912L833.519 637.345L834.911 647.248L775.495 655.598ZM846.398 645.634L839.44 596.12L849.342 594.729L847.95 584.826L857.853 583.434L856.461 573.531L886.169 569.356L887.561 579.259L897.464 577.867L898.856 587.77L908.758 586.378L915.717 635.892L895.912 638.675L893.128 618.87L863.42 623.045L866.204 642.85L846.398 645.634ZM862.028 613.142L891.736 608.967L888.953 589.162L879.05 590.553L877.659 580.651L867.756 582.042L869.148 591.945L859.245 593.337L862.028 613.142ZM956.912 630.102L948.562 570.686L928.756 573.469L927.365 563.567L986.781 555.216L988.172 565.119L968.367 567.902L976.717 627.318L956.912 630.102ZM1008.01 622.921L998.268 553.602L1067.59 543.86L1068.98 553.762L1019.46 560.721L1022.25 580.526L1061.86 574.96L1063.25 584.862L1023.64 590.429L1027.82 620.137L1008.01 622.921ZM1098.72 610.172L1097.33 600.27L1087.42 601.661L1080.47 552.148L1090.37 550.756L1088.98 540.854L1138.49 533.895L1139.88 543.798L1149.78 542.406L1156.74 591.919L1146.84 593.311L1148.23 603.214L1098.72 610.172ZM1107.23 598.878L1136.94 594.703L1129.98 545.189L1100.27 549.365L1107.23 598.878ZM1169.62 600.208L1159.88 530.889L1219.3 522.538L1220.69 532.441L1230.59 531.049L1234.77 560.757L1214.96 563.541L1216.35 573.444L1226.25 572.052L1227.65 581.955L1237.55 580.563L1238.94 590.465L1209.23 594.641L1207.84 584.738L1197.94 586.13L1196.55 576.227L1186.64 577.619L1189.43 597.424L1169.62 600.208ZM1185.25 567.716L1205.06 564.933L1203.67 555.03L1213.57 553.638L1210.78 533.833L1181.08 538.008L1185.25 567.716ZM1250.43 588.851L1240.69 519.532L1260.49 516.749L1261.88 526.651L1271.79 525.26L1273.18 535.162L1283.08 533.771L1281.69 523.868L1291.59 522.476L1290.2 512.574L1310 509.79L1319.75 579.109L1299.94 581.892L1294.37 542.282L1284.47 543.673L1287.25 563.479L1277.35 564.87L1274.57 545.065L1264.67 546.457L1270.23 586.068L1250.43 588.851Z"/>
<path d="M1390.85 569.116L1381.11 499.798L1440.52 491.447L1441.91 501.35L1451.82 499.958L1455.99 529.666L1446.09 531.058L1447.48 540.961L1407.87 546.527L1410.65 566.333L1390.85 569.116ZM1406.48 536.625L1436.19 532.45L1432.01 502.742L1402.3 506.917L1406.48 536.625ZM1481.56 556.368L1471.81 487.049L1491.62 484.266L1499.97 543.682L1539.58 538.115L1540.97 548.018L1481.56 556.368ZM1552.46 546.403L1545.5 496.89L1555.4 495.498L1554.01 485.595L1563.91 484.204L1562.52 474.301L1592.23 470.126L1593.62 480.029L1603.53 478.637L1604.92 488.539L1614.82 487.148L1621.78 536.661L1601.97 539.445L1599.19 519.639L1569.48 523.814L1572.26 543.62L1552.46 546.403ZM1568.09 513.912L1597.8 509.737L1595.01 489.931L1585.11 491.323L1583.72 481.42L1573.82 482.812L1575.21 492.715L1565.31 494.106L1568.09 513.912ZM1662.97 530.872L1654.62 471.455L1634.82 474.239L1633.43 464.336L1692.84 455.986L1694.23 465.889L1674.43 468.672L1682.78 528.088L1662.97 530.872ZM1714.07 523.69L1704.33 454.371L1773.65 444.629L1775.04 454.532L1725.53 461.491L1728.31 481.296L1767.92 475.729L1769.31 485.632L1729.7 491.199L1733.88 520.907L1714.07 523.69ZM1804.78 510.942L1803.39 501.039L1793.49 502.431L1786.53 452.918L1796.43 451.526L1795.04 441.623L1844.55 434.665L1845.94 444.567L1855.85 443.175L1862.8 492.689L1852.9 494.081L1854.29 503.983L1804.78 510.942ZM1813.29 499.648L1843 495.472L1836.04 445.959L1806.33 450.134L1813.29 499.648ZM1875.68 500.977L1865.94 431.658L1925.36 423.308L1926.75 433.211L1936.65 431.819L1940.83 461.527L1921.02 464.31L1922.41 474.213L1932.32 472.821L1933.71 482.724L1943.61 481.332L1945 491.235L1915.29 495.41L1913.9 485.508L1904 486.899L1902.61 476.997L1892.7 478.388L1895.49 498.194L1875.68 500.977ZM1891.31 468.486L1911.12 465.702L1909.73 455.799L1919.63 454.408L1916.85 434.602L1887.14 438.778L1891.31 468.486ZM1956.49 489.621L1946.75 420.302L1966.55 417.518L1967.94 427.421L1977.85 426.029L1979.24 435.932L1989.14 434.54L1987.75 424.638L1997.65 423.246L1996.26 413.343L2016.07 410.56L2025.81 479.878L2006 482.662L2000.44 443.051L1990.53 444.443L1993.32 464.248L1983.41 465.64L1980.63 445.835L1970.73 447.226L1976.29 486.837L1956.49 489.621Z"/>
</mask>
<path d="M1338.66 197.766L1328.92 128.447L1388.33 120.097L1389.72 129.999L1399.63 128.608L1403.8 158.316L1393.9 159.707L1395.29 169.61L1355.68 175.177L1358.46 194.982L1338.66 197.766ZM1354.29 165.274L1384 161.099L1379.82 131.391L1350.11 135.566L1354.29 165.274Z" fill="#A2BA1D"/>
<path d="M1429.37 185.018L1419.62 115.699L1439.43 112.915L1447.78 172.331L1487.39 166.764L1488.78 176.667L1429.37 185.018Z" fill="#A2BA1D"/>
<path d="M1500.27 175.053L1493.31 125.539L1503.21 124.148L1501.82 114.245L1511.72 112.853L1510.33 102.951L1540.04 98.7753L1541.43 108.678L1551.34 107.286L1552.73 117.189L1562.63 115.797L1569.59 165.311L1549.78 168.094L1547 148.289L1517.29 152.464L1520.07 172.269L1500.27 175.053ZM1515.9 142.561L1545.61 138.386L1542.82 118.581L1532.92 119.972L1531.53 110.07L1521.63 111.461L1523.02 121.364L1513.12 122.756L1515.9 142.561Z" fill="#A2BA1D"/>
<path d="M1610.78 159.521L1602.43 100.105L1582.63 102.888L1581.24 92.9857L1640.65 84.6353L1642.04 94.538L1622.24 97.3215L1630.59 156.738L1610.78 159.521Z" fill="#A2BA1D"/>
<path d="M1661.88 152.34L1652.14 83.0209L1721.46 73.2788L1722.85 83.1815L1673.34 90.1401L1676.12 109.945L1715.73 104.379L1717.12 114.281L1677.51 119.848L1681.69 149.556L1661.88 152.34Z" fill="#A2BA1D"/>
<path d="M1752.59 139.591L1751.2 129.689L1741.3 131.08L1734.34 81.5671L1744.24 80.1754L1742.85 70.2727L1792.36 63.314L1793.75 73.2167L1803.66 71.825L1810.61 121.338L1800.71 122.73L1802.1 132.633L1752.59 139.591ZM1761.1 128.297L1790.81 124.122L1783.85 74.6084L1754.14 78.7836L1761.1 128.297Z" fill="#A2BA1D"/>
<path d="M1823.49 129.627L1813.75 60.3079L1873.17 51.9575L1874.56 61.8602L1884.46 60.4684L1888.64 90.1765L1868.83 92.9599L1870.22 102.863L1880.13 101.471L1881.52 111.374L1891.42 109.982L1892.81 119.885L1863.1 124.06L1861.71 114.157L1851.81 115.549L1850.42 105.646L1840.51 107.038L1843.3 126.843L1823.49 129.627ZM1839.12 97.1351L1858.93 94.3517L1857.54 84.449L1867.44 83.0573L1864.66 63.2519L1834.95 67.4271L1839.12 97.1351Z" fill="#A2BA1D"/>
<path d="M1904.3 118.27L1894.56 48.9514L1914.36 46.1679L1915.75 56.0706L1925.66 54.6788L1927.05 64.5815L1936.95 63.1898L1935.56 53.2871L1945.46 51.8954L1944.07 41.9927L1963.88 39.2092L1973.62 108.528L1953.81 111.311L1948.25 71.7007L1938.34 73.0925L1941.13 92.8978L1931.22 94.2896L1928.44 74.4842L1918.54 75.8759L1924.1 115.487L1904.3 118.27Z" fill="#A2BA1D"/>
<path d="M649.993 420.78L640.251 351.461L699.667 343.111L701.059 353.013L710.962 351.622L715.137 381.33L705.234 382.721L706.626 392.624L667.015 398.191L669.799 417.996L649.993 420.78ZM665.623 388.288L695.331 384.113L691.156 354.405L661.448 358.58L665.623 388.288Z" fill="#A2BA1D"/>
<path d="M740.702 408.031L730.96 338.713L750.765 335.929L759.115 395.345L798.726 389.778L800.118 399.681L740.702 408.031Z" fill="#A2BA1D"/>
<path d="M811.605 398.067L804.646 348.553L814.549 347.161L813.157 337.259L823.06 335.867L821.668 325.964L851.376 321.789L852.768 331.692L862.671 330.3L864.062 340.203L873.965 338.811L880.924 388.325L861.118 391.108L858.335 371.303L828.627 375.478L831.41 395.283L811.605 398.067ZM827.235 365.575L856.943 361.4L854.16 341.595L844.257 342.986L842.865 333.084L832.963 334.475L834.354 344.378L824.452 345.77L827.235 365.575Z" fill="#A2BA1D"/>
<path d="M922.119 382.535L913.768 323.119L893.963 325.902L892.571 316L951.987 307.649L953.379 317.552L933.574 320.335L941.924 379.751L922.119 382.535Z" fill="#A2BA1D"/>
<path d="M973.217 375.354L963.474 306.035L1032.79 296.293L1034.19 306.195L984.672 313.154L987.455 332.959L1027.07 327.393L1028.46 337.295L988.847 342.862L993.022 372.57L973.217 375.354Z" fill="#A2BA1D"/>
<path d="M1063.93 362.605L1062.53 352.703L1052.63 354.094L1045.67 304.581L1055.57 303.189L1054.18 293.287L1103.7 286.328L1105.09 296.231L1114.99 294.839L1121.95 344.352L1112.05 345.744L1113.44 355.647L1063.93 362.605ZM1072.44 351.311L1102.14 347.136L1095.19 297.622L1065.48 301.798L1072.44 351.311Z" fill="#A2BA1D"/>
<path d="M1134.83 352.641L1125.09 283.322L1184.5 274.971L1185.89 284.874L1195.8 283.482L1199.97 313.19L1180.17 315.974L1181.56 325.877L1191.46 324.485L1192.85 334.388L1202.76 332.996L1204.15 342.898L1174.44 347.074L1173.05 337.171L1163.14 338.563L1161.75 328.66L1151.85 330.052L1154.63 349.857L1134.83 352.641ZM1150.46 320.149L1170.26 317.366L1168.87 307.463L1178.77 306.071L1175.99 286.266L1146.28 290.441L1150.46 320.149Z" fill="#A2BA1D"/>
<path d="M1215.63 341.284L1205.89 271.965L1225.7 269.182L1227.09 279.084L1236.99 277.693L1238.38 287.595L1248.29 286.204L1246.89 276.301L1256.8 274.909L1255.41 265.007L1275.21 262.223L1284.95 331.542L1265.15 334.325L1259.58 294.715L1249.68 296.106L1252.46 315.912L1242.56 317.303L1239.78 297.498L1229.87 298.89L1235.44 338.501L1215.63 341.284Z" fill="#A2BA1D"/>
<path d="M-108.258 148.66L-118 79.3409L-58.5839 70.9905L-57.1922 80.8932L-47.2895 79.5014L-43.1143 109.209L-53.017 110.601L-51.6253 120.504L-91.236 126.071L-88.4525 145.876L-108.258 148.66ZM-92.6277 116.168L-62.9197 111.993L-67.0949 82.2849L-96.8029 86.4601L-92.6277 116.168ZM-17.5493 135.911L-27.2915 66.5926L-7.48608 63.8091L0.864304 123.225L40.475 117.658L41.8668 127.561L-17.5493 135.911ZM53.3539 125.947L46.3952 76.4332L56.2979 75.0414L54.9062 65.1388L64.8088 63.747L63.4171 53.8444L93.1252 49.6692L94.5169 59.5718L104.42 58.1801L105.811 68.0828L115.714 66.691L122.673 116.204L102.867 118.988L100.084 99.1826L70.3758 103.358L73.1592 123.163L53.3539 125.947ZM68.984 93.4551L98.6921 89.2799L95.9086 69.4745L86.0059 70.8662L84.6142 60.9636L74.7115 62.3553L76.1032 72.258L66.2006 73.6497L68.984 93.4551ZM163.868 110.415L155.517 50.9987L135.712 53.7822L134.32 43.8795L193.736 35.5292L195.128 45.4318L175.323 48.2153L183.673 107.631L163.868 110.415ZM214.966 103.234L205.223 33.9148L274.542 24.1726L275.934 34.0753L226.421 41.034L229.204 60.8393L268.815 55.2724L270.207 65.1751L230.596 70.742L234.771 100.45L214.966 103.234ZM305.674 90.4853L304.282 80.5826L294.38 81.9743L287.421 32.4609L297.324 31.0692L295.932 21.1665L345.445 14.2078L346.837 24.1105L356.74 22.7188L363.699 72.2322L353.796 73.6239L355.188 83.5266L305.674 90.4853ZM314.185 79.1909L343.893 75.0157L336.935 25.5023L307.226 29.6774L314.185 79.1909ZM376.577 80.5205L366.835 11.2017L426.251 2.85132L427.643 12.754L437.546 11.3623L441.721 41.0703L421.916 43.8538L423.307 53.7564L433.21 52.3647L434.602 62.2674L444.504 60.8757L445.896 70.7784L416.188 74.9536L414.796 65.0509L404.894 66.4426L403.502 56.5399L393.599 57.9316L396.383 77.737L376.577 80.5205ZM392.208 48.029L412.013 45.2455L410.621 35.3428L420.524 33.9511L417.74 14.1457L388.032 18.3209L392.208 48.029ZM457.383 69.1639L447.641 -0.154816L467.446 -2.93828L468.838 6.96439L478.741 5.57266L480.133 15.4753L490.035 14.0836L488.644 4.18092L498.546 2.7892L497.155 -7.11348L516.96 -9.89694L526.702 59.4218L506.897 62.2053L501.33 22.5946L491.427 23.9863L494.211 43.7917L484.308 45.1834L481.524 25.378L471.622 26.7698L477.189 66.3805L457.383 69.1639Z" stroke="#B2AD96" stroke-width="2" mask="url(#path-1-outside-1_68_14478)"/>
<path d="M597.803 49.4292L588.061 -19.8896L647.477 -28.24L648.869 -18.3373L658.772 -19.729L662.947 9.97903L653.044 11.3708L654.436 21.2735L614.825 26.8404L617.609 46.6457L597.803 49.4292ZM613.433 16.9377L643.141 12.7625L638.966 -16.9455L609.258 -12.7704L613.433 16.9377ZM688.512 36.6809L678.77 -32.6378L698.575 -35.4213L706.925 23.9948L746.536 18.4279L747.928 28.3306L688.512 36.6809ZM759.415 26.7161L752.456 -22.7973L762.359 -24.189L760.967 -34.0917L770.87 -35.4834L769.478 -45.3861L799.186 -49.5613L800.578 -39.6586L810.481 -41.0503L811.872 -31.1476L821.775 -32.5394L828.734 16.974L808.928 19.7575L806.145 -0.0478668L776.437 4.12732L779.22 23.9327L759.415 26.7161ZM775.045 -5.77536L804.753 -9.95055L801.97 -29.7559L792.067 -28.3642L790.675 -38.2669L780.773 -36.8751L782.164 -26.9725L772.262 -25.5807L775.045 -5.77536ZM869.929 11.1844L861.578 -48.2317L841.773 -45.4482L840.381 -55.3509L899.797 -63.7013L901.189 -53.7986L881.384 -51.0151L889.734 8.40097L869.929 11.1844ZM921.027 4.0031L911.285 -65.3157L980.603 -75.0578L981.995 -65.1551L932.482 -58.1965L935.265 -38.3911L974.876 -43.958L976.268 -34.0553L936.657 -28.4884L940.832 1.21964L921.027 4.0031ZM1011.74 -8.74516L1010.34 -18.6478L1000.44 -17.2561L993.482 -66.7695L1003.38 -68.1613L1001.99 -78.0639L1051.51 -85.0226L1052.9 -75.1199L1062.8 -76.5116L1069.76 -26.9982L1059.86 -25.6065L1061.25 -15.7038L1011.74 -8.74516ZM1020.25 -20.0396L1049.95 -24.2148L1043 -73.7282L1013.29 -69.553L1020.25 -20.0396ZM1082.64 -18.71L1072.9 -88.0287L1132.31 -96.3791L1133.7 -86.4764L1143.61 -87.8682L1147.78 -58.1601L1127.98 -55.3766L1129.37 -45.474L1139.27 -46.8657L1140.66 -36.963L1150.57 -38.3548L1151.96 -28.4521L1122.25 -24.2769L1120.86 -34.1796L1110.95 -32.7878L1109.56 -42.6905L1099.66 -41.2988L1102.44 -21.4934L1082.64 -18.71ZM1098.27 -51.2015L1118.07 -53.9849L1116.68 -63.8876L1126.58 -65.2793L1123.8 -85.0847L1094.09 -80.9095L1098.27 -51.2015ZM1163.44 -30.0665L1153.7 -99.3852L1173.51 -102.169L1174.9 -92.266L1184.8 -93.6578L1186.19 -83.7551L1196.1 -85.1468L1194.7 -95.0495L1204.61 -96.4412L1203.22 -106.344L1223.02 -109.127L1232.76 -39.8086L1212.96 -37.0251L1207.39 -76.6359L1197.49 -75.2441L1200.27 -55.4388L1190.37 -54.047L1187.59 -73.8524L1177.68 -72.4607L1183.25 -32.8499L1163.44 -30.0665Z" stroke="#B2AD96" stroke-width="2" mask="url(#path-1-outside-1_68_14478)"/>
<path d="M1303.86 -49.8012L1294.12 -119.12L1353.54 -127.47L1354.93 -117.568L1364.83 -118.959L1369.01 -89.2514L1359.11 -87.8597L1360.5 -77.957L1320.89 -72.39L1323.67 -52.5847L1303.86 -49.8012ZM1319.49 -82.2927L1349.2 -86.4679L1345.03 -116.176L1315.32 -112.001L1319.49 -82.2927ZM1394.57 -62.5495L1384.83 -131.868L1404.64 -134.652L1412.99 -75.2356L1452.6 -80.8026L1453.99 -70.8999L1394.57 -62.5495ZM1465.48 -72.5143L1458.52 -122.028L1468.42 -123.419L1467.03 -133.322L1476.93 -134.714L1475.54 -144.617L1505.25 -148.792L1506.64 -138.889L1516.54 -140.281L1517.93 -130.378L1527.84 -131.77L1534.79 -82.2564L1514.99 -79.4729L1512.21 -99.2783L1482.5 -95.1031L1485.28 -75.2977L1465.48 -72.5143ZM1481.11 -105.006L1510.81 -109.181L1508.03 -128.986L1498.13 -127.595L1496.74 -137.497L1486.83 -136.106L1488.23 -126.203L1478.32 -124.811L1481.11 -105.006ZM1575.99 -88.046L1567.64 -147.462L1547.83 -144.679L1546.44 -154.581L1605.86 -162.932L1607.25 -153.029L1587.44 -150.246L1595.8 -90.8295L1575.99 -88.046ZM1627.09 -95.2273L1617.35 -164.546L1686.66 -174.288L1688.06 -164.386L1638.54 -157.427L1641.33 -137.622L1680.94 -143.188L1682.33 -133.286L1642.72 -127.719L1646.89 -98.0108L1627.09 -95.2273ZM1717.8 -107.976L1716.4 -117.878L1706.5 -116.487L1699.54 -166L1709.45 -167.392L1708.05 -177.294L1757.57 -184.253L1758.96 -174.35L1768.86 -175.742L1775.82 -126.229L1765.92 -124.837L1767.31 -114.934L1717.8 -107.976ZM1726.31 -119.27L1756.02 -123.445L1749.06 -172.959L1719.35 -168.783L1726.31 -119.27ZM1788.7 -117.94L1778.96 -187.259L1838.37 -195.61L1839.77 -185.707L1849.67 -187.099L1853.84 -157.391L1834.04 -154.607L1835.43 -144.704L1845.33 -146.096L1846.72 -136.193L1856.63 -137.585L1858.02 -127.682L1828.31 -123.507L1826.92 -133.41L1817.02 -132.018L1815.62 -141.921L1805.72 -140.529L1808.51 -120.724L1788.7 -117.94ZM1804.33 -150.432L1824.14 -153.215L1822.74 -163.118L1832.65 -164.51L1829.86 -184.315L1800.15 -180.14L1804.33 -150.432ZM1869.51 -129.297L1859.76 -198.616L1879.57 -201.399L1880.96 -191.496L1890.86 -192.888L1892.25 -182.986L1902.16 -184.377L1900.77 -194.28L1910.67 -195.672L1909.28 -205.574L1929.08 -208.358L1938.82 -139.039L1919.02 -136.256L1913.45 -175.866L1903.55 -174.475L1906.33 -154.669L1896.43 -153.277L1893.65 -173.083L1883.74 -171.691L1889.31 -132.08L1869.51 -129.297Z" stroke="#B2AD96" stroke-width="2" mask="url(#path-1-outside-1_68_14478)"/>
<path d="M-90.8612 272.443L-100.603 203.124L-41.1873 194.774L-39.7955 204.677L-29.8929 203.285L-25.7177 232.993L-35.6203 234.385L-34.2286 244.287L-73.8393 249.854L-71.0559 269.66L-90.8612 272.443ZM-75.2311 239.952L-45.523 235.776L-49.6982 206.068L-79.4063 210.244L-75.2311 239.952ZM-0.152695 259.695L-9.89481 190.376L9.91055 187.593L18.2609 247.009L57.8717 241.442L59.2634 251.344L-0.152695 259.695ZM70.7505 249.73L63.7918 200.217L73.6945 198.825L72.3028 188.922L82.2055 187.531L80.8137 177.628L110.522 173.453L111.914 183.355L121.816 181.964L123.208 191.866L133.111 190.475L140.069 239.988L120.264 242.771L117.48 222.966L87.7724 227.141L90.5559 246.947L70.7505 249.73ZM86.3807 217.239L116.089 213.063L113.305 193.258L103.403 194.65L102.011 184.747L92.1082 186.139L93.4999 196.041L83.5972 197.433L86.3807 217.239ZM181.264 234.198L172.914 174.782L153.109 177.566L151.717 167.663L211.133 159.313L212.525 169.215L192.719 171.999L201.07 231.415L181.264 234.198ZM232.362 227.017L222.62 157.698L291.939 147.956L293.331 157.859L243.817 164.817L246.601 184.623L286.211 179.056L287.603 188.959L247.992 194.526L252.168 224.234L232.362 227.017ZM323.071 214.269L321.679 204.366L311.776 205.758L304.818 156.244L314.72 154.853L313.329 144.95L362.842 137.991L364.234 147.894L374.137 146.502L381.095 196.016L371.192 197.407L372.584 207.31L323.071 214.269ZM331.582 202.974L361.29 198.799L354.331 149.286L324.623 153.461L331.582 202.974ZM393.974 204.304L384.232 134.985L443.648 126.635L445.04 136.538L454.942 135.146L459.118 164.854L439.312 167.637L440.704 177.54L450.607 176.148L451.998 186.051L461.901 184.659L463.293 194.562L433.585 198.737L432.193 188.834L422.29 190.226L420.899 180.323L410.996 181.715L413.779 201.521L393.974 204.304ZM409.604 171.812L429.41 169.029L428.018 159.126L437.92 157.735L435.137 137.929L405.429 142.104L409.604 171.812ZM474.78 192.947L465.038 123.629L484.843 120.845L486.235 130.748L496.138 129.356L497.529 139.259L507.432 137.867L506.04 127.964L515.943 126.573L514.551 116.67L534.357 113.887L544.099 183.205L524.293 185.989L518.726 146.378L508.824 147.77L511.607 167.575L501.704 168.967L498.921 149.162L489.018 150.553L494.585 190.164L474.78 192.947Z" stroke="#B2AD96" stroke-width="2" mask="url(#path-1-outside-1_68_14478)"/>
<path d="M615.2 173.213L605.458 103.894L664.874 95.5435L666.266 105.446L676.168 104.055L680.343 133.763L670.441 135.154L671.833 145.057L632.222 150.624L635.005 170.429L615.2 173.213ZM630.83 140.721L660.538 136.546L656.363 106.838L626.655 111.013L630.83 140.721ZM705.908 160.464L696.166 91.1457L715.972 88.3622L724.322 147.778L763.933 142.211L765.325 152.114L705.908 160.464ZM776.812 150.5L769.853 100.986L779.756 99.5945L778.364 89.6918L788.267 88.3001L786.875 78.3974L816.583 74.2222L817.975 84.1249L827.877 82.7332L829.269 92.6359L839.172 91.2441L846.13 140.758L826.325 143.541L823.542 123.736L793.833 127.911L796.617 147.716L776.812 150.5ZM792.442 118.008L822.15 113.833L819.366 94.0276L809.464 95.4193L808.072 85.5166L798.169 86.9084L799.561 96.8111L789.658 98.2028L792.442 118.008ZM887.326 134.968L878.975 75.5518L859.17 78.3353L857.778 68.4326L917.194 60.0822L918.586 69.9849L898.781 72.7684L907.131 132.184L887.326 134.968ZM938.423 127.787L928.681 58.4678L998 48.7257L999.392 58.6284L949.878 65.5871L952.662 85.3924L992.273 79.8255L993.664 89.7282L954.054 95.2951L958.229 125.003L938.423 127.787ZM1029.13 115.038L1027.74 105.136L1017.84 106.527L1010.88 57.014L1020.78 55.6223L1019.39 45.7196L1068.9 38.7609L1070.29 48.6636L1080.2 47.2719L1087.16 96.7853L1077.25 98.177L1078.65 108.08L1029.13 115.038ZM1037.64 103.744L1067.35 99.5688L1060.39 50.0553L1030.68 54.2305L1037.64 103.744ZM1100.04 105.074L1090.29 35.7548L1149.71 27.4044L1151.1 37.3071L1161 35.9153L1165.18 65.6234L1145.37 68.4069L1146.77 78.3095L1156.67 76.9178L1158.06 86.8205L1167.96 85.4287L1169.35 95.3314L1139.65 99.5066L1138.25 89.6039L1128.35 90.9957L1126.96 81.093L1117.06 82.4847L1119.84 102.29L1100.04 105.074ZM1115.67 72.5821L1135.47 69.7986L1134.08 59.8959L1143.98 58.5042L1141.2 38.6988L1111.49 42.874L1115.67 72.5821ZM1180.84 93.717L1171.1 24.3983L1190.9 21.6148L1192.3 31.5175L1202.2 30.1257L1203.59 40.0284L1213.49 38.6367L1212.1 28.734L1222 27.3423L1220.61 17.4396L1240.42 14.6561L1250.16 83.9749L1230.35 86.7584L1224.79 47.1476L1214.88 48.5394L1217.67 68.3447L1207.77 69.7365L1204.98 49.9311L1195.08 51.3228L1200.65 90.9336L1180.84 93.717Z" stroke="#B2AD96" stroke-width="2" mask="url(#path-1-outside-1_68_14478)"/>
<path d="M1321.26 73.9823L1311.52 4.66351L1370.93 -3.68687L1372.33 6.21581L1382.23 4.82407L1386.4 34.5321L1376.5 35.9238L1377.89 45.8265L1338.28 51.3935L1341.07 71.1988L1321.26 73.9823ZM1336.89 41.4908L1366.6 37.3156L1362.42 7.60754L1332.72 11.7827L1336.89 41.4908ZM1411.97 61.234L1402.23 -8.08475L1422.03 -10.8682L1430.38 48.5479L1469.99 42.981L1471.39 52.8836L1411.97 61.234ZM1482.87 51.2692L1475.91 1.75583L1485.82 0.36409L1484.43 -9.53859L1494.33 -10.9303L1492.94 -20.833L1522.64 -25.0082L1524.04 -15.1055L1533.94 -16.4972L1535.33 -6.59456L1545.23 -7.9863L1552.19 41.5271L1532.39 44.3106L1529.6 24.5052L1499.89 28.6804L1502.68 48.4858L1482.87 51.2692ZM1498.5 18.7777L1528.21 14.6025L1525.43 -5.20284L1515.52 -3.8111L1514.13 -13.7138L1504.23 -12.3221L1505.62 -2.41937L1495.72 -1.02763L1498.5 18.7777ZM1593.39 35.7375L1585.04 -23.6786L1565.23 -20.8951L1563.84 -30.7978L1623.26 -39.1482L1624.65 -29.2455L1604.84 -26.462L1613.19 32.954L1593.39 35.7375ZM1644.48 28.5562L1634.74 -40.7626L1704.06 -50.5047L1705.45 -40.602L1655.94 -33.6434L1658.72 -13.838L1698.33 -19.4049L1699.73 -9.50224L1660.11 -3.93532L1664.29 25.7727L1644.48 28.5562ZM1735.19 15.8079L1733.8 5.90524L1723.9 7.29697L1716.94 -42.2164L1726.84 -43.6082L1725.45 -53.5108L1774.96 -60.4695L1776.36 -50.5668L1786.26 -51.9586L1793.22 -2.44514L1783.31 -1.05342L1784.71 8.84926L1735.19 15.8079ZM1743.7 4.5135L1773.41 0.338318L1766.45 -49.1751L1736.75 -44.9999L1743.7 4.5135ZM1806.1 5.84312L1796.35 -63.4756L1855.77 -71.826L1857.16 -61.9234L1867.06 -63.3151L1871.24 -33.607L1851.43 -30.8236L1852.83 -20.9209L1862.73 -22.3126L1864.12 -12.4099L1874.02 -13.8017L1875.42 -3.89899L1845.71 0.276199L1844.32 -9.62648L1834.41 -8.23474L1833.02 -18.1374L1823.12 -16.7457L1825.9 3.05966L1806.1 5.84312ZM1821.73 -26.6484L1841.53 -29.4318L1840.14 -39.3345L1850.04 -40.7263L1847.26 -60.5316L1817.55 -56.3564L1821.73 -26.6484ZM1886.9 -5.5134L1877.16 -74.8322L1896.97 -77.6156L1898.36 -67.713L1908.26 -69.1047L1909.65 -59.202L1919.55 -60.5937L1918.16 -70.4964L1928.07 -71.8881L1926.67 -81.7908L1946.48 -84.5743L1956.22 -15.2555L1936.42 -12.4721L1930.85 -52.0828L1920.95 -50.691L1923.73 -30.8857L1913.83 -29.494L1911.04 -49.2993L1901.14 -47.9076L1906.71 -8.29686L1886.9 -5.5134Z" stroke="#B2AD96" stroke-width="2" mask="url(#path-1-outside-1_68_14478)"/>
<path d="M-73.4646 396.227L-83.2067 326.908L-23.7906 318.557L-22.3989 328.46L-12.4962 327.068L-8.32103 356.776L-18.2237 358.168L-16.832 368.071L-56.4427 373.638L-53.6592 393.443L-73.4646 396.227ZM-57.8344 363.735L-28.1264 359.56L-32.3016 329.852L-62.0096 334.027L-57.8344 363.735ZM17.2439 383.478L7.50183 314.16L27.3072 311.376L35.6576 370.792L75.2683 365.225L76.66 375.128L17.2439 383.478ZM88.1471 373.514L81.1885 324L91.0912 322.608L89.6994 312.706L99.6021 311.314L98.2104 301.411L127.918 297.236L129.31 307.139L139.213 305.747L140.605 315.65L150.507 314.258L157.466 363.771L137.661 366.555L134.877 346.75L105.169 350.925L107.952 370.73L88.1471 373.514ZM103.777 341.022L133.485 336.847L130.702 317.042L120.799 318.433L119.407 308.531L109.505 309.922L110.897 319.825L100.994 321.217L103.777 341.022ZM198.661 357.982L190.311 298.566L170.505 301.349L169.114 291.447L228.53 283.096L229.921 292.999L210.116 295.782L218.466 355.198L198.661 357.982ZM249.759 350.801L240.017 281.482L309.336 271.74L310.727 281.642L261.214 288.601L263.997 308.406L303.608 302.839L305 312.742L265.389 318.309L269.564 348.017L249.759 350.801ZM340.467 338.052L339.076 328.15L329.173 329.541L322.214 280.028L332.117 278.636L330.725 268.734L380.239 261.775L381.63 271.678L391.533 270.286L398.492 319.799L388.589 321.191L389.981 331.094L340.467 338.052ZM348.978 326.758L378.686 322.583L371.728 273.069L342.02 277.244L348.978 326.758ZM411.371 328.087L401.629 258.769L461.045 250.418L462.436 260.321L472.339 258.929L476.514 288.637L456.709 291.421L458.101 301.323L468.003 299.932L469.395 309.834L479.298 308.443L480.689 318.345L450.981 322.521L449.59 312.618L439.687 314.01L438.295 304.107L428.393 305.499L431.176 325.304L411.371 328.087ZM427.001 295.596L446.806 292.812L445.414 282.91L455.317 281.518L452.534 261.713L422.826 265.888L427.001 295.596ZM492.177 316.731L482.434 247.412L502.24 244.629L503.631 254.531L513.534 253.14L514.926 263.042L524.829 261.651L523.437 251.748L533.34 250.356L531.948 240.454L551.753 237.67L561.495 306.989L541.69 309.772L536.123 270.162L526.22 271.553L529.004 291.359L519.101 292.75L516.318 272.945L506.415 274.337L511.982 313.948L492.177 316.731Z" stroke="#B2AD96" stroke-width="2" mask="url(#path-1-outside-1_68_14478)"/>
<path d="M632.596 296.996L622.854 227.677L682.271 219.327L683.662 229.23L693.565 227.838L697.74 257.546L687.837 258.938L689.229 268.84L649.618 274.407L652.402 294.213L632.596 296.996ZM648.227 264.505L677.935 260.329L673.76 230.621L644.052 234.797L648.227 264.505ZM723.305 284.248L713.563 214.929L733.368 212.146L741.719 271.562L781.329 265.995L782.721 275.898L723.305 284.248ZM794.208 274.283L787.25 224.77L797.152 223.378L795.761 213.475L805.663 212.084L804.271 202.181L833.98 198.006L835.371 207.908L845.274 206.517L846.666 216.419L856.568 215.028L863.527 264.541L843.722 267.324L840.938 247.519L811.23 251.694L814.014 271.5L794.208 274.283ZM809.838 241.792L839.546 237.616L836.763 217.811L826.86 219.203L825.469 209.3L815.566 210.692L816.958 220.595L807.055 221.986L809.838 241.792ZM904.722 258.751L896.372 199.335L876.566 202.119L875.175 192.216L934.591 183.866L935.983 193.768L916.177 196.552L924.528 255.968L904.722 258.751ZM955.82 251.57L946.078 182.251L1015.4 172.509L1016.79 182.412L967.275 189.371L970.058 209.176L1009.67 203.609L1011.06 213.512L971.45 219.079L975.625 248.787L955.82 251.57ZM1046.53 238.822L1045.14 228.919L1035.23 230.311L1028.28 180.797L1038.18 179.406L1036.79 169.503L1086.3 162.544L1087.69 172.447L1097.59 171.055L1104.55 220.569L1094.65 221.961L1096.04 231.863L1046.53 238.822ZM1055.04 227.527L1084.75 223.352L1077.79 173.839L1048.08 178.014L1055.04 227.527ZM1117.43 228.857L1107.69 159.538L1167.11 151.188L1168.5 161.091L1178.4 159.699L1182.58 189.407L1162.77 192.19L1164.16 202.093L1174.06 200.701L1175.46 210.604L1185.36 209.212L1186.75 219.115L1157.04 223.29L1155.65 213.387L1145.75 214.779L1144.36 204.876L1134.45 206.268L1137.24 226.074L1117.43 228.857ZM1133.06 196.366L1152.87 193.582L1151.48 183.679L1161.38 182.288L1158.59 162.482L1128.89 166.658L1133.06 196.366ZM1198.24 217.501L1188.5 148.182L1208.3 145.398L1209.69 155.301L1219.6 153.909L1220.99 163.812L1230.89 162.42L1229.5 152.518L1239.4 151.126L1238.01 141.223L1257.81 138.44L1267.56 207.758L1247.75 210.542L1242.18 170.931L1232.28 172.323L1235.06 192.128L1225.16 193.52L1222.38 173.715L1212.48 175.106L1218.04 214.717L1198.24 217.501Z" stroke="#B2AD96" stroke-width="2" mask="url(#path-1-outside-1_68_14478)"/>
<path d="M1338.66 197.766L1328.92 128.447L1388.33 120.097L1389.72 129.999L1399.63 128.608L1403.8 158.316L1393.9 159.707L1395.29 169.61L1355.68 175.177L1358.46 194.982L1338.66 197.766ZM1354.29 165.274L1384 161.099L1379.82 131.391L1350.11 135.566L1354.29 165.274Z" stroke="#B2AD96" stroke-width="2" mask="url(#path-1-outside-1_68_14478)"/>
<path d="M1429.37 185.018L1419.62 115.699L1439.43 112.915L1447.78 172.331L1487.39 166.764L1488.78 176.667L1429.37 185.018Z" stroke="#B2AD96" stroke-width="2" mask="url(#path-1-outside-1_68_14478)"/>
<path d="M1500.27 175.053L1493.31 125.539L1503.21 124.148L1501.82 114.245L1511.72 112.853L1510.33 102.951L1540.04 98.7753L1541.43 108.678L1551.34 107.286L1552.73 117.189L1562.63 115.797L1569.59 165.311L1549.78 168.094L1547 148.289L1517.29 152.464L1520.07 172.269L1500.27 175.053ZM1515.9 142.561L1545.61 138.386L1542.82 118.581L1532.92 119.972L1531.53 110.07L1521.63 111.461L1523.02 121.364L1513.12 122.756L1515.9 142.561Z" stroke="#B2AD96" stroke-width="2" mask="url(#path-1-outside-1_68_14478)"/>
<path d="M1610.78 159.521L1602.43 100.105L1582.63 102.888L1581.24 92.9857L1640.65 84.6353L1642.04 94.538L1622.24 97.3215L1630.59 156.738L1610.78 159.521Z" stroke="#B2AD96" stroke-width="2" mask="url(#path-1-outside-1_68_14478)"/>
<path d="M1661.88 152.34L1652.14 83.0209L1721.46 73.2788L1722.85 83.1815L1673.34 90.1401L1676.12 109.945L1715.73 104.379L1717.12 114.281L1677.51 119.848L1681.69 149.556L1661.88 152.34Z" stroke="#B2AD96" stroke-width="2" mask="url(#path-1-outside-1_68_14478)"/>
<path d="M1752.59 139.591L1751.2 129.689L1741.3 131.08L1734.34 81.5671L1744.24 80.1754L1742.85 70.2727L1792.36 63.314L1793.75 73.2167L1803.66 71.825L1810.61 121.338L1800.71 122.73L1802.1 132.633L1752.59 139.591ZM1761.1 128.297L1790.81 124.122L1783.85 74.6084L1754.14 78.7836L1761.1 128.297Z" stroke="#B2AD96" stroke-width="2" mask="url(#path-1-outside-1_68_14478)"/>
<path d="M1823.49 129.627L1813.75 60.3079L1873.17 51.9575L1874.56 61.8602L1884.46 60.4684L1888.64 90.1765L1868.83 92.9599L1870.22 102.863L1880.13 101.471L1881.52 111.374L1891.42 109.982L1892.81 119.885L1863.1 124.06L1861.71 114.157L1851.81 115.549L1850.42 105.646L1840.51 107.038L1843.3 126.843L1823.49 129.627ZM1839.12 97.1351L1858.93 94.3517L1857.54 84.449L1867.44 83.0573L1864.66 63.2519L1834.95 67.4271L1839.12 97.1351Z" stroke="#B2AD96" stroke-width="2" mask="url(#path-1-outside-1_68_14478)"/>
<path d="M1904.3 118.27L1894.56 48.9514L1914.36 46.1679L1915.75 56.0706L1925.66 54.6788L1927.05 64.5815L1936.95 63.1898L1935.56 53.2871L1945.46 51.8954L1944.07 41.9927L1963.88 39.2092L1973.62 108.528L1953.81 111.311L1948.25 71.7007L1938.34 73.0925L1941.13 92.8978L1931.22 94.2896L1928.44 74.4842L1918.54 75.8759L1924.1 115.487L1904.3 118.27Z" stroke="#B2AD96" stroke-width="2" mask="url(#path-1-outside-1_68_14478)"/>
<path d="M-56.068 520.01L-65.8101 450.691L-6.394 442.341L-5.00227 452.244L4.90041 450.852L9.07561 480.56L-0.827072 481.952L0.564659 491.854L-39.0461 497.421L-36.2626 517.227L-56.068 520.01ZM-40.4378 487.519L-10.7298 483.343L-14.905 453.635L-44.613 457.811L-40.4378 487.519ZM34.6406 507.262L24.8985 437.943L44.7038 435.16L53.0542 494.576L92.6649 489.009L94.0567 498.911L34.6406 507.262ZM105.544 497.297L98.5851 447.784L108.488 446.392L107.096 436.489L116.999 435.098L115.607 425.195L145.315 421.02L146.707 430.922L156.609 429.531L158.001 439.433L167.904 438.042L174.863 487.555L155.057 490.338L152.274 470.533L122.566 474.708L125.349 494.514L105.544 497.297ZM121.174 464.806L150.882 460.63L148.099 440.825L138.196 442.217L136.804 432.314L126.901 433.706L128.293 443.608L118.39 445L121.174 464.806ZM216.058 481.765L207.707 422.349L187.902 425.133L186.51 415.23L245.926 406.88L247.318 416.782L227.513 419.566L235.863 478.982L216.058 481.765ZM267.156 474.584L257.413 405.265L326.732 395.523L328.124 405.426L278.611 412.384L281.394 432.19L321.005 426.623L322.396 436.526L282.786 442.093L286.961 471.801L267.156 474.584ZM357.864 461.836L356.472 451.933L346.57 453.325L339.611 403.811L349.514 402.42L348.122 392.517L397.635 385.558L399.027 395.461L408.93 394.069L415.888 443.583L405.986 444.974L407.378 454.877L357.864 461.836ZM366.375 450.541L396.083 446.366L389.124 396.853L359.416 401.028L366.375 450.541ZM428.767 451.871L419.025 382.552L478.441 374.202L479.833 384.104L489.736 382.713L493.911 412.421L474.105 415.204L475.497 425.107L485.4 423.715L486.792 433.618L496.694 432.226L498.086 442.129L468.378 446.304L466.986 436.401L457.084 437.793L455.692 427.89L445.789 429.282L448.573 449.088L428.767 451.871ZM444.397 419.379L464.203 416.596L462.811 406.693L472.714 405.302L469.93 385.496L440.222 389.671L444.397 419.379ZM509.573 440.514L499.831 371.196L519.636 368.412L521.028 378.315L530.931 376.923L532.323 386.826L542.225 385.434L540.833 375.531L550.736 374.14L549.344 364.237L569.15 361.454L578.892 430.772L559.087 433.556L553.52 393.945L543.617 395.337L546.4 415.142L536.498 416.534L533.714 396.729L523.812 398.12L529.379 437.731L509.573 440.514Z" stroke="#B2AD96" stroke-width="2" mask="url(#path-1-outside-1_68_14478)"/>
<path d="M649.993 420.78L640.251 351.461L699.667 343.111L701.059 353.013L710.962 351.622L715.137 381.33L705.234 382.721L706.626 392.624L667.015 398.191L669.799 417.996L649.993 420.78ZM665.623 388.288L695.331 384.113L691.156 354.405L661.448 358.58L665.623 388.288Z" stroke="#B2AD96" stroke-width="2" mask="url(#path-1-outside-1_68_14478)"/>
<path d="M740.702 408.031L730.96 338.713L750.765 335.929L759.115 395.345L798.726 389.778L800.118 399.681L740.702 408.031Z" stroke="#B2AD96" stroke-width="2" mask="url(#path-1-outside-1_68_14478)"/>
<path d="M811.605 398.067L804.646 348.553L814.549 347.161L813.157 337.259L823.06 335.867L821.668 325.964L851.376 321.789L852.768 331.692L862.671 330.3L864.062 340.203L873.965 338.811L880.924 388.325L861.118 391.108L858.335 371.303L828.627 375.478L831.41 395.283L811.605 398.067ZM827.235 365.575L856.943 361.4L854.16 341.595L844.257 342.986L842.865 333.084L832.963 334.475L834.354 344.378L824.452 345.77L827.235 365.575Z" stroke="#B2AD96" stroke-width="2" mask="url(#path-1-outside-1_68_14478)"/>
<path d="M922.119 382.535L913.768 323.119L893.963 325.902L892.571 316L951.987 307.649L953.379 317.552L933.574 320.335L941.924 379.751L922.119 382.535Z" stroke="#B2AD96" stroke-width="2" mask="url(#path-1-outside-1_68_14478)"/>
<path d="M973.217 375.354L963.474 306.035L1032.79 296.293L1034.19 306.195L984.672 313.154L987.455 332.959L1027.07 327.393L1028.46 337.295L988.847 342.862L993.022 372.57L973.217 375.354Z" stroke="#B2AD96" stroke-width="2" mask="url(#path-1-outside-1_68_14478)"/>
<path d="M1063.93 362.605L1062.53 352.703L1052.63 354.094L1045.67 304.581L1055.57 303.189L1054.18 293.287L1103.7 286.328L1105.09 296.231L1114.99 294.839L1121.95 344.352L1112.05 345.744L1113.44 355.647L1063.93 362.605ZM1072.44 351.311L1102.14 347.136L1095.19 297.622L1065.48 301.798L1072.44 351.311Z" stroke="#B2AD96" stroke-width="2" mask="url(#path-1-outside-1_68_14478)"/>
<path d="M1134.83 352.641L1125.09 283.322L1184.5 274.971L1185.89 284.874L1195.8 283.482L1199.97 313.19L1180.17 315.974L1181.56 325.877L1191.46 324.485L1192.85 334.388L1202.76 332.996L1204.15 342.898L1174.44 347.074L1173.05 337.171L1163.14 338.563L1161.75 328.66L1151.85 330.052L1154.63 349.857L1134.83 352.641ZM1150.46 320.149L1170.26 317.366L1168.87 307.463L1178.77 306.071L1175.99 286.266L1146.28 290.441L1150.46 320.149Z" stroke="#B2AD96" stroke-width="2" mask="url(#path-1-outside-1_68_14478)"/>
<path d="M1215.63 341.284L1205.89 271.965L1225.7 269.182L1227.09 279.084L1236.99 277.693L1238.38 287.595L1248.29 286.204L1246.89 276.301L1256.8 274.909L1255.41 265.007L1275.21 262.223L1284.95 331.542L1265.15 334.325L1259.58 294.715L1249.68 296.106L1252.46 315.912L1242.56 317.303L1239.78 297.498L1229.87 298.89L1235.44 338.501L1215.63 341.284Z" stroke="#B2AD96" stroke-width="2" mask="url(#path-1-outside-1_68_14478)"/>
<path d="M1356.05 321.549L1346.31 252.231L1405.73 243.88L1407.12 253.783L1417.02 252.391L1421.2 282.099L1411.3 283.491L1412.69 293.394L1373.08 298.96L1375.86 318.766L1356.05 321.549ZM1371.68 289.058L1401.39 284.883L1397.22 255.175L1367.51 259.35L1371.68 289.058ZM1446.76 308.801L1437.02 239.482L1456.83 236.699L1465.18 296.115L1504.79 290.548L1506.18 300.451L1446.76 308.801ZM1517.67 298.836L1510.71 249.323L1520.61 247.931L1519.22 238.028L1529.12 236.637L1527.73 226.734L1557.44 222.559L1558.83 232.461L1568.73 231.07L1570.12 240.972L1580.03 239.581L1586.98 289.094L1567.18 291.878L1564.4 272.072L1534.69 276.247L1537.47 296.053L1517.67 298.836ZM1533.3 266.345L1563 262.17L1560.22 242.364L1550.32 243.756L1548.93 233.853L1539.02 235.245L1540.42 245.148L1530.51 246.539L1533.3 266.345ZM1628.18 283.305L1619.83 223.888L1600.02 226.672L1598.63 216.769L1658.05 208.419L1659.44 218.322L1639.63 221.105L1647.99 280.521L1628.18 283.305ZM1679.28 276.123L1669.54 206.804L1738.85 197.062L1740.25 206.965L1690.73 213.924L1693.52 233.729L1733.13 228.162L1734.52 238.065L1694.91 243.632L1699.08 273.34L1679.28 276.123ZM1769.99 263.375L1768.59 253.472L1758.69 254.864L1751.73 205.351L1761.64 203.959L1760.24 194.056L1809.76 187.098L1811.15 197L1821.05 195.608L1828.01 245.122L1818.11 246.514L1819.5 256.416L1769.99 263.375ZM1778.5 252.081L1808.21 247.905L1801.25 198.392L1771.54 202.567L1778.5 252.081ZM1840.89 253.41L1831.15 184.091L1890.56 175.741L1891.96 185.644L1901.86 184.252L1906.03 213.96L1886.23 216.743L1887.62 226.646L1897.52 225.254L1898.91 235.157L1908.82 233.765L1910.21 243.668L1880.5 247.843L1879.11 237.941L1869.21 239.332L1867.81 229.43L1857.91 230.821L1860.69 250.627L1840.89 253.41ZM1856.52 220.919L1876.33 218.135L1874.93 208.232L1884.84 206.841L1882.05 187.035L1852.34 191.211L1856.52 220.919ZM1921.7 242.054L1911.95 172.735L1931.76 169.951L1933.15 179.854L1943.05 178.462L1944.44 188.365L1954.35 186.973L1952.96 177.071L1962.86 175.679L1961.47 165.776L1981.27 162.993L1991.01 232.311L1971.21 235.095L1965.64 195.484L1955.74 196.876L1958.52 216.681L1948.62 218.073L1945.84 198.268L1935.93 199.659L1941.5 239.27L1921.7 242.054Z" stroke="#B2AD96" stroke-width="2" mask="url(#path-1-outside-1_68_14478)"/>
<path d="M-38.6713 643.794L-48.4134 574.475L11.0026 566.125L12.3944 576.027L22.2971 574.635L26.4722 604.344L16.5696 605.735L17.9613 615.638L-21.6494 621.205L-18.866 641.01L-38.6713 643.794ZM-23.0412 611.302L6.66688 607.127L2.49168 577.419L-27.2164 581.594L-23.0412 611.302ZM52.0372 631.045L42.2951 561.727L62.1005 558.943L70.4509 618.359L110.062 612.792L111.453 622.695L52.0372 631.045ZM122.94 621.081L115.982 571.567L125.884 570.175L124.493 560.273L134.395 558.881L133.004 548.978L162.712 544.803L164.103 554.706L174.006 553.314L175.398 563.217L185.301 561.825L192.259 611.339L172.454 614.122L169.67 594.317L139.962 598.492L142.746 618.297L122.94 621.081ZM138.571 588.589L168.279 584.414L165.495 564.609L155.592 566L154.201 556.098L144.298 557.489L145.69 567.392L135.787 568.784L138.571 588.589ZM233.454 605.549L225.104 546.133L205.299 548.916L203.907 539.014L263.323 530.663L264.715 540.566L244.909 543.349L253.26 602.765L233.454 605.549ZM284.552 598.368L274.81 529.049L344.129 519.307L345.521 529.209L296.007 536.168L298.791 555.973L338.401 550.406L339.793 560.309L300.182 565.876L304.358 595.584L284.552 598.368ZM375.261 585.619L373.869 575.717L363.966 577.108L357.008 527.595L366.91 526.203L365.519 516.301L415.032 509.342L416.424 519.245L426.326 517.853L433.285 567.366L423.382 568.758L424.774 578.661L375.261 585.619ZM383.772 574.325L413.48 570.15L406.521 520.636L376.813 524.811L383.772 574.325ZM446.164 575.654L436.422 506.336L495.838 497.985L497.23 507.888L507.132 506.496L511.307 536.204L491.502 538.988L492.894 548.891L502.797 547.499L504.188 557.401L514.091 556.01L515.483 565.912L485.775 570.088L484.383 560.185L474.48 561.577L473.089 551.674L463.186 553.066L465.969 572.871L446.164 575.654ZM461.794 543.163L481.599 540.38L480.208 530.477L490.11 529.085L487.327 509.28L457.619 513.455L461.794 543.163ZM526.97 564.298L517.228 494.979L537.033 492.196L538.425 502.098L548.327 500.707L549.719 510.609L559.622 509.218L558.23 499.315L568.133 497.923L566.741 488.021L586.546 485.237L596.289 554.556L576.483 557.339L570.916 517.729L561.014 519.12L563.797 538.926L553.894 540.317L551.111 520.512L541.208 521.904L546.775 561.515L526.97 564.298Z" stroke="#B2AD96" stroke-width="2" mask="url(#path-1-outside-1_68_14478)"/>
<path d="M667.39 544.563L657.648 475.244L717.064 466.894L718.456 476.797L728.358 475.405L732.533 505.113L722.631 506.505L724.022 516.407L684.412 521.974L687.195 541.78L667.39 544.563ZM683.02 512.072L712.728 507.897L708.553 478.188L678.845 482.364L683.02 512.072ZM758.098 531.815L748.356 462.496L768.162 459.713L776.512 519.129L816.123 513.562L817.514 523.465L758.098 531.815ZM829.002 521.85L822.043 472.337L831.946 470.945L830.554 461.042L840.456 459.651L839.065 449.748L868.773 445.573L870.165 455.475L880.067 454.084L881.459 463.986L891.362 462.595L898.32 512.108L878.515 514.892L875.731 495.086L846.023 499.261L848.807 519.067L829.002 521.85ZM844.632 489.359L874.34 485.183L871.556 465.378L861.654 466.77L860.262 456.867L850.359 458.259L851.751 468.162L841.848 469.553L844.632 489.359ZM939.516 506.318L931.165 446.902L911.36 449.686L909.968 439.783L969.384 431.433L970.776 441.335L950.97 444.119L959.321 503.535L939.516 506.318ZM990.613 499.137L980.871 429.818L1050.19 420.076L1051.58 429.979L1002.07 436.938L1004.85 456.743L1044.46 451.176L1045.85 461.079L1006.24 466.646L1010.42 496.354L990.613 499.137ZM1081.32 486.389L1079.93 476.486L1070.03 477.878L1063.07 428.365L1072.97 426.973L1071.58 417.07L1121.09 410.111L1122.48 420.014L1132.39 418.622L1139.35 468.136L1129.44 469.528L1130.84 479.43L1081.32 486.389ZM1089.83 475.094L1119.54 470.919L1112.58 421.406L1082.87 425.581L1089.83 475.094ZM1152.22 476.424L1142.48 407.105L1201.9 398.755L1203.29 408.658L1213.19 407.266L1217.37 436.974L1197.56 439.757L1198.95 449.66L1208.86 448.268L1210.25 458.171L1220.15 456.779L1221.54 466.682L1191.84 470.857L1190.44 460.954L1180.54 462.346L1179.15 452.444L1169.25 453.835L1172.03 473.641L1152.22 476.424ZM1167.86 443.933L1187.66 441.149L1186.27 431.246L1196.17 429.855L1193.39 410.049L1163.68 414.225L1167.86 443.933ZM1233.03 465.068L1223.29 395.749L1243.09 392.965L1244.49 402.868L1254.39 401.476L1255.78 411.379L1265.68 409.987L1264.29 400.085L1274.19 398.693L1272.8 388.79L1292.61 386.007L1302.35 455.325L1282.54 458.109L1276.98 418.498L1267.07 419.89L1269.86 439.695L1259.96 441.087L1257.17 421.282L1247.27 422.673L1252.84 462.284L1233.03 465.068Z" stroke="#B2AD96" stroke-width="2" mask="url(#path-1-outside-1_68_14478)"/>
<path d="M1373.45 445.333L1363.71 376.014L1423.12 367.664L1424.52 377.566L1434.42 376.175L1438.59 405.883L1428.69 407.274L1430.08 417.177L1390.47 422.744L1393.26 442.549L1373.45 445.333ZM1389.08 412.841L1418.79 408.666L1414.61 378.958L1384.91 383.133L1389.08 412.841ZM1464.16 432.585L1454.42 363.266L1474.22 360.482L1482.57 419.898L1522.18 414.331L1523.58 424.234L1464.16 432.585ZM1535.06 422.62L1528.1 373.106L1538.01 371.715L1536.61 361.812L1546.52 360.42L1545.13 350.518L1574.83 346.342L1576.23 356.245L1586.13 354.853L1587.52 364.756L1597.42 363.364L1604.38 412.878L1584.58 415.661L1581.79 395.856L1552.08 400.031L1554.87 419.836L1535.06 422.62ZM1550.69 390.128L1580.4 385.953L1577.62 366.148L1567.71 367.539L1566.32 357.637L1556.42 359.028L1557.81 368.931L1547.91 370.323L1550.69 390.128ZM1645.58 407.088L1637.23 347.672L1617.42 350.455L1616.03 340.553L1675.45 332.202L1676.84 342.105L1657.03 344.888L1665.38 404.305L1645.58 407.088ZM1696.67 399.907L1686.93 330.588L1756.25 320.846L1757.64 330.748L1708.13 337.707L1710.91 357.513L1750.52 351.946L1751.92 361.848L1712.3 367.415L1716.48 397.123L1696.67 399.907ZM1787.38 387.158L1785.99 377.256L1776.09 378.647L1769.13 329.134L1779.03 327.742L1777.64 317.84L1827.15 310.881L1828.55 320.784L1838.45 319.392L1845.41 368.905L1835.5 370.297L1836.9 380.2L1787.38 387.158ZM1795.89 375.864L1825.6 371.689L1818.64 322.175L1788.94 326.351L1795.89 375.864ZM1858.29 377.194L1848.54 307.875L1907.96 299.525L1909.35 309.427L1919.25 308.035L1923.43 337.743L1903.62 340.527L1905.02 350.43L1914.92 349.038L1916.31 358.941L1926.21 357.549L1927.6 367.452L1897.9 371.627L1896.51 361.724L1886.6 363.116L1885.21 353.213L1875.31 354.605L1878.09 374.41L1858.29 377.194ZM1873.92 344.702L1893.72 341.919L1892.33 332.016L1902.23 330.624L1899.45 310.819L1869.74 314.994L1873.92 344.702ZM1939.09 365.837L1929.35 296.518L1949.16 293.735L1950.55 303.638L1960.45 302.246L1961.84 312.148L1971.74 310.757L1970.35 300.854L1980.26 299.462L1978.86 289.56L1998.67 286.776L2008.41 356.095L1988.61 358.878L1983.04 319.268L1973.14 320.659L1975.92 340.465L1966.02 341.857L1963.23 322.051L1953.33 323.443L1958.9 363.054L1939.09 365.837Z" stroke="#B2AD96" stroke-width="2" mask="url(#path-1-outside-1_68_14478)"/>
<path d="M-21.2747 767.577L-31.0168 698.258L28.3993 689.908L29.791 699.811L39.6937 698.419L43.8689 728.127L33.9662 729.519L35.3579 739.421L-4.25279 744.988L-1.46933 764.794L-21.2747 767.577ZM-5.64452 735.086L24.0635 730.91L19.8883 701.202L-9.81972 705.378L-5.64452 735.086ZM69.4339 754.829L59.6917 685.51L79.4971 682.727L87.8475 742.143L127.458 736.576L128.85 746.479L69.4339 754.829ZM140.337 744.864L133.378 695.351L143.281 693.959L141.889 684.056L151.792 682.665L150.4 672.762L180.108 668.587L181.5 678.489L191.403 677.098L192.794 687L202.697 685.609L209.656 735.122L189.85 737.905L187.067 718.1L157.359 722.275L160.142 742.081L140.337 744.864ZM155.967 712.373L185.675 708.197L182.892 688.392L172.989 689.784L171.597 679.881L161.695 681.273L163.086 691.175L153.184 692.567L155.967 712.373ZM250.851 729.332L242.501 669.916L222.695 672.7L221.303 662.797L280.72 654.447L282.111 664.349L262.306 667.133L270.656 726.549L250.851 729.332ZM301.949 722.151L292.207 652.832L361.525 643.09L362.917 652.993L313.404 659.951L316.187 679.757L355.798 674.19L357.19 684.093L317.579 689.66L321.754 719.368L301.949 722.151ZM392.657 709.403L391.266 699.5L381.363 700.892L374.404 651.378L384.307 649.987L382.915 640.084L432.429 633.125L433.82 643.028L443.723 641.636L450.682 691.15L440.779 692.541L442.171 702.444L392.657 709.403ZM401.168 698.108L430.876 693.933L423.918 644.42L394.21 648.595L401.168 698.108ZM463.561 699.438L453.818 630.119L513.234 621.769L514.626 631.672L524.529 630.28L528.704 659.988L508.899 662.771L510.29 672.674L520.193 671.282L521.585 681.185L531.488 679.793L532.879 689.696L503.171 693.871L501.78 683.968L491.877 685.36L490.485 675.457L480.582 676.849L483.366 696.655L463.561 699.438ZM479.191 666.946L498.996 664.163L497.604 654.26L507.507 652.869L504.724 633.063L475.016 637.238L479.191 666.946ZM544.366 688.081L534.624 618.763L554.43 615.979L555.821 625.882L565.724 624.49L567.116 634.393L577.018 633.001L575.627 623.098L585.529 621.707L584.138 611.804L603.943 609.021L613.685 678.339L593.88 681.123L588.313 641.512L578.41 642.904L581.194 662.709L571.291 664.101L568.508 644.296L558.605 645.687L564.172 685.298L544.366 688.081Z" stroke="#B2AD96" stroke-width="2" mask="url(#path-1-outside-1_68_14478)"/>
<path d="M684.786 668.347L675.044 599.028L734.46 590.678L735.852 600.58L745.755 599.189L749.93 628.897L740.027 630.288L741.419 640.191L701.808 645.758L704.592 665.563L684.786 668.347ZM700.417 635.855L730.125 631.68L725.949 601.972L696.241 606.147L700.417 635.855ZM775.495 655.598L765.753 586.28L785.558 583.496L793.909 642.912L833.519 637.345L834.911 647.248L775.495 655.598ZM846.398 645.634L839.44 596.12L849.342 594.729L847.95 584.826L857.853 583.434L856.461 573.531L886.169 569.356L887.561 579.259L897.464 577.867L898.856 587.77L908.758 586.378L915.717 635.892L895.912 638.675L893.128 618.87L863.42 623.045L866.204 642.85L846.398 645.634ZM862.028 613.142L891.736 608.967L888.953 589.162L879.05 590.553L877.659 580.651L867.756 582.042L869.148 591.945L859.245 593.337L862.028 613.142ZM956.912 630.102L948.562 570.686L928.756 573.469L927.365 563.567L986.781 555.216L988.172 565.119L968.367 567.902L976.717 627.318L956.912 630.102ZM1008.01 622.921L998.268 553.602L1067.59 543.86L1068.98 553.762L1019.46 560.721L1022.25 580.526L1061.86 574.96L1063.25 584.862L1023.64 590.429L1027.82 620.137L1008.01 622.921ZM1098.72 610.172L1097.33 600.27L1087.42 601.661L1080.47 552.148L1090.37 550.756L1088.98 540.854L1138.49 533.895L1139.88 543.798L1149.78 542.406L1156.74 591.919L1146.84 593.311L1148.23 603.214L1098.72 610.172ZM1107.23 598.878L1136.94 594.703L1129.98 545.189L1100.27 549.365L1107.23 598.878ZM1169.62 600.208L1159.88 530.889L1219.3 522.538L1220.69 532.441L1230.59 531.049L1234.77 560.757L1214.96 563.541L1216.35 573.444L1226.25 572.052L1227.65 581.955L1237.55 580.563L1238.94 590.465L1209.23 594.641L1207.84 584.738L1197.94 586.13L1196.55 576.227L1186.64 577.619L1189.43 597.424L1169.62 600.208ZM1185.25 567.716L1205.06 564.933L1203.67 555.03L1213.57 553.638L1210.78 533.833L1181.08 538.008L1185.25 567.716ZM1250.43 588.851L1240.69 519.532L1260.49 516.749L1261.88 526.651L1271.79 525.26L1273.18 535.162L1283.08 533.771L1281.69 523.868L1291.59 522.476L1290.2 512.574L1310 509.79L1319.75 579.109L1299.94 581.892L1294.37 542.282L1284.47 543.673L1287.25 563.479L1277.35 564.87L1274.57 545.065L1264.67 546.457L1270.23 586.068L1250.43 588.851Z" stroke="#B2AD96" stroke-width="2" mask="url(#path-1-outside-1_68_14478)"/>
<path d="M1390.85 569.116L1381.11 499.798L1440.52 491.447L1441.91 501.35L1451.82 499.958L1455.99 529.666L1446.09 531.058L1447.48 540.961L1407.87 546.527L1410.65 566.333L1390.85 569.116ZM1406.48 536.625L1436.19 532.45L1432.01 502.742L1402.3 506.917L1406.48 536.625ZM1481.56 556.368L1471.81 487.049L1491.62 484.266L1499.97 543.682L1539.58 538.115L1540.97 548.018L1481.56 556.368ZM1552.46 546.403L1545.5 496.89L1555.4 495.498L1554.01 485.595L1563.91 484.204L1562.52 474.301L1592.23 470.126L1593.62 480.029L1603.53 478.637L1604.92 488.539L1614.82 487.148L1621.78 536.661L1601.97 539.445L1599.19 519.639L1569.48 523.814L1572.26 543.62L1552.46 546.403ZM1568.09 513.912L1597.8 509.737L1595.01 489.931L1585.11 491.323L1583.72 481.42L1573.82 482.812L1575.21 492.715L1565.31 494.106L1568.09 513.912ZM1662.97 530.872L1654.62 471.455L1634.82 474.239L1633.43 464.336L1692.84 455.986L1694.23 465.889L1674.43 468.672L1682.78 528.088L1662.97 530.872ZM1714.07 523.69L1704.33 454.371L1773.65 444.629L1775.04 454.532L1725.53 461.491L1728.31 481.296L1767.92 475.729L1769.31 485.632L1729.7 491.199L1733.88 520.907L1714.07 523.69ZM1804.78 510.942L1803.39 501.039L1793.49 502.431L1786.53 452.918L1796.43 451.526L1795.04 441.623L1844.55 434.665L1845.94 444.567L1855.85 443.175L1862.8 492.689L1852.9 494.081L1854.29 503.983L1804.78 510.942ZM1813.29 499.648L1843 495.472L1836.04 445.959L1806.33 450.134L1813.29 499.648ZM1875.68 500.977L1865.94 431.658L1925.36 423.308L1926.75 433.211L1936.65 431.819L1940.83 461.527L1921.02 464.31L1922.41 474.213L1932.32 472.821L1933.71 482.724L1943.61 481.332L1945 491.235L1915.29 495.41L1913.9 485.508L1904 486.899L1902.61 476.997L1892.7 478.388L1895.49 498.194L1875.68 500.977ZM1891.31 468.486L1911.12 465.702L1909.73 455.799L1919.63 454.408L1916.85 434.602L1887.14 438.778L1891.31 468.486ZM1956.49 489.621L1946.75 420.302L1966.55 417.518L1967.94 427.421L1977.85 426.029L1979.24 435.932L1989.14 434.54L1987.75 424.638L1997.65 423.246L1996.26 413.343L2016.07 410.56L2025.81 479.878L2006 482.662L2000.44 443.051L1990.53 444.443L1993.32 464.248L1983.41 465.64L1980.63 445.835L1970.73 447.226L1976.29 486.837L1956.49 489.621Z" stroke="#B2AD96" stroke-width="2" mask="url(#path-1-outside-1_68_14478)"/>
</svg>
