<svg width="1920" height="580" viewBox="0 0 1920 580" fill="none" xmlns="http://www.w3.org/2000/svg">
<mask id="path-1-outside-1_68_14477" maskUnits="userSpaceOnUse" x="-120" y="-204.698" width="2147" height="980" fill="black">
<rect fill="white" x="-120" y="-204.698" width="2147" height="980"/>
<path d="M-108.258 154.319L-118 85.0002L-58.5839 76.6498L-57.1922 86.5525L-47.2895 85.1607L-43.1143 114.869L-53.017 116.26L-51.6253 126.163L-91.236 131.73L-88.4525 151.535L-108.258 154.319ZM-92.6277 121.827L-62.9197 117.652L-67.0949 87.9442L-96.8029 92.1194L-92.6277 121.827ZM-17.5493 141.571L-27.2915 72.2519L-7.48608 69.4684L0.864304 128.885L40.475 123.318L41.8668 133.22L-17.5493 141.571ZM53.3539 131.606L46.3952 82.0925L56.2979 80.7007L54.9062 70.7981L64.8088 69.4063L63.4171 59.5037L93.1252 55.3285L94.5169 65.2311L104.42 63.8394L105.811 73.7421L115.714 72.3503L122.673 121.864L102.867 124.647L100.084 104.842L70.3758 109.017L73.1592 128.822L53.3539 131.606ZM68.984 99.1144L98.6921 94.9392L95.9086 75.1338L86.0059 76.5255L84.6142 66.6229L74.7115 68.0146L76.1032 77.9173L66.2006 79.309L68.984 99.1144ZM163.868 116.074L155.517 56.6581L135.712 59.4415L134.32 49.5388L193.736 41.1885L195.128 51.0911L175.323 53.8746L183.673 113.291L163.868 116.074ZM214.966 108.893L205.223 39.5741L274.542 29.8319L275.934 39.7346L226.421 46.6933L229.204 66.4986L268.815 60.9317L270.207 70.8344L230.596 76.4013L234.771 106.109L214.966 108.893ZM305.674 96.1446L304.282 86.2419L294.38 87.6336L287.421 38.1202L297.324 36.7285L295.932 26.8258L345.445 19.8671L346.837 29.7698L356.74 28.3781L363.699 77.8915L353.796 79.2832L355.188 89.1859L305.674 96.1446ZM314.185 84.8502L343.893 80.675L336.935 31.1616L307.226 35.3367L314.185 84.8502ZM376.577 86.1798L366.835 16.861L426.251 8.51062L427.643 18.4133L437.546 17.0216L441.721 46.7296L421.916 49.5131L423.307 59.4157L433.21 58.024L434.602 67.9267L444.504 66.535L445.896 76.4377L416.188 80.6129L414.796 70.7102L404.894 72.1019L403.502 62.1992L393.599 63.5909L396.383 83.3963L376.577 86.1798ZM392.208 53.6883L412.013 50.9048L410.621 41.0021L420.524 39.6104L417.74 19.805L388.032 23.9802L392.208 53.6883ZM457.383 74.8232L447.641 5.50449L467.446 2.72102L468.838 12.6237L478.741 11.232L480.133 21.1346L490.035 19.7429L488.644 9.84023L498.546 8.4485L497.155 -1.45418L516.96 -4.23764L526.702 65.0811L506.897 67.8646L501.33 28.2539L491.427 29.6456L494.211 49.451L484.308 50.8427L481.524 31.0373L471.622 32.4291L477.189 72.0398L457.383 74.8232Z"/>
<path d="M597.803 55.0885L588.061 -14.2303L647.477 -22.5807L648.869 -12.678L658.772 -14.0697L662.947 15.6383L653.044 17.0301L654.436 26.9328L614.825 32.4997L617.609 52.305L597.803 55.0885ZM613.433 22.597L643.141 18.4218L638.966 -11.2862L609.258 -7.11105L613.433 22.597ZM688.512 42.3402L678.77 -26.9785L698.575 -29.762L706.925 29.6541L746.536 24.0872L747.928 33.9899L688.512 42.3402ZM759.415 32.3754L752.456 -17.138L762.359 -18.5297L760.967 -28.4324L770.87 -29.8241L769.478 -39.7268L799.186 -43.902L800.578 -33.9993L810.481 -35.391L811.872 -25.4883L821.775 -26.8801L828.734 22.6333L808.928 25.4168L806.145 5.61143L776.437 9.78662L779.22 29.592L759.415 32.3754ZM775.045 -0.116058L804.753 -4.29124L801.97 -24.0966L792.067 -22.7049L790.675 -32.6076L780.773 -31.2158L782.164 -21.3132L772.262 -19.9214L775.045 -0.116058ZM869.929 16.8437L861.578 -42.5724L841.773 -39.7889L840.381 -49.6916L899.797 -58.042L901.189 -48.1393L881.384 -45.3558L889.734 14.0603L869.929 16.8437ZM921.027 9.6624L911.285 -59.6564L980.603 -69.3985L981.995 -59.4958L932.482 -52.5372L935.265 -32.7318L974.876 -38.2987L976.268 -28.396L936.657 -22.8291L940.832 6.87894L921.027 9.6624ZM1011.74 -3.08586L1010.34 -12.9885L1000.44 -11.5968L993.482 -61.1102L1003.38 -62.502L1001.99 -72.4046L1051.51 -79.3633L1052.9 -69.4606L1062.8 -70.8523L1069.76 -21.3389L1059.86 -19.9472L1061.25 -10.0445L1011.74 -3.08586ZM1020.25 -14.3803L1049.95 -18.5555L1043 -68.0689L1013.29 -63.8937L1020.25 -14.3803ZM1082.64 -13.0507L1072.9 -82.3694L1132.31 -90.7198L1133.7 -80.8171L1143.61 -82.2089L1147.78 -52.5008L1127.98 -49.7173L1129.37 -39.8147L1139.27 -41.2064L1140.66 -31.3037L1150.57 -32.6954L1151.96 -22.7928L1122.25 -18.6176L1120.86 -28.5203L1110.95 -27.1285L1109.56 -37.0312L1099.66 -35.6395L1102.44 -15.8341L1082.64 -13.0507ZM1098.27 -45.5422L1118.07 -48.3256L1116.68 -58.2283L1126.58 -59.62L1123.8 -79.4254L1094.09 -75.2502L1098.27 -45.5422ZM1163.44 -24.4072L1153.7 -93.7259L1173.51 -96.5094L1174.9 -86.6067L1184.8 -87.9985L1186.19 -78.0958L1196.1 -79.4875L1194.7 -89.3902L1204.61 -90.7819L1203.22 -100.685L1223.02 -103.468L1232.76 -34.1493L1212.96 -31.3658L1207.39 -70.9766L1197.49 -69.5848L1200.27 -49.7795L1190.37 -48.3877L1187.59 -68.1931L1177.68 -66.8014L1183.25 -27.1906L1163.44 -24.4072Z"/>
<path d="M1303.86 -44.1419L1294.12 -113.461L1353.54 -121.811L1354.93 -111.908L1364.83 -113.3L1369.01 -83.5921L1359.11 -82.2004L1360.5 -72.2977L1320.89 -66.7307L1323.67 -46.9254L1303.86 -44.1419ZM1319.49 -76.6334L1349.2 -80.8086L1345.03 -110.517L1315.32 -106.341L1319.49 -76.6334ZM1394.57 -56.8902L1384.83 -126.209L1404.64 -128.992L1412.99 -69.5763L1452.6 -75.1432L1453.99 -65.2406L1394.57 -56.8902ZM1465.48 -66.855L1458.52 -116.368L1468.42 -117.76L1467.03 -127.663L1476.93 -129.055L1475.54 -138.957L1505.25 -143.132L1506.64 -133.23L1516.54 -134.621L1517.93 -124.719L1527.84 -126.111L1534.79 -76.5971L1514.99 -73.8136L1512.21 -93.619L1482.5 -89.4438L1485.28 -69.6384L1465.48 -66.855ZM1481.11 -99.3465L1510.81 -103.522L1508.03 -123.327L1498.13 -121.935L1496.74 -131.838L1486.83 -130.446L1488.23 -120.544L1478.32 -119.152L1481.11 -99.3465ZM1575.99 -82.3867L1567.64 -141.803L1547.83 -139.019L1546.44 -148.922L1605.86 -157.272L1607.25 -147.37L1587.44 -144.586L1595.8 -85.1702L1575.99 -82.3867ZM1627.09 -89.568L1617.35 -158.887L1686.66 -168.629L1688.06 -158.726L1638.54 -151.768L1641.33 -131.962L1680.94 -137.529L1682.33 -127.626L1642.72 -122.06L1646.89 -92.3515L1627.09 -89.568ZM1717.8 -102.316L1716.4 -112.219L1706.5 -110.827L1699.54 -160.341L1709.45 -161.732L1708.05 -171.635L1757.57 -178.594L1758.96 -168.691L1768.86 -170.083L1775.82 -120.569L1765.92 -119.178L1767.31 -109.275L1717.8 -102.316ZM1726.31 -113.611L1756.02 -117.786L1749.06 -167.299L1719.35 -163.124L1726.31 -113.611ZM1788.7 -112.281L1778.96 -181.6L1838.37 -189.95L1839.77 -180.048L1849.67 -181.439L1853.84 -151.731L1834.04 -148.948L1835.43 -139.045L1845.33 -140.437L1846.72 -130.534L1856.63 -131.926L1858.02 -122.023L1828.31 -117.848L1826.92 -127.751L1817.02 -126.359L1815.62 -136.262L1805.72 -134.87L1808.51 -115.065L1788.7 -112.281ZM1804.33 -144.773L1824.14 -147.556L1822.74 -157.459L1832.65 -158.85L1829.86 -178.656L1800.15 -174.481L1804.33 -144.773ZM1869.51 -123.638L1859.76 -192.956L1879.57 -195.74L1880.96 -185.837L1890.86 -187.229L1892.25 -177.326L1902.16 -178.718L1900.77 -188.621L1910.67 -190.012L1909.28 -199.915L1929.08 -202.698L1938.82 -133.38L1919.02 -130.596L1913.45 -170.207L1903.55 -168.815L1906.33 -149.01L1896.43 -147.618L1893.65 -167.424L1883.74 -166.032L1889.31 -126.421L1869.51 -123.638Z"/>
<path d="M-90.8612 278.102L-100.603 208.784L-41.1873 200.433L-39.7955 210.336L-29.8929 208.944L-25.7177 238.652L-35.6203 240.044L-34.2286 249.947L-73.8393 255.514L-71.0559 275.319L-90.8612 278.102ZM-75.2311 245.611L-45.523 241.436L-49.6982 211.728L-79.4063 215.903L-75.2311 245.611ZM-0.152695 265.354L-9.89481 196.035L9.91055 193.252L18.2609 252.668L57.8717 247.101L59.2634 257.004L-0.152695 265.354ZM70.7505 255.389L63.7918 205.876L73.6945 204.484L72.3028 194.582L82.2055 193.19L80.8137 183.287L110.522 179.112L111.914 189.015L121.816 187.623L123.208 197.526L133.111 196.134L140.069 245.647L120.264 248.431L117.48 228.625L87.7724 232.801L90.5559 252.606L70.7505 255.389ZM86.3807 222.898L116.089 218.723L113.305 198.917L103.403 200.309L102.011 190.406L92.1082 191.798L93.4999 201.701L83.5972 203.092L86.3807 222.898ZM181.264 239.858L172.914 180.442L153.109 183.225L151.717 173.322L211.133 164.972L212.525 174.875L192.719 177.658L201.07 237.074L181.264 239.858ZM232.362 232.676L222.62 163.358L291.939 153.615L293.331 163.518L243.817 170.477L246.601 190.282L286.211 184.715L287.603 194.618L247.992 200.185L252.168 229.893L232.362 232.676ZM323.071 219.928L321.679 210.025L311.776 211.417L304.818 161.904L314.72 160.512L313.329 150.609L362.842 143.651L364.234 153.553L374.137 152.162L381.095 201.675L371.192 203.067L372.584 212.969L323.071 219.928ZM331.582 208.634L361.29 204.458L354.331 154.945L324.623 159.12L331.582 208.634ZM393.974 209.963L384.232 140.645L443.648 132.294L445.04 142.197L454.942 140.805L459.118 170.513L439.312 173.297L440.704 183.199L450.607 181.808L451.998 191.71L461.901 190.318L463.293 200.221L433.585 204.396L432.193 194.494L422.29 195.885L420.899 185.983L410.996 187.374L413.779 207.18L393.974 209.963ZM409.604 177.472L429.41 174.688L428.018 164.786L437.92 163.394L435.137 143.589L405.429 147.764L409.604 177.472ZM474.78 198.607L465.038 129.288L484.843 126.505L486.235 136.407L496.138 135.015L497.529 144.918L507.432 143.526L506.04 133.624L515.943 132.232L514.551 122.329L534.357 119.546L544.099 188.865L524.293 191.648L518.726 152.037L508.824 153.429L511.607 173.234L501.704 174.626L498.921 154.821L489.018 156.213L494.585 195.823L474.78 198.607Z"/>
<path d="M615.2 178.872L605.458 109.553L664.874 101.203L666.266 111.106L676.168 109.714L680.343 139.422L670.441 140.814L671.833 150.716L632.222 156.283L635.005 176.089L615.2 178.872ZM630.83 146.38L660.538 142.205L656.363 112.497L626.655 116.672L630.83 146.38ZM705.908 166.124L696.166 96.805L715.972 94.0215L724.322 153.438L763.933 147.871L765.325 157.773L705.908 166.124ZM776.812 156.159L769.853 106.646L779.756 105.254L778.364 95.3511L788.267 93.9594L786.875 84.0567L816.583 79.8815L817.975 89.7842L827.877 88.3925L829.269 98.2952L839.172 96.9034L846.13 146.417L826.325 149.2L823.542 129.395L793.833 133.57L796.617 153.375L776.812 156.159ZM792.442 123.667L822.15 119.492L819.366 99.6869L809.464 101.079L808.072 91.1759L798.169 92.5677L799.561 102.47L789.658 103.862L792.442 123.667ZM887.326 140.627L878.975 81.2112L859.17 83.9946L857.778 74.0919L917.194 65.7415L918.586 75.6442L898.781 78.4277L907.131 137.844L887.326 140.627ZM938.423 133.446L928.681 64.1271L998 54.385L999.392 64.2877L949.878 71.2464L952.662 91.0517L992.273 85.4848L993.664 95.3875L954.054 100.954L958.229 130.662L938.423 133.446ZM1029.13 120.698L1027.74 110.795L1017.84 112.187L1010.88 62.6733L1020.78 61.2816L1019.39 51.3789L1068.9 44.4202L1070.29 54.3229L1080.2 52.9312L1087.16 102.445L1077.25 103.836L1078.65 113.739L1029.13 120.698ZM1037.64 109.403L1067.35 105.228L1060.39 55.7146L1030.68 59.8898L1037.64 109.403ZM1100.04 110.733L1090.29 41.4141L1149.71 33.0637L1151.1 42.9664L1161 41.5746L1165.18 71.2827L1145.37 74.0662L1146.77 83.9688L1156.67 82.5771L1158.06 92.4798L1167.96 91.088L1169.35 100.991L1139.65 105.166L1138.25 95.2632L1128.35 96.655L1126.96 86.7523L1117.06 88.144L1119.84 107.949L1100.04 110.733ZM1115.67 78.2414L1135.47 75.4579L1134.08 65.5552L1143.98 64.1635L1141.2 44.3581L1111.49 48.5333L1115.67 78.2414ZM1180.84 99.3763L1171.1 30.0576L1190.9 27.2741L1192.3 37.1768L1202.2 35.785L1203.59 45.6877L1213.49 44.296L1212.1 34.3933L1222 33.0016L1220.61 23.0989L1240.42 20.3154L1250.16 89.6342L1230.35 92.4177L1224.79 52.8069L1214.88 54.1987L1217.67 74.004L1207.77 75.3958L1204.98 55.5904L1195.08 56.9821L1200.65 96.5929L1180.84 99.3763Z"/>
<path d="M1321.26 79.6416L1311.52 10.3228L1370.93 1.97243L1372.33 11.8751L1382.23 10.4834L1386.4 40.1914L1376.5 41.5831L1377.89 51.4858L1338.28 57.0528L1341.07 76.8581L1321.26 79.6416ZM1336.89 47.1501L1366.6 42.9749L1362.42 13.2668L1332.72 17.442L1336.89 47.1501ZM1411.97 66.8933L1402.23 -2.42545L1422.03 -5.20891L1430.38 54.2072L1469.99 48.6403L1471.39 58.5429L1411.97 66.8933ZM1482.87 56.9285L1475.91 7.41513L1485.82 6.02339L1484.43 -3.87929L1494.33 -5.27103L1492.94 -15.1737L1522.64 -19.3489L1524.04 -9.44621L1533.94 -10.8379L1535.33 -0.935257L1545.23 -2.327L1552.19 47.1864L1532.39 49.9699L1529.6 30.1645L1499.89 34.3397L1502.68 54.1451L1482.87 56.9285ZM1498.5 24.437L1528.21 20.2618L1525.43 0.456467L1515.52 1.84821L1514.13 -8.05447L1504.23 -6.66275L1505.62 3.23993L1495.72 4.63167L1498.5 24.437ZM1593.39 41.3968L1585.04 -18.0193L1565.23 -15.2358L1563.84 -25.1385L1623.26 -33.4889L1624.65 -23.5862L1604.84 -20.8027L1613.19 38.6133L1593.39 41.3968ZM1644.48 34.2155L1634.74 -35.1033L1704.06 -44.8454L1705.45 -34.9427L1655.94 -27.9841L1658.72 -8.17871L1698.33 -13.7456L1699.73 -3.84294L1660.11 1.72398L1664.29 31.432L1644.48 34.2155ZM1735.19 21.4672L1733.8 11.5645L1723.9 12.9563L1716.94 -36.5571L1726.84 -37.9489L1725.45 -47.8515L1774.96 -54.8102L1776.36 -44.9075L1786.26 -46.2993L1793.22 3.21416L1783.31 4.60588L1784.71 14.5086L1735.19 21.4672ZM1743.7 10.1728L1773.41 5.99762L1766.45 -43.5158L1736.75 -39.3406L1743.7 10.1728ZM1806.1 11.5024L1796.35 -57.8163L1855.77 -66.1667L1857.16 -56.2641L1867.06 -57.6558L1871.24 -27.9477L1851.43 -25.1643L1852.83 -15.2616L1862.73 -16.6533L1864.12 -6.75064L1874.02 -8.14236L1875.42 1.76031L1845.71 5.9355L1844.32 -3.96718L1834.41 -2.57544L1833.02 -12.4781L1823.12 -11.0864L1825.9 8.71896L1806.1 11.5024ZM1821.73 -20.9891L1841.53 -23.7725L1840.14 -33.6752L1850.04 -35.067L1847.26 -54.8723L1817.55 -50.6971L1821.73 -20.9891ZM1886.9 0.145905L1877.16 -69.1729L1896.97 -71.9563L1898.36 -62.0536L1908.26 -63.4454L1909.65 -53.5427L1919.55 -54.9344L1918.16 -64.8371L1928.07 -66.2288L1926.67 -76.1315L1946.48 -78.915L1956.22 -9.59622L1936.42 -6.81276L1930.85 -46.4235L1920.95 -45.0317L1923.73 -25.2264L1913.83 -23.8347L1911.04 -43.64L1901.14 -42.2483L1906.71 -2.63756L1886.9 0.145905Z"/>
<path d="M-73.4646 401.886L-83.2067 332.567L-23.7906 324.217L-22.3989 334.119L-12.4962 332.728L-8.32103 362.436L-18.2237 363.828L-16.832 373.73L-56.4427 379.297L-53.6592 399.102L-73.4646 401.886ZM-57.8344 369.394L-28.1264 365.219L-32.3016 335.511L-62.0096 339.686L-57.8344 369.394ZM17.2439 389.138L7.50183 319.819L27.3072 317.035L35.6576 376.452L75.2683 370.885L76.66 380.787L17.2439 389.138ZM88.1471 379.173L81.1885 329.659L91.0912 328.268L89.6994 318.365L99.6021 316.973L98.2104 307.071L127.918 302.895L129.31 312.798L139.213 311.406L140.605 321.309L150.507 319.917L157.466 369.431L137.661 372.214L134.877 352.409L105.169 356.584L107.952 376.389L88.1471 379.173ZM103.777 346.681L133.485 342.506L130.702 322.701L120.799 324.093L119.407 314.19L109.505 315.582L110.897 325.484L100.994 326.876L103.777 346.681ZM198.661 363.641L190.311 304.225L170.505 307.009L169.114 297.106L228.53 288.755L229.921 298.658L210.116 301.442L218.466 360.858L198.661 363.641ZM249.759 356.46L240.017 287.141L309.336 277.399L310.727 287.302L261.214 294.26L263.997 314.066L303.608 308.499L305 318.401L265.389 323.968L269.564 353.676L249.759 356.46ZM340.467 343.712L339.076 333.809L329.173 335.201L322.214 285.687L332.117 284.296L330.725 274.393L380.239 267.434L381.63 277.337L391.533 275.945L398.492 325.458L388.589 326.85L389.981 336.753L340.467 343.712ZM348.978 332.417L378.686 328.242L371.728 278.729L342.02 282.904L348.978 332.417ZM411.371 333.747L401.629 264.428L461.045 256.078L462.436 265.98L472.339 264.589L476.514 294.297L456.709 297.08L458.101 306.983L468.003 305.591L469.395 315.494L479.298 314.102L480.689 324.005L450.981 328.18L449.59 318.277L439.687 319.669L438.295 309.766L428.393 311.158L431.176 330.963L411.371 333.747ZM427.001 301.255L446.806 298.472L445.414 288.569L455.317 287.177L452.534 267.372L422.826 271.547L427.001 301.255ZM492.177 322.39L482.434 253.072L502.24 250.288L503.631 260.191L513.534 258.799L514.926 268.702L524.829 267.31L523.437 257.407L533.34 256.016L531.948 246.113L551.753 243.329L561.495 312.648L541.69 315.432L536.123 275.821L526.22 277.213L529.004 297.018L519.101 298.41L516.318 278.604L506.415 279.996L511.982 319.607L492.177 322.39Z"/>
<path d="M632.596 302.656L622.854 233.337L682.271 224.986L683.662 234.889L693.565 233.497L697.74 263.205L687.837 264.597L689.229 274.5L649.618 280.067L652.402 299.872L632.596 302.656ZM648.227 270.164L677.935 265.989L673.76 236.281L644.052 240.456L648.227 270.164ZM723.305 289.907L713.563 220.589L733.368 217.805L741.719 277.221L781.329 271.654L782.721 281.557L723.305 289.907ZM794.208 279.942L787.25 230.429L797.152 229.037L795.761 219.135L805.663 217.743L804.271 207.84L833.98 203.665L835.371 213.568L845.274 212.176L846.666 222.079L856.568 220.687L863.527 270.2L843.722 272.984L840.938 253.178L811.23 257.354L814.014 277.159L794.208 279.942ZM809.838 247.451L839.546 243.276L836.763 223.47L826.86 224.862L825.469 214.959L815.566 216.351L816.958 226.254L807.055 227.646L809.838 247.451ZM904.722 264.411L896.372 204.995L876.566 207.778L875.175 197.875L934.591 189.525L935.983 199.428L916.177 202.211L924.528 261.627L904.722 264.411ZM955.82 257.229L946.078 187.911L1015.4 178.169L1016.79 188.071L967.275 195.03L970.058 214.835L1009.67 209.268L1011.06 219.171L971.45 224.738L975.625 254.446L955.82 257.229ZM1046.53 244.481L1045.14 234.578L1035.23 235.97L1028.28 186.457L1038.18 185.065L1036.79 175.162L1086.3 168.204L1087.69 178.106L1097.59 176.715L1104.55 226.228L1094.65 227.62L1096.04 237.522L1046.53 244.481ZM1055.04 233.187L1084.75 229.012L1077.79 179.498L1048.08 183.673L1055.04 233.187ZM1117.43 234.516L1107.69 165.198L1167.11 156.847L1168.5 166.75L1178.4 165.358L1182.58 195.066L1162.77 197.85L1164.16 207.752L1174.06 206.361L1175.46 216.263L1185.36 214.872L1186.75 224.774L1157.04 228.949L1155.65 219.047L1145.75 220.438L1144.36 210.536L1134.45 211.928L1137.24 231.733L1117.43 234.516ZM1133.06 202.025L1152.87 199.241L1151.48 189.339L1161.38 187.947L1158.59 168.142L1128.89 172.317L1133.06 202.025ZM1198.24 223.16L1188.5 153.841L1208.3 151.058L1209.69 160.96L1219.6 159.569L1220.99 169.471L1230.89 168.079L1229.5 158.177L1239.4 156.785L1238.01 146.882L1257.81 144.099L1267.56 213.418L1247.75 216.201L1242.18 176.59L1232.28 177.982L1235.06 197.788L1225.16 199.179L1222.38 179.374L1212.48 180.766L1218.04 220.376L1198.24 223.16Z"/>
<path d="M1338.66 203.425L1328.92 134.106L1388.33 125.756L1389.72 135.659L1399.63 134.267L1403.8 163.975L1393.9 165.367L1395.29 175.269L1355.68 180.836L1358.46 200.642L1338.66 203.425ZM1354.29 170.934L1384 166.758L1379.82 137.05L1350.11 141.226L1354.29 170.934Z"/>
<path d="M1429.37 190.677L1419.62 121.358L1439.43 118.575L1447.78 177.991L1487.39 172.424L1488.78 182.326L1429.37 190.677Z"/>
<path d="M1500.27 180.712L1493.31 131.199L1503.21 129.807L1501.82 119.904L1511.72 118.512L1510.33 108.61L1540.04 104.435L1541.43 114.337L1551.34 112.946L1552.73 122.848L1562.63 121.457L1569.59 170.97L1549.78 173.753L1547 153.948L1517.29 158.123L1520.07 177.929L1500.27 180.712ZM1515.9 148.221L1545.61 144.045L1542.82 124.24L1532.92 125.632L1531.53 115.729L1521.63 117.121L1523.02 127.023L1513.12 128.415L1515.9 148.221Z"/>
<path d="M1610.78 165.18L1602.43 105.764L1582.63 108.548L1581.24 98.645L1640.65 90.2946L1642.04 100.197L1622.24 102.981L1630.59 162.397L1610.78 165.18Z"/>
<path d="M1661.88 157.999L1652.14 88.6802L1721.46 78.9381L1722.85 88.8408L1673.34 95.7994L1676.12 115.605L1715.73 110.038L1717.12 119.941L1677.51 125.507L1681.69 155.216L1661.88 157.999Z"/>
<path d="M1752.59 145.251L1751.2 135.348L1741.3 136.74L1734.34 87.2264L1744.24 85.8347L1742.85 75.932L1792.36 68.9733L1793.75 78.876L1803.66 77.4843L1810.61 126.998L1800.71 128.389L1802.1 138.292L1752.59 145.251ZM1761.1 133.956L1790.81 129.781L1783.85 80.2677L1754.14 84.4429L1761.1 133.956Z"/>
<path d="M1823.49 135.286L1813.75 65.9672L1873.17 57.6168L1874.56 67.5195L1884.46 66.1277L1888.64 95.8358L1868.83 98.6192L1870.22 108.522L1880.13 107.13L1881.52 117.033L1891.42 115.641L1892.81 125.544L1863.1 129.719L1861.71 119.816L1851.81 121.208L1850.42 111.305L1840.51 112.697L1843.3 132.502L1823.49 135.286ZM1839.12 102.794L1858.93 100.011L1857.54 90.1083L1867.44 88.7166L1864.66 68.9112L1834.95 73.0864L1839.12 102.794Z"/>
<path d="M1904.3 123.929L1894.56 54.6107L1914.36 51.8272L1915.75 61.7299L1925.66 60.3381L1927.05 70.2408L1936.95 68.8491L1935.56 58.9464L1945.46 57.5547L1944.07 47.652L1963.88 44.8685L1973.62 114.187L1953.81 116.971L1948.25 77.36L1938.34 78.7518L1941.13 98.5571L1931.22 99.9489L1928.44 80.1435L1918.54 81.5352L1924.1 121.146L1904.3 123.929Z"/>
<path d="M-56.068 525.669L-65.8101 456.351L-6.394 448L-5.00227 457.903L4.90041 456.511L9.07561 486.219L-0.827072 487.611L0.564659 497.514L-39.0461 503.081L-36.2626 522.886L-56.068 525.669ZM-40.4378 493.178L-10.7298 489.003L-14.905 459.295L-44.613 463.47L-40.4378 493.178ZM34.6406 512.921L24.8985 443.602L44.7038 440.819L53.0542 500.235L92.6649 494.668L94.0567 504.571L34.6406 512.921ZM105.544 502.956L98.5851 453.443L108.488 452.051L107.096 442.149L116.999 440.757L115.607 430.854L145.315 426.679L146.707 436.582L156.609 435.19L158.001 445.093L167.904 443.701L174.863 493.214L155.057 495.998L152.274 476.192L122.566 480.368L125.349 500.173L105.544 502.956ZM121.174 470.465L150.882 466.29L148.099 446.484L138.196 447.876L136.804 437.973L126.901 439.365L128.293 449.268L118.39 450.66L121.174 470.465ZM216.058 487.425L207.707 428.009L187.902 430.792L186.51 420.889L245.926 412.539L247.318 422.442L227.513 425.225L235.863 484.641L216.058 487.425ZM267.156 480.243L257.413 410.925L326.732 401.182L328.124 411.085L278.611 418.044L281.394 437.849L321.005 432.282L322.396 442.185L282.786 447.752L286.961 477.46L267.156 480.243ZM357.864 467.495L356.472 457.592L346.57 458.984L339.611 409.471L349.514 408.079L348.122 398.176L397.635 391.218L399.027 401.12L408.93 399.729L415.888 449.242L405.986 450.634L407.378 460.536L357.864 467.495ZM366.375 456.201L396.083 452.025L389.124 402.512L359.416 406.687L366.375 456.201ZM428.767 457.53L419.025 388.212L478.441 379.861L479.833 389.764L489.736 388.372L493.911 418.08L474.105 420.864L475.497 430.766L485.4 429.375L486.792 439.277L496.694 437.885L498.086 447.788L468.378 451.963L466.986 442.061L457.084 443.452L455.692 433.55L445.789 434.941L448.573 454.747L428.767 457.53ZM444.397 425.039L464.203 422.255L462.811 412.353L472.714 410.961L469.93 391.156L440.222 395.331L444.397 425.039ZM509.573 446.174L499.831 376.855L519.636 374.072L521.028 383.974L530.931 382.582L532.323 392.485L542.225 391.093L540.833 381.191L550.736 379.799L549.344 369.896L569.15 367.113L578.892 436.432L559.087 439.215L553.52 399.604L543.617 400.996L546.4 420.801L536.498 422.193L533.714 402.388L523.812 403.78L529.379 443.39L509.573 446.174Z"/>
<path d="M649.993 426.439L640.251 357.12L699.667 348.77L701.059 358.673L710.962 357.281L715.137 386.989L705.234 388.381L706.626 398.283L667.015 403.85L669.799 423.656L649.993 426.439ZM665.623 393.948L695.331 389.772L691.156 360.064L661.448 364.239L665.623 393.948Z"/>
<path d="M740.702 413.691L730.96 344.372L750.765 341.589L759.115 401.005L798.726 395.438L800.118 405.34L740.702 413.691Z"/>
<path d="M811.605 403.726L804.646 354.213L814.549 352.821L813.157 342.918L823.06 341.526L821.668 331.624L851.376 327.449L852.768 337.351L862.671 335.959L864.062 345.862L873.965 344.47L880.924 393.984L861.118 396.767L858.335 376.962L828.627 381.137L831.41 400.943L811.605 403.726ZM827.235 371.234L856.943 367.059L854.16 347.254L844.257 348.646L842.865 338.743L832.963 340.135L834.354 350.037L824.452 351.429L827.235 371.234Z"/>
<path d="M922.119 388.194L913.768 328.778L893.963 331.562L892.571 321.659L951.987 313.309L953.379 323.211L933.574 325.995L941.924 385.411L922.119 388.194Z"/>
<path d="M973.217 381.013L963.474 311.694L1032.79 301.952L1034.19 311.855L984.672 318.813L987.455 338.619L1027.07 333.052L1028.46 342.954L988.847 348.521L993.022 378.229L973.217 381.013Z"/>
<path d="M1063.93 368.265L1062.53 358.362L1052.63 359.754L1045.67 310.24L1055.57 308.849L1054.18 298.946L1103.7 291.987L1105.09 301.89L1114.99 300.498L1121.95 350.012L1112.05 351.403L1113.44 361.306L1063.93 368.265ZM1072.44 356.97L1102.14 352.795L1095.19 303.282L1065.48 307.457L1072.44 356.97Z"/>
<path d="M1134.83 358.3L1125.09 288.981L1184.5 280.631L1185.89 290.533L1195.8 289.142L1199.97 318.85L1180.17 321.633L1181.56 331.536L1191.46 330.144L1192.85 340.047L1202.76 338.655L1204.15 348.558L1174.44 352.733L1173.05 342.83L1163.14 344.222L1161.75 334.319L1151.85 335.711L1154.63 355.516L1134.83 358.3ZM1150.46 325.808L1170.26 323.025L1168.87 313.122L1178.77 311.73L1175.99 291.925L1146.28 296.1L1150.46 325.808Z"/>
<path d="M1215.63 346.943L1205.89 277.625L1225.7 274.841L1227.09 284.744L1236.99 283.352L1238.38 293.255L1248.29 291.863L1246.89 281.96L1256.8 280.569L1255.41 270.666L1275.21 267.882L1284.95 337.201L1265.15 339.985L1259.58 300.374L1249.68 301.766L1252.46 321.571L1242.56 322.963L1239.78 303.157L1229.87 304.549L1235.44 344.16L1215.63 346.943Z"/>
<path d="M1356.05 327.209L1346.31 257.89L1405.73 249.539L1407.12 259.442L1417.02 258.05L1421.2 287.758L1411.3 289.15L1412.69 299.053L1373.08 304.62L1375.86 324.425L1356.05 327.209ZM1371.68 294.717L1401.39 290.542L1397.22 260.834L1367.51 265.009L1371.68 294.717ZM1446.76 314.46L1437.02 245.142L1456.83 242.358L1465.18 301.774L1504.79 296.207L1506.18 306.11L1446.76 314.46ZM1517.67 304.496L1510.71 254.982L1520.61 253.59L1519.22 243.688L1529.12 242.296L1527.73 232.393L1557.44 228.218L1558.83 238.121L1568.73 236.729L1570.12 246.632L1580.03 245.24L1586.98 294.753L1567.18 297.537L1564.4 277.732L1534.69 281.907L1537.47 301.712L1517.67 304.496ZM1533.3 272.004L1563 267.829L1560.22 248.023L1550.32 249.415L1548.93 239.513L1539.02 240.904L1540.42 250.807L1530.51 252.199L1533.3 272.004ZM1628.18 288.964L1619.83 229.548L1600.02 232.331L1598.63 222.429L1658.05 214.078L1659.44 223.981L1639.63 226.764L1647.99 286.18L1628.18 288.964ZM1679.28 281.783L1669.54 212.464L1738.85 202.722L1740.25 212.624L1690.73 219.583L1693.52 239.388L1733.13 233.821L1734.52 243.724L1694.91 249.291L1699.08 278.999L1679.28 281.783ZM1769.99 269.034L1768.59 259.132L1758.69 260.523L1751.73 211.01L1761.64 209.618L1760.24 199.715L1809.76 192.757L1811.15 202.659L1821.05 201.268L1828.01 250.781L1818.11 252.173L1819.5 262.076L1769.99 269.034ZM1778.5 257.74L1808.21 253.565L1801.25 204.051L1771.54 208.226L1778.5 257.74ZM1840.89 259.069L1831.15 189.751L1890.56 181.4L1891.96 191.303L1901.86 189.911L1906.03 219.619L1886.23 222.403L1887.62 232.305L1897.52 230.914L1898.91 240.816L1908.82 239.425L1910.21 249.327L1880.5 253.503L1879.11 243.6L1869.21 244.992L1867.81 235.089L1857.91 236.481L1860.69 256.286L1840.89 259.069ZM1856.52 226.578L1876.33 223.794L1874.93 213.892L1884.84 212.5L1882.05 192.695L1852.34 196.87L1856.52 226.578ZM1921.7 247.713L1911.95 178.394L1931.76 175.611L1933.15 185.513L1943.05 184.122L1944.44 194.024L1954.35 192.633L1952.96 182.73L1962.86 181.338L1961.47 171.435L1981.27 168.652L1991.01 237.971L1971.21 240.754L1965.64 201.144L1955.74 202.535L1958.52 222.341L1948.62 223.732L1945.84 203.927L1935.93 205.319L1941.5 244.929L1921.7 247.713Z"/>
<path d="M-38.6713 649.453L-48.4134 580.134L11.0026 571.784L12.3944 581.686L22.2971 580.295L26.4722 610.003L16.5696 611.395L17.9613 621.297L-21.6494 626.864L-18.866 646.669L-38.6713 649.453ZM-23.0412 616.961L6.66688 612.786L2.49168 583.078L-27.2164 587.253L-23.0412 616.961ZM52.0372 636.705L42.2951 567.386L62.1005 564.602L70.4509 624.019L110.062 618.452L111.453 628.354L52.0372 636.705ZM122.94 626.74L115.982 577.227L125.884 575.835L124.493 565.932L134.395 564.54L133.004 554.638L162.712 550.462L164.103 560.365L174.006 558.973L175.398 568.876L185.301 567.484L192.259 616.998L172.454 619.781L169.67 599.976L139.962 604.151L142.746 623.956L122.94 626.74ZM138.571 594.248L168.279 590.073L165.495 570.268L155.592 571.66L154.201 561.757L144.298 563.149L145.69 573.051L135.787 574.443L138.571 594.248ZM233.454 611.208L225.104 551.792L205.299 554.576L203.907 544.673L263.323 536.323L264.715 546.225L244.909 549.009L253.26 608.425L233.454 611.208ZM284.552 604.027L274.81 534.708L344.129 524.966L345.521 534.869L296.007 541.827L298.791 561.633L338.401 556.066L339.793 565.968L300.182 571.535L304.358 601.243L284.552 604.027ZM375.261 591.279L373.869 581.376L363.966 582.768L357.008 533.254L366.91 531.862L365.519 521.96L415.032 515.001L416.424 524.904L426.326 523.512L433.285 573.026L423.382 574.417L424.774 584.32L375.261 591.279ZM383.772 579.984L413.48 575.809L406.521 526.296L376.813 530.471L383.772 579.984ZM446.164 581.314L436.422 511.995L495.838 503.645L497.23 513.547L507.132 512.156L511.307 541.864L491.502 544.647L492.894 554.55L502.797 553.158L504.188 563.061L514.091 561.669L515.483 571.572L485.775 575.747L484.383 565.844L474.48 567.236L473.089 557.333L463.186 558.725L465.969 578.53L446.164 581.314ZM461.794 548.822L481.599 546.039L480.208 536.136L490.11 534.744L487.327 514.939L457.619 519.114L461.794 548.822ZM526.97 569.957L517.228 500.638L537.033 497.855L538.425 507.758L548.327 506.366L549.719 516.269L559.622 514.877L558.23 504.974L568.133 503.583L566.741 493.68L586.546 490.896L596.289 560.215L576.483 562.999L570.916 523.388L561.014 524.78L563.797 544.585L553.894 545.977L551.111 526.171L541.208 527.563L546.775 567.174L526.97 569.957Z"/>
<path d="M667.39 550.223L657.648 480.904L717.064 472.553L718.456 482.456L728.358 481.064L732.533 510.772L722.631 512.164L724.022 522.067L684.412 527.634L687.195 547.439L667.39 550.223ZM683.02 517.731L712.728 513.556L708.553 483.848L678.845 488.023L683.02 517.731ZM758.098 537.474L748.356 468.156L768.162 465.372L776.512 524.788L816.123 519.221L817.514 529.124L758.098 537.474ZM829.002 527.509L822.043 477.996L831.946 476.604L830.554 466.702L840.456 465.31L839.065 455.407L868.773 451.232L870.165 461.135L880.067 459.743L881.459 469.646L891.362 468.254L898.32 517.767L878.515 520.551L875.731 500.745L846.023 504.921L848.807 524.726L829.002 527.509ZM844.632 495.018L874.34 490.843L871.556 471.037L861.654 472.429L860.262 462.526L850.359 463.918L851.751 473.821L841.848 475.213L844.632 495.018ZM939.516 511.978L931.165 452.562L911.36 455.345L909.968 445.442L969.384 437.092L970.776 446.995L950.97 449.778L959.321 509.194L939.516 511.978ZM990.613 504.796L980.871 435.478L1050.19 425.736L1051.58 435.638L1002.07 442.597L1004.85 462.402L1044.46 456.835L1045.85 466.738L1006.24 472.305L1010.42 502.013L990.613 504.796ZM1081.32 492.048L1079.93 482.146L1070.03 483.537L1063.07 434.024L1072.97 432.632L1071.58 422.729L1121.09 415.771L1122.48 425.673L1132.39 424.282L1139.35 473.795L1129.44 475.187L1130.84 485.09L1081.32 492.048ZM1089.83 480.754L1119.54 476.579L1112.58 427.065L1082.87 431.24L1089.83 480.754ZM1152.22 482.083L1142.48 412.765L1201.9 404.414L1203.29 414.317L1213.19 412.925L1217.37 442.633L1197.56 445.417L1198.95 455.319L1208.86 453.928L1210.25 463.83L1220.15 462.439L1221.54 472.341L1191.84 476.516L1190.44 466.614L1180.54 468.005L1179.15 458.103L1169.25 459.495L1172.03 479.3L1152.22 482.083ZM1167.86 449.592L1187.66 446.808L1186.27 436.906L1196.17 435.514L1193.39 415.709L1163.68 419.884L1167.86 449.592ZM1233.03 470.727L1223.29 401.408L1243.09 398.625L1244.49 408.527L1254.39 407.136L1255.78 417.038L1265.68 415.646L1264.29 405.744L1274.19 404.352L1272.8 394.449L1292.61 391.666L1302.35 460.985L1282.54 463.768L1276.98 424.157L1267.07 425.549L1269.86 445.355L1259.96 446.746L1257.17 426.941L1247.27 428.333L1252.84 467.943L1233.03 470.727Z"/>
<path d="M1373.45 450.992L1363.71 381.673L1423.12 373.323L1424.52 383.226L1434.42 381.834L1438.59 411.542L1428.69 412.934L1430.08 422.836L1390.47 428.403L1393.26 448.209L1373.45 450.992ZM1389.08 418.501L1418.79 414.325L1414.61 384.617L1384.91 388.793L1389.08 418.501ZM1464.16 438.244L1454.42 368.925L1474.22 366.142L1482.57 425.558L1522.18 419.991L1523.58 429.893L1464.16 438.244ZM1535.06 428.279L1528.1 378.766L1538.01 377.374L1536.61 367.471L1546.52 366.08L1545.13 356.177L1574.83 352.002L1576.23 361.904L1586.13 360.513L1587.52 370.415L1597.42 369.023L1604.38 418.537L1584.58 421.32L1581.79 401.515L1552.08 405.69L1554.87 425.496L1535.06 428.279ZM1550.69 395.788L1580.4 391.612L1577.62 371.807L1567.71 373.199L1566.32 363.296L1556.42 364.688L1557.81 374.59L1547.91 375.982L1550.69 395.788ZM1645.58 412.747L1637.23 353.331L1617.42 356.115L1616.03 346.212L1675.45 337.862L1676.84 347.764L1657.03 350.548L1665.38 409.964L1645.58 412.747ZM1696.67 405.566L1686.93 336.247L1756.25 326.505L1757.64 336.408L1708.13 343.366L1710.91 363.172L1750.52 357.605L1751.92 367.508L1712.3 373.075L1716.48 402.783L1696.67 405.566ZM1787.38 392.818L1785.99 382.915L1776.09 384.307L1769.13 334.793L1779.03 333.402L1777.64 323.499L1827.15 316.54L1828.55 326.443L1838.45 325.051L1845.41 374.565L1835.5 375.956L1836.9 385.859L1787.38 392.818ZM1795.89 381.523L1825.6 377.348L1818.64 327.835L1788.94 332.01L1795.89 381.523ZM1858.29 382.853L1848.54 313.534L1907.96 305.184L1909.35 315.086L1919.25 313.695L1923.43 343.403L1903.62 346.186L1905.02 356.089L1914.92 354.697L1916.31 364.6L1926.21 363.208L1927.6 373.111L1897.9 377.286L1896.51 367.383L1886.6 368.775L1885.21 358.872L1875.31 360.264L1878.09 380.069L1858.29 382.853ZM1873.92 350.361L1893.72 347.578L1892.33 337.675L1902.23 336.284L1899.45 316.478L1869.74 320.653L1873.92 350.361ZM1939.09 371.496L1929.35 302.178L1949.16 299.394L1950.55 309.297L1960.45 307.905L1961.84 317.808L1971.74 316.416L1970.35 306.513L1980.26 305.122L1978.86 295.219L1998.67 292.436L2008.41 361.754L1988.61 364.538L1983.04 324.927L1973.14 326.319L1975.92 346.124L1966.02 347.516L1963.23 327.711L1953.33 329.102L1958.9 368.713L1939.09 371.496Z"/>
<path d="M-21.2747 773.236L-31.0168 703.918L28.3993 695.567L29.791 705.47L39.6937 704.078L43.8689 733.786L33.9662 735.178L35.3579 745.081L-4.25279 750.648L-1.46933 770.453L-21.2747 773.236ZM-5.64452 740.745L24.0635 736.57L19.8883 706.862L-9.81972 711.037L-5.64452 740.745ZM69.4339 760.488L59.6917 691.169L79.4971 688.386L87.8475 747.802L127.458 742.235L128.85 752.138L69.4339 760.488ZM140.337 750.523L133.378 701.01L143.281 699.618L141.889 689.716L151.792 688.324L150.4 678.421L180.108 674.246L181.5 684.149L191.403 682.757L192.794 692.66L202.697 691.268L209.656 740.781L189.85 743.565L187.067 723.759L157.359 727.935L160.142 747.74L140.337 750.523ZM155.967 718.032L185.675 713.857L182.892 694.051L172.989 695.443L171.597 685.54L161.695 686.932L163.086 696.835L153.184 698.227L155.967 718.032ZM250.851 734.992L242.501 675.576L222.695 678.359L221.303 668.456L280.72 660.106L282.111 670.009L262.306 672.792L270.656 732.208L250.851 734.992ZM301.949 727.81L292.207 658.492L361.525 648.749L362.917 658.652L313.404 665.611L316.187 685.416L355.798 679.849L357.19 689.752L317.579 695.319L321.754 725.027L301.949 727.81ZM392.657 715.062L391.266 705.159L381.363 706.551L374.404 657.038L384.307 655.646L382.915 645.743L432.429 638.785L433.82 648.687L443.723 647.296L450.682 696.809L440.779 698.201L442.171 708.103L392.657 715.062ZM401.168 703.768L430.876 699.592L423.918 650.079L394.21 654.254L401.168 703.768ZM463.561 705.097L453.818 635.779L513.234 627.428L514.626 637.331L524.529 635.939L528.704 665.647L508.899 668.431L510.29 678.333L520.193 676.942L521.585 686.844L531.488 685.453L532.879 695.355L503.171 699.53L501.78 689.628L491.877 691.019L490.485 681.117L480.582 682.508L483.366 702.314L463.561 705.097ZM479.191 672.606L498.996 669.822L497.604 659.92L507.507 658.528L504.724 638.723L475.016 642.898L479.191 672.606ZM544.366 693.741L534.624 624.422L554.43 621.639L555.821 631.541L565.724 630.149L567.116 640.052L577.018 638.66L575.627 628.758L585.529 627.366L584.138 617.463L603.943 614.68L613.685 683.999L593.88 686.782L588.313 647.171L578.41 648.563L581.194 668.368L571.291 669.76L568.508 649.955L558.605 651.347L564.172 690.957L544.366 693.741Z"/>
<path d="M684.786 674.006L675.044 604.687L734.46 596.337L735.852 606.24L745.755 604.848L749.93 634.556L740.027 635.948L741.419 645.85L701.808 651.417L704.592 671.223L684.786 674.006ZM700.417 641.515L730.125 637.339L725.949 607.631L696.241 611.806L700.417 641.515ZM775.495 661.258L765.753 591.939L785.558 589.156L793.909 648.572L833.519 643.005L834.911 652.907L775.495 661.258ZM846.398 651.293L839.44 601.78L849.342 600.388L847.95 590.485L857.853 589.093L856.461 579.191L886.169 575.016L887.561 584.918L897.464 583.526L898.856 593.429L908.758 592.037L915.717 641.551L895.912 644.334L893.128 624.529L863.42 628.704L866.204 648.51L846.398 651.293ZM862.028 618.801L891.736 614.626L888.953 594.821L879.05 596.213L877.659 586.31L867.756 587.702L869.148 597.604L859.245 598.996L862.028 618.801ZM956.912 635.761L948.562 576.345L928.756 579.129L927.365 569.226L986.781 560.876L988.172 570.778L968.367 573.562L976.717 632.978L956.912 635.761ZM1008.01 628.58L998.268 559.261L1067.59 549.519L1068.98 559.422L1019.46 566.38L1022.25 586.186L1061.86 580.619L1063.25 590.521L1023.64 596.088L1027.82 625.796L1008.01 628.58ZM1098.72 615.832L1097.33 605.929L1087.42 607.321L1080.47 557.807L1090.37 556.416L1088.98 546.513L1138.49 539.554L1139.88 549.457L1149.78 548.065L1156.74 597.579L1146.84 598.97L1148.23 608.873L1098.72 615.832ZM1107.23 604.537L1136.94 600.362L1129.98 550.849L1100.27 555.024L1107.23 604.537ZM1169.62 605.867L1159.88 536.548L1219.3 528.198L1220.69 538.1L1230.59 536.709L1234.77 566.417L1214.96 569.2L1216.35 579.103L1226.25 577.711L1227.65 587.614L1237.55 586.222L1238.94 596.125L1209.23 600.3L1207.84 590.397L1197.94 591.789L1196.55 581.886L1186.64 583.278L1189.43 603.083L1169.62 605.867ZM1185.25 573.375L1205.06 570.592L1203.67 560.689L1213.57 559.297L1210.78 539.492L1181.08 543.667L1185.25 573.375ZM1250.43 594.51L1240.69 525.192L1260.49 522.408L1261.88 532.311L1271.79 530.919L1273.18 540.822L1283.08 539.43L1281.69 529.527L1291.59 528.136L1290.2 518.233L1310 515.449L1319.75 584.768L1299.94 587.552L1294.37 547.941L1284.47 549.333L1287.25 569.138L1277.35 570.53L1274.57 550.724L1264.67 552.116L1270.23 591.727L1250.43 594.51Z"/>
<path d="M1390.85 574.776L1381.11 505.457L1440.52 497.106L1441.91 507.009L1451.82 505.617L1455.99 535.325L1446.09 536.717L1447.48 546.62L1407.87 552.187L1410.65 571.992L1390.85 574.776ZM1406.48 542.284L1436.19 538.109L1432.01 508.401L1402.3 512.576L1406.48 542.284ZM1481.56 562.027L1471.81 492.709L1491.62 489.925L1499.97 549.341L1539.58 543.774L1540.97 553.677L1481.56 562.027ZM1552.46 552.063L1545.5 502.549L1555.4 501.157L1554.01 491.255L1563.91 489.863L1562.52 479.96L1592.23 475.785L1593.62 485.688L1603.53 484.296L1604.92 494.199L1614.82 492.807L1621.78 542.32L1601.97 545.104L1599.19 525.299L1569.48 529.474L1572.26 549.279L1552.46 552.063ZM1568.09 519.571L1597.8 515.396L1595.01 495.591L1585.11 496.982L1583.72 487.08L1573.82 488.471L1575.21 498.374L1565.31 499.766L1568.09 519.571ZM1662.97 536.531L1654.62 477.115L1634.82 479.898L1633.43 469.996L1692.84 461.645L1694.23 471.548L1674.43 474.331L1682.78 533.747L1662.97 536.531ZM1714.07 529.349L1704.33 460.031L1773.65 450.289L1775.04 460.191L1725.53 467.15L1728.31 486.955L1767.92 481.388L1769.31 491.291L1729.7 496.858L1733.88 526.566L1714.07 529.349ZM1804.78 516.601L1803.39 506.699L1793.49 508.09L1786.53 458.577L1796.43 457.185L1795.04 447.282L1844.55 440.324L1845.94 450.227L1855.85 448.835L1862.8 498.348L1852.9 499.74L1854.29 509.643L1804.78 516.601ZM1813.29 505.307L1843 501.132L1836.04 451.618L1806.33 455.793L1813.29 505.307ZM1875.68 506.636L1865.94 437.318L1925.36 428.967L1926.75 438.87L1936.65 437.478L1940.83 467.186L1921.02 469.97L1922.41 479.872L1932.32 478.481L1933.71 488.383L1943.61 486.992L1945 496.894L1915.29 501.07L1913.9 491.167L1904 492.559L1902.61 482.656L1892.7 484.048L1895.49 503.853L1875.68 506.636ZM1891.31 474.145L1911.12 471.362L1909.73 461.459L1919.63 460.067L1916.85 440.262L1887.14 444.437L1891.31 474.145ZM1956.49 495.28L1946.75 425.961L1966.55 423.178L1967.94 433.08L1977.85 431.689L1979.24 441.591L1989.14 440.2L1987.75 430.297L1997.65 428.905L1996.26 419.003L2016.07 416.219L2025.81 485.538L2006 488.321L2000.44 448.711L1990.53 450.102L1993.32 469.908L1983.41 471.299L1980.63 451.494L1970.73 452.886L1976.29 492.496L1956.49 495.28Z"/>
</mask>
<path d="M1338.66 203.425L1328.92 134.106L1388.33 125.756L1389.72 135.659L1399.63 134.267L1403.8 163.975L1393.9 165.367L1395.29 175.269L1355.68 180.836L1358.46 200.642L1338.66 203.425ZM1354.29 170.934L1384 166.758L1379.82 137.05L1350.11 141.226L1354.29 170.934Z" fill="#453262"/>
<path d="M1429.37 190.677L1419.62 121.358L1439.43 118.575L1447.78 177.991L1487.39 172.424L1488.78 182.326L1429.37 190.677Z" fill="#453262"/>
<path d="M1500.27 180.712L1493.31 131.199L1503.21 129.807L1501.82 119.904L1511.72 118.512L1510.33 108.61L1540.04 104.435L1541.43 114.337L1551.34 112.946L1552.73 122.848L1562.63 121.457L1569.59 170.97L1549.78 173.753L1547 153.948L1517.29 158.123L1520.07 177.929L1500.27 180.712ZM1515.9 148.221L1545.61 144.045L1542.82 124.24L1532.92 125.632L1531.53 115.729L1521.63 117.121L1523.02 127.023L1513.12 128.415L1515.9 148.221Z" fill="#453262"/>
<path d="M1610.78 165.18L1602.43 105.764L1582.63 108.548L1581.24 98.645L1640.65 90.2946L1642.04 100.197L1622.24 102.981L1630.59 162.397L1610.78 165.18Z" fill="#453262"/>
<path d="M1661.88 157.999L1652.14 88.6802L1721.46 78.9381L1722.85 88.8408L1673.34 95.7994L1676.12 115.605L1715.73 110.038L1717.12 119.941L1677.51 125.507L1681.69 155.216L1661.88 157.999Z" fill="#453262"/>
<path d="M1752.59 145.251L1751.2 135.348L1741.3 136.74L1734.34 87.2264L1744.24 85.8347L1742.85 75.932L1792.36 68.9733L1793.75 78.876L1803.66 77.4843L1810.61 126.998L1800.71 128.389L1802.1 138.292L1752.59 145.251ZM1761.1 133.956L1790.81 129.781L1783.85 80.2677L1754.14 84.4429L1761.1 133.956Z" fill="#453262"/>
<path d="M1823.49 135.286L1813.75 65.9672L1873.17 57.6168L1874.56 67.5195L1884.46 66.1277L1888.64 95.8358L1868.83 98.6192L1870.22 108.522L1880.13 107.13L1881.52 117.033L1891.42 115.641L1892.81 125.544L1863.1 129.719L1861.71 119.816L1851.81 121.208L1850.42 111.305L1840.51 112.697L1843.3 132.502L1823.49 135.286ZM1839.12 102.794L1858.93 100.011L1857.54 90.1083L1867.44 88.7166L1864.66 68.9112L1834.95 73.0864L1839.12 102.794Z" fill="#453262"/>
<path d="M1904.3 123.929L1894.56 54.6107L1914.36 51.8272L1915.75 61.7299L1925.66 60.3381L1927.05 70.2408L1936.95 68.8491L1935.56 58.9464L1945.46 57.5547L1944.07 47.652L1963.88 44.8685L1973.62 114.187L1953.81 116.971L1948.25 77.36L1938.34 78.7518L1941.13 98.5571L1931.22 99.9489L1928.44 80.1435L1918.54 81.5352L1924.1 121.146L1904.3 123.929Z" fill="#453262"/>
<path d="M649.993 426.439L640.251 357.12L699.667 348.77L701.059 358.673L710.962 357.281L715.137 386.989L705.234 388.381L706.626 398.283L667.015 403.85L669.799 423.656L649.993 426.439ZM665.623 393.948L695.331 389.772L691.156 360.064L661.448 364.239L665.623 393.948Z" fill="#453262"/>
<path d="M740.702 413.691L730.96 344.372L750.765 341.589L759.115 401.005L798.726 395.438L800.118 405.34L740.702 413.691Z" fill="#453262"/>
<path d="M811.605 403.726L804.646 354.213L814.549 352.821L813.157 342.918L823.06 341.526L821.668 331.624L851.376 327.449L852.768 337.351L862.671 335.959L864.062 345.862L873.965 344.47L880.924 393.984L861.118 396.767L858.335 376.962L828.627 381.137L831.41 400.943L811.605 403.726ZM827.235 371.234L856.943 367.059L854.16 347.254L844.257 348.646L842.865 338.743L832.963 340.135L834.354 350.037L824.452 351.429L827.235 371.234Z" fill="#453262"/>
<path d="M922.119 388.194L913.768 328.778L893.963 331.562L892.571 321.659L951.987 313.309L953.379 323.211L933.574 325.995L941.924 385.411L922.119 388.194Z" fill="#453262"/>
<path d="M973.217 381.013L963.474 311.694L1032.79 301.952L1034.19 311.855L984.672 318.813L987.455 338.619L1027.07 333.052L1028.46 342.954L988.847 348.521L993.022 378.229L973.217 381.013Z" fill="#453262"/>
<path d="M1063.93 368.265L1062.53 358.362L1052.63 359.754L1045.67 310.24L1055.57 308.849L1054.18 298.946L1103.7 291.987L1105.09 301.89L1114.99 300.498L1121.95 350.012L1112.05 351.403L1113.44 361.306L1063.93 368.265ZM1072.44 356.97L1102.14 352.795L1095.19 303.282L1065.48 307.457L1072.44 356.97Z" fill="#453262"/>
<path d="M1134.83 358.3L1125.09 288.981L1184.5 280.631L1185.89 290.533L1195.8 289.142L1199.97 318.85L1180.17 321.633L1181.56 331.536L1191.46 330.144L1192.85 340.047L1202.76 338.655L1204.15 348.558L1174.44 352.733L1173.05 342.83L1163.14 344.222L1161.75 334.319L1151.85 335.711L1154.63 355.516L1134.83 358.3ZM1150.46 325.808L1170.26 323.025L1168.87 313.122L1178.77 311.73L1175.99 291.925L1146.28 296.1L1150.46 325.808Z" fill="#453262"/>
<path d="M1215.63 346.943L1205.89 277.625L1225.7 274.841L1227.09 284.744L1236.99 283.352L1238.38 293.255L1248.29 291.863L1246.89 281.96L1256.8 280.569L1255.41 270.666L1275.21 267.882L1284.95 337.201L1265.15 339.985L1259.58 300.374L1249.68 301.766L1252.46 321.571L1242.56 322.963L1239.78 303.157L1229.87 304.549L1235.44 344.16L1215.63 346.943Z" fill="#453262"/>
<path d="M-108.258 154.319L-118 85.0002L-58.5839 76.6498L-57.1922 86.5525L-47.2895 85.1607L-43.1143 114.869L-53.017 116.26L-51.6253 126.163L-91.236 131.73L-88.4525 151.535L-108.258 154.319ZM-92.6277 121.827L-62.9197 117.652L-67.0949 87.9442L-96.8029 92.1194L-92.6277 121.827ZM-17.5493 141.571L-27.2915 72.2519L-7.48608 69.4684L0.864304 128.885L40.475 123.318L41.8668 133.22L-17.5493 141.571ZM53.3539 131.606L46.3952 82.0925L56.2979 80.7007L54.9062 70.7981L64.8088 69.4063L63.4171 59.5037L93.1252 55.3285L94.5169 65.2311L104.42 63.8394L105.811 73.7421L115.714 72.3503L122.673 121.864L102.867 124.647L100.084 104.842L70.3758 109.017L73.1592 128.822L53.3539 131.606ZM68.984 99.1144L98.6921 94.9392L95.9086 75.1338L86.0059 76.5255L84.6142 66.6229L74.7115 68.0146L76.1032 77.9173L66.2006 79.309L68.984 99.1144ZM163.868 116.074L155.517 56.6581L135.712 59.4415L134.32 49.5388L193.736 41.1885L195.128 51.0911L175.323 53.8746L183.673 113.291L163.868 116.074ZM214.966 108.893L205.223 39.5741L274.542 29.8319L275.934 39.7346L226.421 46.6933L229.204 66.4986L268.815 60.9317L270.207 70.8344L230.596 76.4013L234.771 106.109L214.966 108.893ZM305.674 96.1446L304.282 86.2419L294.38 87.6336L287.421 38.1202L297.324 36.7285L295.932 26.8258L345.445 19.8671L346.837 29.7698L356.74 28.3781L363.699 77.8915L353.796 79.2832L355.188 89.1859L305.674 96.1446ZM314.185 84.8502L343.893 80.675L336.935 31.1616L307.226 35.3367L314.185 84.8502ZM376.577 86.1798L366.835 16.861L426.251 8.51062L427.643 18.4133L437.546 17.0216L441.721 46.7296L421.916 49.5131L423.307 59.4157L433.21 58.024L434.602 67.9267L444.504 66.535L445.896 76.4377L416.188 80.6129L414.796 70.7102L404.894 72.1019L403.502 62.1992L393.599 63.5909L396.383 83.3963L376.577 86.1798ZM392.208 53.6883L412.013 50.9048L410.621 41.0021L420.524 39.6104L417.74 19.805L388.032 23.9802L392.208 53.6883ZM457.383 74.8232L447.641 5.50449L467.446 2.72102L468.838 12.6237L478.741 11.232L480.133 21.1346L490.035 19.7429L488.644 9.84023L498.546 8.4485L497.155 -1.45418L516.96 -4.23764L526.702 65.0811L506.897 67.8646L501.33 28.2539L491.427 29.6456L494.211 49.451L484.308 50.8427L481.524 31.0373L471.622 32.4291L477.189 72.0398L457.383 74.8232Z" stroke="#453262" stroke-width="2" mask="url(#path-1-outside-1_68_14477)"/>
<path d="M597.803 55.0885L588.061 -14.2303L647.477 -22.5807L648.869 -12.678L658.772 -14.0697L662.947 15.6383L653.044 17.0301L654.436 26.9328L614.825 32.4997L617.609 52.305L597.803 55.0885ZM613.433 22.597L643.141 18.4218L638.966 -11.2862L609.258 -7.11105L613.433 22.597ZM688.512 42.3402L678.77 -26.9785L698.575 -29.762L706.925 29.6541L746.536 24.0872L747.928 33.9899L688.512 42.3402ZM759.415 32.3754L752.456 -17.138L762.359 -18.5297L760.967 -28.4324L770.87 -29.8241L769.478 -39.7268L799.186 -43.902L800.578 -33.9993L810.481 -35.391L811.872 -25.4883L821.775 -26.8801L828.734 22.6333L808.928 25.4168L806.145 5.61143L776.437 9.78662L779.22 29.592L759.415 32.3754ZM775.045 -0.116058L804.753 -4.29124L801.97 -24.0966L792.067 -22.7049L790.675 -32.6076L780.773 -31.2158L782.164 -21.3132L772.262 -19.9214L775.045 -0.116058ZM869.929 16.8437L861.578 -42.5724L841.773 -39.7889L840.381 -49.6916L899.797 -58.042L901.189 -48.1393L881.384 -45.3558L889.734 14.0603L869.929 16.8437ZM921.027 9.6624L911.285 -59.6564L980.603 -69.3985L981.995 -59.4958L932.482 -52.5372L935.265 -32.7318L974.876 -38.2987L976.268 -28.396L936.657 -22.8291L940.832 6.87894L921.027 9.6624ZM1011.74 -3.08586L1010.34 -12.9885L1000.44 -11.5968L993.482 -61.1102L1003.38 -62.502L1001.99 -72.4046L1051.51 -79.3633L1052.9 -69.4606L1062.8 -70.8523L1069.76 -21.3389L1059.86 -19.9472L1061.25 -10.0445L1011.74 -3.08586ZM1020.25 -14.3803L1049.95 -18.5555L1043 -68.0689L1013.29 -63.8937L1020.25 -14.3803ZM1082.64 -13.0507L1072.9 -82.3694L1132.31 -90.7198L1133.7 -80.8171L1143.61 -82.2089L1147.78 -52.5008L1127.98 -49.7173L1129.37 -39.8147L1139.27 -41.2064L1140.66 -31.3037L1150.57 -32.6954L1151.96 -22.7928L1122.25 -18.6176L1120.86 -28.5203L1110.95 -27.1285L1109.56 -37.0312L1099.66 -35.6395L1102.44 -15.8341L1082.64 -13.0507ZM1098.27 -45.5422L1118.07 -48.3256L1116.68 -58.2283L1126.58 -59.62L1123.8 -79.4254L1094.09 -75.2502L1098.27 -45.5422ZM1163.44 -24.4072L1153.7 -93.7259L1173.51 -96.5094L1174.9 -86.6067L1184.8 -87.9985L1186.19 -78.0958L1196.1 -79.4875L1194.7 -89.3902L1204.61 -90.7819L1203.22 -100.685L1223.02 -103.468L1232.76 -34.1493L1212.96 -31.3658L1207.39 -70.9766L1197.49 -69.5848L1200.27 -49.7795L1190.37 -48.3877L1187.59 -68.1931L1177.68 -66.8014L1183.25 -27.1906L1163.44 -24.4072Z" stroke="#453262" stroke-width="2" mask="url(#path-1-outside-1_68_14477)"/>
<path d="M1303.86 -44.1419L1294.12 -113.461L1353.54 -121.811L1354.93 -111.908L1364.83 -113.3L1369.01 -83.5921L1359.11 -82.2004L1360.5 -72.2977L1320.89 -66.7307L1323.67 -46.9254L1303.86 -44.1419ZM1319.49 -76.6334L1349.2 -80.8086L1345.03 -110.517L1315.32 -106.341L1319.49 -76.6334ZM1394.57 -56.8902L1384.83 -126.209L1404.64 -128.992L1412.99 -69.5763L1452.6 -75.1432L1453.99 -65.2406L1394.57 -56.8902ZM1465.48 -66.855L1458.52 -116.368L1468.42 -117.76L1467.03 -127.663L1476.93 -129.055L1475.54 -138.957L1505.25 -143.132L1506.64 -133.23L1516.54 -134.621L1517.93 -124.719L1527.84 -126.111L1534.79 -76.5971L1514.99 -73.8136L1512.21 -93.619L1482.5 -89.4438L1485.28 -69.6384L1465.48 -66.855ZM1481.11 -99.3465L1510.81 -103.522L1508.03 -123.327L1498.13 -121.935L1496.74 -131.838L1486.83 -130.446L1488.23 -120.544L1478.32 -119.152L1481.11 -99.3465ZM1575.99 -82.3867L1567.64 -141.803L1547.83 -139.019L1546.44 -148.922L1605.86 -157.272L1607.25 -147.37L1587.44 -144.586L1595.8 -85.1702L1575.99 -82.3867ZM1627.09 -89.568L1617.35 -158.887L1686.66 -168.629L1688.06 -158.726L1638.54 -151.768L1641.33 -131.962L1680.94 -137.529L1682.33 -127.626L1642.72 -122.06L1646.89 -92.3515L1627.09 -89.568ZM1717.8 -102.316L1716.4 -112.219L1706.5 -110.827L1699.54 -160.341L1709.45 -161.732L1708.05 -171.635L1757.57 -178.594L1758.96 -168.691L1768.86 -170.083L1775.82 -120.569L1765.92 -119.178L1767.31 -109.275L1717.8 -102.316ZM1726.31 -113.611L1756.02 -117.786L1749.06 -167.299L1719.35 -163.124L1726.31 -113.611ZM1788.7 -112.281L1778.96 -181.6L1838.37 -189.95L1839.77 -180.048L1849.67 -181.439L1853.84 -151.731L1834.04 -148.948L1835.43 -139.045L1845.33 -140.437L1846.72 -130.534L1856.63 -131.926L1858.02 -122.023L1828.31 -117.848L1826.92 -127.751L1817.02 -126.359L1815.62 -136.262L1805.72 -134.87L1808.51 -115.065L1788.7 -112.281ZM1804.33 -144.773L1824.14 -147.556L1822.74 -157.459L1832.65 -158.85L1829.86 -178.656L1800.15 -174.481L1804.33 -144.773ZM1869.51 -123.638L1859.76 -192.956L1879.57 -195.74L1880.96 -185.837L1890.86 -187.229L1892.25 -177.326L1902.16 -178.718L1900.77 -188.621L1910.67 -190.012L1909.28 -199.915L1929.08 -202.698L1938.82 -133.38L1919.02 -130.596L1913.45 -170.207L1903.55 -168.815L1906.33 -149.01L1896.43 -147.618L1893.65 -167.424L1883.74 -166.032L1889.31 -126.421L1869.51 -123.638Z" stroke="#453262" stroke-width="2" mask="url(#path-1-outside-1_68_14477)"/>
<path d="M-90.8612 278.102L-100.603 208.784L-41.1873 200.433L-39.7955 210.336L-29.8929 208.944L-25.7177 238.652L-35.6203 240.044L-34.2286 249.947L-73.8393 255.514L-71.0559 275.319L-90.8612 278.102ZM-75.2311 245.611L-45.523 241.436L-49.6982 211.728L-79.4063 215.903L-75.2311 245.611ZM-0.152695 265.354L-9.89481 196.035L9.91055 193.252L18.2609 252.668L57.8717 247.101L59.2634 257.004L-0.152695 265.354ZM70.7505 255.389L63.7918 205.876L73.6945 204.484L72.3028 194.582L82.2055 193.19L80.8137 183.287L110.522 179.112L111.914 189.015L121.816 187.623L123.208 197.526L133.111 196.134L140.069 245.647L120.264 248.431L117.48 228.625L87.7724 232.801L90.5559 252.606L70.7505 255.389ZM86.3807 222.898L116.089 218.723L113.305 198.917L103.403 200.309L102.011 190.406L92.1082 191.798L93.4999 201.701L83.5972 203.092L86.3807 222.898ZM181.264 239.858L172.914 180.442L153.109 183.225L151.717 173.322L211.133 164.972L212.525 174.875L192.719 177.658L201.07 237.074L181.264 239.858ZM232.362 232.676L222.62 163.358L291.939 153.615L293.331 163.518L243.817 170.477L246.601 190.282L286.211 184.715L287.603 194.618L247.992 200.185L252.168 229.893L232.362 232.676ZM323.071 219.928L321.679 210.025L311.776 211.417L304.818 161.904L314.72 160.512L313.329 150.609L362.842 143.651L364.234 153.553L374.137 152.162L381.095 201.675L371.192 203.067L372.584 212.969L323.071 219.928ZM331.582 208.634L361.29 204.458L354.331 154.945L324.623 159.12L331.582 208.634ZM393.974 209.963L384.232 140.645L443.648 132.294L445.04 142.197L454.942 140.805L459.118 170.513L439.312 173.297L440.704 183.199L450.607 181.808L451.998 191.71L461.901 190.318L463.293 200.221L433.585 204.396L432.193 194.494L422.29 195.885L420.899 185.983L410.996 187.374L413.779 207.18L393.974 209.963ZM409.604 177.472L429.41 174.688L428.018 164.786L437.92 163.394L435.137 143.589L405.429 147.764L409.604 177.472ZM474.78 198.607L465.038 129.288L484.843 126.505L486.235 136.407L496.138 135.015L497.529 144.918L507.432 143.526L506.04 133.624L515.943 132.232L514.551 122.329L534.357 119.546L544.099 188.865L524.293 191.648L518.726 152.037L508.824 153.429L511.607 173.234L501.704 174.626L498.921 154.821L489.018 156.213L494.585 195.823L474.78 198.607Z" stroke="#453262" stroke-width="2" mask="url(#path-1-outside-1_68_14477)"/>
<path d="M615.2 178.872L605.458 109.553L664.874 101.203L666.266 111.106L676.168 109.714L680.343 139.422L670.441 140.814L671.833 150.716L632.222 156.283L635.005 176.089L615.2 178.872ZM630.83 146.38L660.538 142.205L656.363 112.497L626.655 116.672L630.83 146.38ZM705.908 166.124L696.166 96.805L715.972 94.0215L724.322 153.438L763.933 147.871L765.325 157.773L705.908 166.124ZM776.812 156.159L769.853 106.646L779.756 105.254L778.364 95.3511L788.267 93.9594L786.875 84.0567L816.583 79.8815L817.975 89.7842L827.877 88.3925L829.269 98.2952L839.172 96.9034L846.13 146.417L826.325 149.2L823.542 129.395L793.833 133.57L796.617 153.375L776.812 156.159ZM792.442 123.667L822.15 119.492L819.366 99.6869L809.464 101.079L808.072 91.1759L798.169 92.5677L799.561 102.47L789.658 103.862L792.442 123.667ZM887.326 140.627L878.975 81.2112L859.17 83.9946L857.778 74.0919L917.194 65.7415L918.586 75.6442L898.781 78.4277L907.131 137.844L887.326 140.627ZM938.423 133.446L928.681 64.1271L998 54.385L999.392 64.2877L949.878 71.2464L952.662 91.0517L992.273 85.4848L993.664 95.3875L954.054 100.954L958.229 130.662L938.423 133.446ZM1029.13 120.698L1027.74 110.795L1017.84 112.187L1010.88 62.6733L1020.78 61.2816L1019.39 51.3789L1068.9 44.4202L1070.29 54.3229L1080.2 52.9312L1087.16 102.445L1077.25 103.836L1078.65 113.739L1029.13 120.698ZM1037.64 109.403L1067.35 105.228L1060.39 55.7146L1030.68 59.8898L1037.64 109.403ZM1100.04 110.733L1090.29 41.4141L1149.71 33.0637L1151.1 42.9664L1161 41.5746L1165.18 71.2827L1145.37 74.0662L1146.77 83.9688L1156.67 82.5771L1158.06 92.4798L1167.96 91.088L1169.35 100.991L1139.65 105.166L1138.25 95.2632L1128.35 96.655L1126.96 86.7523L1117.06 88.144L1119.84 107.949L1100.04 110.733ZM1115.67 78.2414L1135.47 75.4579L1134.08 65.5552L1143.98 64.1635L1141.2 44.3581L1111.49 48.5333L1115.67 78.2414ZM1180.84 99.3763L1171.1 30.0576L1190.9 27.2741L1192.3 37.1768L1202.2 35.785L1203.59 45.6877L1213.49 44.296L1212.1 34.3933L1222 33.0016L1220.61 23.0989L1240.42 20.3154L1250.16 89.6342L1230.35 92.4177L1224.79 52.8069L1214.88 54.1987L1217.67 74.004L1207.77 75.3958L1204.98 55.5904L1195.08 56.9821L1200.65 96.5929L1180.84 99.3763Z" stroke="#453262" stroke-width="2" mask="url(#path-1-outside-1_68_14477)"/>
<path d="M1321.26 79.6416L1311.52 10.3228L1370.93 1.97243L1372.33 11.8751L1382.23 10.4834L1386.4 40.1914L1376.5 41.5831L1377.89 51.4858L1338.28 57.0528L1341.07 76.8581L1321.26 79.6416ZM1336.89 47.1501L1366.6 42.9749L1362.42 13.2668L1332.72 17.442L1336.89 47.1501ZM1411.97 66.8933L1402.23 -2.42545L1422.03 -5.20891L1430.38 54.2072L1469.99 48.6403L1471.39 58.5429L1411.97 66.8933ZM1482.87 56.9285L1475.91 7.41513L1485.82 6.02339L1484.43 -3.87929L1494.33 -5.27103L1492.94 -15.1737L1522.64 -19.3489L1524.04 -9.44621L1533.94 -10.8379L1535.33 -0.935257L1545.23 -2.327L1552.19 47.1864L1532.39 49.9699L1529.6 30.1645L1499.89 34.3397L1502.68 54.1451L1482.87 56.9285ZM1498.5 24.437L1528.21 20.2618L1525.43 0.456467L1515.52 1.84821L1514.13 -8.05447L1504.23 -6.66275L1505.62 3.23993L1495.72 4.63167L1498.5 24.437ZM1593.39 41.3968L1585.04 -18.0193L1565.23 -15.2358L1563.84 -25.1385L1623.26 -33.4889L1624.65 -23.5862L1604.84 -20.8027L1613.19 38.6133L1593.39 41.3968ZM1644.48 34.2155L1634.74 -35.1033L1704.06 -44.8454L1705.45 -34.9427L1655.94 -27.9841L1658.72 -8.17871L1698.33 -13.7456L1699.73 -3.84294L1660.11 1.72398L1664.29 31.432L1644.48 34.2155ZM1735.19 21.4672L1733.8 11.5645L1723.9 12.9563L1716.94 -36.5571L1726.84 -37.9489L1725.45 -47.8515L1774.96 -54.8102L1776.36 -44.9075L1786.26 -46.2993L1793.22 3.21416L1783.31 4.60588L1784.71 14.5086L1735.19 21.4672ZM1743.7 10.1728L1773.41 5.99762L1766.45 -43.5158L1736.75 -39.3406L1743.7 10.1728ZM1806.1 11.5024L1796.35 -57.8163L1855.77 -66.1667L1857.16 -56.2641L1867.06 -57.6558L1871.24 -27.9477L1851.43 -25.1643L1852.83 -15.2616L1862.73 -16.6533L1864.12 -6.75064L1874.02 -8.14236L1875.42 1.76031L1845.71 5.9355L1844.32 -3.96718L1834.41 -2.57544L1833.02 -12.4781L1823.12 -11.0864L1825.9 8.71896L1806.1 11.5024ZM1821.73 -20.9891L1841.53 -23.7725L1840.14 -33.6752L1850.04 -35.067L1847.26 -54.8723L1817.55 -50.6971L1821.73 -20.9891ZM1886.9 0.145905L1877.16 -69.1729L1896.97 -71.9563L1898.36 -62.0536L1908.26 -63.4454L1909.65 -53.5427L1919.55 -54.9344L1918.16 -64.8371L1928.07 -66.2288L1926.67 -76.1315L1946.48 -78.915L1956.22 -9.59622L1936.42 -6.81276L1930.85 -46.4235L1920.95 -45.0317L1923.73 -25.2264L1913.83 -23.8347L1911.04 -43.64L1901.14 -42.2483L1906.71 -2.63756L1886.9 0.145905Z" stroke="#453262" stroke-width="2" mask="url(#path-1-outside-1_68_14477)"/>
<path d="M-73.4646 401.886L-83.2067 332.567L-23.7906 324.217L-22.3989 334.119L-12.4962 332.728L-8.32103 362.436L-18.2237 363.828L-16.832 373.73L-56.4427 379.297L-53.6592 399.102L-73.4646 401.886ZM-57.8344 369.394L-28.1264 365.219L-32.3016 335.511L-62.0096 339.686L-57.8344 369.394ZM17.2439 389.138L7.50183 319.819L27.3072 317.035L35.6576 376.452L75.2683 370.885L76.66 380.787L17.2439 389.138ZM88.1471 379.173L81.1885 329.659L91.0912 328.268L89.6994 318.365L99.6021 316.973L98.2104 307.071L127.918 302.895L129.31 312.798L139.213 311.406L140.605 321.309L150.507 319.917L157.466 369.431L137.661 372.214L134.877 352.409L105.169 356.584L107.952 376.389L88.1471 379.173ZM103.777 346.681L133.485 342.506L130.702 322.701L120.799 324.093L119.407 314.19L109.505 315.582L110.897 325.484L100.994 326.876L103.777 346.681ZM198.661 363.641L190.311 304.225L170.505 307.009L169.114 297.106L228.53 288.755L229.921 298.658L210.116 301.442L218.466 360.858L198.661 363.641ZM249.759 356.46L240.017 287.141L309.336 277.399L310.727 287.302L261.214 294.26L263.997 314.066L303.608 308.499L305 318.401L265.389 323.968L269.564 353.676L249.759 356.46ZM340.467 343.712L339.076 333.809L329.173 335.201L322.214 285.687L332.117 284.296L330.725 274.393L380.239 267.434L381.63 277.337L391.533 275.945L398.492 325.458L388.589 326.85L389.981 336.753L340.467 343.712ZM348.978 332.417L378.686 328.242L371.728 278.729L342.02 282.904L348.978 332.417ZM411.371 333.747L401.629 264.428L461.045 256.078L462.436 265.98L472.339 264.589L476.514 294.297L456.709 297.08L458.101 306.983L468.003 305.591L469.395 315.494L479.298 314.102L480.689 324.005L450.981 328.18L449.59 318.277L439.687 319.669L438.295 309.766L428.393 311.158L431.176 330.963L411.371 333.747ZM427.001 301.255L446.806 298.472L445.414 288.569L455.317 287.177L452.534 267.372L422.826 271.547L427.001 301.255ZM492.177 322.39L482.434 253.072L502.24 250.288L503.631 260.191L513.534 258.799L514.926 268.702L524.829 267.31L523.437 257.407L533.34 256.016L531.948 246.113L551.753 243.329L561.495 312.648L541.69 315.432L536.123 275.821L526.22 277.213L529.004 297.018L519.101 298.41L516.318 278.604L506.415 279.996L511.982 319.607L492.177 322.39Z" stroke="#453262" stroke-width="2" mask="url(#path-1-outside-1_68_14477)"/>
<path d="M632.596 302.656L622.854 233.337L682.271 224.986L683.662 234.889L693.565 233.497L697.74 263.205L687.837 264.597L689.229 274.5L649.618 280.067L652.402 299.872L632.596 302.656ZM648.227 270.164L677.935 265.989L673.76 236.281L644.052 240.456L648.227 270.164ZM723.305 289.907L713.563 220.589L733.368 217.805L741.719 277.221L781.329 271.654L782.721 281.557L723.305 289.907ZM794.208 279.942L787.25 230.429L797.152 229.037L795.761 219.135L805.663 217.743L804.271 207.84L833.98 203.665L835.371 213.568L845.274 212.176L846.666 222.079L856.568 220.687L863.527 270.2L843.722 272.984L840.938 253.178L811.23 257.354L814.014 277.159L794.208 279.942ZM809.838 247.451L839.546 243.276L836.763 223.47L826.86 224.862L825.469 214.959L815.566 216.351L816.958 226.254L807.055 227.646L809.838 247.451ZM904.722 264.411L896.372 204.995L876.566 207.778L875.175 197.875L934.591 189.525L935.983 199.428L916.177 202.211L924.528 261.627L904.722 264.411ZM955.82 257.229L946.078 187.911L1015.4 178.169L1016.79 188.071L967.275 195.03L970.058 214.835L1009.67 209.268L1011.06 219.171L971.45 224.738L975.625 254.446L955.82 257.229ZM1046.53 244.481L1045.14 234.578L1035.23 235.97L1028.28 186.457L1038.18 185.065L1036.79 175.162L1086.3 168.204L1087.69 178.106L1097.59 176.715L1104.55 226.228L1094.65 227.62L1096.04 237.522L1046.53 244.481ZM1055.04 233.187L1084.75 229.012L1077.79 179.498L1048.08 183.673L1055.04 233.187ZM1117.43 234.516L1107.69 165.198L1167.11 156.847L1168.5 166.75L1178.4 165.358L1182.58 195.066L1162.77 197.85L1164.16 207.752L1174.06 206.361L1175.46 216.263L1185.36 214.872L1186.75 224.774L1157.04 228.949L1155.65 219.047L1145.75 220.438L1144.36 210.536L1134.45 211.928L1137.24 231.733L1117.43 234.516ZM1133.06 202.025L1152.87 199.241L1151.48 189.339L1161.38 187.947L1158.59 168.142L1128.89 172.317L1133.06 202.025ZM1198.24 223.16L1188.5 153.841L1208.3 151.058L1209.69 160.96L1219.6 159.569L1220.99 169.471L1230.89 168.079L1229.5 158.177L1239.4 156.785L1238.01 146.882L1257.81 144.099L1267.56 213.418L1247.75 216.201L1242.18 176.59L1232.28 177.982L1235.06 197.788L1225.16 199.179L1222.38 179.374L1212.48 180.766L1218.04 220.376L1198.24 223.16Z" stroke="#453262" stroke-width="2" mask="url(#path-1-outside-1_68_14477)"/>
<path d="M1338.66 203.425L1328.92 134.106L1388.33 125.756L1389.72 135.659L1399.63 134.267L1403.8 163.975L1393.9 165.367L1395.29 175.269L1355.68 180.836L1358.46 200.642L1338.66 203.425ZM1354.29 170.934L1384 166.758L1379.82 137.05L1350.11 141.226L1354.29 170.934Z" stroke="#453262" stroke-width="2" mask="url(#path-1-outside-1_68_14477)"/>
<path d="M1429.37 190.677L1419.62 121.358L1439.43 118.575L1447.78 177.991L1487.39 172.424L1488.78 182.326L1429.37 190.677Z" stroke="#453262" stroke-width="2" mask="url(#path-1-outside-1_68_14477)"/>
<path d="M1500.27 180.712L1493.31 131.199L1503.21 129.807L1501.82 119.904L1511.72 118.512L1510.33 108.61L1540.04 104.435L1541.43 114.337L1551.34 112.946L1552.73 122.848L1562.63 121.457L1569.59 170.97L1549.78 173.753L1547 153.948L1517.29 158.123L1520.07 177.929L1500.27 180.712ZM1515.9 148.221L1545.61 144.045L1542.82 124.24L1532.92 125.632L1531.53 115.729L1521.63 117.121L1523.02 127.023L1513.12 128.415L1515.9 148.221Z" stroke="#453262" stroke-width="2" mask="url(#path-1-outside-1_68_14477)"/>
<path d="M1610.78 165.18L1602.43 105.764L1582.63 108.548L1581.24 98.645L1640.65 90.2946L1642.04 100.197L1622.24 102.981L1630.59 162.397L1610.78 165.18Z" stroke="#453262" stroke-width="2" mask="url(#path-1-outside-1_68_14477)"/>
<path d="M1661.88 157.999L1652.14 88.6802L1721.46 78.9381L1722.85 88.8408L1673.34 95.7994L1676.12 115.605L1715.73 110.038L1717.12 119.941L1677.51 125.507L1681.69 155.216L1661.88 157.999Z" stroke="#453262" stroke-width="2" mask="url(#path-1-outside-1_68_14477)"/>
<path d="M1752.59 145.251L1751.2 135.348L1741.3 136.74L1734.34 87.2264L1744.24 85.8347L1742.85 75.932L1792.36 68.9733L1793.75 78.876L1803.66 77.4843L1810.61 126.998L1800.71 128.389L1802.1 138.292L1752.59 145.251ZM1761.1 133.956L1790.81 129.781L1783.85 80.2677L1754.14 84.4429L1761.1 133.956Z" stroke="#453262" stroke-width="2" mask="url(#path-1-outside-1_68_14477)"/>
<path d="M1823.49 135.286L1813.75 65.9672L1873.17 57.6168L1874.56 67.5195L1884.46 66.1277L1888.64 95.8358L1868.83 98.6192L1870.22 108.522L1880.13 107.13L1881.52 117.033L1891.42 115.641L1892.81 125.544L1863.1 129.719L1861.71 119.816L1851.81 121.208L1850.42 111.305L1840.51 112.697L1843.3 132.502L1823.49 135.286ZM1839.12 102.794L1858.93 100.011L1857.54 90.1083L1867.44 88.7166L1864.66 68.9112L1834.95 73.0864L1839.12 102.794Z" stroke="#453262" stroke-width="2" mask="url(#path-1-outside-1_68_14477)"/>
<path d="M1904.3 123.929L1894.56 54.6107L1914.36 51.8272L1915.75 61.7299L1925.66 60.3381L1927.05 70.2408L1936.95 68.8491L1935.56 58.9464L1945.46 57.5547L1944.07 47.652L1963.88 44.8685L1973.62 114.187L1953.81 116.971L1948.25 77.36L1938.34 78.7518L1941.13 98.5571L1931.22 99.9489L1928.44 80.1435L1918.54 81.5352L1924.1 121.146L1904.3 123.929Z" stroke="#453262" stroke-width="2" mask="url(#path-1-outside-1_68_14477)"/>
<path d="M-56.068 525.669L-65.8101 456.351L-6.394 448L-5.00227 457.903L4.90041 456.511L9.07561 486.219L-0.827072 487.611L0.564659 497.514L-39.0461 503.081L-36.2626 522.886L-56.068 525.669ZM-40.4378 493.178L-10.7298 489.003L-14.905 459.295L-44.613 463.47L-40.4378 493.178ZM34.6406 512.921L24.8985 443.602L44.7038 440.819L53.0542 500.235L92.6649 494.668L94.0567 504.571L34.6406 512.921ZM105.544 502.956L98.5851 453.443L108.488 452.051L107.096 442.149L116.999 440.757L115.607 430.854L145.315 426.679L146.707 436.582L156.609 435.19L158.001 445.093L167.904 443.701L174.863 493.214L155.057 495.998L152.274 476.192L122.566 480.368L125.349 500.173L105.544 502.956ZM121.174 470.465L150.882 466.29L148.099 446.484L138.196 447.876L136.804 437.973L126.901 439.365L128.293 449.268L118.39 450.66L121.174 470.465ZM216.058 487.425L207.707 428.009L187.902 430.792L186.51 420.889L245.926 412.539L247.318 422.442L227.513 425.225L235.863 484.641L216.058 487.425ZM267.156 480.243L257.413 410.925L326.732 401.182L328.124 411.085L278.611 418.044L281.394 437.849L321.005 432.282L322.396 442.185L282.786 447.752L286.961 477.46L267.156 480.243ZM357.864 467.495L356.472 457.592L346.57 458.984L339.611 409.471L349.514 408.079L348.122 398.176L397.635 391.218L399.027 401.12L408.93 399.729L415.888 449.242L405.986 450.634L407.378 460.536L357.864 467.495ZM366.375 456.201L396.083 452.025L389.124 402.512L359.416 406.687L366.375 456.201ZM428.767 457.53L419.025 388.212L478.441 379.861L479.833 389.764L489.736 388.372L493.911 418.08L474.105 420.864L475.497 430.766L485.4 429.375L486.792 439.277L496.694 437.885L498.086 447.788L468.378 451.963L466.986 442.061L457.084 443.452L455.692 433.55L445.789 434.941L448.573 454.747L428.767 457.53ZM444.397 425.039L464.203 422.255L462.811 412.353L472.714 410.961L469.93 391.156L440.222 395.331L444.397 425.039ZM509.573 446.174L499.831 376.855L519.636 374.072L521.028 383.974L530.931 382.582L532.323 392.485L542.225 391.093L540.833 381.191L550.736 379.799L549.344 369.896L569.15 367.113L578.892 436.432L559.087 439.215L553.52 399.604L543.617 400.996L546.4 420.801L536.498 422.193L533.714 402.388L523.812 403.78L529.379 443.39L509.573 446.174Z" stroke="#453262" stroke-width="2" mask="url(#path-1-outside-1_68_14477)"/>
<path d="M649.993 426.439L640.251 357.12L699.667 348.77L701.059 358.673L710.962 357.281L715.137 386.989L705.234 388.381L706.626 398.283L667.015 403.85L669.799 423.656L649.993 426.439ZM665.623 393.948L695.331 389.772L691.156 360.064L661.448 364.239L665.623 393.948Z" stroke="#453262" stroke-width="2" mask="url(#path-1-outside-1_68_14477)"/>
<path d="M740.702 413.691L730.96 344.372L750.765 341.589L759.115 401.005L798.726 395.438L800.118 405.34L740.702 413.691Z" stroke="#453262" stroke-width="2" mask="url(#path-1-outside-1_68_14477)"/>
<path d="M811.605 403.726L804.646 354.213L814.549 352.821L813.157 342.918L823.06 341.526L821.668 331.624L851.376 327.449L852.768 337.351L862.671 335.959L864.062 345.862L873.965 344.47L880.924 393.984L861.118 396.767L858.335 376.962L828.627 381.137L831.41 400.943L811.605 403.726ZM827.235 371.234L856.943 367.059L854.16 347.254L844.257 348.646L842.865 338.743L832.963 340.135L834.354 350.037L824.452 351.429L827.235 371.234Z" stroke="#453262" stroke-width="2" mask="url(#path-1-outside-1_68_14477)"/>
<path d="M922.119 388.194L913.768 328.778L893.963 331.562L892.571 321.659L951.987 313.309L953.379 323.211L933.574 325.995L941.924 385.411L922.119 388.194Z" stroke="#453262" stroke-width="2" mask="url(#path-1-outside-1_68_14477)"/>
<path d="M973.217 381.013L963.474 311.694L1032.79 301.952L1034.19 311.855L984.672 318.813L987.455 338.619L1027.07 333.052L1028.46 342.954L988.847 348.521L993.022 378.229L973.217 381.013Z" stroke="#453262" stroke-width="2" mask="url(#path-1-outside-1_68_14477)"/>
<path d="M1063.93 368.265L1062.53 358.362L1052.63 359.754L1045.67 310.24L1055.57 308.849L1054.18 298.946L1103.7 291.987L1105.09 301.89L1114.99 300.498L1121.95 350.012L1112.05 351.403L1113.44 361.306L1063.93 368.265ZM1072.44 356.97L1102.14 352.795L1095.19 303.282L1065.48 307.457L1072.44 356.97Z" stroke="#453262" stroke-width="2" mask="url(#path-1-outside-1_68_14477)"/>
<path d="M1134.83 358.3L1125.09 288.981L1184.5 280.631L1185.89 290.533L1195.8 289.142L1199.97 318.85L1180.17 321.633L1181.56 331.536L1191.46 330.144L1192.85 340.047L1202.76 338.655L1204.15 348.558L1174.44 352.733L1173.05 342.83L1163.14 344.222L1161.75 334.319L1151.85 335.711L1154.63 355.516L1134.83 358.3ZM1150.46 325.808L1170.26 323.025L1168.87 313.122L1178.77 311.73L1175.99 291.925L1146.28 296.1L1150.46 325.808Z" stroke="#453262" stroke-width="2" mask="url(#path-1-outside-1_68_14477)"/>
<path d="M1215.63 346.943L1205.89 277.625L1225.7 274.841L1227.09 284.744L1236.99 283.352L1238.38 293.255L1248.29 291.863L1246.89 281.96L1256.8 280.569L1255.41 270.666L1275.21 267.882L1284.95 337.201L1265.15 339.985L1259.58 300.374L1249.68 301.766L1252.46 321.571L1242.56 322.963L1239.78 303.157L1229.87 304.549L1235.44 344.16L1215.63 346.943Z" stroke="#453262" stroke-width="2" mask="url(#path-1-outside-1_68_14477)"/>
<path d="M1356.05 327.209L1346.31 257.89L1405.73 249.539L1407.12 259.442L1417.02 258.05L1421.2 287.758L1411.3 289.15L1412.69 299.053L1373.08 304.62L1375.86 324.425L1356.05 327.209ZM1371.68 294.717L1401.39 290.542L1397.22 260.834L1367.51 265.009L1371.68 294.717ZM1446.76 314.46L1437.02 245.142L1456.83 242.358L1465.18 301.774L1504.79 296.207L1506.18 306.11L1446.76 314.46ZM1517.67 304.496L1510.71 254.982L1520.61 253.59L1519.22 243.688L1529.12 242.296L1527.73 232.393L1557.44 228.218L1558.83 238.121L1568.73 236.729L1570.12 246.632L1580.03 245.24L1586.98 294.753L1567.18 297.537L1564.4 277.732L1534.69 281.907L1537.47 301.712L1517.67 304.496ZM1533.3 272.004L1563 267.829L1560.22 248.023L1550.32 249.415L1548.93 239.513L1539.02 240.904L1540.42 250.807L1530.51 252.199L1533.3 272.004ZM1628.18 288.964L1619.83 229.548L1600.02 232.331L1598.63 222.429L1658.05 214.078L1659.44 223.981L1639.63 226.764L1647.99 286.18L1628.18 288.964ZM1679.28 281.783L1669.54 212.464L1738.85 202.722L1740.25 212.624L1690.73 219.583L1693.52 239.388L1733.13 233.821L1734.52 243.724L1694.91 249.291L1699.08 278.999L1679.28 281.783ZM1769.99 269.034L1768.59 259.132L1758.69 260.523L1751.73 211.01L1761.64 209.618L1760.24 199.715L1809.76 192.757L1811.15 202.659L1821.05 201.268L1828.01 250.781L1818.11 252.173L1819.5 262.076L1769.99 269.034ZM1778.5 257.74L1808.21 253.565L1801.25 204.051L1771.54 208.226L1778.5 257.74ZM1840.89 259.069L1831.15 189.751L1890.56 181.4L1891.96 191.303L1901.86 189.911L1906.03 219.619L1886.23 222.403L1887.62 232.305L1897.52 230.914L1898.91 240.816L1908.82 239.425L1910.21 249.327L1880.5 253.503L1879.11 243.6L1869.21 244.992L1867.81 235.089L1857.91 236.481L1860.69 256.286L1840.89 259.069ZM1856.52 226.578L1876.33 223.794L1874.93 213.892L1884.84 212.5L1882.05 192.695L1852.34 196.87L1856.52 226.578ZM1921.7 247.713L1911.95 178.394L1931.76 175.611L1933.15 185.513L1943.05 184.122L1944.44 194.024L1954.35 192.633L1952.96 182.73L1962.86 181.338L1961.47 171.435L1981.27 168.652L1991.01 237.971L1971.21 240.754L1965.64 201.144L1955.74 202.535L1958.52 222.341L1948.62 223.732L1945.84 203.927L1935.93 205.319L1941.5 244.929L1921.7 247.713Z" stroke="#453262" stroke-width="2" mask="url(#path-1-outside-1_68_14477)"/>
<path d="M-38.6713 649.453L-48.4134 580.134L11.0026 571.784L12.3944 581.686L22.2971 580.295L26.4722 610.003L16.5696 611.395L17.9613 621.297L-21.6494 626.864L-18.866 646.669L-38.6713 649.453ZM-23.0412 616.961L6.66688 612.786L2.49168 583.078L-27.2164 587.253L-23.0412 616.961ZM52.0372 636.705L42.2951 567.386L62.1005 564.602L70.4509 624.019L110.062 618.452L111.453 628.354L52.0372 636.705ZM122.94 626.74L115.982 577.227L125.884 575.835L124.493 565.932L134.395 564.54L133.004 554.638L162.712 550.462L164.103 560.365L174.006 558.973L175.398 568.876L185.301 567.484L192.259 616.998L172.454 619.781L169.67 599.976L139.962 604.151L142.746 623.956L122.94 626.74ZM138.571 594.248L168.279 590.073L165.495 570.268L155.592 571.66L154.201 561.757L144.298 563.149L145.69 573.051L135.787 574.443L138.571 594.248ZM233.454 611.208L225.104 551.792L205.299 554.576L203.907 544.673L263.323 536.323L264.715 546.225L244.909 549.009L253.26 608.425L233.454 611.208ZM284.552 604.027L274.81 534.708L344.129 524.966L345.521 534.869L296.007 541.827L298.791 561.633L338.401 556.066L339.793 565.968L300.182 571.535L304.358 601.243L284.552 604.027ZM375.261 591.279L373.869 581.376L363.966 582.768L357.008 533.254L366.91 531.862L365.519 521.96L415.032 515.001L416.424 524.904L426.326 523.512L433.285 573.026L423.382 574.417L424.774 584.32L375.261 591.279ZM383.772 579.984L413.48 575.809L406.521 526.296L376.813 530.471L383.772 579.984ZM446.164 581.314L436.422 511.995L495.838 503.645L497.23 513.547L507.132 512.156L511.307 541.864L491.502 544.647L492.894 554.55L502.797 553.158L504.188 563.061L514.091 561.669L515.483 571.572L485.775 575.747L484.383 565.844L474.48 567.236L473.089 557.333L463.186 558.725L465.969 578.53L446.164 581.314ZM461.794 548.822L481.599 546.039L480.208 536.136L490.11 534.744L487.327 514.939L457.619 519.114L461.794 548.822ZM526.97 569.957L517.228 500.638L537.033 497.855L538.425 507.758L548.327 506.366L549.719 516.269L559.622 514.877L558.23 504.974L568.133 503.583L566.741 493.68L586.546 490.896L596.289 560.215L576.483 562.999L570.916 523.388L561.014 524.78L563.797 544.585L553.894 545.977L551.111 526.171L541.208 527.563L546.775 567.174L526.97 569.957Z" stroke="#453262" stroke-width="2" mask="url(#path-1-outside-1_68_14477)"/>
<path d="M667.39 550.223L657.648 480.904L717.064 472.553L718.456 482.456L728.358 481.064L732.533 510.772L722.631 512.164L724.022 522.067L684.412 527.634L687.195 547.439L667.39 550.223ZM683.02 517.731L712.728 513.556L708.553 483.848L678.845 488.023L683.02 517.731ZM758.098 537.474L748.356 468.156L768.162 465.372L776.512 524.788L816.123 519.221L817.514 529.124L758.098 537.474ZM829.002 527.509L822.043 477.996L831.946 476.604L830.554 466.702L840.456 465.31L839.065 455.407L868.773 451.232L870.165 461.135L880.067 459.743L881.459 469.646L891.362 468.254L898.32 517.767L878.515 520.551L875.731 500.745L846.023 504.921L848.807 524.726L829.002 527.509ZM844.632 495.018L874.34 490.843L871.556 471.037L861.654 472.429L860.262 462.526L850.359 463.918L851.751 473.821L841.848 475.213L844.632 495.018ZM939.516 511.978L931.165 452.562L911.36 455.345L909.968 445.442L969.384 437.092L970.776 446.995L950.97 449.778L959.321 509.194L939.516 511.978ZM990.613 504.796L980.871 435.478L1050.19 425.736L1051.58 435.638L1002.07 442.597L1004.85 462.402L1044.46 456.835L1045.85 466.738L1006.24 472.305L1010.42 502.013L990.613 504.796ZM1081.32 492.048L1079.93 482.146L1070.03 483.537L1063.07 434.024L1072.97 432.632L1071.58 422.729L1121.09 415.771L1122.48 425.673L1132.39 424.282L1139.35 473.795L1129.44 475.187L1130.84 485.09L1081.32 492.048ZM1089.83 480.754L1119.54 476.579L1112.58 427.065L1082.87 431.24L1089.83 480.754ZM1152.22 482.083L1142.48 412.765L1201.9 404.414L1203.29 414.317L1213.19 412.925L1217.37 442.633L1197.56 445.417L1198.95 455.319L1208.86 453.928L1210.25 463.83L1220.15 462.439L1221.54 472.341L1191.84 476.516L1190.44 466.614L1180.54 468.005L1179.15 458.103L1169.25 459.495L1172.03 479.3L1152.22 482.083ZM1167.86 449.592L1187.66 446.808L1186.27 436.906L1196.17 435.514L1193.39 415.709L1163.68 419.884L1167.86 449.592ZM1233.03 470.727L1223.29 401.408L1243.09 398.625L1244.49 408.527L1254.39 407.136L1255.78 417.038L1265.68 415.646L1264.29 405.744L1274.19 404.352L1272.8 394.449L1292.61 391.666L1302.35 460.985L1282.54 463.768L1276.98 424.157L1267.07 425.549L1269.86 445.355L1259.96 446.746L1257.17 426.941L1247.27 428.333L1252.84 467.943L1233.03 470.727Z" stroke="#453262" stroke-width="2" mask="url(#path-1-outside-1_68_14477)"/>
<path d="M1373.45 450.992L1363.71 381.673L1423.12 373.323L1424.52 383.226L1434.42 381.834L1438.59 411.542L1428.69 412.934L1430.08 422.836L1390.47 428.403L1393.26 448.209L1373.45 450.992ZM1389.08 418.501L1418.79 414.325L1414.61 384.617L1384.91 388.793L1389.08 418.501ZM1464.16 438.244L1454.42 368.925L1474.22 366.142L1482.57 425.558L1522.18 419.991L1523.58 429.893L1464.16 438.244ZM1535.06 428.279L1528.1 378.766L1538.01 377.374L1536.61 367.471L1546.52 366.08L1545.13 356.177L1574.83 352.002L1576.23 361.904L1586.13 360.513L1587.52 370.415L1597.42 369.023L1604.38 418.537L1584.58 421.32L1581.79 401.515L1552.08 405.69L1554.87 425.496L1535.06 428.279ZM1550.69 395.788L1580.4 391.612L1577.62 371.807L1567.71 373.199L1566.32 363.296L1556.42 364.688L1557.81 374.59L1547.91 375.982L1550.69 395.788ZM1645.58 412.747L1637.23 353.331L1617.42 356.115L1616.03 346.212L1675.45 337.862L1676.84 347.764L1657.03 350.548L1665.38 409.964L1645.58 412.747ZM1696.67 405.566L1686.93 336.247L1756.25 326.505L1757.64 336.408L1708.13 343.366L1710.91 363.172L1750.52 357.605L1751.92 367.508L1712.3 373.075L1716.48 402.783L1696.67 405.566ZM1787.38 392.818L1785.99 382.915L1776.09 384.307L1769.13 334.793L1779.03 333.402L1777.64 323.499L1827.15 316.54L1828.55 326.443L1838.45 325.051L1845.41 374.565L1835.5 375.956L1836.9 385.859L1787.38 392.818ZM1795.89 381.523L1825.6 377.348L1818.64 327.835L1788.94 332.01L1795.89 381.523ZM1858.29 382.853L1848.54 313.534L1907.96 305.184L1909.35 315.086L1919.25 313.695L1923.43 343.403L1903.62 346.186L1905.02 356.089L1914.92 354.697L1916.31 364.6L1926.21 363.208L1927.6 373.111L1897.9 377.286L1896.51 367.383L1886.6 368.775L1885.21 358.872L1875.31 360.264L1878.09 380.069L1858.29 382.853ZM1873.92 350.361L1893.72 347.578L1892.33 337.675L1902.23 336.284L1899.45 316.478L1869.74 320.653L1873.92 350.361ZM1939.09 371.496L1929.35 302.178L1949.16 299.394L1950.55 309.297L1960.45 307.905L1961.84 317.808L1971.74 316.416L1970.35 306.513L1980.26 305.122L1978.86 295.219L1998.67 292.436L2008.41 361.754L1988.61 364.538L1983.04 324.927L1973.14 326.319L1975.92 346.124L1966.02 347.516L1963.23 327.711L1953.33 329.102L1958.9 368.713L1939.09 371.496Z" stroke="#453262" stroke-width="2" mask="url(#path-1-outside-1_68_14477)"/>
<path d="M-21.2747 773.236L-31.0168 703.918L28.3993 695.567L29.791 705.47L39.6937 704.078L43.8689 733.786L33.9662 735.178L35.3579 745.081L-4.25279 750.648L-1.46933 770.453L-21.2747 773.236ZM-5.64452 740.745L24.0635 736.57L19.8883 706.862L-9.81972 711.037L-5.64452 740.745ZM69.4339 760.488L59.6917 691.169L79.4971 688.386L87.8475 747.802L127.458 742.235L128.85 752.138L69.4339 760.488ZM140.337 750.523L133.378 701.01L143.281 699.618L141.889 689.716L151.792 688.324L150.4 678.421L180.108 674.246L181.5 684.149L191.403 682.757L192.794 692.66L202.697 691.268L209.656 740.781L189.85 743.565L187.067 723.759L157.359 727.935L160.142 747.74L140.337 750.523ZM155.967 718.032L185.675 713.857L182.892 694.051L172.989 695.443L171.597 685.54L161.695 686.932L163.086 696.835L153.184 698.227L155.967 718.032ZM250.851 734.992L242.501 675.576L222.695 678.359L221.303 668.456L280.72 660.106L282.111 670.009L262.306 672.792L270.656 732.208L250.851 734.992ZM301.949 727.81L292.207 658.492L361.525 648.749L362.917 658.652L313.404 665.611L316.187 685.416L355.798 679.849L357.19 689.752L317.579 695.319L321.754 725.027L301.949 727.81ZM392.657 715.062L391.266 705.159L381.363 706.551L374.404 657.038L384.307 655.646L382.915 645.743L432.429 638.785L433.82 648.687L443.723 647.296L450.682 696.809L440.779 698.201L442.171 708.103L392.657 715.062ZM401.168 703.768L430.876 699.592L423.918 650.079L394.21 654.254L401.168 703.768ZM463.561 705.097L453.818 635.779L513.234 627.428L514.626 637.331L524.529 635.939L528.704 665.647L508.899 668.431L510.29 678.333L520.193 676.942L521.585 686.844L531.488 685.453L532.879 695.355L503.171 699.53L501.78 689.628L491.877 691.019L490.485 681.117L480.582 682.508L483.366 702.314L463.561 705.097ZM479.191 672.606L498.996 669.822L497.604 659.92L507.507 658.528L504.724 638.723L475.016 642.898L479.191 672.606ZM544.366 693.741L534.624 624.422L554.43 621.639L555.821 631.541L565.724 630.149L567.116 640.052L577.018 638.66L575.627 628.758L585.529 627.366L584.138 617.463L603.943 614.68L613.685 683.999L593.88 686.782L588.313 647.171L578.41 648.563L581.194 668.368L571.291 669.76L568.508 649.955L558.605 651.347L564.172 690.957L544.366 693.741Z" stroke="#453262" stroke-width="2" mask="url(#path-1-outside-1_68_14477)"/>
<path d="M684.786 674.006L675.044 604.687L734.46 596.337L735.852 606.24L745.755 604.848L749.93 634.556L740.027 635.948L741.419 645.85L701.808 651.417L704.592 671.223L684.786 674.006ZM700.417 641.515L730.125 637.339L725.949 607.631L696.241 611.806L700.417 641.515ZM775.495 661.258L765.753 591.939L785.558 589.156L793.909 648.572L833.519 643.005L834.911 652.907L775.495 661.258ZM846.398 651.293L839.44 601.78L849.342 600.388L847.95 590.485L857.853 589.093L856.461 579.191L886.169 575.016L887.561 584.918L897.464 583.526L898.856 593.429L908.758 592.037L915.717 641.551L895.912 644.334L893.128 624.529L863.42 628.704L866.204 648.51L846.398 651.293ZM862.028 618.801L891.736 614.626L888.953 594.821L879.05 596.213L877.659 586.31L867.756 587.702L869.148 597.604L859.245 598.996L862.028 618.801ZM956.912 635.761L948.562 576.345L928.756 579.129L927.365 569.226L986.781 560.876L988.172 570.778L968.367 573.562L976.717 632.978L956.912 635.761ZM1008.01 628.58L998.268 559.261L1067.59 549.519L1068.98 559.422L1019.46 566.38L1022.25 586.186L1061.86 580.619L1063.25 590.521L1023.64 596.088L1027.82 625.796L1008.01 628.58ZM1098.72 615.832L1097.33 605.929L1087.42 607.321L1080.47 557.807L1090.37 556.416L1088.98 546.513L1138.49 539.554L1139.88 549.457L1149.78 548.065L1156.74 597.579L1146.84 598.97L1148.23 608.873L1098.72 615.832ZM1107.23 604.537L1136.94 600.362L1129.98 550.849L1100.27 555.024L1107.23 604.537ZM1169.62 605.867L1159.88 536.548L1219.3 528.198L1220.69 538.1L1230.59 536.709L1234.77 566.417L1214.96 569.2L1216.35 579.103L1226.25 577.711L1227.65 587.614L1237.55 586.222L1238.94 596.125L1209.23 600.3L1207.84 590.397L1197.94 591.789L1196.55 581.886L1186.64 583.278L1189.43 603.083L1169.62 605.867ZM1185.25 573.375L1205.06 570.592L1203.67 560.689L1213.57 559.297L1210.78 539.492L1181.08 543.667L1185.25 573.375ZM1250.43 594.51L1240.69 525.192L1260.49 522.408L1261.88 532.311L1271.79 530.919L1273.18 540.822L1283.08 539.43L1281.69 529.527L1291.59 528.136L1290.2 518.233L1310 515.449L1319.75 584.768L1299.94 587.552L1294.37 547.941L1284.47 549.333L1287.25 569.138L1277.35 570.53L1274.57 550.724L1264.67 552.116L1270.23 591.727L1250.43 594.51Z" stroke="#453262" stroke-width="2" mask="url(#path-1-outside-1_68_14477)"/>
<path d="M1390.85 574.776L1381.11 505.457L1440.52 497.106L1441.91 507.009L1451.82 505.617L1455.99 535.325L1446.09 536.717L1447.48 546.62L1407.87 552.187L1410.65 571.992L1390.85 574.776ZM1406.48 542.284L1436.19 538.109L1432.01 508.401L1402.3 512.576L1406.48 542.284ZM1481.56 562.027L1471.81 492.709L1491.62 489.925L1499.97 549.341L1539.58 543.774L1540.97 553.677L1481.56 562.027ZM1552.46 552.063L1545.5 502.549L1555.4 501.157L1554.01 491.255L1563.91 489.863L1562.52 479.96L1592.23 475.785L1593.62 485.688L1603.53 484.296L1604.92 494.199L1614.82 492.807L1621.78 542.32L1601.97 545.104L1599.19 525.299L1569.48 529.474L1572.26 549.279L1552.46 552.063ZM1568.09 519.571L1597.8 515.396L1595.01 495.591L1585.11 496.982L1583.72 487.08L1573.82 488.471L1575.21 498.374L1565.31 499.766L1568.09 519.571ZM1662.97 536.531L1654.62 477.115L1634.82 479.898L1633.43 469.996L1692.84 461.645L1694.23 471.548L1674.43 474.331L1682.78 533.747L1662.97 536.531ZM1714.07 529.349L1704.33 460.031L1773.65 450.289L1775.04 460.191L1725.53 467.15L1728.31 486.955L1767.92 481.388L1769.31 491.291L1729.7 496.858L1733.88 526.566L1714.07 529.349ZM1804.78 516.601L1803.39 506.699L1793.49 508.09L1786.53 458.577L1796.43 457.185L1795.04 447.282L1844.55 440.324L1845.94 450.227L1855.85 448.835L1862.8 498.348L1852.9 499.74L1854.29 509.643L1804.78 516.601ZM1813.29 505.307L1843 501.132L1836.04 451.618L1806.33 455.793L1813.29 505.307ZM1875.68 506.636L1865.94 437.318L1925.36 428.967L1926.75 438.87L1936.65 437.478L1940.83 467.186L1921.02 469.97L1922.41 479.872L1932.32 478.481L1933.71 488.383L1943.61 486.992L1945 496.894L1915.29 501.07L1913.9 491.167L1904 492.559L1902.61 482.656L1892.7 484.048L1895.49 503.853L1875.68 506.636ZM1891.31 474.145L1911.12 471.362L1909.73 461.459L1919.63 460.067L1916.85 440.262L1887.14 444.437L1891.31 474.145ZM1956.49 495.28L1946.75 425.961L1966.55 423.178L1967.94 433.08L1977.85 431.689L1979.24 441.591L1989.14 440.2L1987.75 430.297L1997.65 428.905L1996.26 419.003L2016.07 416.219L2025.81 485.538L2006 488.321L2000.44 448.711L1990.53 450.102L1993.32 469.908L1983.41 471.299L1980.63 451.494L1970.73 452.886L1976.29 492.496L1956.49 495.28Z" stroke="#453262" stroke-width="2" mask="url(#path-1-outside-1_68_14477)"/>
</svg>
