<svg width="180" height="200" viewBox="0 0 180 200" fill="none" xmlns="http://www.w3.org/2000/svg">
<path d="M160 230V220H170V210H180V150H170V140H150V130H140V120H150V100H160V30H150V20H130V10H120V0H60V10H50V20H30V30H20V100H30V120H40V130H30V140H10V150H0V210H10V220H20V230H30V290H80V250H100V290H150V230H160Z" fill="#EBDDFF"/>
<path d="M60 140H70V150H80V160H90V240H40V170H30V190H10V150H30V140H50V130H60V140Z" fill="#7A38E4"/>
<path d="M120 140H110V150H100V160H90V240H140V170H150V190H170V150H150V140H130V130H120V140Z" fill="#7A38E4"/>
<path d="M80 150H70V140H110V150H100V160H80V150Z" fill="black"/>
<path d="M40 240H140V170H150V220H160V230H150V290H100V250H80V290H30V230H20V220H30V170H40V240ZM20 220H10V210H20V220ZM170 220H160V210H170V220ZM10 210H0V150H10V210ZM180 210H170V150H180V210ZM30 150H10V140H30V150ZM170 150H150V140H170V150ZM60 130H50V140H30V130H40V120H60V130ZM70 140H60V130H70V140ZM120 140H110V130H120V140ZM140 130H150V140H130V130H120V120H140V130ZM40 120H30V100H40V120ZM150 120H140V100H150V120ZM110 110H70V100H110V110ZM120 10H135V20H150V30H160V40H170V90H160V100H150V80H140V50H40V80H30V100H20V90H10V40H20V30H30V20H45V10H60V0H120V10ZM70 90H60V70H70V90ZM120 90H110V70H120V90Z" fill="black"/>
</svg>
